<?xml version="1.0" encoding="utf-8"?>
<svg width="145px" height="28px" viewBox="0 0 145 28" version="1.1" xmlns:xlink="http://www.w3.org/1999/xlink" xmlns="http://www.w3.org/2000/svg">
  <defs>
    <path d="M145 0L145 0L145 28L0 28L0 0L145 0Z" id="path_1" />
    <clipPath id="clip_1">
      <use xlink:href="#path_1" clip-rule="evenodd" fill-rule="evenodd" />
    </clipPath>
  </defs>
  <g id="Çerçeve 4">
    <path d="M145 0L145 0L145 28L0 28L0 0L145 0Z" id="Çerçeve-4" fill="none" stroke="none" />
    <path d="M0.5 22.5C0.5 21.3954 0.890524 20.4526 1.67157 19.6716C2.45262 18.8905 3.39543 18.5 4.5 18.5L140.5 18.5C141.605 18.5 142.547 18.8905 143.328 19.6716C144.109 20.4526 144.5 21.3954 144.5 22.5C144.5 23.6046 144.109 24.5474 143.328 25.3284C142.547 26.1095 141.605 26.5 140.5 26.5L4.5 26.5C3.39543 26.5 2.45262 26.1095 1.67157 25.3284C0.890524 24.5474 0.5 23.6046 0.5 22.5L0.5 22.5Z" id="Çizgi" fill="#FECB51" fill-rule="evenodd" stroke="#000000" stroke-width="1" clip-path="url(#clip_1)" />
    <path d="M0.5 22.5C0.5 21.3954 0.890524 20.4526 1.67157 19.6716C2.45262 18.8905 3.39543 18.5 4.5 18.5L140.5 18.5C141.605 18.5 142.547 18.8905 143.328 19.6716C144.109 20.4526 144.5 21.3954 144.5 22.5C144.5 23.6046 144.109 24.5474 143.328 25.3284C142.547 26.1095 141.605 26.5 140.5 26.5L4.5 26.5C3.39543 26.5 2.45262 26.1095 1.67157 25.3284C0.890524 24.5474 0.5 23.6046 0.5 22.5L0.5 22.5Z" id="Çizgi" fill="#FECB51" fill-rule="evenodd" stroke="#000000" stroke-width="1" clip-path="url(#clip_1)" />
    <path d="M89.5 18.5L140.5 18.5C142.709 18.5 144.5 20.2909 144.5 22.5C144.5 24.7091 142.709 26.5 140.5 26.5L89.5 26.5L89.5 18.5L89.5 18.5Z" id="Şekil" fill="#FFFFFF" stroke="#000000" stroke-width="1" clip-path="url(#clip_1)" />
    <path d="M89.5 18.5L140.5 18.5C142.709 18.5 144.5 20.2909 144.5 22.5C144.5 24.7091 142.709 26.5 140.5 26.5L89.5 26.5L89.5 18.5L89.5 18.5Z" id="Şekil" fill="#FFFFFF" stroke="#000000" stroke-width="1" clip-path="url(#clip_1)" />
    <path d="M9.74359 25.9988C9.02228 26.8737 8.04821 27.5042 6.95473 27.8041C5.86124 28.104 4.70179 28.0586 3.6351 27.6742C2.56841 27.2897 1.6466 26.585 0.995887 25.6564C0.34517 24.7279 -0.00265971 23.6209 1.53061e-05 22.487C0.00269033 21.3532 0.355739 20.2478 1.01083 19.3224C1.66592 18.3969 2.59104 17.6965 3.65953 17.3171C4.72803 16.9377 5.88768 16.8977 6.97974 17.2028C8.07179 17.5079 9.04288 18.143 9.76005 19.0212L5.5 22.5L9.74359 25.9988L9.74359 25.9988Z" id="Şekil" fill="#9694FF" stroke="#000000" stroke-width="2" clip-path="url(#clip_1)" />
    <path d="M9.74359 25.9988C9.02228 26.8737 8.04821 27.5042 6.95473 27.8041C5.86124 28.104 4.70179 28.0586 3.6351 27.6742C2.56841 27.2897 1.6466 26.585 0.995887 25.6564C0.34517 24.7279 -0.00265971 23.6209 1.53061e-05 22.487C0.00269033 21.3532 0.355739 20.2478 1.01083 19.3224C1.66592 18.3969 2.59104 17.6965 3.65953 17.3171C4.72803 16.9377 5.88768 16.8977 6.97974 17.2028C8.07179 17.5079 9.04288 18.143 9.76005 19.0212L5.5 22.5L9.74359 25.9988L9.74359 25.9988Z" id="Şekil" fill="#9694FF" stroke="#000000" stroke-width="2" clip-path="url(#clip_1)" />
    <path d="M134.5 22.5C134.5 19.7386 136.739 17.5 139.5 17.5C142.261 17.5 144.5 19.7386 144.5 22.5C144.5 25.2614 142.261 27.5 139.5 27.5C136.739 27.5 134.5 25.2614 134.5 22.5Z" id="Daire" fill="#EEF2F8" fill-rule="evenodd" stroke="#000000" stroke-width="1" clip-path="url(#clip_1)" />
    <path d="M134.5 22.5C134.5 19.7386 136.739 17.5 139.5 17.5C142.261 17.5 144.5 19.7386 144.5 22.5C144.5 25.2614 142.261 27.5 139.5 27.5C136.739 27.5 134.5 25.2614 134.5 22.5Z" id="Daire" fill="#EEF2F8" fill-rule="evenodd" stroke="#000000" stroke-width="1" clip-path="url(#clip_1)" />
    <path d="M89.5139 4.47564C87.8299 4.47564 86.4609 5.87051 86.4609 7.58704C86.4609 9.30153 87.8299 10.6964 89.5139 10.6964C91.1979 10.6964 92.5669 9.30153 92.5669 7.58704C92.5669 5.87051 91.1979 4.47564 89.5139 4.47564L89.5139 4.47564ZM89.5139 11.5327C87.3779 11.5327 85.6409 9.76207 85.6409 7.58704C85.6409 5.40998 87.3779 3.64036 89.5139 3.64036C91.6499 3.64036 93.3869 5.40998 93.3869 7.58704C93.3869 9.76207 91.6499 11.5327 89.5139 11.5327L89.5139 11.5327ZM89.5139 0.836312C85.9329 0.836312 83.0199 3.80477 83.0199 7.45329C83.0199 8.79099 83.4099 10.0797 84.1489 11.1815C84.1989 11.2764 84.219 11.3142 84.243 11.352L89.1479 18.9636C89.3129 19.2199 89.716 19.2188 89.881 18.9636L94.9969 11.0211C95.0179 10.9885 95.0349 10.9548 95.0499 10.9211C95.6849 9.84582 96.0079 8.66232 96.0079 7.45329C96.0079 3.80477 93.0949 0.836312 89.5139 0.836312L89.5139 0.836312ZM89.5139 20C89.0889 20 88.6959 19.7846 88.4619 19.4221L83.558 11.8105C83.513 11.741 83.4739 11.6696 83.4399 11.5971C82.6389 10.4125 82.2 8.96049 82.2 7.45329C82.2 3.34424 85.4809 0 89.5139 0C93.5469 0 96.8279 3.34424 96.8279 7.45329C96.8279 8.81549 96.4639 10.1481 95.7749 11.3081C95.7659 11.3357 95.729 11.4082 95.683 11.4807L90.5659 19.4221C90.3329 19.7846 89.9399 20 89.5139 20L89.5139 20Z" id="Şekil" fill="#000000" fill-rule="evenodd" stroke="none" clip-path="url(#clip_1)" />
    <path d="M89.5139 4.47564C87.8299 4.47564 86.4609 5.87051 86.4609 7.58704C86.4609 9.30153 87.8299 10.6964 89.5139 10.6964C91.1979 10.6964 92.5669 9.30153 92.5669 7.58704C92.5669 5.87051 91.1979 4.47564 89.5139 4.47564L89.5139 4.47564ZM89.5139 11.5327C87.3779 11.5327 85.6409 9.76207 85.6409 7.58704C85.6409 5.40998 87.3779 3.64036 89.5139 3.64036C91.6499 3.64036 93.3869 5.40998 93.3869 7.58704C93.3869 9.76207 91.6499 11.5327 89.5139 11.5327L89.5139 11.5327ZM89.5139 0.836312C85.9329 0.836312 83.0199 3.80477 83.0199 7.45329C83.0199 8.79099 83.4099 10.0797 84.1489 11.1815C84.1989 11.2764 84.219 11.3142 84.243 11.352L89.1479 18.9636C89.3129 19.2199 89.716 19.2188 89.881 18.9636L94.9969 11.0211C95.0179 10.9885 95.0349 10.9548 95.0499 10.9211C95.6849 9.84582 96.0079 8.66232 96.0079 7.45329C96.0079 3.80477 93.0949 0.836312 89.5139 0.836312L89.5139 0.836312ZM89.5139 20C89.0889 20 88.6959 19.7846 88.4619 19.4221L83.558 11.8105C83.513 11.741 83.4739 11.6696 83.4399 11.5971C82.6389 10.4125 82.2 8.96049 82.2 7.45329C82.2 3.34424 85.4809 0 89.5139 0C93.5469 0 96.8279 3.34424 96.8279 7.45329C96.8279 8.81549 96.4639 10.1481 95.7749 11.3081C95.7659 11.3357 95.729 11.4082 95.683 11.4807L90.5659 19.4221C90.3329 19.7846 89.9399 20 89.5139 20L89.5139 20Z" id="Şekil" fill="#000000" fill-rule="evenodd" stroke="none" clip-path="url(#clip_1)" />
    <path d="M89.5139 11.115C87.6009 11.115 86.0509 9.53631 86.0509 7.58695C86.0509 5.63862 87.6009 4.05791 89.5139 4.05791C91.4269 4.05791 92.9769 5.63862 92.9769 7.58695C92.9769 9.53631 91.4269 11.115 89.5139 11.115L89.5139 11.115ZM89.5139 0.418579C85.7009 0.418579 82.6099 3.56778 82.6099 7.4532C82.6099 8.92466 83.0529 10.2889 83.8099 11.4183C83.8359 11.4724 83.8659 11.5275 83.9009 11.5817L88.8049 19.1932C89.1399 19.713 89.8889 19.713 90.2229 19.1932L95.3399 11.2518C95.3739 11.1998 95.4009 11.1456 95.4239 11.0915C96.0549 10.0295 96.4179 8.78477 96.4179 7.4532C96.4179 3.56778 93.3269 0.418579 89.5139 0.418579L89.5139 0.418579Z" id="Şekil" fill="#FF4200" fill-rule="evenodd" stroke="none" clip-path="url(#clip_1)" />
    <path d="M89.5139 11.115C87.6009 11.115 86.0509 9.53631 86.0509 7.58695C86.0509 5.63862 87.6009 4.05791 89.5139 4.05791C91.4269 4.05791 92.9769 5.63862 92.9769 7.58695C92.9769 9.53631 91.4269 11.115 89.5139 11.115L89.5139 11.115ZM89.5139 0.418579C85.7009 0.418579 82.6099 3.56778 82.6099 7.4532C82.6099 8.92466 83.0529 10.2889 83.8099 11.4183C83.8359 11.4724 83.8659 11.5275 83.9009 11.5817L88.8049 19.1932C89.1399 19.713 89.8889 19.713 90.2229 19.1932L95.3399 11.2518C95.3739 11.1998 95.4009 11.1456 95.4239 11.0915C96.0549 10.0295 96.4179 8.78477 96.4179 7.4532C96.4179 3.56778 93.3269 0.418579 89.5139 0.418579L89.5139 0.418579Z" id="Şekil" fill="#FF4200" fill-rule="evenodd" stroke="none" clip-path="url(#clip_1)" />
  </g>
</svg>