<?xml version="1.0" encoding="utf-8"?>
<svg width="64px" height="98px" viewBox="0 0 64 98" version="1.1" xmlns:xlink="http://www.w3.org/1999/xlink" xmlns="http://www.w3.org/2000/svg">
  <defs>
    <path d="M64 0L64 0L64 98L0 98L0 0L64 0Z" id="path_1" />
    <clipPath id="clip_1">
      <use xlink:href="#path_1" clip-rule="evenodd" fill-rule="evenodd" />
    </clipPath>
  </defs>
  <g id="Çerçeve 2">
    <path d="M64 0L64 0L64 98L0 98L0 0L64 0Z" id="Çerçeve-2" fill="none" stroke="none" />
    <path d="M38.0423 96.7961L38.0404 96.7964C34.729 97.3756 25.0627 97.8611 20.7607 97.7655C20.321 97.7559 19.8771 97.7511 19.2434 97.7473C19.1353 97.7466 19.049 97.746 18.8541 97.745C14.6437 97.7223 12.8586 97.573 10.8975 96.8421C8.23845 95.8516 6.52488 93.8779 5.78403 90.6143C4.99091 87.1179 4.42421 83.3512 3.913 78.5851C3.72217 76.8074 3.62307 75.776 3.27734 72.0714C3.20678 71.3137 3.15675 70.7799 3.10608 70.2499C2.65516 65.5064 2.24817 60.2692 1.66479 52.0382C1.71996 52.818 1.11445 44.2158 0.952493 41.9766C0.727352 38.8585 0.534283 36.3095 0.346987 34.0131C-0.118368 28.2282 -0.187322 22.4428 0.588162 20.1233C1.53202 17.2274 4.07015 15.1372 7.08421 14.763C14.746 13.6169 24.3748 12.7502 29.4825 12.8562C29.9395 12.8658 30.3436 12.8699 31.2207 12.8757C33.8073 12.8929 35.0122 12.9237 36.5353 13.0481C41.3594 13.4423 44.7282 14.6762 46.665 17.3287C47.7208 18.7775 48.3452 20.8698 48.7355 23.6901C48.8333 24.3963 48.9148 25.1342 48.994 25.99C49.0242 26.3182 49.053 26.6483 49.0886 27.0759C49.0822 26.9972 49.1544 27.8675 49.1733 28.0891C49.197 28.3664 49.2179 28.5973 49.2384 28.8116C49.2538 28.9821 49.2538 28.9821 49.2695 29.1522C49.9138 36.1745 49.9327 36.377 50.1989 39.0002C50.3805 40.7871 50.5594 42.44 50.7438 44.0191C52.4205 58.1647 53.4256 70.0967 53.8012 81.6699C53.9724 86.8928 53.1912 90.4445 50.4754 92.77C49.1868 93.8674 47.0883 94.7476 44.3357 95.4883C43.2023 95.7934 42.0057 96.0618 40.7074 96.3141C40.219 96.4088 39.7386 96.4974 39.1953 96.5936C38.9724 96.633 38.1998 96.7679 38.0423 96.7961L38.0423 96.7961Z" id="Şekil" fill="#1A4E66" stroke="none" clip-path="url(#clip_1)" />
    <path d="M38.0423 96.7961L38.0404 96.7964C34.729 97.3756 25.0627 97.8611 20.7607 97.7655C20.321 97.7559 19.8771 97.7511 19.2434 97.7473C19.1353 97.7466 19.049 97.746 18.8541 97.745C14.6437 97.7223 12.8586 97.573 10.8975 96.8421C8.23845 95.8516 6.52488 93.8779 5.78403 90.6143C4.99091 87.1179 4.42421 83.3512 3.913 78.5851C3.72217 76.8074 3.62307 75.776 3.27734 72.0714C3.20678 71.3137 3.15675 70.7799 3.10608 70.2499C2.65516 65.5064 2.24817 60.2692 1.66479 52.0382C1.71996 52.818 1.11445 44.2158 0.952493 41.9766C0.727352 38.8585 0.534283 36.3095 0.346987 34.0131C-0.118368 28.2282 -0.187322 22.4428 0.588162 20.1233C1.53202 17.2274 4.07015 15.1372 7.08421 14.763C14.746 13.6169 24.3748 12.7502 29.4825 12.8562C29.9395 12.8658 30.3436 12.8699 31.2207 12.8757C33.8073 12.8929 35.0122 12.9237 36.5353 13.0481C41.3594 13.4423 44.7282 14.6762 46.665 17.3287C47.7208 18.7775 48.3452 20.8698 48.7355 23.6901C48.8333 24.3963 48.9148 25.1342 48.994 25.99C49.0242 26.3182 49.053 26.6483 49.0886 27.0759C49.0822 26.9972 49.1544 27.8675 49.1733 28.0891C49.197 28.3664 49.2179 28.5973 49.2384 28.8116C49.2538 28.9821 49.2538 28.9821 49.2695 29.1522C49.9138 36.1745 49.9327 36.377 50.1989 39.0002C50.3805 40.7871 50.5594 42.44 50.7438 44.0191C52.4205 58.1647 53.4256 70.0967 53.8012 81.6699C53.9724 86.8928 53.1912 90.4445 50.4754 92.77C49.1868 93.8674 47.0883 94.7476 44.3357 95.4883C43.2023 95.7934 42.0057 96.0618 40.7074 96.3141C40.219 96.4088 39.7386 96.4974 39.1953 96.5936C38.9724 96.633 38.1998 96.7679 38.0423 96.7961L38.0423 96.7961Z" id="Şekil" fill="#1A4E66" stroke="none" clip-path="url(#clip_1)" />
    <path d="M36.6177 94.1257C32.8153 94.5466 28.9905 94.7324 25.165 94.6822C19.5814 94.5607 14.883 95.3027 13.366 88.6213C12.0158 82.6724 11.5187 74.9676 10.9382 68.8716C9.99529 58.9568 9.2384 45.2039 8.427 35.2379C8.20892 32.5513 7.57711 23.3177 8.61943 20.8966C9.66175 18.4754 12.2178 17.7238 14.0555 17.3784C18.4717 16.5276 23.8533 15.8656 28.9045 15.9711C33.5003 16.0671 41.0179 15.5905 44.0839 19.8091C45.8863 22.2846 46.037 28.3295 46.3289 31.256C46.765 35.8072 47.1723 40.4992 47.7208 45.1176C49.0677 56.4845 50.1261 69.4249 50.5013 80.9389C50.6072 84.1373 50.4051 88.2503 47.6758 90.5851C45.1262 92.7568 38.821 93.857 36.6177 94.1257L36.6177 94.1257Z" id="Şekil" fill="#FFFFFF" stroke="none" clip-path="url(#clip_1)" />
    <path d="M36.6177 94.1257C32.8153 94.5466 28.9905 94.7324 25.165 94.6822C19.5814 94.5607 14.883 95.3027 13.366 88.6213C12.0158 82.6724 11.5187 74.9676 10.9382 68.8716C9.99529 58.9568 9.2384 45.2039 8.427 35.2379C8.20892 32.5513 7.57711 23.3177 8.61943 20.8966C9.66175 18.4754 12.2178 17.7238 14.0555 17.3784C18.4717 16.5276 23.8533 15.8656 28.9045 15.9711C33.5003 16.0671 41.0179 15.5905 44.0839 19.8091C45.8863 22.2846 46.037 28.3295 46.3289 31.256C46.765 35.8072 47.1723 40.4992 47.7208 45.1176C49.0677 56.4845 50.1261 69.4249 50.5013 80.9389C50.6072 84.1373 50.4051 88.2503 47.6758 90.5851C45.1262 92.7568 38.821 93.857 36.6177 94.1257L36.6177 94.1257Z" id="Şekil" fill="#FFFFFF" stroke="none" clip-path="url(#clip_1)" />
    <path d="M6.14935 16.6965C4.5785 17.7441 4.0737 20.4138 4.14522 24.6282C4.16318 25.6977 4.21449 26.7545 4.30846 28.2231C4.32161 28.4313 4.37805 29.2965 4.39184 29.5117C4.42103 29.971 4.44059 30.3117 4.45406 30.6104C4.58042 33.343 4.77189 36.5129 5.06406 40.8857C5.10511 41.5014 5.14873 42.1455 5.19844 42.8782C5.23115 43.3609 5.42646 46.2301 5.48098 47.0361C5.58618 48.5885 5.66668 49.8058 5.73755 50.9185C6.39758 61.3873 7.39532 72.5553 8.73205 84.9287C9.09863 88.3477 9.86449 91.5502 11.0223 93.789C11.1849 94.1028 11.5716 94.2262 11.8866 94.0641C12.2012 93.9023 12.325 93.5165 12.1624 93.2025C11.0915 91.1315 10.3587 88.0682 10.0078 84.7921C8.67272 72.4357 7.67659 61.2863 7.01784 50.8376C6.94664 49.7227 6.86615 48.5041 6.76095 46.95C6.70643 46.1434 6.51111 43.2742 6.4784 42.7919C6.42869 42.0595 6.38508 41.4156 6.34402 40.8006C6.0525 36.4358 5.86167 33.2733 5.73563 30.5518C5.72152 30.2445 5.70164 29.8971 5.67213 29.4312C5.65834 29.2143 5.60189 28.3485 5.58874 28.1419C5.49606 26.6915 5.44538 25.6517 5.42774 24.6068C5.36456 20.8609 5.81901 18.4557 6.86261 17.7598C7.15703 17.5634 7.23592 17.1663 7.03901 16.8726C6.84209 16.579 6.44376 16.5001 6.14935 16.6965L6.14935 16.6965Z" id="Şekil" fill="#0D323F" stroke="none" clip-path="url(#clip_1)" />
    <path d="M6.14935 16.6965C4.5785 17.7441 4.0737 20.4138 4.14522 24.6282C4.16318 25.6977 4.21449 26.7545 4.30846 28.2231C4.32161 28.4313 4.37805 29.2965 4.39184 29.5117C4.42103 29.971 4.44059 30.3117 4.45406 30.6104C4.58042 33.343 4.77189 36.5129 5.06406 40.8857C5.10511 41.5014 5.14873 42.1455 5.19844 42.8782C5.23115 43.3609 5.42646 46.2301 5.48098 47.0361C5.58618 48.5885 5.66668 49.8058 5.73755 50.9185C6.39758 61.3873 7.39532 72.5553 8.73205 84.9287C9.09863 88.3477 9.86449 91.5502 11.0223 93.789C11.1849 94.1028 11.5716 94.2262 11.8866 94.0641C12.2012 93.9023 12.325 93.5165 12.1624 93.2025C11.0915 91.1315 10.3587 88.0682 10.0078 84.7921C8.67272 72.4357 7.67659 61.2863 7.01784 50.8376C6.94664 49.7227 6.86615 48.5041 6.76095 46.95C6.70643 46.1434 6.51111 43.2742 6.4784 42.7919C6.42869 42.0595 6.38508 41.4156 6.34402 40.8006C6.0525 36.4358 5.86167 33.2733 5.73563 30.5518C5.72152 30.2445 5.70164 29.8971 5.67213 29.4312C5.65834 29.2143 5.60189 28.3485 5.58874 28.1419C5.49606 26.6915 5.44538 25.6517 5.42774 24.6068C5.36456 20.8609 5.81901 18.4557 6.86261 17.7598C7.15703 17.5634 7.23592 17.1663 7.03901 16.8726C6.84209 16.579 6.44376 16.5001 6.14935 16.6965L6.14935 16.6965Z" id="Şekil" fill="#0D323F" stroke="none" clip-path="url(#clip_1)" />
    <path d="M3.39661 38.7831C3.27409 36.992 3.18205 35.2154 3.12207 33.4697C3.10989 33.1166 2.81291 32.8403 2.45884 32.8524C2.1051 32.8646 1.82768 33.1608 1.83986 33.5139C1.90048 35.2739 1.99349 37.065 2.11696 38.8701C2.14101 39.2226 2.44697 39.489 2.8004 39.4647C3.15382 39.4407 3.42098 39.1356 3.39661 38.7831L3.39661 38.7831Z" id="Şekil" fill="#0D323F" stroke="none" clip-path="url(#clip_1)" />
    <path d="M3.39661 38.7831C3.27409 36.992 3.18205 35.2154 3.12207 33.4697C3.10989 33.1166 2.81291 32.8403 2.45884 32.8524C2.1051 32.8646 1.82768 33.1608 1.83986 33.5139C1.90048 35.2739 1.99349 37.065 2.11696 38.8701C2.14101 39.2226 2.44697 39.489 2.8004 39.4647C3.15382 39.4407 3.42098 39.1356 3.39661 38.7831L3.39661 38.7831Z" id="Şekil" fill="#0D323F" stroke="none" clip-path="url(#clip_1)" />
    <path d="M4.04665 47.5918C3.88758 45.8801 3.76411 44.0628 3.67014 42.1156C3.65314 41.7629 3.35231 41.4904 2.99857 41.5073C2.64482 41.5243 2.37157 41.8243 2.38857 42.177C2.4835 44.1421 2.60858 45.9779 2.76925 47.7095C2.80165 48.0613 3.11402 48.3201 3.46681 48.2875C3.81959 48.2552 4.07905 47.9436 4.04665 47.5918L4.04665 47.5918Z" id="Şekil" fill="#0D323F" stroke="none" clip-path="url(#clip_1)" />
    <path d="M4.04665 47.5918C3.88758 45.8801 3.76411 44.0628 3.67014 42.1156C3.65314 41.7629 3.35231 41.4904 2.99857 41.5073C2.64482 41.5243 2.37157 41.8243 2.38857 42.177C2.4835 44.1421 2.60858 45.9779 2.76925 47.7095C2.80165 48.0613 3.11402 48.3201 3.46681 48.2875C3.81959 48.2552 4.07905 47.9436 4.04665 47.5918L4.04665 47.5918Z" id="Şekil" fill="#0D323F" stroke="none" clip-path="url(#clip_1)" />
    <path d="M47.7282 8.37234L51.0348 1.3392C51.2227 0.939376 51.0501 0.463272 50.6492 0.275818C50.2484 0.0883633 49.7708 0.26053 49.5829 0.660354L46.2763 7.6935C46.0884 8.09332 46.2609 8.56942 46.6618 8.75688C47.0627 8.94436 47.5403 8.7722 47.7282 8.37234L47.7282 8.37234Z" id="Şekil" fill="#EB004B" stroke="none" clip-path="url(#clip_1)" />
    <path d="M47.7282 8.37234L51.0348 1.3392C51.2227 0.939376 51.0501 0.463272 50.6492 0.275818C50.2484 0.0883633 49.7708 0.26053 49.5829 0.660354L46.2763 7.6935C46.0884 8.09332 46.2609 8.56942 46.6618 8.75688C47.0627 8.94436 47.5403 8.7722 47.7282 8.37234L47.7282 8.37234Z" id="Şekil" fill="#EB004B" stroke="none" clip-path="url(#clip_1)" />
    <path d="M60.7559 5.0031L53.697 10.0405C53.3372 10.2975 53.2541 10.7969 53.5116 11.156C53.7695 11.5151 54.2701 11.5979 54.6303 11.341L61.6892 6.30357C62.0493 6.04662 62.1324 5.54717 61.8745 5.18803C61.617 4.82892 61.116 4.74611 60.7559 5.0031L60.7559 5.0031Z" id="Şekil" fill="#EB004B" stroke="none" clip-path="url(#clip_1)" />
    <path d="M60.7559 5.0031L53.697 10.0405C53.3372 10.2975 53.2541 10.7969 53.5116 11.156C53.7695 11.5151 54.2701 11.5979 54.6303 11.341L61.6892 6.30357C62.0493 6.04662 62.1324 5.54717 61.8745 5.18803C61.617 4.82892 61.116 4.74611 60.7559 5.0031L60.7559 5.0031Z" id="Şekil" fill="#EB004B" stroke="none" clip-path="url(#clip_1)" />
    <path d="M56.7835 19.6781L63.2138 19.5534C63.6564 19.5448 64.0085 19.1798 63.9999 18.7382C63.9912 18.2968 63.6253 17.9459 63.1827 17.9546L56.7524 18.0793C56.3095 18.0876 55.9577 18.4525 55.9663 18.8942C55.9747 19.3356 56.3406 19.6865 56.7835 19.6781L56.7835 19.6781Z" id="Şekil" fill="#EB004B" stroke="none" clip-path="url(#clip_1)" />
    <path d="M56.7835 19.6781L63.2138 19.5534C63.6564 19.5448 64.0085 19.1798 63.9999 18.7382C63.9912 18.2968 63.6253 17.9459 63.1827 17.9546L56.7524 18.0793C56.3095 18.0876 55.9577 18.4525 55.9663 18.8942C55.9747 19.3356 56.3406 19.6865 56.7835 19.6781L56.7835 19.6781Z" id="Şekil" fill="#EB004B" stroke="none" clip-path="url(#clip_1)" />
    <path d="M15.1652 46.8188C15.9318 51.8751 19.1973 55.5219 24.2713 56.154C31.6119 57.0656 37.5978 54.8192 39.6905 48.9436C41.3706 44.2226 40.6236 38.677 37.6209 34.9539C36.0373 32.9987 33.0886 31.4949 29.8902 31.1039C26.1782 30.6498 22.4693 31.6777 19.3672 34.3143C16.0725 37.1118 14.454 42.1287 15.1652 46.8188L15.1652 46.8188Z" id="Şekil" fill="#EB004B" stroke="none" clip-path="url(#clip_1)" />
    <path d="M15.1652 46.8188C15.9318 51.8751 19.1973 55.5219 24.2713 56.154C31.6119 57.0656 37.5978 54.8192 39.6905 48.9436C41.3706 44.2226 40.6236 38.677 37.6209 34.9539C36.0373 32.9987 33.0886 31.4949 29.8902 31.1039C26.1782 30.6498 22.4693 31.6777 19.3672 34.3143C16.0725 37.1118 14.454 42.1287 15.1652 46.8188L15.1652 46.8188Z" id="Şekil" fill="#EB004B" stroke="none" clip-path="url(#clip_1)" />
    <path d="M23.6486 49.3136L23.5885 49.387C23.3663 49.6574 22.9634 49.6993 22.689 49.4803C22.4143 49.2613 22.3721 48.8643 22.5943 48.5939L22.6544 48.5208L22.8243 48.3138C23.0072 48.091 23.2112 47.8427 23.4306 47.5748C24.058 46.8104 24.6854 46.0449 25.2709 45.3296L25.2859 45.3114C25.7675 44.7227 26.1951 44.1997 26.5593 43.7531C25.5382 42.9622 24.4711 42.1319 23.4079 41.3016C22.9669 40.9572 22.5579 40.6373 22.1911 40.3502C22.0629 40.2497 21.949 40.1602 21.8508 40.0833L21.7303 39.9891C21.454 39.7723 21.4086 39.3756 21.6286 39.1033C21.8486 38.8311 22.2509 38.786 22.5272 39.0031L22.6471 39.097C22.745 39.1739 22.8588 39.2628 22.987 39.3633C23.3532 39.6501 23.7615 39.9696 24.2022 40.3137C25.2677 41.1456 26.3367 41.9775 27.3591 42.7697C27.4825 42.6172 27.588 42.4864 27.6741 42.3796C28.3117 41.5836 28.9746 40.805 29.9499 39.692C30.0676 39.5577 30.1875 39.4213 30.3487 39.2376C30.5476 39.0113 30.6531 38.8916 30.7455 38.7863C31.0647 38.423 31.2994 38.1545 31.5271 37.8921C31.7567 37.6277 32.1602 37.5965 32.4289 37.8227C32.6972 38.049 32.7288 38.4467 32.4992 38.7113C32.2696 38.976 32.0333 39.2461 31.7126 39.6113C31.6198 39.7169 31.5143 39.8369 31.3157 40.0629C31.1545 40.2459 31.0353 40.3821 30.9182 40.5157C29.9538 41.616 29.3014 42.3824 28.6775 43.161C28.5918 43.2676 28.4876 43.3971 28.3654 43.548C30.9889 45.5732 32.78 46.9241 33.3153 47.2682C33.6114 47.4582 33.6949 47.8486 33.502 48.1401C33.3092 48.4319 32.9127 48.5142 32.6169 48.3242C32.0339 47.9498 30.2432 46.5986 27.5653 44.5315C27.1988 44.9811 26.7678 45.5086 26.2817 46.1026L26.2664 46.1212C25.6805 46.8368 25.0531 47.6025 24.4254 48.3673C24.2057 48.6352 24.0017 48.8838 23.8185 49.1066L23.6486 49.3136L23.6486 49.3136Z" id="Şekil" fill="#FFFFFF" fill-rule="evenodd" stroke="none" clip-path="url(#clip_1)" />
    <path d="M23.6486 49.3136L23.5885 49.387C23.3663 49.6574 22.9634 49.6993 22.689 49.4803C22.4143 49.2613 22.3721 48.8643 22.5943 48.5939L22.6544 48.5208L22.8243 48.3138C23.0072 48.091 23.2112 47.8427 23.4306 47.5748C24.058 46.8104 24.6854 46.0449 25.2709 45.3296L25.2859 45.3114C25.7675 44.7227 26.1951 44.1997 26.5593 43.7531C25.5382 42.9622 24.4711 42.1319 23.4079 41.3016C22.9669 40.9572 22.5579 40.6373 22.1911 40.3502C22.0629 40.2497 21.949 40.1602 21.8508 40.0833L21.7303 39.9891C21.454 39.7723 21.4086 39.3756 21.6286 39.1033C21.8486 38.8311 22.2509 38.786 22.5272 39.0031L22.6471 39.097C22.745 39.1739 22.8588 39.2628 22.987 39.3633C23.3532 39.6501 23.7615 39.9696 24.2022 40.3137C25.2677 41.1456 26.3367 41.9775 27.3591 42.7697C27.4825 42.6172 27.588 42.4864 27.6741 42.3796C28.3117 41.5836 28.9746 40.805 29.9499 39.692C30.0676 39.5577 30.1875 39.4213 30.3487 39.2376C30.5476 39.0113 30.6531 38.8916 30.7455 38.7863C31.0647 38.423 31.2994 38.1545 31.5271 37.8921C31.7567 37.6277 32.1602 37.5965 32.4289 37.8227C32.6972 38.049 32.7288 38.4467 32.4992 38.7113C32.2696 38.976 32.0333 39.2461 31.7126 39.6113C31.6198 39.7169 31.5143 39.8369 31.3157 40.0629C31.1545 40.2459 31.0353 40.3821 30.9182 40.5157C29.9538 41.616 29.3014 42.3824 28.6775 43.161C28.5918 43.2676 28.4876 43.3971 28.3654 43.548C30.9889 45.5732 32.78 46.9241 33.3153 47.2682C33.6114 47.4582 33.6949 47.8486 33.502 48.1401C33.3092 48.4319 32.9127 48.5142 32.6169 48.3242C32.0339 47.9498 30.2432 46.5986 27.5653 44.5315C27.1988 44.9811 26.7678 45.5086 26.2817 46.1026L26.2664 46.1212C25.6805 46.8368 25.0531 47.6025 24.4254 48.3673C24.2057 48.6352 24.0017 48.8838 23.8185 49.1066L23.6486 49.3136L23.6486 49.3136Z" id="Şekil" fill="#FFFFFF" fill-rule="evenodd" stroke="none" clip-path="url(#clip_1)" />
  </g>
</svg>