<svg width="78" height="86" viewBox="0 0 78 86" fill="none" xmlns="http://www.w3.org/2000/svg">
<g id="Group 43">
<path id="Geolocalization" fill-rule="evenodd" clip-rule="evenodd" d="M39 42.4176C31.2436 42.4176 24.957 36.1533 24.957 28.4259C24.957 20.6985 31.2436 14.4342 39 14.4342C46.7557 14.4342 53.043 20.6985 53.043 28.4259C53.043 36.1533 46.7557 42.4176 39 42.4176ZM39 0C23.5367 0 11 12.4902 11 27.8978C11 33.7291 12.7981 39.1408 15.8696 43.6176C15.9732 43.8368 16.0951 44.054 16.2346 44.2665L36.1241 74.453C37.4828 76.5157 40.5172 76.5157 41.8766 74.453L62.6273 42.9579C62.7634 42.7515 62.8737 42.5397 62.9685 42.3252C65.5269 38.1155 67 33.178 67 27.8978C67 12.4902 54.464 0 39 0Z" fill="#EB004B"/>
<path id="Fill 9" fill-rule="evenodd" clip-rule="evenodd" d="M25.3698 28.6099C25.3698 21.1209 31.4843 15.0282 39 15.0282C46.5157 15.0282 52.6302 21.1209 52.6302 28.6099C52.6302 36.0988 46.5157 42.1915 39 42.1915C31.4843 42.1915 25.3698 36.0988 25.3698 28.6099ZM53.3036 28.6099C53.3036 20.7512 46.8874 14.3573 39 14.3573C31.1126 14.3573 24.6964 20.7512 24.6964 28.6099C24.6964 36.4685 31.1126 42.8625 39 42.8625C46.8874 42.8625 53.3036 36.4685 53.3036 28.6099ZM39 82.8681C18.8937 82.8681 5.38665 79.2806 5.38665 75.93C5.38665 72.9692 15.9445 69.8279 32.2748 69.1361L35.8582 74.5754C36.5551 75.6334 37.7294 76.2655 38.9993 76.2655H39C40.2706 76.2655 41.4449 75.6341 42.1424 74.5754L45.7239 69.1382C62.0535 69.8299 72.6133 72.9699 72.6133 75.93C72.6133 79.2806 59.1063 82.8681 39 82.8681ZM16.6393 44.1822C16.5114 43.987 16.397 43.7837 16.2731 43.5314C13.1427 38.9684 11.4884 33.6278 11.4884 28.0845C11.4884 12.9684 23.8299 0.670932 39 0.670932C54.1701 0.670932 66.5123 12.9684 66.5123 28.0845C66.5123 33.0937 65.1421 37.9962 62.5309 42.2996C62.4346 42.5169 62.3323 42.7068 62.2185 42.8806L41.5795 74.207C41.0072 75.0759 40.043 75.5945 39 75.5945C37.957 75.5945 36.9935 75.0759 36.4212 74.207L16.6393 44.1822ZM73.2867 75.93C73.2867 71.8434 60.4442 69.171 46.1488 68.4941L62.7821 43.2482C62.916 43.0436 63.0352 42.8222 63.1268 42.6089C65.7824 38.2391 67.1856 33.2165 67.1856 28.0845C67.1856 12.5988 54.5412 0 39 0C23.4588 0 10.815 12.5988 10.815 28.0845C10.815 33.7633 12.5098 39.2354 15.6906 43.8635C15.801 44.097 15.9303 44.3284 16.0764 44.5505L31.8512 68.4934C17.5564 69.1697 4.71332 71.8434 4.71332 75.93C4.71332 80.6929 22.1465 83.539 39 83.539C55.8535 83.539 73.2867 80.6929 73.2867 75.93ZM64.0681 65.868C63.887 65.8285 63.7072 65.9439 63.6675 66.1257C63.6284 66.3068 63.7443 66.4846 63.926 66.5235C69.679 67.7567 77.3267 70.0721 77.3267 75.93C77.3267 81.7886 69.679 84.104 63.926 85.3365C63.7443 85.3754 63.6284 85.5538 63.6675 85.735C63.7018 85.8927 63.8412 86 63.9961 86C64.0196 86 64.0439 85.998 64.0681 85.9926C70.048 84.7111 78 82.2743 78 75.93C78 69.587 70.048 67.1495 64.0681 65.868ZM14.0746 85.3365C8.32169 84.104 0.673331 81.7886 0.673331 75.93C0.673331 70.0721 8.32169 67.7567 14.0746 66.5235C14.2558 66.4846 14.3716 66.3068 14.3325 66.1257C14.2935 65.9439 14.1164 65.8285 13.9326 65.868C7.95203 67.1495 0 69.587 0 75.93C0 82.2743 7.95203 84.7111 13.9326 85.9926C13.9568 85.998 13.9804 86 14.0039 86C14.1595 86 14.2988 85.8927 14.3325 85.735C14.3716 85.5538 14.2558 85.3754 14.0746 85.3365Z" fill="black"/>
</g>
</svg>
