<?xml version="1.0" encoding="utf-8"?>
<svg width="84px" height="101.11755px" viewBox="0 0 84 101.11755" version="1.1" xmlns:xlink="http://www.w3.org/1999/xlink" xmlns="http://www.w3.org/2000/svg">
  <defs>
    <path d="M84 0L84 0L84 84L0 84L0 0L84 0Z" id="path_1" />
    <clipPath id="clip_1">
      <use xlink:href="#path_1" clip-rule="evenodd" fill-rule="evenodd" />
    </clipPath>
  </defs>
  <g id="Grup">
    <g id="Group 4">
      <path d="M84 0L84 0L84 84L0 84L0 0L84 0Z" id="Group-4" fill="none" stroke="none" />
      <path d="M0 40L0 20C0 14.4772 1.95262 9.76311 5.85786 5.85786C9.76311 1.95262 14.4772 0 20 0L64 0C69.5229 0 74.2369 1.95262 78.1421 5.85786C82.0474 9.76311 84 14.4772 84 20L84 64C84 69.5229 82.0474 74.2369 78.1421 78.1421C74.2369 82.0474 69.5229 84 64 84L20 84C14.4772 84 9.76311 82.0474 5.85786 78.1421C1.95262 74.2369 0 69.5229 0 64L0 40Z" id="Çizgi" fill="#EB004B" fill-rule="evenodd" stroke="none" clip-path="url(#clip_1)" />
      <path d="M25 31.375L25 29.25C25 28.1228 25.4478 27.0418 26.2448 26.2448C27.0418 25.4478 28.1228 25 29.25 25L33.5 25" id="Şekil" fill="#EB004B" stroke="none" clip-path="url(#clip_1)" />
      <path d="M25 31.375L25 29.25C25 28.1228 25.4478 27.0418 26.2448 26.2448C27.0418 25.4478 28.1228 25 29.25 25L33.5 25" id="Şekil" fill="none" stroke="#FFFFFF" stroke-width="4.25" stroke-linecap="round" stroke-linejoin="round" clip-path="url(#clip_1)" />
      <path d="M25 52.625L25 54.75C25 55.8772 25.4478 56.9582 26.2448 57.7552C27.0418 58.5522 28.1228 59 29.25 59L33.5 59" id="Şekil" fill="#EB004B" stroke="none" clip-path="url(#clip_1)" />
      <path d="M25 52.625L25 54.75C25 55.8772 25.4478 56.9582 26.2448 57.7552C27.0418 58.5522 28.1228 59 29.25 59L33.5 59" id="Şekil" fill="none" stroke="#FFFFFF" stroke-width="4.25" stroke-linecap="round" stroke-linejoin="round" clip-path="url(#clip_1)" />
      <path d="M50.5 25L54.75 25C55.8772 25 56.9582 25.4478 57.7552 26.2448C58.5522 27.0418 59 28.1228 59 29.25L59 31.375" id="Şekil" fill="#EB004B" stroke="none" clip-path="url(#clip_1)" />
      <path d="M50.5 25L54.75 25C55.8772 25 56.9582 25.4478 57.7552 26.2448C58.5522 27.0418 59 28.1228 59 29.25L59 31.375" id="Şekil" fill="none" stroke="#FFFFFF" stroke-width="4.25" stroke-linecap="round" stroke-linejoin="round" clip-path="url(#clip_1)" />
      <path d="M50.5 59L54.75 59C55.8772 59 56.9582 58.5522 57.7552 57.7552C58.5522 56.9582 59 55.8772 59 54.75L59 52.625" id="Şekil" fill="#EB004B" stroke="none" clip-path="url(#clip_1)" />
      <path d="M50.5 59L54.75 59C55.8772 59 56.9582 58.5522 57.7552 57.7552C58.5522 56.9582 59 55.8772 59 54.75L59 52.625" id="Şekil" fill="none" stroke="#FFFFFF" stroke-width="4.25" stroke-linecap="round" stroke-linejoin="round" clip-path="url(#clip_1)" />
      <path d="M27.125 42L56.875 42L27.125 42L27.125 42Z" id="Şekil" fill="#EB004B" stroke="none" clip-path="url(#clip_1)" />
      <g id="Grup" transform="translate(27.125 41)" clip-path="url(#clip_1)">
        <path d="M0 1L29.75 1" id="Çizgi" fill="none" fill-rule="evenodd" stroke="#FFFFFF" stroke-width="4.25" stroke-linecap="round" stroke-linejoin="round" />
      </g>
    </g>
    <path d="M22.4023 99.6251L21.194 101.118L19.9255 100.036C18.9738 100.691 17.8863 101.011 16.6937 101.011C15.1228 101.011 13.7785 100.478 12.6617 99.4117C11.5592 98.3301 11 97.0358 11 95.513C11 93.9902 11.5592 92.696 12.6617 91.6144C13.7793 90.5328 15.1236 90 16.6937 90C18.2638 90 19.593 90.5328 20.6956 91.6144C21.8132 92.696 22.3715 93.9902 22.3715 95.513C22.3715 96.6703 22.009 97.7216 21.299 98.6805L22.4016 99.6251L22.4023 99.6251L22.4023 99.6251ZM17.8863 98.2695L19.9255 100.036L19.2305 96.8988C19.4872 96.4879 19.623 96.0156 19.623 95.513C19.623 94.6752 19.3363 93.9751 18.7622 93.3809C18.188 92.7868 17.4937 92.4977 16.6929 92.4977C15.892 92.4977 15.1678 92.7868 14.5936 93.3809C14.0194 93.9751 13.7327 94.6752 13.7327 95.513C13.7327 96.3509 14.0194 97.0661 14.5936 97.6603C15.167 98.2393 15.862 98.5284 16.6929 98.5284C17.1462 98.5284 17.5388 98.4368 17.8863 98.2695L17.8863 98.2695ZM30.3454 100.874L28.5178 98.3914C28.4728 98.4065 28.3969 98.4065 28.2911 98.4065L26.6752 98.4065L26.6752 100.874L24.0017 100.874L24.0017 90.137L28.8953 90.137C30.3904 90.137 31.493 90.5177 32.1722 91.2791C32.8672 92.0254 33.2139 92.9851 33.2139 94.1423C33.2139 95.9543 32.5339 97.2039 31.1754 97.8737L33.5464 100.874L30.3446 100.874L30.3454 100.874L30.3454 100.874ZM26.6752 92.4212L26.6752 96.2131L28.1853 96.2131C29.6954 96.2131 30.4054 95.4214 30.4054 94.3399C30.4054 93.2583 29.8162 92.4204 28.4419 92.4204L26.6752 92.4204L26.6752 92.4212L26.6752 92.4212ZM41.7983 90.18L37.7189 90.18L37.7189 100.876L38.6912 100.876L38.6912 97.309L41.4444 97.309C44.0753 97.309 45.5238 96.01 45.5238 93.6517C45.5238 92.649 45.2181 91.8167 44.6186 91.1803C44.0073 90.5161 43.058 90.18 41.7983 90.18L41.7983 90.18ZM41.4452 96.3286L38.692 96.3286L38.692 91.1604L41.7991 91.1604C42.7642 91.1604 43.4482 91.389 43.8897 91.8597C44.3264 92.3256 44.5389 92.9118 44.5389 93.6517C44.5389 95.4278 43.4979 96.3286 41.446 96.3286L41.4452 96.3286L41.4452 96.3286ZM50.2294 90.18L46.9565 90.18L46.9565 100.876L50.5548 100.876C51.9275 100.876 53.1193 100.337 54.097 99.2755C55.0732 98.2154 55.5676 96.957 55.5676 95.5345C55.5676 94.1121 55.0416 92.8035 54.0038 91.757C52.966 90.7104 51.696 90.18 50.2294 90.18L50.2294 90.18ZM47.9287 91.1604L50.2294 91.1604C51.4322 91.1604 52.4653 91.5937 53.3041 92.4523C54.1642 93.3061 54.582 94.3144 54.582 95.5345C54.582 96.687 54.1721 97.7176 53.3665 98.5977C52.5538 99.4706 51.625 99.8951 50.5271 99.8951L47.9295 99.8951L47.9295 91.1604L47.9287 91.1604L47.9287 91.1604ZM65.5705 90.18L64.2389 90.18L58.1424 96.7658L58.1424 90.18L57.1701 90.18L57.1701 100.876L58.1424 100.876L58.1424 98.1994L60.1122 96.0658L64.3328 100.875L65.6747 100.875L60.8009 95.3394L65.5713 90.1792L65.5705 90.18L65.5705 90.18ZM72.7774 95.9407C72.035 95.513 71.3937 95.3091 70.3172 95.0383C69.8385 94.9268 69.401 94.805 69.0203 94.6768C68.6499 94.5469 68.3253 94.4083 68.0275 94.2514C67.4328 93.9456 67.1674 93.5577 67.1674 92.9947C67.1674 91.8621 68.2147 91.131 69.8362 91.131C70.3337 91.131 70.8827 91.1939 71.5129 91.3245C72.0737 91.44 72.5657 91.6112 72.9361 91.8183L73.2149 91.9744L73.6841 91.1071L73.4195 90.951C72.9717 90.6865 72.4212 90.4922 71.742 90.3584C71.0627 90.2095 70.4396 90.137 69.8354 90.137C68.7336 90.137 67.8751 90.3871 67.2093 90.9016C66.5261 91.4304 66.1802 92.1345 66.1802 92.9947L66.1802 93.013C66.2426 94.1169 66.7725 94.8265 67.8972 95.3131C68.2653 95.4764 68.6104 95.5927 68.9153 95.6946L68.9287 95.6986C69.2288 95.7854 69.6182 95.8874 70.081 96.0005L70.2524 96.0459C70.9395 96.2274 71.3178 96.3278 71.8668 96.5723C72.1416 96.6854 72.3525 96.8096 72.4946 96.9403L72.5104 96.9546C72.8256 97.2095 73.0143 97.6069 73.0143 98.0179C73.0143 99.2476 71.9536 99.9811 70.1758 99.9811C69.465 99.9811 68.8631 99.9293 68.4343 99.8322C68.0338 99.7406 67.4731 99.5152 66.7212 99.1432L66.4392 99.0039L66.0009 99.8887L66.2868 100.031C67.1453 100.455 67.7369 100.696 68.2139 100.812C68.7218 100.921 69.382 100.976 70.175 100.976C72.5341 100.976 74 99.8425 74 98.0179C74 97.0908 73.5885 96.3923 72.7774 95.9423L72.7774 95.9407L72.7774 95.9407ZM17.9092 94.2714L17.9092 93.9169L17.5577 93.9169L17.5577 94.2714L17.9092 94.2714L17.9092 94.2714ZM16.1503 97.1091L16.5018 97.1091L16.5018 96.7547L15.4466 96.7547L15.4466 96.4003L14.7429 96.4003L14.7429 95.6906L15.0943 95.6906L15.0943 96.0451L15.4458 96.0451L15.4458 95.3354L14.7421 95.3354L14.7421 94.981L14.5501 94.981C14.5083 95.1514 14.4838 95.329 14.4838 95.513C14.4838 95.9734 14.6236 96.4003 14.8621 96.7547L15.0943 96.7547L15.0943 97.0414C15.201 97.1537 15.3178 97.2557 15.4458 97.3433L15.4458 97.1091L15.7972 97.1091L15.7972 97.5384C16.0152 97.6348 16.2522 97.6961 16.501 97.716L16.501 97.4643L16.1495 97.4643L16.1495 97.1099L16.1503 97.1091L16.1503 97.1091ZM17.5577 97.1091L17.5577 96.7547L16.854 96.7547L16.854 97.1091L16.5025 97.1091L16.5025 97.4635L17.2062 97.4635L17.2062 97.6571C17.3279 97.6268 17.4456 97.5878 17.5577 97.5376L17.5577 97.1083L17.5577 97.1091L17.5577 97.1091ZM14.7437 94.6258L15.0951 94.6258L15.0951 94.9802L15.4466 94.9802L15.4466 93.682C15.3186 93.7696 15.2017 93.8715 15.0951 93.9838L15.0951 94.2706L14.8629 94.2706C14.7879 94.3821 14.7239 94.5007 14.6694 94.625L14.7429 94.625L14.7437 94.6258L14.7437 94.6258ZM18.4936 96.7547L18.2614 96.7547L18.2614 96.0451L18.6129 96.0451L18.6129 95.6906L18.2614 95.6906L18.2614 95.3362L17.91 95.3362L17.91 97.1099L18.1943 97.1099C18.3057 97.0024 18.4067 96.8845 18.4936 96.7555L18.4936 96.7547L18.4936 96.7547ZM18.6129 96.554C18.6974 96.3947 18.7606 96.2235 18.8048 96.0443L18.6129 96.0443L18.6129 96.554L18.6129 96.554ZM17.9092 94.6258L17.9092 94.9802L18.2606 94.9802L18.2606 94.6258L17.9092 94.6258L17.9092 94.6258ZM18.6129 95.6906L18.8625 95.6906C18.8672 95.6317 18.8712 95.5728 18.8712 95.513C18.8712 94.9197 18.6382 94.3821 18.2606 93.9846L18.2606 94.6266L18.6121 94.6266L18.6121 94.981L18.2606 94.981L18.2606 95.3354L18.6121 95.3354L18.6121 95.6898L18.6129 95.6906L18.6129 95.6906ZM16.5025 95.6906L16.854 95.6906L16.854 95.3362L16.5025 95.3362L16.5025 95.6906L16.5025 95.6906ZM16.854 94.6258L15.7988 94.6258L15.7988 96.3995L17.5577 96.3995L17.5577 94.6258L16.854 94.6258L16.854 94.6258ZM17.2062 95.3354L17.2062 96.0451L16.1511 96.0451L16.1511 94.981L17.2062 94.981L17.2062 95.3354L17.2062 95.3354ZM15.6456 93.5617L15.7988 93.5617L15.7988 93.4876C15.7467 93.5107 15.6954 93.5354 15.6456 93.5617L15.6456 93.5617ZM15.7988 94.2714L17.2062 94.2714L17.2062 93.9169L16.8548 93.9169L16.8548 93.5625L17.2062 93.5625L17.2062 93.9169L17.5577 93.9169L17.5577 93.5625L17.7109 93.5625C17.4029 93.3969 17.0514 93.3021 16.6779 93.3021C16.4954 93.3021 16.3193 93.3268 16.1503 93.369L16.1503 93.5625L16.5018 93.5625L16.5018 93.9169L16.1503 93.9169L16.1503 93.5625L15.7988 93.5625L15.7988 94.2722L15.7988 94.2714L15.7988 94.2714Z" id="Şekil" fill="#EB004B" fill-rule="evenodd" stroke="none" />
  </g>
</svg>