<?xml version="1.0" encoding="utf-8"?>
<svg width="187px" height="148px" viewBox="0 0 187 148" version="1.1" xmlns:xlink="http://www.w3.org/1999/xlink" xmlns="http://www.w3.org/2000/svg">
  <defs>
    <path d="M187 0L187 0L187 148L0 148L0 0L187 0Z" id="path_1" />
    <clipPath id="clip_1">
      <use xlink:href="#path_1" clip-rule="evenodd" fill-rule="evenodd" />
    </clipPath>
  </defs>
  <g id="Çerçeve 6">
    <path d="M187 0L187 0L187 148L0 148L0 0L187 0Z" id="Çerçeve-6" fill="none" stroke="none" />
    <path d="M94.809 41.2846L92.4986 17.4389L90.1854 41.2874C88.1946 42.1752 86.8033 44.1684 86.8033 46.4897C86.8033 49.6365 89.354 52.1867 92.5014 52.1867C92.8351 52.1867 93.1603 52.1528 93.4799 52.0962L137.928 94L125.322 79.3997C133.766 70.9828 139 59.3512 139 46.4897C138.997 20.8147 118.178 0 92.4986 0C66.8187 0 46 20.8147 46 46.4897C46 72.1646 66.8187 92.9793 92.4986 92.9793C98.7284 92.9793 104.67 91.7438 110.099 89.5215L95.0267 78.0313C94.4187 78.0793 93.8051 78.1076 93.1886 78.1246L93.1886 74.4717C93.1886 73.8666 92.6965 73.3747 92.0914 73.3747C91.4862 73.3747 90.9942 73.8666 90.9942 74.4717L90.9942 78.1048C74.4398 77.3301 61.2083 63.8438 60.8491 47.188L64.4094 47.188C65.0146 47.188 65.5066 46.6961 65.5066 46.091C65.5066 45.486 65.0146 44.994 64.4094 44.994L60.8774 44.994C61.6579 28.2082 75.5173 14.8378 92.4986 14.8378C109.48 14.8378 123.339 28.2082 124.12 44.994L120.585 44.994C119.98 44.994 119.488 45.486 119.488 46.091C119.488 46.6961 119.98 47.188 120.585 47.188L124.145 47.188C123.97 55.2855 120.749 62.628 115.588 68.13L98.0355 47.8015C98.1345 47.3803 98.1939 46.942 98.1939 46.4897C98.1939 44.1656 96.8026 42.1723 94.8061 41.2846L94.809 41.2846L94.809 41.2846Z" id="Şekil" fill="#FFFFFF" stroke="none" clip-path="url(#clip_1)" />
    <path d="M33.8451 143.57L30.2583 148L26.4933 144.79C23.6683 146.733 20.4402 147.683 16.9003 147.683C12.2374 147.683 8.24735 146.102 4.93247 142.936C1.65979 139.726 0 135.884 0 131.364C0 126.844 1.65979 123.002 4.93247 119.792C8.24969 116.582 12.2397 115 16.9003 115C21.5608 115 25.5063 116.582 28.779 119.792C32.0962 123.002 33.7536 126.844 33.7536 131.364C33.7536 134.799 32.6776 137.92 30.57 140.766L33.8427 143.57L33.8451 143.57L33.8451 143.57ZM20.4402 139.546L26.4933 144.79L24.4302 135.478C25.1922 134.258 25.5954 132.856 25.5954 131.364C25.5954 128.877 24.7444 126.799 23.0401 125.035C21.3357 123.272 19.2751 122.414 16.8979 122.414C14.5208 122.414 12.371 123.272 10.6667 125.035C8.96237 126.799 8.11138 128.877 8.11138 131.364C8.11138 133.851 8.96237 135.974 10.6667 137.738C12.3687 139.456 14.4317 140.314 16.8979 140.314C18.2436 140.314 19.4087 140.043 20.4402 139.546L20.4402 139.546ZM57.422 147.277L51.9972 139.908C51.8636 139.953 51.6385 139.953 51.3244 139.953L46.5279 139.953L46.5279 147.277L38.5923 147.277L38.5923 115.407L53.1178 115.407C57.5556 115.407 60.8283 116.537 62.8444 118.797C64.9074 121.012 65.9366 123.861 65.9366 127.296C65.9366 132.674 63.9181 136.383 59.8859 138.371L66.9235 147.277L57.4196 147.277L57.422 147.277L57.422 147.277ZM46.5279 122.187L46.5279 133.442L51.0102 133.442C55.4926 133.442 57.6001 131.092 57.6001 127.882C57.6001 124.671 55.8513 122.184 51.7721 122.184L46.5279 122.184L46.5279 122.187L46.5279 122.187ZM91.4171 115.534L79.3086 115.534L79.3086 147.281L82.1945 147.281L82.1945 136.695L90.3668 136.695C98.1758 136.695 102.475 132.839 102.475 125.839C102.475 122.863 101.568 120.392 99.7887 118.504C97.9742 116.532 95.1563 115.534 91.4171 115.534L91.4171 115.534ZM90.3692 133.785L82.1968 133.785L82.1968 118.444L91.4194 118.444C94.2842 118.444 96.3144 119.123 97.6249 120.52C98.9213 121.903 99.5519 123.643 99.5519 125.839C99.5519 131.111 96.4621 133.785 90.3715 133.785L90.3692 133.785L90.3692 133.785ZM116.443 115.534L106.728 115.534L106.728 147.281L117.409 147.281C121.483 147.281 125.021 145.683 127.923 142.532C130.821 139.385 132.288 135.65 132.288 131.428C132.288 127.206 130.727 123.322 127.646 120.215C124.566 117.109 120.796 115.534 116.443 115.534L116.443 115.534ZM109.614 118.444L116.443 118.444C120.013 118.444 123.08 119.73 125.569 122.279C128.122 124.813 129.362 127.806 129.362 131.428C129.362 134.849 128.146 137.908 125.754 140.52C123.342 143.111 120.585 144.371 117.327 144.371L109.616 144.371L109.616 118.444L109.614 118.444L109.614 118.444ZM161.979 115.534L158.026 115.534L139.931 135.083L139.931 115.534L137.045 115.534L137.045 147.281L139.931 147.281L139.931 139.338L145.777 133.005L158.305 147.279L162.288 147.279L147.822 130.849L161.981 115.532L161.979 115.534L161.979 115.534ZM183.371 132.634C181.167 131.364 179.264 130.759 176.068 129.955C174.648 129.624 173.349 129.262 172.219 128.882C171.12 128.496 170.156 128.085 169.272 127.619C167.507 126.712 166.719 125.56 166.719 123.889C166.719 120.527 169.828 118.357 174.641 118.357C176.118 118.357 177.747 118.544 179.618 118.931C181.282 119.274 182.743 119.783 183.842 120.397L184.67 120.861L186.062 118.286L185.277 117.823C183.948 117.038 182.314 116.461 180.298 116.064C178.281 115.622 176.432 115.407 174.638 115.407C171.368 115.407 168.82 116.149 166.843 117.676C164.816 119.246 163.789 121.336 163.789 123.889L163.789 123.943C163.974 127.22 165.547 129.326 168.885 130.771C169.978 131.255 171.002 131.6 171.907 131.903L171.947 131.915C172.838 132.173 173.994 132.475 175.367 132.811L175.876 132.946C177.916 133.485 179.039 133.783 180.668 134.508C181.484 134.844 182.11 135.213 182.532 135.6L182.579 135.643C183.514 136.4 184.074 137.579 184.074 138.799C184.074 142.449 180.926 144.626 175.649 144.626C173.539 144.626 171.752 144.473 170.48 144.184C169.291 143.913 167.626 143.243 165.395 142.139L164.558 141.726L163.257 144.352L164.105 144.773C166.654 146.033 168.41 146.747 169.825 147.092C171.333 147.416 173.293 147.579 175.646 147.579C182.649 147.579 187 144.215 187 138.799C187 136.047 185.779 133.974 183.371 132.638L183.371 132.634L183.371 132.634ZM20.5082 127.678L20.5082 126.626L19.465 126.626L19.465 127.678L20.5082 127.678L20.5082 127.678ZM15.2874 136.102L16.3306 136.102L16.3306 135.05L13.1986 135.05L13.1986 133.998L11.1098 133.998L11.1098 131.891L12.153 131.891L12.153 132.943L13.1962 132.943L13.1962 130.837L11.1074 130.837L11.1074 129.785L10.5378 129.785C10.4135 130.291 10.3408 130.818 10.3408 131.364C10.3408 132.73 10.7558 133.998 11.4638 135.05L12.153 135.05L12.153 135.901C12.4695 136.234 12.8164 136.537 13.1962 136.797L13.1962 136.102L14.2395 136.102L14.2395 137.376C14.8865 137.662 15.5898 137.844 16.3283 137.903L16.3283 137.156L15.285 137.156L15.285 136.104L15.2874 136.102L15.2874 136.102ZM19.465 136.102L19.465 135.05L17.3762 135.05L17.3762 136.102L16.3329 136.102L16.3329 137.154L18.4217 137.154L18.4217 137.728C18.7828 137.638 19.1321 137.522 19.465 137.374L19.465 136.099L19.465 136.102L19.465 136.102ZM11.1121 128.73L12.1553 128.73L12.1553 129.783L13.1986 129.783L13.1986 125.929C12.8188 126.189 12.4718 126.492 12.1553 126.825L12.1553 127.676L11.4661 127.676C11.2434 128.007 11.0535 128.359 10.8918 128.728L11.1098 128.728L11.1121 128.73L11.1121 128.73ZM22.243 135.05L21.5538 135.05L21.5538 132.943L22.597 132.943L22.597 131.891L21.5538 131.891L21.5538 130.839L20.5105 130.839L20.5105 136.104L21.3545 136.104C21.685 135.785 21.9851 135.435 22.243 135.052L22.243 135.05L22.243 135.05ZM22.597 134.454C22.8478 133.981 23.0354 133.473 23.1667 132.941L22.597 132.941L22.597 134.454L22.597 134.454ZM20.5082 128.73L20.5082 129.783L21.5514 129.783L21.5514 128.73L20.5082 128.73L20.5082 128.73ZM22.597 131.891L23.3378 131.891C23.3519 131.716 23.3636 131.541 23.3636 131.364C23.3636 129.603 22.672 128.007 21.5514 126.827L21.5514 128.733L22.5946 128.733L22.5946 129.785L21.5514 129.785L21.5514 130.837L22.5946 130.837L22.5946 131.889L22.597 131.891L22.597 131.891ZM16.3329 131.891L17.3762 131.891L17.3762 130.839L16.3329 130.839L16.3329 131.891L16.3329 131.891ZM17.3762 128.73L14.2441 128.73L14.2441 133.995L19.465 133.995L19.465 128.73L17.3762 128.73L17.3762 128.73ZM18.4217 130.837L18.4217 132.943L15.2897 132.943L15.2897 129.785L18.4217 129.785L18.4217 130.837L18.4217 130.837ZM13.7893 125.572L14.2441 125.572L14.2441 125.352C14.0894 125.421 13.937 125.494 13.7893 125.572L13.7893 125.572ZM14.2441 127.678L18.4217 127.678L18.4217 126.626L17.3785 126.626L17.3785 125.574L18.4217 125.574L18.4217 126.626L19.465 126.626L19.465 125.574L19.9198 125.574C19.0055 125.083 17.9622 124.801 16.8534 124.801C16.3118 124.801 15.7891 124.875 15.2874 125L15.2874 125.574L16.3306 125.574L16.3306 126.626L15.2874 126.626L15.2874 125.574L14.2441 125.574L14.2441 127.681L14.2441 127.678L14.2441 127.678Z" id="Şekil" fill="#FFFFFF" fill-rule="evenodd" stroke="none" clip-path="url(#clip_1)" />
  </g>
</svg>