<?xml version="1.0" encoding="utf-8"?>
<svg width="1006.58984px" height="1017.64014px" viewBox="0 0 1006.58984 1017.64014" version="1.1" xmlns:xlink="http://www.w3.org/1999/xlink" xmlns="http://www.w3.org/2000/svg">
  <path d="M528.3 446.96L503.29 188.8L478.24 446.99C456.68 456.6 441.63 478.18 441.63 503.3C441.63 537.36 469.24 564.97 503.3 564.97C506.92 564.97 510.45 564.6 513.89 564L994.99 1017.64L858.55 859.59C949.94 768.48 1006.59 642.55 1006.59 503.31C1006.59 225.33 781.26 0 503.3 0C225.34 0 0 225.33 0 503.3C0 781.27 225.33 1006.6 503.3 1006.6C570.74 1006.6 635.03 993.24 693.8 969.18L530.67 844.77C524.09 845.29 517.45 845.61 510.78 845.78L510.78 806.24C510.78 799.69 505.45 794.36 498.91 794.36C492.37 794.36 487.04 799.69 487.04 806.24L487.04 845.56C307.85 837.19 164.65 691.18 160.75 510.86L199.29 510.86C205.84 510.86 211.16 505.53 211.16 498.98C211.16 492.43 205.83 487.11 199.29 487.11L161.05 487.11C169.51 305.39 319.5 160.65 503.31 160.65C687.12 160.65 837.11 305.39 845.57 487.11L807.32 487.11C800.77 487.11 795.45 492.44 795.45 498.98C795.45 505.52 800.77 510.86 807.32 510.86L845.86 510.86C843.96 598.52 809.11 678.02 753.24 737.58L563.27 517.51C564.35 512.94 564.98 508.2 564.98 503.31C564.98 478.16 549.91 456.57 528.32 446.97L528.3 446.96Z" id="Şekil" fill="#FFFFFF" stroke="none" />
</svg>