<svg width="235" height="155" viewBox="0 0 235 155" fill="none" xmlns="http://www.w3.org/2000/svg">
<path fill-rule="evenodd" clip-rule="evenodd" d="M86.4264 149.417H235C212.77 49.8055 192.623 0 174.559 0C147.462 0 137.543 31.0126 122.679 42.9897C107.816 54.9668 99.1742 60.2551 74.8723 51.6224C50.5704 42.9897 0 46.6503 0 75.58C0 94.8665 7.10687 119.447 21.3206 149.322L86.4264 149.417Z" fill="#FBF9FF"/>
<path fill-rule="evenodd" clip-rule="evenodd" d="M10.3683 138.492C10.3683 138.492 18.3236 100.333 27.5894 94.7902C32.2357 92.0101 44.0374 88.8923 44.0374 88.8923C44.0374 88.8923 50.204 100.821 56.6796 97.4761C61.2936 95.0934 61.0624 89.5437 61.0624 89.5437C61.0624 89.5437 81.2551 89.5273 84.7459 91.4321C85.5058 91.8476 91.2867 103.448 96.001 115.282C96.6951 117.026 100.961 124.071 97.0309 125.188C94.1498 126.448 82.3765 127.817 82.3765 127.817C82.3765 127.817 83.3347 135.736 82.6471 136.143C80.4979 137.415 70.6958 136.898 66.4423 137.244C65.809 137.295 67.0225 131.926 67.5227 129.247C68.7553 128.767 69.9458 127.132 69.7776 127.227C68.9328 127.702 67.1852 120.756 66.3311 121.228C65.6665 121.596 47.2391 121.905 46.5729 122.266C42.8864 130.415 50.0572 153.481 46.9734 152.619C36.6902 149.742 28.7322 148.438 28.7322 148.438C28.7322 148.438 27.7625 140.209 25.9896 139.94C22.2489 139.371 10.3683 138.492 10.3683 138.492Z" fill="#EB004B"/>
<path fill-rule="evenodd" clip-rule="evenodd" d="M49.9739 121.653C51.3063 121.914 52.6984 121.761 53.7755 121.252C53.6149 121.054 53.501 120.775 53.3142 120.709C52.7976 120.53 50.6374 121.142 49.9739 121.653ZM48.0576 123.195C51.4778 124.53 62.7043 123.974 64.8974 122.369C59.2403 122.105 53.7864 122.341 48.0576 123.195ZM48.7396 148.35C48.8678 149.398 48.9949 150.299 49.0848 151.205C49.1456 151.825 49.5044 152.115 50.0698 152.244C51.5994 152.589 53.1142 153.031 54.6608 153.268C56.2216 153.506 57.8142 153.571 59.3865 153.131C59.0737 152.972 58.7549 152.872 58.4305 152.846C57.7348 152.789 57.033 152.798 56.3383 152.729C54.1601 152.513 53.3394 152.846 53.8253 149.723C52.6677 149.642 51.7972 149.072 51.2647 147.997C50.4336 148.113 49.6671 148.22 48.7396 148.35ZM82.377 127.817C83.1007 127.817 83.6354 127.896 84.1389 127.804C87.872 127.128 91.6077 126.463 95.3211 125.691C96.591 125.427 97.8023 124.877 99.0339 124.44C99.4195 124.303 99.7614 124.065 99.6951 123.585C99.5658 122.651 99.4025 121.721 99.2409 120.709C93.3444 121.994 87.6145 123.244 81.7503 124.522C81.9486 125.567 82.1573 126.665 82.377 127.817ZM25.9233 138.827C25.7793 137.239 25.6478 135.788 25.5075 134.241C20.4876 134.453 15.6188 134.547 10.7233 132.797C10.8416 134.42 10.9594 135.804 11.0383 137.19C11.0816 137.965 11.51 138.417 12.2003 138.587C13.1722 138.825 14.1566 139.05 15.1499 139.159C18.1636 139.49 21.174 139.169 24.1834 139.016C24.7011 138.99 25.2166 138.906 25.9233 138.827ZM65.6786 134.58C66.2451 132.362 66.4691 130.205 66.2462 129.247C59.8133 130.755 53.3317 131.868 46.5729 131.437C46.8101 132.817 47.0145 134.006 47.227 135.248C53.4588 135.751 59.5635 135.964 65.6786 134.58ZM47.3355 136.251C47.4434 137.268 47.5261 138.125 47.6259 138.979C47.9091 141.411 48.1962 143.841 48.4893 146.271C48.5988 147.181 48.7544 147.295 49.6759 147.185C50.0671 147.139 50.4681 147.115 50.8406 147.002C51.1315 146.913 51.3857 146.704 51.6717 146.539C50.1367 144.415 50.9201 144.007 52.3987 142.972C51.875 141.842 52.6874 140.448 53.7755 140.352C54.9561 140.248 61.1473 140.183 65.2255 139.319C65.3488 138.055 65.4611 136.914 65.5887 135.606C59.4862 136.906 53.5437 136.621 47.3355 136.251ZM46.4266 124.328C45.9582 126.279 45.5134 128.131 45.0707 129.976C49.809 131.29 64.8853 129.454 68.2885 127.159C67.5873 125.842 66.8811 124.516 66.2051 123.246C59.6479 125.666 53.1005 124.887 46.4266 124.328ZM65.5992 145.877C65.2502 146.017 64.9686 146.195 64.6678 146.237C63.6285 146.387 62.5827 146.491 61.5379 146.609C58.8381 146.913 56.1367 147.191 53.4199 146.798C53.0205 146.74 52.5899 146.67 52.4168 147.155C52.2283 147.681 52.4102 148.163 52.9301 148.341C53.621 148.578 54.3491 148.791 55.0733 148.838C57.9665 149.026 60.8509 148.953 63.691 148.272C63.9446 148.212 64.2104 148.115 64.4574 148.144C64.6327 148.165 64.893 148.353 64.9171 148.498C64.9412 148.648 64.7604 148.93 64.6059 148.99C64.2021 149.147 63.766 149.231 63.3382 149.317C61.1397 149.758 58.9214 149.972 56.678 149.867C56.0978 149.841 54.5211 149.702 54.6153 151.03C54.6378 151.348 55.1615 151.462 55.4486 151.483C58.018 151.669 60.5891 151.864 63.1629 151.939C64.2898 151.972 65.4238 151.731 66.5557 151.616C67.9883 151.472 68.6211 150.24 68.7285 149.061C68.826 147.993 68.6611 146.961 68.2233 145.988C67.6443 144.704 67.4618 143.339 67.7758 142.008C68.2683 139.923 67.6574 139.723 65.7389 140.211C62.2315 141.105 58.6694 141.412 55.0574 141.172C54.7106 141.149 54.3551 141.147 54.0116 141.195C53.1131 141.319 52.9586 141.563 53.0638 142.799C54.995 142.885 56.953 143.03 58.9121 143.041C60.4417 143.05 61.9718 142.88 63.5031 142.817C63.9025 142.8 64.3057 142.886 64.7823 142.932C64.5248 143.887 63.869 143.773 63.3552 143.781C60.5557 143.824 57.7561 143.824 54.9572 143.85C54.0828 143.858 53.1991 143.829 52.3385 143.95C51.5386 144.063 51.3825 144.71 51.9769 145.259C52.1911 145.457 52.4902 145.619 52.7745 145.675C53.501 145.817 54.2384 145.94 54.9763 145.985C58.0553 146.174 61.0871 145.63 64.1358 145.352C64.6404 145.306 65.1718 145.11 65.5992 145.877ZM82.6756 129.152C82.9309 132.037 83.8113 134.965 83.974 137.942C82.9484 138.269 83.1544 137.2 82.7304 137.083C82.0138 137.161 81.4084 137.262 80.7998 137.288C78.6999 137.383 76.5989 137.455 74.4984 137.53C72.135 137.614 69.7721 137.686 67.4087 137.774C66.4165 137.811 66.3535 137.903 66.5037 138.939C66.7195 138.939 66.9392 138.923 67.1556 138.942C68.4644 139.058 69.1432 139.756 68.8764 141.027C68.4808 142.908 68.752 144.641 69.4105 146.414C69.7469 147.32 69.731 148.357 69.8926 149.464C72.2199 149.242 74.5253 149.069 76.8191 148.796C81.5985 148.226 86.3747 147.628 91.1448 146.989C92.8327 146.763 94.5114 146.434 96.173 146.058C97.6138 145.731 98.5819 144.834 98.8229 143.314C98.9396 142.583 99.0284 141.842 99.0569 141.103C99.2338 136.525 98.5167 132.036 97.65 127.566C97.564 127.122 97.3191 126.709 97.2144 126.448C92.2739 127.366 87.5131 128.252 82.6756 129.152ZM60.1765 88.1935C60.915 88.3243 61.5396 88.5011 62.1729 88.5367C65.1017 88.7037 68.0322 88.8679 70.9642 88.9626C74.3828 89.0731 77.7844 89.2669 81.1362 90.0206C84.3789 90.7497 86.8798 92.5018 88.6888 95.277C90.4907 98.0412 91.822 101.046 93.0705 104.078C95.0515 108.89 96.9224 113.748 98.8377 118.587C99.0267 119.064 99.0815 119.619 99.6918 119.82C99.8354 119.867 100.01 120.05 100.033 120.193C100.252 121.518 100.499 122.844 100.596 124.18C100.617 124.484 100.142 124.901 99.8047 125.135C99.3467 125.453 98.8021 125.647 98.2554 125.912C99.0289 129.073 99.5686 132.255 99.8063 135.47C99.9734 137.733 100.048 140.021 99.9236 142.284C99.7543 145.336 98.5172 146.688 95.4827 147.249C92.6887 147.765 89.8639 148.125 87.0458 148.508C83.9236 148.932 80.7965 149.325 77.6661 149.69C75.3185 149.964 72.965 150.197 70.6092 150.393C69.9447 150.448 69.444 150.575 69.1246 151.227C68.7739 151.945 68.0908 152.32 67.349 152.463C66.1925 152.686 65.0184 152.826 63.8471 152.958C63.2867 153.022 62.8172 153.177 62.2885 153.432C61.2903 153.913 60.1431 154.171 59.0315 154.312C55.654 154.742 52.419 153.953 49.2201 152.978C48.5572 152.776 48.246 152.315 48.1666 151.629C47.9655 149.892 47.725 148.159 47.5114 146.423C46.9613 141.952 46.4233 137.479 45.8656 133.009C45.796 132.451 45.6372 131.903 45.5139 131.322C44.9551 131.148 44.4226 130.982 43.8282 130.797C44.1886 129.309 44.5371 127.872 44.885 126.435C45.0597 125.713 45.217 124.986 45.4125 124.269C45.7089 123.182 46.254 122.368 47.5377 122.309C48.0039 122.288 48.463 122.115 48.9796 121.999V120.502C50.5207 120.156 52.0212 119.734 53.576 119.61C53.8516 119.587 54.2329 119.981 54.4411 120.272C54.6613 120.577 54.732 120.99 54.8432 121.289C56.4282 121.289 57.9539 121.253 59.4775 121.299C61.6168 121.362 63.7556 121.463 65.8917 121.607C66.2177 121.629 66.6647 121.89 66.8148 122.17C67.7232 123.863 68.5619 125.593 69.4199 127.304C69.1585 128.211 68.3789 128.438 67.5878 128.751C67.2427 131.361 66.897 133.98 66.5256 136.79C72.0079 136.665 77.2782 136.48 82.6471 136.143C82.606 135.607 82.6099 135.269 82.5507 134.94C81.8741 131.197 81.1888 127.456 80.5023 123.714C80.3412 122.836 80.3357 122.837 81.094 122.391C81.2797 122.663 81.4676 122.94 81.6933 123.271C87.2123 122.622 92.5621 121.144 98.0318 119.847C97.9738 119.485 97.9738 119.18 97.8757 118.913C95.3194 111.975 92.6383 105.09 89.3517 98.4561C88.5321 96.8019 87.5394 95.2677 86.2722 93.908C84.8073 92.3349 82.949 91.5275 80.9236 91.0179C78.0605 90.2981 75.1295 90.1372 72.198 89.9949C68.6989 89.8258 65.1987 89.6714 61.6985 89.5149C61.4886 89.5061 61.2766 89.5335 61.0624 89.5439C60.646 90.7897 60.2719 91.9944 59.8374 93.1778C59.5821 93.8735 59.2824 94.5638 58.9148 95.2058C57.2921 98.0384 54.4345 98.8064 51.6273 97.1347C49.4601 95.8441 47.6324 94.1467 46.1039 92.145C45.521 91.3814 45.0351 90.5456 44.5037 89.7437C44.3388 89.4952 44.1684 89.2505 43.9602 88.9445C42.0383 89.4848 40.1384 89.9807 38.2631 90.5554C34.833 91.6064 31.3668 92.5883 28.2101 94.3426C26.6076 95.2332 25.1027 96.3 23.5517 97.2842C21.1078 98.836 19.5447 101.074 18.7372 103.797C17.9806 106.35 17.3369 108.942 16.7688 111.545C15.5843 116.97 14.4766 122.412 13.3497 127.85C13.0505 129.297 12.7958 130.754 12.4956 132.338C16.748 133.674 21.0069 133.407 25.3804 133.291C25.3804 132.454 25.381 131.769 25.3804 131.083C25.3788 130.34 25.3613 129.596 25.3804 128.853C25.3903 128.465 25.4034 127.962 25.9223 127.96C26.4969 127.959 26.3649 128.473 26.3841 128.851C26.5183 131.516 26.6805 134.179 26.7906 136.845C26.9226 140.056 27.8244 143.138 28.3416 146.283C28.4599 147.007 28.6023 147.728 28.7322 148.438C28.1575 148.814 27.8458 148.639 27.7236 148.088C27.5521 147.32 27.4403 146.538 27.2563 145.774C27.0125 144.764 26.6887 143.771 26.4635 142.758C26.2663 141.87 26.1573 140.961 25.9896 139.94C21.3822 140.081 16.8088 140.791 12.1154 139.698C12.1586 140.534 12.1471 141.224 12.2375 141.9C12.5547 144.283 12.9185 146.659 13.2291 149.042C13.2593 149.276 13.0423 149.541 12.9404 149.792C12.712 149.633 12.3263 149.509 12.2824 149.309C12.066 148.33 11.9269 147.333 11.7855 146.338C11.5105 144.392 11.19 142.449 11.0186 140.494C10.9517 139.74 10.995 139.032 10.3683 138.493C10.3365 138.466 10.3129 138.42 10.3036 138.379C9.75741 136.073 9.76234 133.749 9.90204 131.229C10.5266 131.49 10.9364 131.662 11.5083 131.901C11.6798 131.102 11.8338 130.394 11.9817 129.685C13.5496 122.196 15.0989 114.702 16.6937 107.219C17.1402 105.122 17.7878 103.079 18.758 101.146C19.5579 99.5508 20.6558 98.2317 22.0594 97.1254C25.7836 94.1921 29.9144 92.0432 34.443 90.6665C37.5399 89.7245 40.6523 88.8361 43.763 87.9417C44.7124 87.6686 44.7014 87.7036 45.0871 88.5843C45.3139 89.1027 45.5796 89.6112 45.8837 90.0891C47.3585 92.4115 49.2568 94.33 51.5238 95.8829C51.9544 96.1774 52.4152 96.4467 52.8951 96.6481C54.9139 97.4971 56.7717 96.9142 57.8668 95.0378C58.8431 93.365 59.4862 91.5516 59.8812 89.6539C59.9771 89.1925 60.0681 88.731 60.1765 88.1935Z" fill="black"/>
<path fill-rule="evenodd" clip-rule="evenodd" d="M62.6987 62.4782C62.5689 63.3644 62.3081 64.0814 61.9641 64.6589C61.9586 64.3371 61.9454 64.0136 61.9279 63.6906C62.4763 62.6096 62.7563 61.3961 62.5486 60.5269C62.7376 61.1218 62.8012 61.7825 62.6987 62.4782Z" fill="black"/>
<path fill-rule="evenodd" clip-rule="evenodd" d="M57.9653 66.6332C56.8751 66.5199 55.179 65.8631 54.8316 64.9244C54.7051 64.5839 54.767 64.2265 55.008 63.8608C54.8382 64.3901 54.9779 65.1805 55.6572 65.6633C56.8762 66.5287 59.067 66.6278 60.3364 65.6912C60.5479 65.5358 60.7506 65.3447 60.9451 65.1335C60.9434 65.3666 60.9363 65.5998 60.9292 65.8335C60.0263 66.5216 58.9328 66.7345 57.9653 66.6332Z" fill="black"/>
<path fill-rule="evenodd" clip-rule="evenodd" d="M56.4352 58.4583C57.0367 57.9903 57.7807 57.7845 58.6534 57.8343C57.4438 57.8825 56.1223 58.5125 55.243 60.3199C55.437 59.6576 55.8051 58.9482 56.4352 58.4583Z" fill="black"/>
<path fill-rule="evenodd" clip-rule="evenodd" d="M62.5303 60.4583C62.5238 60.4307 62.5146 60.4042 62.5064 60.3772C62.5162 60.4032 62.5216 60.4318 62.5303 60.4583Z" fill="black"/>
<path fill-rule="evenodd" clip-rule="evenodd" d="M60.2707 58.0249C58.6452 57.4819 57.3255 57.5925 56.3508 58.3506C55.626 58.9144 55.2283 59.7382 55.0486 60.4771C55.0059 60.4821 54.9631 60.4875 54.9204 60.4925C53.5825 59.9938 52.2036 60.1859 51.0685 60.8187C50.559 61.1033 50.2763 61.4635 49.7701 61.7558C49.3964 61.9862 49.0223 62.2161 48.6486 62.4471C47.5211 63.3946 46.5772 64.4707 46.5701 65.9563C46.5679 66.3887 46.7153 67.4648 46.9366 68.4988C46.7465 68.4681 46.6336 68.4577 46.5339 68.4249C44.9424 67.8983 43.73 68.7933 43.7914 70.4676C43.8369 71.7135 44.4351 72.6746 45.5401 73.1935C46.1855 73.4973 46.3345 73.8509 46.2781 74.505C45.922 78.6469 45.2481 82.7385 44.4011 86.8054C44.3031 87.2734 44.3874 87.7792 44.3874 88.3025C45.2492 88.2729 45.2163 87.7387 45.3139 87.2871C46.2266 83.0543 46.9251 78.7887 47.3091 74.4733C47.4291 73.124 47.4149 73.0835 46.1165 72.4119C45.1177 71.8952 44.5387 70.7851 44.8942 69.9367C45.0158 69.6477 45.3128 69.2903 45.5779 69.2443C45.814 69.2032 46.1428 69.5213 46.3816 69.7353C46.535 69.8732 46.558 70.1573 46.7131 70.2908C46.9497 70.495 47.25 70.6253 47.5233 70.7868C47.5518 70.7298 47.5841 70.674 47.6176 70.6176C47.6378 70.6505 47.6587 70.686 47.6795 70.7118C47.7112 70.5799 47.748 70.4523 47.7819 70.3226C47.8307 70.2268 47.8729 70.1299 47.8887 70.0292C47.8986 69.9652 47.9068 69.9006 47.9167 69.836C49.0299 66.1057 51.3325 63.3809 55.0497 61.7388C55.0831 61.7645 55.1987 61.8877 55.3406 61.9556C55.5258 62.0442 55.7416 62.0683 55.9268 62.1564C56.4588 62.4104 56.8275 62.9233 56.5185 63.3749C56.1065 63.9748 55.5932 64.0038 55.3494 63.4477C55.3368 63.4198 55.2672 63.4668 55.2245 63.4783L55.1751 63.4313C54.6772 63.9562 54.5188 64.474 54.7029 64.9721C55.0869 66.0077 56.8686 66.6569 57.9516 66.7691C58.1067 66.785 58.265 66.7937 58.4255 66.7937C59.2643 66.7937 60.1556 66.5611 60.9232 66.0094C60.9067 66.4254 60.8837 66.8408 60.8459 67.2541C60.5167 70.8289 60.0472 74.3824 58.4327 77.6639C57.6887 79.1751 56.9096 79.5118 55.2529 79.0016C54.0351 78.6261 52.8731 78.1297 51.8891 77.2834C51.607 77.041 51.2536 76.6337 50.8992 77.1023C50.576 77.5292 50.9896 77.839 51.2964 78.0651C51.8218 78.4521 52.3597 78.8396 52.9399 79.133C54.3928 79.8687 55.9071 80.4023 57.5643 80.0969C57.7155 80.5386 57.8426 80.8632 57.939 81.1966C58.5181 83.2125 59.0786 85.2339 59.6735 87.245C59.8215 87.7442 59.7875 88.4021 60.8257 88.6621C60.7468 88.0633 60.7386 87.6418 60.6301 87.2471C60.0285 85.0571 59.3892 82.877 58.7937 80.6842C58.6639 80.2064 58.385 79.74 58.7345 79.1877C60.1113 77.0059 60.7681 74.563 61.2371 72.0567C61.6798 69.6953 61.98 67.3197 61.9641 64.9245C62.3766 64.3027 62.6867 63.5052 62.8341 62.4986C63.1365 60.4344 62.1065 58.6363 60.2707 58.0249Z" fill="black"/>
<path fill-rule="evenodd" clip-rule="evenodd" d="M56.7318 67.238L57.5689 70.5469L56.3477 70.6689L56.7318 67.238Z" fill="black"/>
<path fill-rule="evenodd" clip-rule="evenodd" d="M56.7339 67.2699L56.3548 70.662L57.5617 70.5416L56.7339 67.2699ZM56.3477 70.6746C56.3466 70.6746 56.3449 70.674 56.3439 70.6729C56.3428 70.6713 56.3422 70.6696 56.3422 70.668L56.7257 67.2371C56.7263 67.2344 56.7284 67.2322 56.7312 67.2322C56.7339 67.2322 56.7367 67.2338 56.7372 67.236L57.5743 70.5448C57.5749 70.5465 57.5743 70.5487 57.5738 70.5498C57.5727 70.5514 57.571 70.5519 57.5694 70.5525L56.3488 70.6746H56.3477Z" fill="black"/>
<path fill-rule="evenodd" clip-rule="evenodd" d="M55.7663 64.8075C55.7663 64.8075 55.8167 65.8207 55.5921 66.033C54.6498 65.929 52.5285 66.2788 51.4646 66.7479C51.8831 65.7774 55.7663 64.8075 55.7663 64.8075Z" fill="black"/>
<path fill-rule="evenodd" clip-rule="evenodd" d="M55.761 64.8149C55.6717 64.8379 54.7409 65.076 53.7745 65.4192C52.4525 65.89 51.6593 66.3448 51.4763 66.7367C52.5139 66.2846 54.6198 65.9212 55.5901 66.0279C55.7988 65.8248 55.7648 64.9052 55.761 64.8149ZM51.4648 66.7542C51.4631 66.7542 51.462 66.7531 51.4609 66.7521C51.4587 66.7504 51.4587 66.7482 51.4593 66.7455C51.6335 66.3421 52.4115 65.8921 53.7707 65.4088C54.7825 65.0492 55.7555 64.8045 55.7648 64.8023C55.767 64.8018 55.7687 64.8023 55.7698 64.8034C55.7714 64.804 55.7725 64.8056 55.7725 64.8073C55.7742 64.8489 55.8207 65.8259 55.5961 66.0377C55.595 66.0388 55.5928 66.0399 55.5912 66.0394C54.6193 65.9316 52.4997 66.2988 51.4675 66.7537C51.4664 66.7537 51.4659 66.7542 51.4648 66.7542Z" fill="black"/>
<path fill-rule="evenodd" clip-rule="evenodd" d="M54.1434 69.343C53.8399 69.3616 53.5374 69.3052 53.2553 69.2122C53.3594 69.2428 53.4706 69.2598 53.5862 69.2598C54.1631 69.2598 54.6326 68.8482 54.6326 68.3429C54.6326 68.1393 54.4743 67.8957 54.3247 67.7272C55.0643 67.795 55.7135 68.1798 55.9529 68.338C55.7387 68.592 55.0714 69.286 54.1434 69.343ZM52.5677 68.0911C52.5508 68.1782 52.5404 68.2734 52.5404 68.3429C52.5404 68.7097 52.7874 69.0266 53.143 69.1727C52.599 68.9713 52.1486 68.6473 51.9563 68.4962C52.0681 68.401 52.2768 68.2411 52.5677 68.0911ZM56.1912 68.2203C56.1523 68.1913 55.2243 67.4984 54.1346 67.4841C52.6368 67.4672 51.7334 68.3813 51.695 68.4201C51.6731 68.4426 51.6616 68.4738 51.6627 68.5055C51.6638 68.5367 51.678 68.5668 51.7016 68.5876C51.7493 68.6298 52.8378 69.5789 54.0239 69.5789C54.0683 69.5789 54.1132 69.5772 54.1576 69.5745C55.4018 69.4973 56.183 68.4261 56.2159 68.3807C56.2526 68.3293 56.2416 68.2586 56.1912 68.2203Z" fill="black"/>
<path fill-rule="evenodd" clip-rule="evenodd" d="M59.25 69.1093C58.9838 69.1279 58.717 69.0627 58.4726 68.9609C58.5148 68.9692 58.5575 68.9746 58.6003 68.9746C59.0654 68.9746 59.4429 68.5969 59.4429 68.1328C59.4429 67.9297 59.3716 67.7392 59.2434 67.5887C59.2949 67.5854 59.3475 67.5838 59.4001 67.5838H59.4007C59.9869 67.5838 60.5238 67.997 60.7117 68.1596C60.5446 68.3911 60.0028 69.0551 59.25 69.1093ZM57.4953 68.3205C57.5561 68.2685 57.6476 68.1957 57.7653 68.1158C57.7884 68.3107 57.8722 68.5066 58.0048 68.6659C58.0404 68.7097 58.0787 68.7475 58.1187 68.782C57.8366 68.6156 57.6119 68.4262 57.4953 68.3205ZM60.9467 68.0589C60.9171 68.0299 60.223 67.3517 59.4007 67.3517H59.4001C58.1275 67.3517 57.2772 68.2012 57.2416 68.2373C57.1972 68.2822 57.1972 68.3545 57.2411 68.3999C57.2515 68.4103 57.4925 68.6561 57.8601 68.8953C58.3176 69.1936 58.7526 69.3446 59.1541 69.3446C59.1919 69.3446 59.2292 69.3435 59.2665 69.3408C60.2953 69.2669 60.9368 68.2455 60.9637 68.2023C60.9922 68.1563 60.9851 68.0966 60.9467 68.0589Z" fill="black"/>
<path fill-rule="evenodd" clip-rule="evenodd" d="M57.3818 64.8079C57.3818 64.8079 57.3309 65.821 57.556 66.0334C58.4978 65.9294 60.0148 66.179 61.0787 66.6476C60.6601 65.6776 57.3818 64.8079 57.3818 64.8079Z" fill="black"/>
<path fill-rule="evenodd" clip-rule="evenodd" d="M58.0262 66.0041C58.9652 66.0041 60.1848 66.2504 61.0673 66.6363C60.8866 66.2444 60.1974 65.8071 59.071 65.3692C58.2519 65.0511 57.4691 64.8371 57.3869 64.8152C57.3836 64.9061 57.3496 65.8246 57.5584 66.0276C57.703 66.0118 57.8602 66.0041 58.0262 66.0041ZM61.0783 66.6538L61.0761 66.6533C60.0379 66.1962 58.5253 65.9319 57.5567 66.0391C57.5551 66.0397 57.5534 66.0386 57.5523 66.038C57.4576 65.9483 57.3995 65.7146 57.3787 65.3412C57.3633 65.0643 57.3759 64.8098 57.3759 64.807C57.3759 64.8059 57.377 64.8043 57.3781 64.8032C57.3798 64.8021 57.3814 64.8015 57.3836 64.8021C57.3913 64.8043 58.213 65.0232 59.0754 65.3582C59.8719 65.668 60.8668 66.1426 61.0838 66.6456C61.0849 66.6478 61.0843 66.6505 61.0827 66.6522C61.0816 66.6533 61.0799 66.6538 61.0783 66.6538Z" fill="black"/>
<path fill-rule="evenodd" clip-rule="evenodd" d="M54.7319 71.8986C55.311 72.4459 55.7816 72.7503 56.5661 72.8023C57.3506 72.8548 57.9001 72.568 57.9001 72.568C57.9001 72.568 57.2723 73.6326 56.5135 73.8302C54.9445 74.2402 55.0184 73.0103 54.7319 71.8986Z" fill="black"/>
<path fill-rule="evenodd" clip-rule="evenodd" d="M54.7423 71.9167C54.7872 72.0918 54.8229 72.2703 54.8574 72.4427C54.9713 73.0076 55.0787 73.5418 55.4551 73.7761C55.7016 73.9304 56.0473 73.9463 56.5119 73.8248C57.2076 73.643 57.8004 72.7185 57.8848 72.5817C57.7834 72.6299 57.2646 72.8543 56.5656 72.8083C55.7767 72.7552 55.3132 72.4542 54.7423 71.9167ZM55.9646 73.9167C55.7591 73.9167 55.5882 73.8729 55.4491 73.7859C55.0683 73.5483 54.9604 73.0125 54.8459 72.4449C54.8103 72.2664 54.773 72.0814 54.7264 71.9002C54.7253 71.8975 54.727 71.8953 54.7292 71.8937C54.7308 71.8926 54.7341 71.8926 54.7358 71.8948C55.3121 72.4388 55.7739 72.7437 56.5667 72.7963C57.3408 72.8483 57.8919 72.5658 57.8974 72.5631C57.9001 72.5614 57.9029 72.562 57.904 72.5642C57.9062 72.5658 57.9062 72.5686 57.9051 72.5708C57.899 72.5817 57.2674 73.6392 56.5152 73.8363C56.3092 73.8894 56.1262 73.9167 55.9646 73.9167Z" fill="black"/>
<path fill-rule="evenodd" clip-rule="evenodd" d="M61.6958 70.6636C61.4024 70.9214 61.0567 71.0137 60.6372 70.9456C58.9721 70.6753 57.9996 69.0372 57.6244 67.5323C60.0282 67.4226 62.0981 67.3284 62.6671 67.303C62.6609 67.8726 62.5773 69.8869 61.6958 70.6636ZM56.2059 68.2544C56.2711 68.0449 56.3302 67.8267 56.3849 67.5992C56.6291 67.6036 57.0597 67.5937 57.326 67.5608C57.3746 67.7579 57.4318 67.9562 57.4995 68.154L56.2059 68.2544ZM53.492 71.0602C51.8546 71.217 50.4386 69.8597 50.1483 67.8819C51.6867 67.8075 53.9171 67.7034 56.0792 67.6036C55.7999 68.7267 55.0581 70.909 53.492 71.0602ZM62.9629 67.1431L62.9586 66.9912L62.8085 66.998C62.7618 67.0005 60.3838 67.1077 57.5567 67.2373L57.5512 67.2125L57.4183 67.2435C57.0419 67.2608 56.658 67.2782 56.2711 67.2962L56.153 67.2881L56.1493 67.3017C53.8845 67.4059 51.5335 67.5156 49.973 67.5918L49.8155 67.5999L49.834 67.7579C49.9539 68.8085 50.3869 69.7549 51.0525 70.4231C51.667 71.0398 52.4334 71.3701 53.2368 71.3701C53.3309 71.3701 53.4256 71.3658 53.5197 71.3565C54.6091 71.2518 55.5238 70.2495 56.1063 68.5612L57.6059 68.4447C58.1245 69.7667 59.0982 70.9976 60.5898 71.24C61.0942 71.3218 61.5316 71.2034 61.8902 70.8873C62.3706 70.4652 62.696 69.7029 62.8596 68.6232C62.9789 67.8323 62.9635 67.171 62.9629 67.1431Z" fill="#F7B500"/>
<path fill-rule="evenodd" clip-rule="evenodd" d="M168.457 135.247C168.445 135.336 168.434 135.426 168.423 135.515C167.697 135.515 166.969 135.557 166.248 135.502C165.672 135.458 165.723 135.096 165.957 134.624C166.825 134.841 167.641 135.044 168.457 135.247ZM150.666 133.04C151.508 131.951 152.165 131.105 152.82 130.257C152.917 130.313 153.013 130.369 153.11 130.425C152.769 131.289 152.427 132.152 152.077 133.04H150.666ZM147.763 132.712C149.027 131.405 150.426 130.458 151.867 129.533C151.375 130.602 150.609 131.463 149.894 132.365C149.342 133.061 148.714 133.132 147.763 132.712ZM144.948 132.99C145.178 132.491 145.2 132.34 145.287 132.268C146.691 131.096 148.094 129.922 149.521 128.781C149.889 128.487 150.351 128.468 151.176 128.727C150.704 129.048 150.435 129.194 150.21 129.39C148.96 130.469 147.745 131.59 146.461 132.625C146.158 132.869 145.632 132.837 144.948 132.99ZM162.167 133.515C159.193 133.344 156.234 133.486 153.207 133.03C153.809 131.446 154.36 130 154.948 128.455C157.802 129.657 159.48 132.268 162.167 133.515ZM164.488 134.965C162.898 135.414 136.615 134.92 135.462 134.604C135.679 133.885 135.679 133.874 136.467 133.869C145.224 133.815 153.968 134.11 162.702 134.724C163.3 134.767 163.893 134.883 164.488 134.965ZM150.109 125.012C150.26 123.974 150.352 123.217 150.489 122.466C150.569 122.03 150.886 121.787 151.329 121.801C151.671 121.81 152.019 121.867 152.352 121.954C157.249 123.228 162.144 124.509 167.038 125.795C167.402 125.891 167.751 126.043 168.149 126.183C168.083 126.858 168.025 127.443 167.951 128.193C167.225 127.869 166.675 127.627 166.129 127.377C164.385 126.578 162.641 125.78 160.901 124.974C158.721 123.965 156.491 123.738 154.143 124.342C152.931 124.653 151.667 124.761 150.109 125.012ZM207.928 123.284C214.513 124.838 220.626 124.404 226.032 119.731C226.488 120.972 226.871 122.016 227.301 123.188C226.639 123.396 226.157 123.577 225.66 123.7C220.486 124.992 215.224 125.465 209.903 125.319C208.318 125.276 208.276 125.197 207.928 123.284ZM118.856 98.0137L119.063 97.8982C119.234 98.1067 119.45 98.2928 119.568 98.5287C120.154 99.7001 120.751 100.868 121.28 102.067C123.289 106.622 125.263 111.194 127.27 115.75C128.643 118.866 130.087 121.952 131.428 125.083C132.407 127.369 133.272 129.706 134.183 132.022C134.261 132.217 134.298 132.428 134.36 132.648C133.435 133.155 133.265 132.442 133.04 131.908C128.42 120.961 123.806 110.013 119.197 99.063C119.055 98.7247 118.968 98.3634 118.856 98.0137ZM140.676 129.511C140.65 129.417 140.623 129.323 140.597 129.229C140.888 129.077 141.167 128.891 141.472 128.776C145.488 127.258 149.564 125.978 153.877 125.627C154.175 125.603 154.472 125.515 154.759 125.425C156.312 124.938 157.869 124.859 159.383 125.512C161.591 126.463 163.79 127.437 165.962 128.465C166.932 128.924 167.889 129.185 168.977 129.192C172.875 129.214 176.771 129.314 180.668 129.384C181.576 129.4 182.486 129.46 183.391 129.418C192.505 128.99 201.602 129.201 210.678 130.145C211.462 130.227 212.241 130.349 213.026 130.412C213.431 130.445 214.035 130.658 214.128 130.062C214.224 129.448 213.616 129.494 213.194 129.44C213.108 129.428 213.02 129.421 212.933 129.409C211.728 129.239 210.523 129.068 209.32 128.897C209.149 128.02 208.996 127.235 208.819 126.326C214.533 126.552 220.03 125.957 225.492 124.833C225.655 125.316 225.794 125.636 225.873 125.971C226.856 130.139 227.879 134.302 228.158 138.596C228.281 140.514 228.46 142.432 228.034 144.349C227.656 146.049 226.708 147.261 225.181 148.061C223.837 148.765 222.406 149.104 220.897 149.17C217.062 149.335 213.445 148.361 209.869 147.122C203.217 144.817 196.888 141.67 190.144 139.615C188.276 139.045 186.372 138.589 184.484 138.082C184.442 138.071 184.398 138.067 184.355 138.058C182.173 137.603 179.975 137.213 177.813 136.679C173.908 135.715 170.03 134.643 166.129 133.656C163.492 132.988 161.136 131.829 159.089 130.016C158.242 129.266 157.304 128.609 156.356 127.986C155.58 127.476 154.693 127.201 153.741 127.253C151.515 127.374 149.291 127.474 147.127 128.125C145.832 128.516 144.506 128.818 143.183 129.109C142.358 129.291 141.512 129.38 140.676 129.511ZM208.322 128.771C207.935 128.788 207.764 128.812 207.596 128.801C200.208 128.328 192.825 128.069 185.413 128.313C180.124 128.486 174.82 128.242 169.523 128.176C169.365 128.174 169.207 128.07 168.995 127.994C169.139 126.485 169.246 125.004 169.429 123.531C169.682 121.486 169.644 119.999 169.158 119.062C168.293 119.932 168.715 120.981 168.592 121.892C168.455 122.911 168.36 123.936 168.233 125.094C162.856 123.662 157.671 122.28 152.398 120.875C152.502 120.491 152.569 120.156 152.682 119.839C154.403 115.022 156.087 110.193 157.868 105.399C159.132 101.998 160.556 98.6563 161.855 95.2681C162.942 92.4327 164.839 90.5799 167.888 90.0435C170.513 89.5815 173.139 89.1212 175.773 88.7139C177.057 88.5158 178.361 88.4397 179.704 88.3034C179.865 88.8924 179.947 89.3669 180.124 89.8026C180.649 91.0922 181.039 92.4803 181.795 93.6243C183.616 96.3803 186.767 97.6486 190.131 95.6841C191.54 94.8614 192.86 93.9287 193.922 92.6834C195.024 91.3927 196.08 90.0632 197.207 88.6876C202.626 89.4808 207.768 91.2526 212.595 93.8991C215.527 95.5067 217.636 97.9381 218.95 101.015C219.551 102.419 220.115 103.848 220.576 105.303C221.804 109.179 222.963 113.077 224.158 116.963C224.973 119.616 224.991 119.636 222.516 121C218.359 123.289 213.94 123.55 209.397 122.54C207.439 122.105 207.453 122.048 206.773 120.163C206.537 119.506 206.333 118.833 206.042 118.199C205.946 117.989 205.628 117.88 205.411 117.724C205.326 117.986 205.176 118.249 205.174 118.512C205.173 118.76 205.332 119.007 205.412 119.256C206.269 121.919 207.128 124.581 207.972 127.247C208.113 127.695 208.185 128.165 208.322 128.771ZM151.388 120.647C149.794 120.88 149.808 120.883 149.512 122.282C149.295 123.302 149.037 124.312 148.797 125.328C147.835 125.608 146.874 125.888 145.912 126.168C143.599 126.843 141.305 127.569 139.173 128.716C138.721 128.96 138.076 129.128 138.161 129.771C138.259 130.511 138.951 130.472 139.514 130.504C141.332 130.609 143.078 130.173 144.829 129.779C145.458 129.638 146.089 129.505 147.001 129.307C146.661 129.707 146.524 129.896 146.358 130.056C145.481 130.905 144.611 131.763 143.705 132.58C143.504 132.76 143.169 132.876 142.895 132.878C140.749 132.895 138.602 132.863 136.455 132.879C135.884 132.883 135.574 132.648 135.367 132.14C134.755 130.642 134.066 129.174 133.504 127.659C132.089 123.841 130.468 120.119 128.742 116.43C126.463 111.56 124.39 106.593 122.205 101.678C121.601 100.32 120.932 98.9891 120.253 97.6672C119.836 96.8576 118.647 96.5325 117.896 96.9884C117.487 97.2375 117.502 97.6091 117.679 98.0224C118.198 99.2277 118.692 100.444 119.202 101.653C123.724 112.373 128.246 123.091 132.767 133.811C132.9 134.128 133.009 134.455 133.198 134.959C132.637 134.979 132.184 135.013 131.731 135.007C125.994 134.928 120.257 134.843 114.52 134.76C114.17 134.756 113.807 134.711 113.475 134.79C113.268 134.839 113.11 135.087 112.93 135.246C113.096 135.407 113.241 135.665 113.434 135.708C113.813 135.792 114.217 135.765 114.611 135.771C120.437 135.862 126.261 135.953 132.087 136.04C143.65 136.214 155.213 136.385 166.777 136.559C168.703 136.588 170.636 136.729 172.554 136.616C173.562 136.556 174.406 136.779 175.277 137.346C174.829 137.346 174.381 137.352 173.931 137.345C163.112 137.193 152.293 137.033 141.473 136.888C132.581 136.768 123.689 136.663 114.796 136.562C114.311 136.557 113.824 136.659 113.338 136.711C113.315 136.813 113.292 136.914 113.269 137.016C113.478 137.18 113.665 137.427 113.901 137.49C114.231 137.578 114.596 137.533 114.947 137.538C129.972 137.738 144.997 137.936 160.022 138.137C165.717 138.213 171.412 138.3 177.107 138.358C177.703 138.364 178.3 138.186 178.9 138.133C179.197 138.108 179.509 138.137 179.801 138.201C183.22 138.95 186.663 139.611 190.044 140.506C192.019 141.028 193.897 141.919 195.811 142.663C200.786 144.594 205.73 146.61 210.74 148.447C214.083 149.673 217.562 150.374 221.168 150.155C222.808 150.056 224.365 149.671 225.81 148.874C227.424 147.983 228.389 146.655 228.974 144.881C229.712 142.645 229.218 140.465 229.071 138.26C228.775 133.789 227.663 129.465 226.628 125.13C226.588 124.964 226.592 124.789 226.579 124.648C226.665 124.553 226.71 124.464 226.781 124.432C228.429 123.687 228.474 123.623 227.892 121.859C227.634 121.073 227.301 120.308 226.963 119.551C226.842 119.282 226.645 118.901 226.418 118.848C225.551 118.649 225.458 117.959 225.256 117.3C223.936 112.994 222.68 108.666 221.252 104.396C220.577 102.376 219.684 100.406 218.687 98.5194C217.272 95.8472 214.996 93.9637 212.347 92.5942C207.694 90.188 202.744 88.6039 197.614 87.5579C196.891 87.4106 196.568 87.8173 196.215 88.2727C195.438 89.2761 194.668 90.2843 193.887 91.2849C192.768 92.719 191.366 93.823 189.823 94.7727C187.148 96.4186 184.722 95.6096 182.944 93.4809C181.702 91.9948 181.161 90.1913 180.817 88.322C180.632 87.3159 180.512 87.1731 179.561 87.27C175.642 87.6684 171.741 88.1321 167.878 88.969C164.358 89.732 162.169 91.7846 160.93 95.0573C158.916 100.373 156.848 105.668 154.85 110.99C153.652 114.183 152.546 117.409 151.388 120.647Z" fill="black"/>
<path fill-rule="evenodd" clip-rule="evenodd" d="M202.078 72.9951C202.714 73.9469 201.951 74.254 202.418 75.6131C202.513 75.8874 202.665 76.1041 202.852 76.288C202.843 76.0954 202.854 75.8737 202.868 75.6328C202.91 74.861 202.961 73.9004 202.443 72.942C202.13 72.3629 201.502 72.0312 200.584 71.9326C201.164 72.0996 201.691 72.416 202.078 72.9951ZM207.452 78.5809C208.049 79.2493 208.36 80.0369 208.379 80.8076C208.469 80.0555 208.43 79.0035 207.771 78.1524C206.986 77.1414 205.52 77.1113 204.435 77.0965C205.475 77.4271 206.666 77.6991 207.452 78.5809ZM207.674 83.6764C208.481 83.2117 208.27 82.1968 208.191 81.9084C207.973 82.488 207.568 83.0157 206.96 83.418C206.596 83.6578 206.21 83.8647 205.835 84.0885C205.547 84.2604 205.4 84.4646 205.355 84.7481C205.656 84.5264 206.099 84.3507 206.562 84.1706C206.948 84.0201 207.348 83.8647 207.674 83.6764ZM179.583 62.7473C179.988 61.0253 181.184 59.861 182.952 60.0406C183.908 60.138 185.136 59.9273 186.075 59.8479C188.834 59.6142 190.86 61.0034 192.731 62.9881C193.5 63.8032 193.978 64.7403 194.171 65.8667C194.341 66.8558 194.452 67.7316 194.421 68.6287C194.669 68.5861 194.794 68.5789 194.908 68.5412C196.499 68.0151 197.712 68.9101 197.65 70.5845C197.629 71.1734 197.479 71.6956 197.215 72.1412C197.259 72.133 197.322 72.1193 197.408 72.0996C197.782 72.0142 198.134 71.9474 198.469 71.8943C198.834 71.815 199.206 71.7641 199.6 71.7788C201.123 71.7044 202.124 72.0646 202.563 72.8768C203.1 73.8692 203.044 74.8928 203.004 75.6405C202.987 75.953 202.974 76.2207 203.002 76.4276C203.281 76.6509 203.628 76.8119 204.008 76.9514C204.133 76.9547 204.263 76.9569 204.401 76.9591C205.517 76.9739 207.045 76.9947 207.879 78.0686C209.017 79.5366 208.384 81.5685 208.303 81.806C208.362 81.9927 208.709 83.2385 207.743 83.7952C207.408 83.9884 207.003 84.146 206.611 84.2982C206.101 84.4963 205.616 84.6885 205.343 84.9331C205.342 85.0092 205.338 85.082 205.349 85.1696C205.532 86.6529 204.712 87.6836 203.23 87.9305C202.76 88.0088 202.272 88.0093 201.793 88.0022C200.571 87.9836 199.35 87.9108 198.128 87.9174C197.724 87.9195 197.378 87.8418 197.082 87.6924C197.072 87.9294 197.054 88.1719 197.054 88.4193C196.193 88.3897 196.225 87.8555 196.128 87.4034C195.216 83.1706 194.517 78.905 194.133 74.5896C194.012 73.2408 194.027 73.2003 195.325 72.5282C196.324 72.0115 196.904 70.9014 196.548 70.053C196.426 69.764 196.13 69.4071 195.864 69.3606C195.628 69.3201 195.299 69.6375 195.06 69.8516C194.924 69.9736 194.35 70.5763 194.03 70.8248C193.909 71.1477 193.775 71.4116 193.595 71.9846C193.223 71.4116 190.218 65.8739 187.155 63.9707C186.124 63.3302 185.389 62.6532 184.378 61.9284C183.672 62.5678 183.663 62.9838 182.425 64.5585C181.895 65.1864 181.19 65.7102 180.525 66.3435C180.542 66.6867 180.564 67.0293 180.596 67.3704C180.926 70.9452 181.395 74.4992 183.009 77.7807C183.753 79.292 184.533 79.6281 186.189 79.1185C187.407 78.7424 188.569 78.246 189.553 77.3997C189.835 77.1578 190.188 76.75 190.542 77.2186C190.865 77.6455 190.452 77.9559 190.146 78.1814C189.62 78.5684 189.082 78.9559 188.502 79.2493C187.049 79.9849 185.535 80.5192 183.877 80.2132C183.726 80.6555 183.599 80.9795 183.503 81.3134C182.924 83.3288 182.364 85.3508 181.768 87.3618C181.62 87.861 181.655 88.5184 180.616 88.7784C180.695 88.1795 180.703 87.7581 180.812 87.364C181.414 85.1734 182.053 82.9933 182.648 80.8011C182.778 80.3227 183.056 79.8569 182.708 79.304C181.33 77.1228 180.674 74.6799 180.205 72.1735C179.91 70.6009 179.68 69.0223 179.561 67.436C179.56 67.4382 179.559 67.4393 179.559 67.441C179.326 65.8421 179.278 64.0511 179.583 62.7473Z" fill="black"/>
<path fill-rule="evenodd" clip-rule="evenodd" d="M184.652 67.2379L183.814 70.5467L185.036 70.6688L184.652 67.2379Z" fill="black"/>
<path fill-rule="evenodd" clip-rule="evenodd" d="M184.649 67.2699L185.029 70.662L183.822 70.5416L184.649 67.2699ZM185.036 70.6746C185.037 70.6746 185.038 70.674 185.039 70.6729C185.041 70.6713 185.041 70.6696 185.041 70.668L184.658 67.2371C184.657 67.2344 184.655 67.2322 184.652 67.2322C184.649 67.2322 184.647 67.2338 184.646 67.236L183.809 70.5448C183.808 70.5465 183.809 70.5487 183.81 70.5498C183.811 70.5514 183.812 70.5519 183.814 70.5525L185.035 70.6746H185.036Z" fill="black"/>
<path fill-rule="evenodd" clip-rule="evenodd" d="M185.617 64.8075C185.617 64.8075 185.567 65.8207 185.791 66.033C186.734 65.929 188.855 66.2788 189.919 66.7479C189.5 65.7774 185.617 64.8075 185.617 64.8075Z" fill="black"/>
<path fill-rule="evenodd" clip-rule="evenodd" d="M185.622 64.8149C185.712 64.8379 186.642 65.076 187.609 65.4192C188.931 65.89 189.724 66.3448 189.907 66.7367C188.869 66.2846 186.763 65.9212 185.793 66.0279C185.585 65.8248 185.618 64.9052 185.622 64.8149ZM189.919 66.7542C189.92 66.7542 189.921 66.7531 189.922 66.7521C189.925 66.7504 189.925 66.7482 189.924 66.7455C189.75 66.3421 188.972 65.8921 187.613 65.4088C186.601 65.0492 185.628 64.8045 185.618 64.8023C185.616 64.8018 185.615 64.8023 185.614 64.8034C185.612 64.804 185.611 64.8056 185.611 64.8073C185.609 64.8489 185.563 65.8259 185.787 66.0377C185.788 66.0388 185.791 66.0399 185.792 66.0394C186.764 65.9316 188.884 66.2988 189.916 66.7537C189.917 66.7537 189.917 66.7542 189.919 66.7542Z" fill="black"/>
<path fill-rule="evenodd" clip-rule="evenodd" d="M187.24 69.343C187.543 69.3616 187.846 69.3052 188.128 69.2122C188.024 69.2428 187.913 69.2598 187.797 69.2598C187.22 69.2598 186.751 68.8482 186.751 68.3429C186.751 68.1393 186.909 67.8957 187.059 67.7272C186.319 67.795 185.67 68.1798 185.43 68.338C185.645 68.592 186.312 69.286 187.24 69.343ZM188.816 68.0911C188.833 68.1782 188.843 68.2734 188.843 68.3429C188.843 68.7097 188.596 69.0266 188.24 69.1727C188.784 68.9713 189.235 68.6473 189.427 68.4962C189.315 68.401 189.106 68.2411 188.816 68.0911ZM185.192 68.2203C185.231 68.1913 186.159 67.4984 187.249 67.4841C188.747 67.4672 189.65 68.3813 189.688 68.4201C189.71 68.4426 189.722 68.4738 189.721 68.5055C189.72 68.5367 189.705 68.5668 189.682 68.5876C189.634 68.6298 188.545 69.5789 187.359 69.5789C187.315 69.5789 187.27 69.5772 187.226 69.5745C185.982 69.4973 185.2 68.4261 185.167 68.3807C185.131 68.3293 185.142 68.2586 185.192 68.2203Z" fill="black"/>
<path fill-rule="evenodd" clip-rule="evenodd" d="M182.133 69.1092C182.4 69.1278 182.666 69.0626 182.911 68.9608C182.869 68.969 182.826 68.9745 182.783 68.9745C182.318 68.9745 181.94 68.5968 181.94 68.1327C181.94 67.9296 182.012 67.7391 182.14 67.5886C182.088 67.5853 182.036 67.5836 181.983 67.5836H181.983C181.396 67.5836 180.86 67.9969 180.672 68.1595C180.839 68.391 181.381 69.055 182.133 69.1092ZM183.888 68.3204C183.827 68.2684 183.736 68.1956 183.618 68.1157C183.595 68.3105 183.511 68.5065 183.379 68.6658C183.343 68.7096 183.305 68.7473 183.265 68.7818C183.547 68.6154 183.771 68.426 183.888 68.3204ZM180.437 68.0588C180.466 68.0297 181.16 67.3516 181.983 67.3516H181.983C183.256 67.3516 184.106 68.2011 184.142 68.2372C184.186 68.2821 184.186 68.3543 184.142 68.3998C184.132 68.4102 183.891 68.6559 183.523 68.8951C183.066 69.1934 182.631 69.3445 182.229 69.3445C182.191 69.3445 182.154 69.3434 182.117 69.3407C181.088 69.2668 180.446 68.2454 180.42 68.2022C180.391 68.1562 180.398 68.0965 180.437 68.0588Z" fill="black"/>
<path fill-rule="evenodd" clip-rule="evenodd" d="M184.001 64.8079C184.001 64.8079 184.052 65.821 183.827 66.0334C182.886 65.9294 181.369 66.179 180.305 66.6476C180.723 65.6776 184.001 64.8079 184.001 64.8079Z" fill="black"/>
<path fill-rule="evenodd" clip-rule="evenodd" d="M183.357 66.0041C182.418 66.0041 181.199 66.2504 180.316 66.6363C180.497 66.2444 181.186 65.8071 182.312 65.3692C183.131 65.0511 183.914 64.8371 183.996 64.8152C184 64.9061 184.034 65.8246 183.825 66.0276C183.68 66.0118 183.523 66.0041 183.357 66.0041ZM180.305 66.6538L180.307 66.6533C181.345 66.1962 182.858 65.9319 183.827 66.0391C183.828 66.0397 183.83 66.0386 183.831 66.038C183.926 65.9483 183.984 65.7146 184.005 65.3412C184.02 65.0643 184.007 64.8098 184.007 64.807C184.007 64.8059 184.006 64.8043 184.005 64.8032C184.004 64.8021 184.002 64.8015 184 64.8021C183.992 64.8043 183.17 65.0232 182.308 65.3582C181.511 65.668 180.516 66.1426 180.3 66.6456C180.298 66.6478 180.299 66.6505 180.301 66.6522C180.302 66.6533 180.303 66.6538 180.305 66.6538Z" fill="black"/>
<path fill-rule="evenodd" clip-rule="evenodd" d="M186.651 71.8986C186.072 72.4459 185.602 72.7503 184.817 72.8023C184.033 72.8548 183.483 72.568 183.483 72.568C183.483 72.568 184.111 73.6326 184.87 73.8302C186.439 74.2402 186.365 73.0103 186.651 71.8986Z" fill="black"/>
<path fill-rule="evenodd" clip-rule="evenodd" d="M186.641 71.9167C186.596 72.0918 186.56 72.2703 186.526 72.4427C186.412 73.0076 186.305 73.5418 185.928 73.7761C185.682 73.9304 185.336 73.9463 184.871 73.8248C184.176 73.643 183.583 72.7185 183.499 72.5817C183.6 72.6299 184.119 72.8543 184.818 72.8083C185.607 72.7552 186.07 72.4542 186.641 71.9167ZM185.419 73.9167C185.624 73.9167 185.795 73.8729 185.934 73.7859C186.315 73.5483 186.423 73.0125 186.537 72.4449C186.573 72.2664 186.61 72.0814 186.657 71.9002C186.658 71.8975 186.656 71.8953 186.654 71.8937C186.652 71.8926 186.649 71.8926 186.648 71.8948C186.071 72.4388 185.609 72.7437 184.817 72.7963C184.043 72.8483 183.491 72.5658 183.486 72.5631C183.483 72.5614 183.48 72.562 183.479 72.5642C183.477 72.5658 183.477 72.5686 183.478 72.5708C183.484 72.5817 184.116 73.6392 184.868 73.8363C185.074 73.8894 185.257 73.9167 185.419 73.9167Z" fill="black"/>
<path fill-rule="evenodd" clip-rule="evenodd" d="M93.929 58.1121C94.3029 58.0644 94.6729 57.9893 95.0454 57.9751C95.8538 57.9438 96.6647 57.9694 97.4721 57.9262C100.702 57.7528 103.93 57.5422 107.161 57.3834C110.174 57.2357 113.15 56.8032 116.081 56.1335C120.362 55.1567 124.624 54.1054 128.804 52.7352C132.949 51.3764 136.729 49.3476 140.288 46.862C140.809 46.4986 141.015 46.0534 141.01 45.4681C141.005 44.9895 140.995 44.5083 140.946 44.0322C140.839 42.979 140.714 41.9273 140.581 40.877C140.232 38.1201 139.612 35.4186 138.846 32.7511C137.411 27.7556 135.343 23.0347 132.698 18.5557C131.971 17.3231 130.955 16.6554 129.581 16.4097C126.76 15.9049 123.903 15.832 121.053 15.6795C120.147 15.6309 119.23 15.6432 118.325 15.7152C115.656 15.9264 112.991 16.2131 110.321 16.411C107.292 16.6355 104.302 17.1359 101.302 17.5687C99.3766 17.8462 97.4452 18.0875 95.5255 18.4C92.6602 18.8666 89.7885 19.3143 86.9457 19.8968C84.4241 20.4136 81.9304 21.0735 79.4389 21.7251C77.682 22.1848 75.9394 22.706 74.2108 23.2617C73.521 23.4833 72.8685 23.8426 72.2294 24.1946C71.5032 24.5946 71.2455 25.2507 71.4096 26.0583C71.5456 26.7251 71.6664 27.3988 71.8587 28.0501C72.458 30.0808 73.1048 32.0976 73.7025 34.1286C74.8483 38.022 75.8477 41.9589 77.2197 45.7847C77.9676 47.8713 78.516 50.0295 79.5135 52.027C80.1577 53.3158 80.7982 54.5992 81.7583 55.6969C82.1862 56.1859 82.6666 56.5841 83.3045 56.7287C84.6082 57.0242 85.9137 57.3127 87.2679 57.2452C87.6446 57.2262 88.0244 57.2894 88.403 57.2944C88.9691 57.3026 89.3436 57.5795 89.613 58.061C90.392 59.4529 91.1032 60.8692 91.3604 62.4677C91.3904 62.6556 91.46 62.8368 91.5555 63.179C92.6441 61.5581 93.4701 59.9934 93.929 58.1121ZM94.96 59.0185C94.5442 59.9003 94.151 60.6896 93.7965 61.4956C93.2503 62.7361 92.4205 63.782 91.5909 64.8343C91.2582 65.2561 90.8863 65.3571 90.3119 65.1415C90.3119 64.6853 90.3205 64.2133 90.3107 63.7416C90.2749 62.009 89.8006 60.4171 88.8126 58.9769C88.5399 58.5797 88.2183 58.4389 87.7464 58.4016C86.3637 58.2924 84.9791 58.167 83.6072 57.9678C82.0094 57.7361 80.7861 56.8578 79.9813 55.4806C79.3342 54.3725 78.7156 53.2334 78.2282 52.0491C76.4319 47.6822 74.9619 43.2057 73.7927 38.6272C73.125 36.014 72.298 33.4419 71.6073 30.8344C71.1693 29.1794 70.8239 27.4983 70.4874 25.819C70.3229 24.9975 70.7629 24.3503 71.3498 23.8334C72.2376 23.0527 73.3312 22.6287 74.4166 22.2167C76.2383 21.5249 78.1368 21.0984 80.0309 20.6539C82.2672 20.1292 84.4788 19.493 86.7259 19.0213C89.3685 18.4666 92.0343 18.0174 94.6963 17.5574C97.1097 17.1406 99.5329 16.782 101.948 16.3785C105.04 15.8614 108.14 15.4206 111.272 15.2223C113.793 15.0632 116.311 14.8302 118.835 14.7182C121.868 14.583 124.901 14.6657 127.905 15.1674C129.048 15.3581 130.181 15.6085 131.313 15.8585C131.568 15.915 131.81 16.0631 132.036 16.2045C133.804 17.3089 134.978 18.9263 135.987 20.7035C137.03 22.5384 137.733 24.4879 138.257 26.5274C138.746 28.4309 139.369 30.2996 139.924 32.1866C140.629 34.5873 141.041 37.0511 141.421 39.5172C141.753 41.6596 141.987 43.8172 142.294 45.9637C142.355 46.3944 142.157 46.6299 141.877 46.8597C139.491 48.8225 136.997 50.6133 134.142 51.8625C129.316 53.975 124.365 55.7067 119.175 56.6649C116.046 57.2423 112.905 57.7787 109.747 58.1563C106.137 58.5879 102.505 58.8553 98.8773 59.124C97.7526 59.2073 96.6106 59.0593 95.4768 59.0195C95.3019 59.0132 95.1267 59.0185 94.96 59.0185Z" fill="black"/>
<path fill-rule="evenodd" clip-rule="evenodd" d="M96.4701 23.6201C96.1108 25.4776 96.7078 27.881 97.7034 28.7099C98.347 26.7902 97.5196 25.268 96.4701 23.6201ZM98.1855 29.3381C99.6738 30.193 101.17 30.4862 102.772 29.9583C103.477 29.7262 103.983 29.2315 104.33 28.5874C104.508 28.256 104.657 27.9083 104.846 27.5828C105.135 27.085 105.441 26.9907 105.81 27.3932C106.523 28.1714 107.368 28.2914 108.315 28.0179C109.094 27.793 109.86 27.5261 110.622 27.2513C110.881 27.1577 111.111 26.9869 111.423 27.2219C111.255 27.7623 110.756 27.9596 110.345 28.1417C109.797 28.3848 109.175 28.4681 108.585 28.6197C107.452 28.9104 106.361 28.9709 105.437 27.9831C105.322 28.147 105.219 28.2538 105.163 28.3804C104.112 30.77 101.895 31.2362 99.758 30.7525C99.0962 30.6028 98.4705 30.3001 97.7455 30.0376C97.6944 30.0815 97.5601 30.1861 97.4379 30.3029C95.6909 31.9705 93.6813 32.5917 91.3634 31.6378C90.3085 31.2036 89.4109 31.2841 88.4986 31.9342C88.0921 32.224 87.6198 32.4451 87.1479 32.6212C86.4121 32.8959 85.7407 32.7174 85.1833 32.1738C84.9123 31.9094 84.6718 31.6153 84.4047 31.3471C83.9895 30.9298 83.7872 30.8891 83.3897 31.3317C82.9225 31.8524 82.5441 32.4505 82.1369 33.0222C81.9892 33.2299 81.9786 33.6682 81.6098 33.5219C81.2039 33.3612 81.4244 32.9764 81.5734 32.7543C82.0198 32.0902 82.4605 31.4066 83.0118 30.8308C83.6555 30.1579 84.2557 30.2149 84.9273 30.8628C85.2002 31.1256 85.4609 31.4007 85.733 31.6644C86.0694 31.9906 86.4685 32.1215 86.921 31.9489C87.3218 31.796 87.7535 31.6676 88.0937 31.4239C89.2545 30.5905 90.4243 30.5166 91.7591 31.052C93.6104 31.7948 95.702 31.2544 96.9921 29.8402C97.0738 29.7506 97.1348 29.6435 97.2139 29.5317C96.9513 29.1382 96.6555 28.7867 96.4605 28.3876C95.6513 26.73 95.5256 24.9741 95.7943 23.1828C95.8255 22.9745 96.0221 22.7204 96.212 22.6311C96.3303 22.5754 96.6561 22.7395 96.7589 22.8905C97.5987 24.1204 98.3709 25.3792 98.5684 26.8986C98.6753 27.7216 98.4989 28.485 98.1855 29.3381Z" fill="black"/>
<path fill-rule="evenodd" clip-rule="evenodd" d="M117.29 36.9109C117.29 36.4271 117.348 35.9957 117.276 35.5888C117.184 35.0752 117.042 34.5533 116.818 34.087C116.59 33.6131 116.238 33.6585 116.01 34.1299C115.487 35.2094 116.063 36.6014 117.29 36.9109ZM125.613 34.0565C125.364 34.9657 125.004 35.7634 124.323 36.3731C123.459 37.1474 122.447 37.6229 121.331 37.8797C120.094 38.1644 118.851 38.1435 117.648 37.9082C117.152 38.3822 116.721 38.8847 116.205 39.2707C114.186 40.7816 112.032 41.1454 109.737 39.9198C109.512 39.7998 109.111 39.7268 109.277 39.3652C109.437 39.017 109.76 39.2583 110.004 39.3459C110.497 39.523 110.97 39.7938 111.477 39.8919C113.701 40.3217 115.396 39.3494 116.935 37.6933C116.657 37.5007 116.439 37.3531 116.224 37.1994C115.005 36.329 114.987 34.892 115.36 33.9388C115.525 33.5175 115.768 33.1592 116.26 33.1312C116.788 33.1014 117.163 33.3718 117.404 33.8416C117.818 34.6508 117.948 35.5208 117.936 36.4192C117.933 36.6455 117.906 36.8715 117.888 37.1178C117.978 37.1759 118.054 37.2616 118.14 37.2743C119.952 37.5343 121.683 37.3216 123.266 36.3211C124.107 35.7894 124.682 35.053 124.921 34.0613C125.01 33.6915 124.975 33.3849 124.713 33.0782C124.487 32.8144 124.284 32.5021 124.177 32.1761C124.113 31.9815 124.182 31.6517 124.318 31.5006C124.538 31.2568 124.869 31.373 125.045 31.5987C125.254 31.8672 125.452 32.191 125.515 32.5186C125.599 32.9551 125.803 33.2531 126.138 33.5064C126.965 34.133 127.832 34.673 128.852 34.9241C129.356 35.0482 129.842 35.0504 130.324 34.8536C130.393 34.825 130.46 34.7873 130.532 34.766C130.754 34.7 131.023 34.6305 131.086 34.9285C131.112 35.0498 130.926 35.2898 130.781 35.3634C130.053 35.7345 129.284 35.7138 128.513 35.5139C127.628 35.2837 126.841 34.8482 126.092 34.3305C125.953 34.2337 125.797 34.161 125.613 34.0565Z" fill="black"/>
<path fill-rule="evenodd" clip-rule="evenodd" d="M94.7596 42.296C94.4742 42.1717 94.4045 41.9474 94.597 41.7278C95.3282 40.8925 96.135 40.1313 97.3652 40.1101C97.8244 40.1018 98.2939 40.2281 98.7459 40.3399C99.4657 40.5173 100.167 40.7679 100.89 40.9272C102.305 41.2388 103.707 40.9723 105.098 40.7336C105.704 40.6296 106.292 40.4238 106.887 40.264C106.983 40.2383 107.086 40.1738 107.171 40.1917C107.32 40.2234 107.457 40.3046 107.599 40.3653C107.537 40.4839 107.504 40.6362 107.406 40.7124C107.276 40.8137 107.1 40.8701 106.936 40.9203C105.054 41.493 103.139 41.8915 101.158 41.6265C100.356 41.519 99.5564 41.2901 98.7991 41.0087C97.4728 40.5161 96.3772 40.7491 95.4439 41.7675C95.2813 41.9453 95.0922 42.1015 94.9097 42.2613C94.8787 42.2885 94.8174 42.2837 94.7596 42.296Z" fill="black"/>
</svg>
