<?xml version="1.0" encoding="utf-8"?>
<svg width="128.7857px" height="112px" viewBox="0 0 128.7857 112" version="1.1" xmlns="http://www.w3.org/2000/svg">
  <g id="Grup">
    <path d="M61.6783 39.7585C61.6783 39.7585 64.6982 37.7889 64.1612 29.6552C64.1612 29.6552 68.9371 31.8864 74.1476 28.1137L75.3494 39.6645C75.3494 39.6645 71.7369 43.7607 67.949 43.3635C64.1612 42.9662 61.6783 39.7585 61.6783 39.7585L61.6783 39.7585Z" id="Şekil" fill="#FBEFE3" fill-rule="evenodd" stroke="none" />
    <path d="M64.277 29.4079C67.3648 30.8504 70.5895 30.3526 73.987 27.8927C74.1574 27.7693 74.3977 27.8764 74.4195 28.0855L75.6213 39.6362C75.6292 39.712 75.605 39.7876 75.5546 39.8448C73.0926 42.6364 70.5446 43.91 67.9204 43.6348C65.3195 43.362 63.162 42.1217 61.4619 39.9252C61.3644 39.7992 61.3952 39.6169 61.5288 39.5299C63.4341 38.2872 64.2404 35.0059 63.8883 29.673C63.8746 29.4658 64.0886 29.3198 64.277 29.4079L64.277 29.4079ZM75.0644 39.5725L73.9232 28.6046L73.6977 28.7572C70.5647 30.8266 67.525 31.2935 64.6037 30.1427L64.4606 30.0845L64.4678 30.2097C64.7221 35.1065 63.9653 38.2903 62.1522 39.7512L62.0714 39.8138L62.2014 39.9708C63.7076 41.7524 65.5534 42.781 67.7492 43.0651L67.9776 43.0919C70.4039 43.3463 72.7895 42.1539 75.1442 39.4841L75.0644 39.5725L75.0644 39.5725Z" id="Şekil" fill="#000000" fill-rule="evenodd" stroke="none" />
    <path d="M67.9587 30.4065C62.4394 30.4065 57.9651 25.6704 57.9651 19.8273C57.9651 13.9841 62.4394 9.24747 67.9587 9.24747C73.478 9.24747 77.9523 13.9841 77.9523 19.8273C77.9523 25.6704 73.478 30.4065 67.9587 30.4065L67.9587 30.4065Z" id="Şekil" fill="#FBEFE3" fill-rule="evenodd" stroke="none" />
    <path d="M67.9588 9.52035C62.5992 9.52035 58.2386 14.144 58.2386 19.8272C58.2386 25.5104 62.5992 30.1336 67.9588 30.1336C73.3184 30.1336 77.6789 25.5104 77.6789 19.8272C77.6789 14.144 73.3184 9.52035 67.9588 9.52035L67.9588 9.52035ZM67.9588 30.6794C62.2973 30.6794 57.6918 25.8112 57.6918 19.8272C57.6918 13.8427 62.2973 8.97449 67.9588 8.97449C73.6202 8.97449 78.2257 13.8427 78.2257 19.8272C78.2257 25.8112 73.6202 30.6794 67.9588 30.6794L67.9588 30.6794Z" id="Şekil" fill="#000000" fill-rule="evenodd" stroke="none" />
    <path d="M69.0293 19.6404L69.0479 19.6404C69.2072 19.6404 69.3361 19.5123 69.3361 19.354C69.3361 19.1956 69.2072 19.068 69.0479 19.068L68.9612 19.068L69.3795 18.7234C69.5022 18.6232 69.5196 18.4419 69.4178 18.321C69.3159 18.1979 69.1346 18.1817 69.0125 18.2824L68.0583 19.068L66.325 19.068C66.1658 19.068 66.0368 19.1956 66.0368 19.354C66.0368 19.5123 66.1658 19.6404 66.325 19.6404L68.0662 19.6404L69.0237 20.351C69.0755 20.3897 69.1357 20.4081 69.196 20.4081C69.2838 20.4081 69.3705 20.3684 69.4268 20.2928C69.5219 20.1659 69.496 19.9868 69.3682 19.8922L69.0293 19.6404L69.0293 19.6404ZM68.8143 24.533C68.6747 24.4586 68.5008 24.5101 68.4248 24.6511C67.9215 25.5866 67.2865 26.1618 66.539 26.361C65.4604 26.6497 64.4803 26.0522 64.4702 26.046C64.3373 25.9637 64.1589 26.0035 64.0733 26.1366C63.9895 26.2709 64.0289 26.4472 64.1634 26.5305C64.2028 26.5546 64.9465 27.0134 65.9237 27.0134C66.1641 27.0134 66.4191 26.9855 66.6808 26.9166C67.5922 26.6766 68.3499 26.0052 68.9331 24.9207C69.008 24.7814 68.955 24.608 68.8143 24.533L68.8143 24.533ZM62.4065 15.8306C62.3615 15.8306 61.1832 15.8121 60.1379 16.7046C60.0174 16.8081 60.0034 16.9883 60.1075 17.1086C60.1644 17.1746 60.2449 17.2076 60.326 17.2076C60.3924 17.2076 60.4593 17.1847 60.514 17.1388C61.3814 16.3974 62.3879 16.4052 62.3936 16.4036L62.3986 16.4036C62.5551 16.4036 62.6846 16.2793 62.6874 16.1232C62.6908 15.9654 62.5658 15.8345 62.4065 15.8306L62.4065 15.8306ZM66.9758 16.4036L66.9803 16.4036C66.9898 16.4019 67.9919 16.3979 68.8599 17.1388C68.9145 17.1847 68.9815 17.2076 69.0479 17.2076C69.129 17.2076 69.2095 17.174 69.2664 17.1086C69.3705 16.9883 69.3564 16.8081 69.2359 16.7046C68.1906 15.8115 67.0192 15.8306 66.9679 15.8306C66.8092 15.8345 66.6836 15.966 66.687 16.1232C66.6904 16.2793 66.8193 16.4036 66.9758 16.4036L66.9758 16.4036ZM61.8064 18.5029C61.4783 18.5029 61.2126 18.9231 61.2126 19.4418C61.2126 19.9594 61.4783 20.379 61.8064 20.379C62.134 20.379 62.4003 19.9594 62.4003 19.4418C62.4003 18.9231 62.134 18.5029 61.8064 18.5029L61.8064 18.5029ZM65.2015 23.1151C65.345 23.1151 65.4694 23.0088 65.4868 22.8634C65.506 22.7061 65.3934 22.564 65.2363 22.5444L63.7975 22.3704L64.2484 20.6666C64.2884 20.5139 64.1972 20.3572 64.043 20.3169C63.8921 20.2749 63.7316 20.3678 63.6911 20.5211L63.1558 22.5428C63.1344 22.6227 63.149 22.7078 63.1957 22.7766C63.2424 22.8449 63.3168 22.8897 63.3995 22.8997L65.1666 23.1129C65.1778 23.1146 65.1902 23.1151 65.2015 23.1151L65.2015 23.1151Z" id="Şekil" fill="#000000" fill-rule="evenodd" stroke="none" />
    <path d="M75.2916 13.6977C75.2916 13.6977 73.8703 15.8256 71.5359 13.6977C71.5359 13.6977 68.9974 11.3668 66.5612 13.6977C64.1245 16.0287 61.3837 14.2606 61.0791 12.6622C61.0791 12.6622 54.1763 15.1165 53.77 8.63083C53.3637 2.14516 61.8912 6.09737 61.8912 6.09737C61.8912 6.09737 60.8762 1.43551 64.9366 0.422342C68.9974 -0.591368 71.2307 4.0705 71.2307 4.0705C71.2307 4.0705 71.2307 0.0167492 75.2916 0.725855C79.3524 1.43551 78.0329 4.27302 78.0329 4.27302C78.0329 4.27302 80.6725 0.118283 83.6162 2.85426C86.5598 5.59024 83.6162 8.73182 83.6162 8.73182C83.6162 8.73182 89.9924 8.71817 89.2 13.5962C88.5903 17.3464 85.2403 14.8223 85.2403 14.8223C85.1894 15.087 89.2683 16.3327 87.4736 20.8701C85.9452 24.7359 83.4133 22.4128 83.4133 22.4128C83.4133 22.4128 85.85 26.7705 82.8041 28.2902C82.8041 28.2902 81.2812 29.1014 80.5703 28.2902C80.5703 28.2902 79.2414 33.0061 75.6421 29.888C75.6421 29.888 72.0433 26.3649 74.8858 22.8184C74.8858 22.8184 76.0025 21.8052 75.6979 19.0687C75.6979 19.0687 73.4646 16.4343 75.2916 13.6977L75.2916 13.6977Z" id="Şekil" fill="#FECB51" fill-rule="evenodd" stroke="none" />
    <path d="M75.5245 13.8529C73.8392 16.3766 75.8264 18.7867 75.9117 18.8887C75.9472 18.9308 75.9702 18.9826 75.9762 19.0372C76.2928 21.8835 75.1248 22.9796 75.0739 23.0249C72.4562 26.2978 75.699 29.5524 75.8384 29.6894C76.7916 30.5137 77.6561 30.8281 78.3949 30.6059C79.7205 30.2118 80.2957 28.2351 80.3007 28.2155C80.3285 28.1167 80.4089 28.0408 80.5085 28.0184C80.6118 27.9949 80.7135 28.0304 80.7808 28.1068C81.3271 28.7297 82.6592 28.0517 82.6729 28.0446C83.3121 27.7253 83.7321 27.2471 83.9257 26.6199C84.4594 24.8954 83.182 22.5729 83.1688 22.5495C83.1016 22.4294 83.1322 22.2798 83.2394 22.1941C83.3477 22.1089 83.5002 22.1155 83.6019 22.2072C83.6107 22.2148 84.4927 23.0107 85.447 22.7864C86.1541 22.6226 86.7485 21.943 87.2133 20.7671C88.5875 17.2926 86.375 15.9131 85.43 15.3241C85.1118 15.1265 84.9198 15.0069 84.9658 14.7689C84.9844 14.674 85.05 14.5959 85.1402 14.561C85.231 14.526 85.3321 14.5408 85.4093 14.5986C85.4246 14.6095 86.8846 15.6931 87.9116 15.281C88.4306 15.0725 88.7712 14.4911 88.9238 13.5516C89.1097 12.4058 88.8883 11.4549 88.2671 10.7267C86.8179 9.0295 83.6544 9.01148 83.6173 9.01148L83.6167 9.01148C83.5057 9.01148 83.404 8.94543 83.3602 8.8428C83.3159 8.74127 83.3356 8.62281 83.4122 8.54147C83.5243 8.42083 86.1262 5.56912 83.4253 3.05914C82.7226 2.40571 81.9838 2.1224 81.2281 2.21957C79.5553 2.43355 78.2817 4.40311 78.2697 4.42331C78.1898 4.54723 78.0291 4.58817 77.9 4.51829C77.7704 4.44842 77.7179 4.29011 77.7786 4.15637C77.7835 4.14764 78.1937 3.22727 77.7518 2.39043C77.3854 1.69552 76.5411 1.22824 75.2435 1.00115C74.1224 0.80736 73.2327 0.974947 72.5989 1.50446C71.5282 2.39971 71.5107 4.05375 71.5107 4.07067C71.5102 4.20059 71.4199 4.31359 71.2931 4.34252C71.164 4.36872 71.0355 4.30867 70.9786 4.19076C70.9568 4.14709 68.7929 -0.253297 65.0049 0.693816C61.2588 1.62837 62.1261 5.85844 62.1644 6.03859C62.1868 6.1423 62.1485 6.24875 62.0665 6.31535C61.9828 6.38195 61.8691 6.39614 61.7734 6.35083C61.7275 6.33063 57.1838 4.25463 55.0899 5.68431C54.3106 6.216 53.9607 7.20078 54.0492 8.61298C54.1553 10.303 54.7284 11.5018 55.7532 12.1765C57.7825 13.5123 60.9531 12.4102 60.9854 12.3993C61.0625 12.3703 61.1467 12.3791 61.2189 12.42C61.2894 12.4598 61.3392 12.5292 61.3545 12.61C61.4978 13.3622 62.2595 14.1177 63.1664 14.407C63.7969 14.6085 65.0508 14.7569 66.3676 13.4965C68.9624 11.0122 71.6972 13.467 71.7256 13.4921C72.436 14.1401 73.1206 14.4283 73.7473 14.3524C74.5774 14.2509 75.0542 13.55 75.0586 13.5434C75.1456 13.4146 75.3189 13.3813 75.4469 13.4654C75.5754 13.5511 75.6104 13.7252 75.5245 13.8529L75.5245 13.8529ZM77.9175 31.2348C77.1541 31.2348 76.33 30.8548 75.4584 30.0999C75.408 30.0513 71.7015 26.3453 74.6676 22.6439C74.7054 22.604 75.6815 21.6553 75.4277 19.1781C75.133 18.7916 73.8074 16.8864 74.4915 14.7127C74.2925 14.805 74.0672 14.8765 73.8156 14.9071C73.0129 15.0015 72.1844 14.6674 71.3466 13.9043C71.2504 13.8169 68.9684 11.7819 66.7548 13.8999C65.2275 15.3618 63.7428 15.1789 62.9958 14.9398C62.0047 14.6237 61.1801 13.8589 60.8853 13.0172C60.0104 13.2738 57.3494 13.8966 55.4442 12.6427C54.2653 11.8659 53.6079 10.5225 53.4904 8.64847C53.3887 7.025 53.8207 5.87318 54.7744 5.22194C56.726 3.89271 60.2696 5.1275 61.5443 5.64446C61.4125 4.35453 61.424 1.01152 64.8693 0.15066C68.0656 -0.643605 70.1928 1.89804 71.0524 3.21363C71.1881 2.56839 71.503 1.69333 72.2358 1.07921C73.0025 0.43725 74.047 0.223262 75.3397 0.450896C76.8216 0.709646 77.801 1.27682 78.2505 2.13605C78.4441 2.50561 78.5125 2.879 78.5185 3.21363C79.1129 2.57385 80.0398 1.80906 81.1543 1.66549C82.0861 1.54594 82.9769 1.87784 83.807 2.64973C84.6973 3.47674 85.1665 4.42495 85.2026 5.46595C85.2474 6.76898 84.6021 7.8886 84.1767 8.4787C85.22 8.56276 87.4523 8.91158 88.692 10.3625C89.4264 11.2223 89.6894 12.325 89.4761 13.6411C89.2902 14.7875 88.8336 15.5141 88.1189 15.8001C87.7886 15.9328 87.4375 15.9546 87.0941 15.912C88.0007 16.8662 88.7379 18.4346 87.7339 20.9724C87.1969 22.3316 86.4685 23.1254 85.5689 23.3323C85.004 23.4605 84.4758 23.3333 84.064 23.1516C84.4288 24.0624 84.8498 25.5254 84.461 26.7836C84.2204 27.5621 83.7053 28.1532 82.9293 28.5408C82.873 28.5703 81.5923 29.2401 80.707 28.7548C80.4456 29.429 79.7828 30.7751 78.5568 31.1414C78.349 31.2031 78.1357 31.2348 77.9175 31.2348L77.9175 31.2348Z" id="Şekil" fill="#000000" fill-rule="evenodd" stroke="none" />
    <path d="M98.7991 67.8232L103.238 78.7289L128.47 71.4719L120.428 59.7621C111.229 46.3698 96.008 38.365 79.7411 38.365L75.7934 38.365C74.7364 40.5873 72.1197 42.1643 69.0486 42.1747C65.9776 42.1643 63.3609 40.5873 62.3044 38.365L58.3568 38.365C42.0899 38.365 25.153 46.1253 15.954 59.5175L8.52136 71.1138L34.9043 79.6503L39.2982 67.8232L37.7025 79.73L34.2618 99.847L103.835 99.847L100.395 79.7295L98.7991 67.8232L98.7991 67.8232Z" id="Şekil" fill="#EFF2F7" fill-rule="evenodd" stroke="none" />
    <path d="M34.5944 99.5674L103.504 99.5674L100.119 79.7763L98.522 67.8602C98.5039 67.7205 98.5914 67.5894 98.7276 67.5534C98.8654 67.5157 99.0059 67.5878 99.059 67.7177L103.403 78.3909L128.021 71.3102L120.197 59.9208C111.047 46.5985 95.9234 38.6444 79.7417 38.6444L75.968 38.6444C74.7819 40.9546 72.0892 42.4437 69.0499 42.4547C66.0089 42.4437 63.3157 40.9546 62.1307 38.6444L58.3569 38.6444C41.5141 38.6444 24.9607 46.9004 16.1855 59.6763L8.95238 70.9597L34.7355 79.3025L39.0364 67.7265C39.0856 67.5927 39.2289 67.519 39.3661 67.5523C39.505 67.5862 39.5953 67.7188 39.5761 67.8602L37.9804 79.7676L34.5944 99.5674L34.5944 99.5674ZM103.836 100.126L34.2625 100.126C34.1799 100.126 34.1017 100.09 34.0481 100.027C33.995 99.9648 33.9726 99.8813 33.9868 99.8L37.427 79.6835L38.6886 70.2697L35.1669 79.7474C35.115 79.8883 34.9608 79.9614 34.8186 79.9166L8.43507 71.3795C8.3525 71.3528 8.28742 71.2895 8.25789 71.2087C8.22891 71.1262 8.23875 71.0362 8.28578 70.9636L15.719 59.3673C24.6008 46.4364 41.3348 38.0859 58.3569 38.0859L62.3046 38.0859C62.4128 38.0859 62.5113 38.1482 62.5577 38.2453C63.6071 40.4529 66.1554 41.8859 69.0499 41.8957C71.9421 41.8859 74.4909 40.4529 75.5409 38.2453C75.5874 38.1482 75.6858 38.0859 75.7941 38.0859L79.7417 38.0859C96.1082 38.0859 111.404 46.1301 120.659 59.6042L128.702 71.3135C128.753 71.3877 128.765 71.4822 128.734 71.5662C128.704 71.6508 128.635 71.7158 128.549 71.7404L103.316 78.9979C103.178 79.0389 103.033 78.9668 102.979 78.8347L99.369 69.9646L100.673 79.6923L104.112 99.8C104.125 99.8813 104.103 99.9648 104.05 100.027C103.997 100.09 103.918 100.126 103.836 100.126L103.836 100.126Z" id="Şekil" fill="#000000" fill-rule="evenodd" stroke="none" />
    <path d="M57.7488 79.7141L43.2356 76.0703C42.0675 75.7767 41.3583 74.5932 41.6519 73.4266L49.5401 42.1222C49.8338 40.9557 51.0194 40.2482 52.188 40.5413L66.7012 44.1857C67.8692 44.4788 68.5785 45.6623 68.2843 46.8289L60.3966 78.1332C60.103 79.2998 58.9174 80.0078 57.7488 79.7141L57.7488 79.7141Z" id="Şekil" fill="#FF5613" fill-rule="evenodd" stroke="none" />
    <path d="M51.6515 40.7542C51.3119 40.7542 50.9778 40.8454 50.6792 41.0239C50.2428 41.2848 49.9344 41.6986 49.8108 42.1904L41.9232 73.4954C41.6678 74.5107 42.2868 75.5435 43.3034 75.799L57.8166 79.4428C58.3087 79.5667 58.8206 79.4919 59.2564 79.2315C59.6928 78.9712 60.0007 78.5568 60.1248 78.0655L68.0125 46.7606C68.2678 45.7453 67.6488 44.7119 66.6317 44.4564L52.119 40.8126C51.9643 40.7733 51.8073 40.7542 51.6515 40.7542L51.6515 40.7542ZM58.2847 80.0608C58.0834 80.0608 57.8806 80.0356 57.6799 79.9854L43.1672 76.3416C41.851 76.0108 41.0493 74.6729 41.3801 73.3589L49.2678 42.054C49.4286 41.4175 49.8278 40.8814 50.3916 40.5441C50.9559 40.2078 51.6176 40.1106 52.2557 40.27L66.7684 43.9138C68.0847 44.2452 68.8863 45.5831 68.5555 46.8965L60.6678 78.202C60.5071 78.8385 60.1079 79.374 59.5441 79.7114C59.1569 79.9423 58.7243 80.0602 58.2847 80.0608L58.2847 80.0608Z" id="Şekil" fill="#000000" fill-rule="evenodd" stroke="none" />
    <path d="M51.297 44.2397C51.1286 44.9089 51.5354 45.5875 52.2053 45.7556C52.8757 45.9243 53.5555 45.5182 53.7239 44.8489C53.8929 44.1802 53.486 43.5011 52.8156 43.333C52.1457 43.1643 51.4654 43.5704 51.297 44.2397L51.297 44.2397Z" id="Şekil" fill="#EEF2F8" fill-rule="evenodd" stroke="none" />
    <path d="M51.5688 44.3075C51.5054 44.5586 51.5442 44.8195 51.6771 45.0422C51.8105 45.2644 52.0221 45.4216 52.2737 45.4844C52.5258 45.5483 52.7866 45.5095 53.0092 45.3769C53.2323 45.2437 53.3898 45.0324 53.4527 44.7808C53.5161 44.5297 53.4778 44.2693 53.3444 44.0465C53.211 43.8238 52.9993 43.6671 52.7478 43.6044C52.2277 43.4695 51.6989 43.79 51.5688 44.3075L51.5688 44.3075ZM52.5143 46.074C52.3885 46.074 52.2622 46.0581 52.1375 46.0259C51.7405 45.9271 51.4069 45.6793 51.1964 45.3288C50.987 44.9784 50.9263 44.5679 51.0258 44.1715C51.2319 43.3538 52.0653 42.8592 52.8845 43.0618C53.281 43.1611 53.6151 43.4089 53.8245 43.76C54.0351 44.1104 54.0958 44.5215 53.9957 44.9172C53.8962 45.313 53.6479 45.6471 53.2968 45.8567C53.0562 46.0003 52.7872 46.074 52.5143 46.074L52.5143 46.074Z" id="Şekil" fill="#000000" fill-rule="evenodd" stroke="none" />
    <path d="M20.2861 67.3546C18.9322 72.8943 18.8195 74.4457 18.8195 74.4457L10.2849 71.6846C10.2849 71.6846 -9.76356 99.6481 6.88577 110.053C23.5344 120.457 36.3934 78.8395 36.3934 78.8395C36.3934 78.8395 38.9395 76.6516 41.3445 73.6061C41.3566 73.5237 41.3598 73.4412 41.3806 73.3588L45.0324 58.865C44.7005 58.1859 44.3795 57.896 44.3795 57.896C44.3795 57.896 44.6934 58.0936 45.1659 58.3371L46.9338 51.3203C45.2501 50.252 42.7614 49.2803 39.1008 48.5728C26.5125 46.1409 21.6396 61.8149 20.2861 67.3546L20.2861 67.3546ZM126.598 72.0099L104.133 78.4716L105.561 81.8124C105.561 81.8124 90.5363 71.6786 85.9341 67.7596C81.3318 63.8413 78.0836 53.4372 75.9176 50.1941C73.7521 46.9516 69.1498 47.2218 67.932 48.6067C66.7137 49.9921 67.6608 51.0053 67.6608 51.0053C67.6608 51.0053 60.2166 46.546 57.5092 49.7885C54.8023 53.0316 59.5396 56.2747 59.5396 56.2747C59.5396 56.2747 51.8242 52.8968 50.5955 56.545C49.3672 60.1931 53.9903 62.22 53.9903 62.22C53.2455 62.0344 52.4914 62.3696 51.8926 62.7877C50.9744 63.4291 50.3412 64.4478 50.2903 65.5657C50.1377 68.9404 54.6487 69.9082 56.1104 70.1326C53.1093 69.8466 52.3656 73.0962 52.3656 73.0962C51.892 77.7592 57.2385 77.4884 57.2385 77.4884C68.5412 76.4753 75.5118 82.218 75.5118 82.218C75.5118 82.218 92.7024 111.268 114.224 108.566C135.746 105.864 126.598 72.0099 126.598 72.0099L126.598 72.0099Z" id="Şekil" fill="#FBEFE3" fill-rule="evenodd" stroke="none" />
    <path d="M54.9685 69.9034C54.9685 69.9034 61.0385 70.8063 64.22 71.8653L54.9685 69.9034L54.9685 69.9034Z" id="Şekil" fill="#E5AB78" fill-rule="evenodd" stroke="none" />
    <path d="M59.5397 56.2749C59.5397 56.2749 65.3384 57.8825 69.0493 60.7484L59.5397 56.2749L59.5397 56.2749Z" id="Şekil" fill="#E5AB78" fill-rule="evenodd" stroke="none" />
    <path d="M67.6609 51.0056C67.6609 51.0056 70.5832 52.3676 73.3229 54.9267L67.6609 51.0056L67.6609 51.0056Z" id="Şekil" fill="#E5AB78" fill-rule="evenodd" stroke="none" />
    <path d="M124.625 102.151C122.272 105.65 118.761 107.715 114.188 108.289C93.1082 110.942 75.9232 82.3649 75.7526 82.0761C75.7361 82.0477 75.7148 82.0232 75.6897 82.0024C75.6246 81.9484 69.6055 77.09 59.8761 77.09C59.0208 77.09 58.1355 77.1277 57.2244 77.2101C57.1998 77.2101 54.7478 77.3138 53.4397 75.9376C52.7912 75.2558 52.5232 74.3098 52.6381 73.1591C52.6676 73.0313 53.3418 70.2484 55.9475 70.392C56.2746 70.4444 56.49 70.4657 56.5354 70.47C56.5709 70.4717 56.6049 70.4662 56.6371 70.4569C58.6697 70.8036 62.0459 71.4362 64.1311 72.1306C64.1606 72.1399 64.1907 72.1443 64.2196 72.1443C64.3367 72.1443 64.446 72.07 64.4849 71.9538C64.5341 71.8075 64.4548 71.6491 64.3082 71.6C61.2847 70.5939 55.6227 69.72 55.0584 69.6343C53.2385 69.1894 50.4556 68.0976 50.5699 65.5783C50.6147 64.5914 51.1692 63.6333 52.0535 63.0165C52.7474 62.5323 53.3758 62.3543 53.922 62.4914C53.9319 62.4935 53.9412 62.4914 53.951 62.493C53.9592 62.4941 53.9669 62.4984 53.9751 62.4984C54.0309 62.5023 59.6262 62.8304 66.3873 66.3781C66.4289 66.3999 66.4732 66.4097 66.5169 66.4097C66.6175 66.4097 66.7154 66.3562 66.7652 66.2607C66.8374 66.1242 66.7849 65.9545 66.6476 65.8829C60.132 62.4641 54.6559 61.9875 54.0609 61.9449C53.6284 61.7419 49.7852 59.8291 50.8608 56.6335C51.0511 56.0696 51.4164 55.6743 51.9775 55.4265C54.4 54.356 59.3768 56.5084 59.4266 56.5308C59.4337 56.5336 59.4408 56.533 59.4479 56.5352C59.4539 56.5374 59.4583 56.5417 59.4643 56.5439C59.5217 56.5598 65.2543 58.1718 68.8776 60.97C68.9285 61.0087 68.9887 61.0278 69.0488 61.0278C69.1319 61.0278 69.2151 60.9913 69.2703 60.9197C69.3649 60.7975 69.3425 60.6222 69.2205 60.5273C65.6141 57.7421 60.1889 56.1678 59.6628 56.0193C59.3664 55.8064 57.2447 54.2185 56.9805 52.3029C56.8668 51.4808 57.1173 50.6948 57.7242 49.9682C60.2468 46.9467 67.4449 51.2008 67.5166 51.2445C67.5215 51.2472 67.5264 51.2477 67.5308 51.2499C67.5352 51.2521 67.5379 51.2565 67.5423 51.2581C67.5712 51.2718 70.4586 52.6337 73.131 55.1301C73.1851 55.1803 73.254 55.2054 73.3224 55.2054C73.3973 55.2054 73.4717 55.1759 73.5269 55.117C73.6324 55.004 73.627 54.8277 73.5138 54.7218C70.9474 52.3253 68.2663 50.9852 67.8359 50.7788C67.703 50.6118 67.2076 49.8535 68.1421 48.7912C68.6775 48.1826 69.9456 47.831 71.2974 47.9222C73.137 48.0445 74.736 48.9283 75.6847 50.3487C76.3935 51.4099 77.2296 53.2735 78.198 55.4309C80.1749 59.8356 82.6357 65.319 85.7521 67.9726C89.6188 71.2654 100.942 79.0121 104.392 81.3577C104.457 81.403 104.537 81.4576 104.637 81.5242C105.107 81.843 105.384 82.0308 105.405 82.0439C105.455 82.0783 105.513 82.0936 105.571 82.0914C106.889 82.8273 109.023 83.7705 111.313 83.7705C111.522 83.7705 111.733 83.7629 111.945 83.746C112.098 83.734 112.214 83.5997 112.202 83.4457C112.189 83.2923 112.059 83.1826 111.901 83.1897C109.482 83.3742 107.114 82.3081 105.748 81.5373L104.514 78.6523L126.398 72.3588C127.002 74.782 131.103 92.5167 124.625 102.151L124.625 102.151ZM126.735 71.7671C126.67 71.7299 126.593 71.7228 126.52 71.7419L104.055 78.2031C103.978 78.2254 103.914 78.2795 103.88 78.351C103.846 78.4241 103.844 78.5071 103.876 78.5808L104.927 81.0417C104.699 80.8926 104.569 80.7966 104.562 80.7916C104.554 80.7851 104.544 80.7835 104.535 80.7785C100.901 78.3068 89.9005 70.7703 86.1158 67.5468C83.095 64.9751 80.6627 59.5567 78.7088 55.2021C77.7299 53.0219 76.8851 51.1397 76.1507 50.0391C75.1045 48.4725 73.3492 47.498 71.3346 47.3649C69.7947 47.26 68.3756 47.6776 67.7211 48.4222C67.0528 49.1826 66.9708 49.859 67.0638 50.3525C65.0689 49.2989 59.6316 46.8119 57.2939 49.6101C56.5813 50.4633 56.2893 51.3957 56.426 52.3815C56.5977 53.6213 57.4153 54.7032 58.147 55.4483C56.3992 54.8588 53.5343 54.1284 51.7516 54.915C51.0478 55.2256 50.5699 55.7442 50.3304 56.456C49.3986 59.2231 51.6198 61.1146 52.9563 61.9651C52.5631 62.0656 52.1547 62.2637 51.7325 62.5585C50.7066 63.2742 50.063 64.3938 50.0105 65.5532C49.8874 68.2756 52.497 69.5185 54.4547 70.0661C52.6227 70.8074 52.0978 73.0133 52.0868 73.0684C51.949 74.4239 52.2684 75.5195 53.0351 76.3247C54.5225 77.8864 57.1408 77.7734 57.2633 77.7669C67.8999 76.8083 74.7425 81.9697 75.297 82.4047C76.0489 83.6472 91.6772 109.021 111.417 109.021C112.354 109.021 113.304 108.963 114.258 108.844C118.999 108.248 122.643 106.101 125.09 102.461C132.16 91.9463 126.922 72.1366 126.868 71.9374C126.848 71.8653 126.801 71.8036 126.735 71.7671L126.735 71.7671Z" id="Şekil" fill="#000000" fill-rule="evenodd" stroke="none" />
    <path d="M45.2741 58.7073C45.2987 58.7188 45.3266 58.7319 45.3518 58.7433L45.4912 58.1898C44.9367 57.9152 44.5463 57.6718 44.5309 57.6614L44.5299 57.6603L41.3095 55.6078C41.251 55.5712 41.1843 55.5614 41.1208 55.5707C37.982 53.0618 33.0981 52.6911 33.0281 52.6867C32.8695 52.6731 32.741 52.7926 32.7301 52.9466C32.7197 53.1005 32.8362 53.2343 32.9909 53.2446C33.0855 53.2512 42.5153 53.963 43.1195 60.1359C43.5423 64.4539 43.1239 67.2406 41.9411 67.9825C41.3423 68.3597 40.5007 68.2254 39.4437 67.584C39.4273 67.5736 39.4081 67.5709 39.3906 67.5654C39.5984 65.6805 39.0707 63.2142 37.8048 60.1757C35.9761 55.7874 29.5518 56.9845 29.4873 56.9965C29.3358 57.0271 29.2368 57.1728 29.2664 57.3251C29.2959 57.4758 29.4425 57.5724 29.5945 57.5457C29.6546 57.5342 35.6349 56.4244 37.2935 60.4034C39.6799 66.1303 39.3578 69.678 36.3595 70.939C35.8148 71.1109 34.2683 71.4024 33.6614 70.7015C33.6439 70.6819 33.622 70.6688 33.6007 70.6551C34.3044 68.6506 34.3958 65.9698 34.1322 64.1351C33.5438 60.0365 27.2026 60.4509 26.9319 60.47C26.7777 60.4809 26.6618 60.6146 26.6727 60.7686C26.6842 60.9225 26.8225 61.0399 26.9724 61.0273C27.0342 61.0219 33.0637 60.6294 33.5782 64.2148C33.9627 66.8929 33.5061 71.4003 31.6747 72.5444C30.9375 73.0046 30.0161 72.8681 28.9366 72.1388C25.8896 70.0803 28.7409 64.9086 28.7698 64.8562C28.8453 64.7219 28.7972 64.5516 28.6627 64.4757C28.527 64.4004 28.357 64.4484 28.2815 64.5832C28.2345 64.6667 27.8112 65.4354 27.4547 66.4916C27.4257 66.4545 27.3907 66.4223 27.3437 66.4038C26.8204 66.1909 26.7766 64.9894 26.8029 64.586C26.8127 64.4315 26.6957 64.2988 26.5415 64.289C26.3872 64.289 26.2544 64.3954 26.244 64.5488C26.2309 64.7497 26.1439 66.5195 27.1326 66.9207C27.1671 66.9349 27.2031 66.9415 27.2387 66.9415C27.2677 66.9415 27.2923 66.9262 27.3196 66.9174C26.7793 68.7511 26.5715 71.2163 28.6227 72.6018C29.385 73.1171 30.0927 73.3747 30.7401 73.3747C31.1792 73.3747 31.5905 73.2557 31.9716 73.0183C32.5715 72.6432 33.0319 71.998 33.3814 71.2092C33.8112 71.5913 34.4127 71.7065 34.9782 71.7065C35.7694 71.7065 36.4869 71.4843 36.5525 71.463C38.058 70.8304 38.9696 69.7173 39.2955 68.1397C39.9949 68.542 40.6281 68.7511 41.1843 68.7511C41.5725 68.7511 41.9247 68.6534 42.2391 68.4552C42.6394 68.2046 42.9621 67.7936 43.2125 67.2335L43.7353 65.1597C43.8966 63.8294 43.8775 62.1349 43.6768 60.0819C43.5603 58.8962 43.1463 57.901 42.5497 57.0615L44.205 58.1172C44.2674 58.1778 44.7393 58.6762 45.0893 59.786L45.3304 58.828C45.3118 58.787 45.2932 58.745 45.2741 58.7073L45.2741 58.7073Z" id="Şekil" fill="#000000" fill-rule="evenodd" stroke="none" />
    <path d="M41.6519 73.4272L41.9149 72.383C39.3584 75.9012 36.2589 78.587 36.2108 78.6279C36.1709 78.6628 36.1408 78.7076 36.1261 78.7578C36.0408 79.034 27.4586 106.407 15.5249 110.838C12.6714 111.897 9.81418 111.553 7.03348 109.816C3.69785 107.731 1.62696 104.758 0.878329 100.979C-1.39982 89.4763 9.15687 73.8023 10.3955 72.0145L18.4023 74.6047C15.8568 85.8325 12.556 88.8676 12.521 88.8998C12.4051 89.0014 12.3942 89.1782 12.4959 89.2934C12.5511 89.3568 12.6282 89.3884 12.7059 89.3884C12.7715 89.3884 12.8371 89.3655 12.8896 89.3191C13.0405 89.1881 16.373 86.159 18.9596 74.6844C18.9645 74.6812 18.9705 74.6812 18.976 74.6779C19.0471 74.6298 19.0925 74.5523 19.0985 74.4666C19.0996 74.4573 19.1482 73.8831 19.4616 72.2929C19.4818 72.193 19.5015 72.0969 19.5206 71.9959C19.7383 70.9211 20.0653 69.4357 20.5575 67.4209C22.111 61.0629 27.0255 46.5276 39.0473 48.8482C42.5591 49.5262 45.278 50.5159 47.1094 51.7676L47.2565 51.1846C45.3743 49.9454 42.6707 48.9786 39.1539 48.299C33.6336 47.2329 28.9553 49.4252 25.2488 54.8158C22.2959 59.1125 20.7013 64.4753 20.0139 67.2893C19.4096 69.7616 19.0531 71.4364 18.8415 72.5413C18.7376 73.0604 18.6326 73.5681 18.5254 74.0567L10.3714 71.4189C10.2555 71.3813 10.1286 71.4233 10.057 71.5221C9.93503 71.6924 -2.12438 88.6962 0.3293 101.087C1.10855 105.023 3.2642 108.12 6.73655 110.289C8.56027 111.429 10.4168 112 12.287 112C13.4277 112 14.5739 111.787 15.7206 111.361C20.8506 109.457 25.9362 103.411 30.8354 93.393C34.2646 86.3817 36.3891 79.7825 36.6368 78.9997C37.0694 78.6225 39.4006 76.5475 41.6049 73.7455C41.6153 73.6396 41.6251 73.5337 41.6519 73.4272L41.6519 73.4272Z" id="Şekil" fill="#000000" fill-rule="evenodd" stroke="none" />
  </g>
</svg>