<svg width="90" height="20" viewBox="0 0 90 20" fill="none" xmlns="http://www.w3.org/2000/svg">
<g clip-path="url(#clip0_27_4300)">
<rect width="90" height="20" rx="4" fill="#767680" fill-opacity="0.12"/>
<g filter="url(#filter0_dd_27_4300)">
<rect x="2" y="2" width="43" height="16" rx="3" fill="white"/>
<path d="M15.2319 13.0795C14.8228 13.0795 14.4734 12.9621 14.1836 12.7273C13.8957 12.4905 13.6741 12.1487 13.5188 11.7017C13.3654 11.2547 13.2887 10.7178 13.2887 10.0909C13.2887 9.46591 13.3654 8.93087 13.5188 8.4858C13.6741 8.03883 13.8967 7.69697 14.1864 7.46023C14.4781 7.22159 14.8266 7.10227 15.2319 7.10227C15.6372 7.10227 15.9847 7.22159 16.2745 7.46023C16.5662 7.69697 16.7887 8.03883 16.9421 8.4858C17.0974 8.93087 17.1751 9.46591 17.1751 10.0909C17.1751 10.7178 17.0974 11.2547 16.9421 11.7017C16.7887 12.1487 16.5671 12.4905 16.2773 12.7273C15.9895 12.9621 15.641 13.0795 15.2319 13.0795ZM15.2319 12.6023C15.6808 12.6023 16.0311 12.3835 16.283 11.946C16.5349 11.5066 16.6609 10.8883 16.6609 10.0909C16.6609 9.56061 16.6031 9.10795 16.4876 8.73295C16.3739 8.35606 16.2101 8.06818 15.9961 7.86932C15.784 7.67045 15.5292 7.57102 15.2319 7.57102C14.7868 7.57102 14.4374 7.79261 14.1836 8.2358C13.9298 8.67708 13.8029 9.29545 13.8029 10.0909C13.8029 10.6212 13.8597 11.0739 13.9734 11.4489C14.0889 11.8239 14.2527 12.1098 14.4648 12.3068C14.6789 12.5038 14.9345 12.6023 15.2319 12.6023ZM20.1296 13.0795C19.7584 13.0795 19.4279 13.0095 19.1381 12.8693C18.8484 12.7292 18.6211 12.5379 18.4563 12.2955C18.2915 12.0511 18.2092 11.7756 18.2092 11.4688C18.2092 11.2282 18.2594 11.0038 18.3597 10.7955C18.4601 10.5852 18.5984 10.4091 18.7745 10.267C18.9506 10.1231 19.1486 10.0294 19.3683 9.9858V9.95455C19.0823 9.87121 18.8522 9.70739 18.6779 9.46307C18.5037 9.21686 18.4175 8.9375 18.4194 8.625C18.4175 8.33523 18.4914 8.07576 18.641 7.84659C18.7906 7.61742 18.9942 7.43655 19.2518 7.30398C19.5112 7.16951 19.8039 7.10227 20.1296 7.10227C20.4535 7.10227 20.7442 7.16951 21.0018 7.30398C21.2594 7.43655 21.4629 7.61742 21.6126 7.84659C21.7641 8.07576 21.8408 8.33523 21.8427 8.625C21.8408 8.93561 21.7527 9.21496 21.5785 9.46307C21.4042 9.70928 21.1751 9.87311 20.891 9.95455V9.9858C21.1107 10.0275 21.3076 10.1203 21.4819 10.2642C21.6561 10.4081 21.7944 10.5852 21.8967 10.7955C21.9989 11.0038 22.0501 11.2282 22.0501 11.4688C22.0501 11.7756 21.9667 12.0511 21.8001 12.2955C21.6353 12.5379 21.408 12.7292 21.1183 12.8693C20.8304 13.0095 20.5008 13.0795 20.1296 13.0795ZM20.1296 12.6023C20.4061 12.6023 20.6486 12.553 20.8569 12.4545C21.0671 12.3542 21.2309 12.2169 21.3484 12.0426C21.4677 11.8684 21.5273 11.6686 21.5273 11.4432C21.5273 11.2102 21.4658 11.0028 21.3427 10.821C21.2196 10.6373 21.0529 10.4924 20.8427 10.3864C20.6325 10.2784 20.3948 10.2244 20.1296 10.2244C19.8645 10.2244 19.6258 10.2784 19.4137 10.3864C19.2035 10.4924 19.0368 10.6373 18.9137 10.821C18.7925 11.0028 18.7319 11.2102 18.7319 11.4432C18.7319 11.6686 18.7897 11.8684 18.9052 12.0426C19.0226 12.2169 19.1864 12.3542 19.3967 12.4545C19.6088 12.553 19.8531 12.6023 20.1296 12.6023ZM20.1296 9.76989C20.3569 9.76989 20.5605 9.72159 20.7404 9.625C20.9203 9.52841 21.0624 9.39678 21.1665 9.23011C21.2726 9.06155 21.3266 8.87027 21.3285 8.65625C21.3266 8.44413 21.2736 8.25663 21.1694 8.09375C21.0652 7.92898 20.9232 7.80114 20.7433 7.71023C20.5652 7.61742 20.3607 7.57102 20.1296 7.57102C19.8986 7.57102 19.6921 7.61742 19.5103 7.71023C19.3304 7.80114 19.1883 7.92898 19.0842 8.09375C18.9819 8.25663 18.9317 8.44413 18.9336 8.65625C18.9317 8.87027 18.9828 9.06155 19.087 9.23011C19.1931 9.39678 19.3361 9.52841 19.516 9.625C19.6978 9.72159 19.9023 9.76989 20.1296 9.76989ZM23.4421 13.0426C23.3304 13.0426 23.2338 13.0028 23.1523 12.9233C23.0728 12.8419 23.033 12.7453 23.033 12.6335C23.033 12.5199 23.0728 12.4233 23.1523 12.3438C23.2338 12.2642 23.3304 12.2244 23.4421 12.2244C23.5558 12.2244 23.6523 12.2642 23.7319 12.3438C23.8114 12.4233 23.8512 12.5199 23.8512 12.6335C23.8512 12.7074 23.8323 12.7756 23.7944 12.8381C23.7584 12.9006 23.7092 12.9508 23.6467 12.9886C23.5861 13.0246 23.5179 13.0426 23.4421 13.0426ZM26.8221 13.0795C26.4641 13.0795 26.1441 13.0152 25.8619 12.8864C25.5797 12.7557 25.3562 12.5748 25.1914 12.3438C25.0266 12.1127 24.9395 11.8466 24.93 11.5455H25.467C25.4764 11.7576 25.5418 11.9432 25.663 12.1023C25.7842 12.2595 25.9452 12.3826 26.146 12.4716C26.3467 12.5587 26.5702 12.6023 26.8164 12.6023C27.0853 12.6023 27.3221 12.5521 27.5266 12.4517C27.7331 12.3513 27.8941 12.214 28.0096 12.0398C28.127 11.8636 28.1857 11.6648 28.1857 11.4432C28.1857 11.2083 28.1261 11.0009 28.0067 10.821C27.8874 10.6411 27.716 10.5009 27.4925 10.4006C27.271 10.3002 27.0058 10.25 26.6971 10.25H26.3562V9.77273H26.6971C26.949 9.77273 27.1715 9.72727 27.3647 9.63636C27.5598 9.54356 27.7132 9.41383 27.8249 9.24716C27.9367 9.08049 27.9925 8.88447 27.9925 8.65909C27.9925 8.44508 27.9442 8.25663 27.8477 8.09375C27.7511 7.93087 27.6147 7.80303 27.4386 7.71023C27.2643 7.61742 27.0607 7.57102 26.8278 7.57102C26.6024 7.57102 26.396 7.61458 26.2085 7.7017C26.021 7.78883 25.8694 7.91193 25.7539 8.07102C25.6403 8.23011 25.5797 8.41856 25.5721 8.63636H25.0579C25.0655 8.33333 25.1488 8.06723 25.3079 7.83807C25.4689 7.60701 25.6819 7.42708 25.9471 7.2983C26.2141 7.16761 26.5096 7.10227 26.8335 7.10227C27.1763 7.10227 27.4727 7.17235 27.7227 7.3125C27.9727 7.45265 28.1658 7.6392 28.3022 7.87216C28.4405 8.10322 28.5096 8.35795 28.5096 8.63636C28.5096 8.9678 28.4196 9.25189 28.2397 9.48864C28.0598 9.72348 27.8174 9.88636 27.5124 9.97727V10.0142C27.8836 10.0881 28.1753 10.2528 28.3874 10.5085C28.6014 10.7623 28.7085 11.0739 28.7085 11.4432C28.7085 11.7538 28.627 12.0331 28.4641 12.2812C28.3013 12.5275 28.0778 12.7225 27.7937 12.8665C27.5115 13.0085 27.1876 13.0795 26.8221 13.0795ZM31.771 13.0795C31.3619 13.0795 31.0124 12.9621 30.7227 12.7273C30.4348 12.4905 30.2132 12.1487 30.0579 11.7017C29.9045 11.2547 29.8278 10.7178 29.8278 10.0909C29.8278 9.46591 29.9045 8.93087 30.0579 8.4858C30.2132 8.03883 30.4357 7.69697 30.7255 7.46023C31.0172 7.22159 31.3656 7.10227 31.771 7.10227C32.1763 7.10227 32.5238 7.22159 32.8136 7.46023C33.1052 7.69697 33.3278 8.03883 33.4812 8.4858C33.6365 8.93087 33.7141 9.46591 33.7141 10.0909C33.7141 10.7178 33.6365 11.2547 33.4812 11.7017C33.3278 12.1487 33.1062 12.4905 32.8164 12.7273C32.5285 12.9621 32.18 13.0795 31.771 13.0795ZM31.771 12.6023C32.2198 12.6023 32.5702 12.3835 32.8221 11.946C33.074 11.5066 33.1999 10.8883 33.1999 10.0909C33.1999 9.56061 33.1422 9.10795 33.0266 8.73295C32.913 8.35606 32.7492 8.06818 32.5352 7.86932C32.323 7.67045 32.0683 7.57102 31.771 7.57102C31.3259 7.57102 30.9764 7.79261 30.7227 8.2358C30.4689 8.67708 30.342 9.29545 30.342 10.0909C30.342 10.6212 30.3988 11.0739 30.5124 11.4489C30.628 11.8239 30.7918 12.1098 31.0039 12.3068C31.2179 12.5038 31.4736 12.6023 31.771 12.6023Z" fill="black"/>
</g>
<path d="M58.8743 7.18182V13H58.1697V7.92045H58.1357L56.7152 8.86364V8.14773L58.1697 7.18182H58.8743ZM62.4112 13.0795C62.0211 13.0795 61.6764 13.0104 61.3771 12.8722C61.0798 12.732 60.8478 12.5398 60.6811 12.2955C60.5144 12.0492 60.4321 11.7689 60.4339 11.4545C60.4321 11.2083 60.4804 10.9811 60.5788 10.7727C60.6773 10.5625 60.8118 10.3873 60.9822 10.2472C61.1546 10.1051 61.3468 10.0152 61.5589 9.97727V9.94318C61.2805 9.87121 61.0589 9.71496 60.8942 9.47443C60.7294 9.23201 60.648 8.95644 60.6499 8.64773C60.648 8.35227 60.7228 8.08807 60.8743 7.85511C61.0258 7.62216 61.2341 7.43845 61.4993 7.30398C61.7663 7.16951 62.0703 7.10227 62.4112 7.10227C62.7483 7.10227 63.0495 7.16951 63.3146 7.30398C63.5798 7.43845 63.7881 7.62216 63.9396 7.85511C64.093 8.08807 64.1707 8.35227 64.1726 8.64773C64.1707 8.95644 64.0864 9.23201 63.9197 9.47443C63.755 9.71496 63.5362 9.87121 63.2635 9.94318V9.97727C63.4737 10.0152 63.6631 10.1051 63.8317 10.2472C64.0002 10.3873 64.1347 10.5625 64.2351 10.7727C64.3355 10.9811 64.3866 11.2083 64.3885 11.4545C64.3866 11.7689 64.3014 12.0492 64.1328 12.2955C63.9661 12.5398 63.7341 12.732 63.4368 12.8722C63.1413 13.0104 62.7995 13.0795 62.4112 13.0795ZM62.4112 12.4545C62.6745 12.4545 62.9018 12.4119 63.093 12.3267C63.2843 12.2415 63.4321 12.1212 63.5362 11.9659C63.6404 11.8106 63.6934 11.6288 63.6953 11.4205C63.6934 11.2008 63.6366 11.0066 63.5249 10.8381C63.4131 10.6695 63.2607 10.5369 63.0675 10.4403C62.8762 10.3437 62.6574 10.2955 62.4112 10.2955C62.1631 10.2955 61.9415 10.3437 61.7464 10.4403C61.5533 10.5369 61.4008 10.6695 61.2891 10.8381C61.1792 11.0066 61.1252 11.2008 61.1271 11.4205C61.1252 11.6288 61.1754 11.8106 61.2777 11.9659C61.3819 12.1212 61.5305 12.2415 61.7237 12.3267C61.9169 12.4119 62.1461 12.4545 62.4112 12.4545ZM62.4112 9.69318C62.6196 9.69318 62.8042 9.65152 62.9652 9.56818C63.1281 9.48485 63.2559 9.36837 63.3487 9.21875C63.4415 9.06913 63.4889 8.89394 63.4908 8.69318C63.4889 8.49621 63.4425 8.32481 63.3516 8.17898C63.2607 8.03125 63.1347 7.91761 62.9737 7.83807C62.8127 7.75663 62.6252 7.71591 62.4112 7.71591C62.1934 7.71591 62.0031 7.75663 61.8402 7.83807C61.6773 7.91761 61.5514 8.03125 61.4624 8.17898C61.3733 8.32481 61.3298 8.49621 61.3317 8.69318C61.3298 8.89394 61.3743 9.06913 61.4652 9.21875C61.558 9.36837 61.6858 9.48485 61.8487 9.56818C62.0116 9.65152 62.1991 9.69318 62.4112 9.69318ZM65.7976 13.0455C65.6574 13.0455 65.5372 12.9953 65.4368 12.8949C65.3364 12.7945 65.2862 12.6742 65.2862 12.5341C65.2862 12.3939 65.3364 12.2737 65.4368 12.1733C65.5372 12.0729 65.6574 12.0227 65.7976 12.0227C65.9377 12.0227 66.058 12.0729 66.1584 12.1733C66.2588 12.2737 66.3089 12.3939 66.3089 12.5341C66.3089 12.6269 66.2853 12.7121 66.2379 12.7898C66.1925 12.8674 66.1309 12.9299 66.0533 12.9773C65.9775 13.0227 65.8923 13.0455 65.7976 13.0455ZM69.2479 13.0795C68.8729 13.0795 68.5386 13.0152 68.245 12.8864C67.9534 12.7576 67.7214 12.5786 67.549 12.3494C67.3786 12.1184 67.2857 11.8504 67.2706 11.5455H67.9865C68.0017 11.733 68.0661 11.8949 68.1797 12.0312C68.2933 12.1657 68.442 12.2699 68.6257 12.3438C68.8094 12.4176 69.013 12.4545 69.2365 12.4545C69.4865 12.4545 69.7081 12.411 69.9013 12.3239C70.0945 12.2367 70.246 12.1155 70.3558 11.9602C70.4657 11.8049 70.5206 11.625 70.5206 11.4205C70.5206 11.2064 70.4676 11.018 70.3615 10.8551C70.2554 10.6903 70.1001 10.5616 69.8956 10.4688C69.6911 10.3759 69.4411 10.3295 69.1456 10.3295H68.6797V9.70455H69.1456C69.3767 9.70455 69.5793 9.66288 69.7536 9.57955C69.9297 9.49621 70.067 9.37879 70.1655 9.22727C70.2659 9.07576 70.3161 8.89773 70.3161 8.69318C70.3161 8.49621 70.2725 8.32481 70.1854 8.17898C70.0982 8.03314 69.9751 7.91951 69.8161 7.83807C69.6589 7.75663 69.4732 7.71591 69.2592 7.71591C69.0585 7.71591 68.8691 7.75284 68.6911 7.8267C68.5149 7.89867 68.371 8.00379 68.2592 8.14205C68.1475 8.27841 68.0869 8.44318 68.0774 8.63636H67.3956C67.407 8.33144 67.4988 8.06439 67.6712 7.83523C67.8435 7.60417 68.0689 7.42424 68.3473 7.29545C68.6276 7.16667 68.9354 7.10227 69.2706 7.10227C69.6304 7.10227 69.9392 7.17519 70.1967 7.32102C70.4543 7.46496 70.6522 7.6553 70.7905 7.89205C70.9287 8.12879 70.9979 8.38447 70.9979 8.65909C70.9979 8.98674 70.9117 9.2661 70.7393 9.49716C70.5689 9.72822 70.3369 9.88826 70.0433 9.97727V10.0227C70.4107 10.0833 70.6977 10.2396 70.9041 10.4915C71.1106 10.7415 71.2138 11.0511 71.2138 11.4205C71.2138 11.7367 71.1276 12.0208 70.9553 12.2727C70.7848 12.5227 70.5518 12.7197 70.2564 12.8636C69.9609 13.0076 69.6248 13.0795 69.2479 13.0795ZM74.2734 13.0795C73.8454 13.0795 73.4808 12.9631 73.1797 12.7301C72.8786 12.4953 72.6484 12.1553 72.4893 11.7102C72.3303 11.2633 72.2507 10.7235 72.2507 10.0909C72.2507 9.46212 72.3303 8.92519 72.4893 8.48011C72.6503 8.03314 72.8814 7.69223 73.1825 7.45739C73.4856 7.22064 73.8492 7.10227 74.2734 7.10227C74.6977 7.10227 75.0604 7.22064 75.3615 7.45739C75.6645 7.69223 75.8956 8.03314 76.0547 8.48011C76.2157 8.92519 76.2962 9.46212 76.2962 10.0909C76.2962 10.7235 76.2166 11.2633 76.0575 11.7102C75.8984 12.1553 75.6683 12.4953 75.3672 12.7301C75.0661 12.9631 74.7015 13.0795 74.2734 13.0795ZM74.2734 12.4545C74.6977 12.4545 75.0272 12.25 75.2621 11.8409C75.4969 11.4318 75.6143 10.8485 75.6143 10.0909C75.6143 9.58712 75.5604 9.15814 75.4524 8.80398C75.3464 8.44981 75.1929 8.17992 74.9922 7.99432C74.7933 7.80871 74.5537 7.71591 74.2734 7.71591C73.853 7.71591 73.5244 7.9233 73.2876 8.33807C73.0509 8.75095 72.9325 9.33523 72.9325 10.0909C72.9325 10.5947 72.9856 11.0227 73.0916 11.375C73.1977 11.7273 73.3501 11.9953 73.549 12.179C73.7498 12.3627 73.9912 12.4545 74.2734 12.4545Z" fill="black"/>
</g>
<defs>
<filter id="filter0_dd_27_4300" x="-6" y="-3" width="59" height="32" filterUnits="userSpaceOnUse" color-interpolation-filters="sRGB">
<feFlood flood-opacity="0" result="BackgroundImageFix"/>
<feColorMatrix in="SourceAlpha" type="matrix" values="0 0 0 0 0 0 0 0 0 0 0 0 0 0 0 0 0 0 127 0" result="hardAlpha"/>
<feOffset dy="3"/>
<feGaussianBlur stdDeviation="0.5"/>
<feColorMatrix type="matrix" values="0 0 0 0 0 0 0 0 0 0 0 0 0 0 0 0 0 0 0.04 0"/>
<feBlend mode="normal" in2="BackgroundImageFix" result="effect1_dropShadow_27_4300"/>
<feColorMatrix in="SourceAlpha" type="matrix" values="0 0 0 0 0 0 0 0 0 0 0 0 0 0 0 0 0 0 127 0" result="hardAlpha"/>
<feOffset dy="3"/>
<feGaussianBlur stdDeviation="4"/>
<feColorMatrix type="matrix" values="0 0 0 0 0 0 0 0 0 0 0 0 0 0 0 0 0 0 0.12 0"/>
<feBlend mode="normal" in2="effect1_dropShadow_27_4300" result="effect2_dropShadow_27_4300"/>
<feBlend mode="normal" in="SourceGraphic" in2="effect2_dropShadow_27_4300" result="shape"/>
</filter>
<clipPath id="clip0_27_4300">
<rect width="90" height="20" rx="4" fill="white"/>
</clipPath>
</defs>
</svg>
