<svg width="132" height="188" viewBox="0 0 132 188" fill="none" xmlns="http://www.w3.org/2000/svg">
<path fill-rule="evenodd" clip-rule="evenodd" d="M113.809 125.901V87.5157C113.809 86.1721 112.719 85.0823 111.375 85.0823H61.5378C60.1942 85.0823 59.1044 86.1721 59.1044 87.5157V125.901H56.4265C56.4265 129.207 59.1063 131.886 62.4111 131.886H69.2297V185.524C69.2297 186.234 69.8055 186.81 70.5166 186.81H73.7853C74.4958 186.81 75.0721 186.234 75.0721 185.524V131.886H97.841V185.524C97.841 186.234 98.4174 186.81 99.1279 186.81H102.397C103.108 186.81 103.683 186.234 103.683 185.524V131.886H110.502C113.807 131.886 116.487 129.207 116.487 125.901H113.809Z" fill="#5D2E00"/>
<path fill-rule="evenodd" clip-rule="evenodd" d="M75.0722 131.569H97.8411C98.0164 131.569 98.1586 131.711 98.1586 131.886V185.523C98.1586 186.058 98.5934 186.493 99.128 186.493H102.397C102.932 186.493 103.367 186.058 103.367 185.523V131.886C103.367 131.711 103.508 131.569 103.683 131.569H110.502C113.521 131.569 115.996 129.197 116.161 126.218H113.809C113.634 126.218 113.492 126.077 113.492 125.901V87.5156C113.492 86.3485 112.543 85.3991 111.375 85.3991H61.5379C60.3715 85.3991 59.422 86.3485 59.422 87.5156V125.901C59.422 126.077 59.2798 126.218 59.1045 126.218H56.7529C56.9175 129.197 59.3927 131.569 62.4119 131.569H69.2299C69.4051 131.569 69.5474 131.711 69.5474 131.886V185.523C69.5474 186.058 69.9821 186.493 70.5167 186.493H73.7854C74.32 186.493 74.7554 186.058 74.7554 185.523V131.886C74.7554 131.711 74.897 131.569 75.0722 131.569ZM102.397 187.127H99.128C98.2434 187.127 97.5242 186.407 97.5242 185.523V132.203H75.3891V185.523C75.3891 186.407 74.6699 187.127 73.7854 187.127H70.5167C69.6322 187.127 68.913 186.407 68.913 185.523V132.203H62.4119C58.9367 132.203 56.1097 129.376 56.1097 125.901C56.1097 125.726 56.252 125.584 56.4266 125.584H58.7877V87.5156C58.7877 85.9992 60.0215 84.7653 61.5379 84.7653H111.375C112.892 84.7653 114.126 85.9992 114.126 87.5156V125.584H116.487C116.662 125.584 116.804 125.726 116.804 125.901C116.804 129.376 113.977 132.203 110.502 132.203H104V185.523C104 186.407 103.281 187.127 102.397 187.127Z" fill="black"/>
<path fill-rule="evenodd" clip-rule="evenodd" d="M116.487 126.218H59.7283C59.553 126.218 59.4114 126.076 59.4114 125.901C59.4114 125.726 59.553 125.584 59.7283 125.584H116.487C116.662 125.584 116.804 125.726 116.804 125.901C116.804 126.076 116.662 126.218 116.487 126.218Z" fill="black"/>
<path fill-rule="evenodd" clip-rule="evenodd" d="M106.464 132.203H66.4496C66.2743 132.203 66.1327 132.061 66.1327 131.886C66.1327 131.711 66.2743 131.568 66.4496 131.568H106.464C106.639 131.568 106.781 131.711 106.781 131.886C106.781 132.061 106.639 132.203 106.464 132.203Z" fill="black"/>
<path fill-rule="evenodd" clip-rule="evenodd" d="M56.7722 174.682H20.5055L20.4094 174.769C18.6965 176.31 16.5856 177.339 14.3163 177.737L11.7787 178.183L9.89114 178.515C5.53586 179.281 1.92414 182.322 0.428917 186.484L0.311646 186.81H58.3485L56.7722 174.682Z" fill="#9694FF"/>
<path fill-rule="evenodd" clip-rule="evenodd" d="M0.755684 186.498H57.9929L56.4977 174.994L20.6183 175C18.8599 176.583 16.6991 177.635 14.3698 178.045L9.94532 178.823C5.74224 179.561 2.22969 182.498 0.755684 186.498ZM58.3478 187.122H0.311549C0.209872 187.122 0.115056 187.072 0.05642 186.989C-0.00159217 186.906 -0.0159398 186.8 0.0183685 186.704L0.13564 186.379C1.66517 182.121 5.38231 178.991 9.8374 178.208L14.2619 177.43C16.4757 177.041 18.5293 176.041 20.2004 174.537L20.2964 174.451C20.3538 174.399 20.4281 174.37 20.5054 174.37H56.7715C56.9287 174.37 57.0603 174.487 57.0809 174.642L58.6572 186.77C58.6691 186.858 58.6416 186.948 58.5824 187.016C58.5231 187.083 58.4376 187.122 58.3478 187.122Z" fill="black"/>
<path fill-rule="evenodd" clip-rule="evenodd" d="M51.6272 154.627C52.0739 147.836 46.6856 141.785 39.5707 141.785C39.552 141.785 39.5339 141.787 39.5152 141.787C39.4971 141.787 39.4796 141.785 39.4621 141.785C37.8914 141.785 36.4043 142.102 35.0513 142.668C31.7527 144.001 29.1235 146.753 28.0287 150.302L20.5056 174.682H56.7722L51.6272 154.627Z" fill="#FBEFE3"/>
<path fill-rule="evenodd" clip-rule="evenodd" d="M20.928 174.37H56.3698L51.3246 154.704C51.3165 154.672 51.3134 154.639 51.3159 154.606C51.5273 151.392 50.3733 148.185 48.1489 145.81C45.9064 143.415 42.8598 142.097 39.5706 142.097L39.4695 142.097H39.4658C37.9743 142.097 36.5321 142.386 35.171 142.956C31.8668 144.291 29.3736 147.002 28.3262 150.394L20.928 174.37ZM56.7721 174.994H20.5057C20.4066 174.994 20.313 174.947 20.2543 174.867C20.1957 174.788 20.1782 174.685 20.2076 174.59L27.7305 150.21C28.8327 146.638 31.4582 143.783 34.934 142.379C36.3693 141.778 37.8939 141.473 39.4614 141.473L39.5425 141.786L39.5244 141.474H39.5307C43.0382 141.474 46.2439 142.863 48.6043 145.383C50.9341 147.872 52.1493 151.228 51.9415 154.597L57.0741 174.605C57.0984 174.698 57.0778 174.798 57.0185 174.874C56.9593 174.95 56.8682 174.994 56.7721 174.994Z" fill="black"/>
<path fill-rule="evenodd" clip-rule="evenodd" d="M43.1393 179.712C43.1393 180.678 42.3564 181.461 41.3908 181.461C40.4252 181.461 39.6429 180.678 39.6429 179.712C39.6429 178.747 40.4252 177.964 41.3908 177.964C42.3564 177.964 43.1393 178.747 43.1393 179.712Z" fill="#EFF2F7"/>
<path fill-rule="evenodd" clip-rule="evenodd" d="M41.3914 178.276C40.5992 178.276 39.9548 178.92 39.9548 179.712C39.9548 180.504 40.5992 181.148 41.3914 181.148C42.1836 181.148 42.828 180.504 42.828 179.712C42.828 178.92 42.1836 178.276 41.3914 178.276ZM41.3914 181.772C40.2555 181.772 39.3311 180.848 39.3311 179.712C39.3311 178.576 40.2555 177.652 41.3914 177.652C42.5273 177.652 43.4518 178.576 43.4518 179.712C43.4518 180.848 42.5273 181.772 41.3914 181.772Z" fill="black"/>
<path fill-rule="evenodd" clip-rule="evenodd" d="M55.063 179.712C55.063 180.678 54.2801 181.461 53.3145 181.461C52.3489 181.461 51.5667 180.678 51.5667 179.712C51.5667 178.747 52.3489 177.964 53.3145 177.964C54.2801 177.964 55.063 178.747 55.063 179.712Z" fill="#EFF2F7"/>
<path fill-rule="evenodd" clip-rule="evenodd" d="M53.3145 178.276C52.5223 178.276 51.8779 178.92 51.8779 179.712C51.8779 180.504 52.5223 181.148 53.3145 181.148C54.1067 181.148 54.7511 180.504 54.7511 179.712C54.7511 178.92 54.1067 178.276 53.3145 178.276ZM53.3145 181.772C52.1786 181.772 51.2542 180.848 51.2542 179.712C51.2542 178.576 52.1786 177.652 53.3145 177.652C54.4504 177.652 55.3749 178.576 55.3749 179.712C55.3749 180.848 54.4504 181.772 53.3145 181.772Z" fill="black"/>
<path fill-rule="evenodd" clip-rule="evenodd" d="M46.6755 187.122C46.5033 187.122 46.3636 186.982 46.3636 186.81V174.994H20.5055C20.3333 174.994 20.1936 174.854 20.1936 174.682C20.1936 174.51 20.3333 174.37 20.5055 174.37H46.6755C46.8477 174.37 46.9874 174.51 46.9874 174.682V186.81C46.9874 186.982 46.8477 187.122 46.6755 187.122Z" fill="black"/>
<path fill-rule="evenodd" clip-rule="evenodd" d="M46.6755 174.994C46.6493 174.994 46.6238 174.991 46.5976 174.984C46.4304 174.941 46.33 174.771 46.373 174.604L50.9641 156.802C51.0077 156.635 51.178 156.535 51.3446 156.578C51.5111 156.621 51.6116 156.791 51.5685 156.958L46.9774 174.76C46.9406 174.901 46.8146 174.994 46.6755 174.994Z" fill="black"/>
<path fill-rule="evenodd" clip-rule="evenodd" d="M63.8971 126.488L91.3774 126.187H93.2095C107.262 126.187 118.114 113.84 116.311 99.9037L112.752 82.0279H63.4954L62.7419 94.6876L40.1514 99.6804C30.4933 101.816 23.8953 110.754 24.7012 120.613L26.5227 142.895L18.114 170.617L50.3191 173.417L51.528 169.637H56.9001L54.6601 160.815L63.8971 126.488Z" fill="#9694FF"/>
<path fill-rule="evenodd" clip-rule="evenodd" d="M18.5241 170.339L50.0976 173.085L51.231 169.541C51.2722 169.412 51.3926 169.325 51.5279 169.325H56.4989L54.3574 160.892C54.3443 160.84 54.345 160.786 54.3587 160.734L63.5957 126.407C63.6319 126.272 63.7535 126.178 63.8933 126.176L91.3736 125.874H93.2094C99.8172 125.874 106.109 123.028 110.471 118.065C114.834 113.102 116.85 106.497 116.001 99.9439L112.477 82.34H63.7891L63.053 94.706C63.0443 94.8457 62.9451 94.9623 62.8085 94.9923L40.2187 99.9851C30.7602 102.076 24.223 110.933 25.0121 120.587L26.8336 142.87C26.8367 142.909 26.8323 142.948 26.8211 142.986L18.5241 170.339ZM50.2916 173.728L18.0868 170.928C17.9933 170.919 17.9084 170.869 17.8554 170.792C17.803 170.714 17.788 170.616 17.8155 170.526L26.2067 142.861L24.3902 120.638C23.5762 110.674 30.3229 101.534 40.0839 99.3763L62.4442 94.434L63.1834 82.0094C63.1934 81.8447 63.33 81.7162 63.4953 81.7162H112.751C112.908 81.7162 113.04 81.8322 113.06 81.9882L116.621 99.8641C117.491 106.595 115.421 113.379 110.94 118.477C106.459 123.575 99.9968 126.498 93.2094 126.498H91.3767L64.1365 126.797L54.9819 160.818L57.2025 169.56C57.2256 169.653 57.205 169.752 57.1458 169.828C57.0871 169.904 56.9961 169.949 56.9 169.949H51.7556L50.616 173.512C50.5748 173.642 50.4538 173.729 50.319 173.729C50.3103 173.729 50.301 173.729 50.2916 173.728Z" fill="black"/>
<path fill-rule="evenodd" clip-rule="evenodd" d="M26.5222 143.207C26.4886 143.207 26.4536 143.201 26.4193 143.19C26.2571 143.133 26.171 142.955 26.2278 142.792L35.9725 114.817C37.973 109.075 42.7057 104.837 48.6336 103.481L82.1378 95.8125C82.3037 95.7732 82.4734 95.8786 82.5114 96.047C82.5501 96.2155 82.4453 96.3826 82.2769 96.4207L48.772 104.089C43.0557 105.397 38.4908 109.484 36.562 115.022L26.8167 142.998C26.7718 143.127 26.6514 143.207 26.5222 143.207Z" fill="black"/>
<path fill-rule="evenodd" clip-rule="evenodd" d="M58.1414 96.0161C57.9992 96.0161 57.8707 95.9182 57.8376 95.7741C57.7989 95.6063 57.9037 95.4391 58.0722 95.4005L64.3693 93.952C64.5383 93.914 64.7049 94.0181 64.7429 94.1859C64.7822 94.3537 64.6774 94.5215 64.509 94.5602L58.2119 96.008C58.1882 96.0136 58.1645 96.0161 58.1414 96.0161Z" fill="black"/>
<path fill-rule="evenodd" clip-rule="evenodd" d="M50.3191 173.73C50.2879 173.73 50.2554 173.725 50.2242 173.715C50.0596 173.662 49.9691 173.487 50.0221 173.323L56.013 154.587C56.0654 154.423 56.24 154.332 56.4053 154.385C56.5694 154.438 56.6598 154.613 56.6074 154.778L50.616 173.513C50.5736 173.645 50.4513 173.73 50.3191 173.73Z" fill="black"/>
<path fill-rule="evenodd" clip-rule="evenodd" d="M62.4443 132.197C62.4175 132.197 62.3907 132.194 62.3632 132.187C62.1973 132.142 62.0981 131.971 62.143 131.805L65.3462 119.836C65.3911 119.67 65.5626 119.571 65.7285 119.615C65.8945 119.659 65.993 119.83 65.9487 119.997L62.745 131.966C62.7082 132.105 62.5822 132.197 62.4443 132.197Z" fill="black"/>
<path fill-rule="evenodd" clip-rule="evenodd" d="M0.428917 186.483L0.311646 186.809H12.5167C12.7163 185.936 12.8498 184.996 12.8498 184.018C12.8498 179.746 11.7787 178.183 11.7787 178.183L9.89114 178.515C5.53586 179.281 1.92414 182.322 0.428917 186.483Z" fill="#EFF2F7"/>
<path fill-rule="evenodd" clip-rule="evenodd" d="M0.755929 186.497H12.2661C12.4463 185.639 12.538 184.807 12.538 184.018C12.538 180.679 11.8668 179.03 11.6148 178.528L9.94556 178.822C5.74248 179.561 2.22994 182.497 0.755929 186.497ZM12.5168 187.121H0.311793C0.210116 187.121 0.1153 187.072 0.0566642 186.989C-0.00134803 186.906 -0.0156956 186.799 0.0186126 186.704L0.135884 186.378C1.66479 182.121 5.38256 178.991 9.83764 178.208L11.7246 177.876C11.8456 177.855 11.9666 177.906 12.0359 178.007C12.082 178.074 13.1618 179.699 13.1618 184.018C13.1618 184.927 13.047 185.89 12.8206 186.879C12.7882 187.021 12.6622 187.121 12.5168 187.121Z" fill="black"/>
<path fill-rule="evenodd" clip-rule="evenodd" d="M51.0682 171.387C51.0589 171.387 51.0489 171.387 51.0395 171.385L18.8505 168.405C18.6789 168.389 18.5523 168.237 18.5685 168.066C18.5841 167.894 18.7351 167.765 18.9079 167.784L51.0963 170.764C51.2685 170.78 51.3945 170.932 51.3789 171.103C51.3633 171.265 51.2273 171.387 51.0682 171.387Z" fill="black"/>
<path fill-rule="evenodd" clip-rule="evenodd" d="M56.2918 168.036H52.2939C52.1218 168.036 51.9821 167.896 51.9821 167.724C51.9821 167.552 52.1218 167.412 52.2939 167.412H56.2918C56.464 167.412 56.6037 167.552 56.6037 167.724C56.6037 167.896 56.464 168.036 56.2918 168.036Z" fill="black"/>
<path fill-rule="evenodd" clip-rule="evenodd" d="M1.64742 184.018C1.15774 184.784 0.74355 185.607 0.428538 186.484L0.31189 186.81H58.3484V184.018H1.64742Z" fill="#EFF2F7"/>
<path fill-rule="evenodd" clip-rule="evenodd" d="M0.755656 186.498H58.0365V184.33H1.81984C1.38693 185.028 1.0295 185.756 0.755656 186.498ZM58.3484 187.122H0.312144C0.210467 187.122 0.115027 187.072 0.0570148 186.989C-0.00162121 186.906 -0.0159685 186.8 0.0183398 186.704L0.134988 186.379C0.447506 185.509 0.867937 184.658 1.38443 183.85C1.44182 183.76 1.541 183.706 1.64767 183.706H58.3484C58.5206 183.706 58.6603 183.846 58.6603 184.018V186.81C58.6603 186.982 58.5206 187.122 58.3484 187.122Z" fill="black"/>
<path fill-rule="evenodd" clip-rule="evenodd" d="M21.2319 178.049C21.1658 178.049 21.0991 178.029 21.0429 177.985L18.69 176.189C18.5528 176.084 18.5266 175.888 18.6314 175.751C18.7362 175.615 18.932 175.588 19.0686 175.693L21.4216 177.49C21.5582 177.594 21.5844 177.79 21.4802 177.927C21.4184 178.007 21.3255 178.049 21.2319 178.049Z" fill="black"/>
<path fill-rule="evenodd" clip-rule="evenodd" d="M18.6439 179.394C18.5778 179.394 18.5111 179.373 18.4549 179.329L16.102 177.533C15.9654 177.428 15.9392 177.232 16.0434 177.095C16.1482 176.958 16.3434 176.931 16.4807 177.037L18.8336 178.834C18.9702 178.939 18.9964 179.134 18.8922 179.271C18.8305 179.351 18.7375 179.394 18.6439 179.394Z" fill="black"/>
<path fill-rule="evenodd" clip-rule="evenodd" d="M82.6517 37.8864C82.6517 37.8864 84.8564 36.2788 84.4643 29.6399C84.4643 29.6399 87.951 31.4611 91.7549 28.3818L92.6323 37.8097C92.6323 37.8097 89.995 41.1531 87.2296 40.8289C84.4643 40.5047 82.6517 37.8864 82.6517 37.8864Z" fill="#FBEFE3"/>
<path fill-rule="evenodd" clip-rule="evenodd" d="M84.597 28.7923C86.8115 29.9976 89.1223 29.582 91.5713 27.5162C91.7656 27.3522 92.0404 27.4939 92.0651 27.7709L92.9425 37.5955C92.9515 37.6954 92.9241 37.7951 92.8669 37.8706C91.0474 40.2742 89.1538 41.3769 87.197 41.1378C85.2668 40.902 83.6641 39.8285 82.4045 37.9327C82.2939 37.7661 82.3289 37.5258 82.4806 37.4106C83.8276 36.3871 84.4078 33.6365 84.1531 29.1428C84.1376 28.8684 84.3821 28.6753 84.597 28.7923ZM92.2294 37.6442L91.4161 28.6941L91.2508 28.8182C89.0279 30.4425 86.8601 30.8241 84.7729 29.9455L84.6806 29.9053L84.6953 30.2766C84.8197 34.1006 84.2698 36.6361 83.0019 37.8729L82.9636 37.9082L83.0493 38.0244C84.1153 39.432 85.4098 40.2502 86.9435 40.4896L87.154 40.5186C88.8948 40.7275 90.6132 39.7446 92.3204 37.5293L92.2294 37.6442Z" fill="black"/>
<path fill-rule="evenodd" clip-rule="evenodd" d="M87.1528 30.1959C82.9447 30.1959 79.5332 26.5779 79.5332 22.1154C79.5332 17.6528 82.9447 14.0349 87.1528 14.0349C91.3602 14.0349 94.7717 17.6528 94.7717 22.1154C94.7717 26.5779 91.3602 30.1959 87.1528 30.1959Z" fill="#FBEFE3"/>
<path fill-rule="evenodd" clip-rule="evenodd" d="M87.1524 14.347C83.1234 14.347 79.8447 17.8314 79.8447 22.1156C79.8447 26.3991 83.1234 29.8836 87.1524 29.8836C91.1814 29.8836 94.4594 26.3991 94.4594 22.1156C94.4594 17.8314 91.1814 14.347 87.1524 14.347ZM87.1524 30.5074C82.779 30.5074 79.2209 26.7429 79.2209 22.1156C79.2209 17.4877 82.779 13.7232 87.1524 13.7232C91.5258 13.7232 95.0832 17.4877 95.0832 22.1156C95.0832 26.7429 91.5258 30.5074 87.1524 30.5074Z" fill="black"/>
<path fill-rule="evenodd" clip-rule="evenodd" d="M85.018 24.7083C85.0055 24.7083 84.9931 24.7076 84.98 24.7064L83.7062 24.5517C83.6164 24.5405 83.5365 24.4918 83.4854 24.417C83.4348 24.3427 83.4192 24.2498 83.4423 24.1625L83.8278 22.6953C83.8721 22.5294 84.0436 22.4321 84.209 22.4732C84.3755 22.5175 84.4747 22.6878 84.431 22.8544L84.136 23.9753L85.0554 24.0864C85.2263 24.1076 85.348 24.2629 85.3274 24.4338C85.3081 24.5922 85.1739 24.7083 85.018 24.7083Z" fill="black"/>
<path fill-rule="evenodd" clip-rule="evenodd" d="M87.3046 21.0356C86.9771 21.0356 86.5529 20.9788 86.1113 20.7668C85.9559 20.6925 85.8904 20.5066 85.9653 20.3507C86.0395 20.196 86.2254 20.1292 86.3814 20.2047C87.0887 20.5434 87.7487 20.3632 87.7556 20.3613C87.9196 20.317 88.093 20.41 88.1404 20.5753C88.1885 20.7399 88.0949 20.9121 87.9296 20.9601C87.9109 20.9664 87.667 21.0356 87.3046 21.0356Z" fill="black"/>
<path fill-rule="evenodd" clip-rule="evenodd" d="M81.5289 21.1501C81.4497 21.1501 81.3705 21.1202 81.3099 21.0603C81.1871 20.9393 81.1858 20.7416 81.3068 20.6193C82.0323 19.8845 82.9156 19.8246 82.953 19.8221C83.1245 19.8184 83.2718 19.9431 83.2824 20.1153C83.2923 20.2868 83.162 20.434 82.9911 20.4446C82.9798 20.4459 82.3005 20.5002 81.751 21.0572C81.6898 21.1189 81.6094 21.1501 81.5289 21.1501Z" fill="black"/>
<path fill-rule="evenodd" clip-rule="evenodd" d="M84.7358 27.4042C84.1862 27.4042 83.812 26.9426 83.7708 26.8889C83.6648 26.7536 83.6897 26.5571 83.8263 26.4517C83.9617 26.3462 84.1576 26.3712 84.2623 26.5059C84.3254 26.5845 84.5468 26.7947 84.7452 26.7804C84.8999 26.7766 85.0602 26.66 85.2205 26.4342C85.3203 26.2938 85.5149 26.2614 85.6559 26.3612C85.7962 26.461 85.8287 26.6563 85.7289 26.796C85.4469 27.1921 85.1194 27.3967 84.7558 27.4042H84.7358Z" fill="black"/>
<path fill-rule="evenodd" clip-rule="evenodd" d="M87.0913 23.6453C86.6778 23.6453 86.3085 23.4681 86.1076 23.3153C85.9704 23.2111 85.9436 23.0153 86.0477 22.8786C86.1519 22.742 86.3465 22.714 86.4838 22.8175C86.5474 22.8649 87.1007 23.2492 87.5885 22.83C87.7189 22.7183 87.916 22.7327 88.0283 22.8637C88.1405 22.9947 88.1256 23.1912 87.9946 23.3034C87.7014 23.5555 87.3851 23.6453 87.0913 23.6453Z" fill="black"/>
<path fill-rule="evenodd" clip-rule="evenodd" d="M82.4927 23.6453C82.0791 23.6453 81.7099 23.4681 81.509 23.3153C81.3718 23.2111 81.3449 23.0153 81.4491 22.8786C81.5533 22.742 81.7479 22.714 81.8851 22.8175C81.9488 22.8649 82.5021 23.2492 82.9899 22.83C83.1202 22.7183 83.3174 22.7327 83.4296 22.8637C83.5419 22.9947 83.5269 23.1912 83.3959 23.3034C83.1028 23.5555 82.7865 23.6453 82.4927 23.6453Z" fill="black"/>
<path fill-rule="evenodd" clip-rule="evenodd" d="M130.257 62.1333L113.582 66.9383L114.641 69.4223C114.641 69.4223 103.489 61.8863 100.072 58.9732C96.6565 56.0595 94.2449 48.3227 92.6374 45.9111C91.0299 43.4995 87.6134 43.7004 86.7096 44.7309C85.8051 45.7608 86.5081 46.5137 86.5081 46.5137C86.5081 46.5137 80.9819 43.1983 78.9727 45.6098C76.9629 48.0207 80.4798 50.4323 80.4798 50.4323C80.4798 50.4323 74.7528 47.9203 73.8408 50.6332C72.9289 53.3466 76.3603 54.8537 76.3603 54.8537C75.8076 54.7152 75.2481 54.9648 74.804 55.2754C74.1215 55.7526 73.6518 56.5099 73.6138 57.3414C73.4996 59.8833 76.9292 60.5869 77.9672 60.7416C75.7128 60.5027 75.1545 62.9411 75.1545 62.9411C74.8033 66.4081 78.7719 66.2073 78.7719 66.2073C87.1618 65.4537 92.3361 69.7235 92.3361 69.7235C92.3361 69.7235 105.096 91.3259 121.072 89.3167C137.047 87.3069 130.257 62.1333 130.257 62.1333ZM51.3423 58.6713C50.3374 62.7908 50.2538 63.9448 50.2538 63.9448L43.9186 61.8913C43.9186 61.8913 29.0363 82.6852 41.3948 90.4221C53.753 98.1583 63.2982 67.2122 63.2982 67.2122C63.2982 67.2122 65.3991 65.4026 67.263 62.9442L69.848 52.668C69.5616 51.9363 69.2267 51.6381 69.2267 51.6381C69.2267 51.6381 69.5448 51.8396 70.0002 52.0616L71.3076 46.8636C70.0588 46.0234 68.1575 45.2568 65.308 44.7053C55.9637 42.897 52.3472 54.5518 51.3423 58.6713Z" fill="#FBEFE3"/>
<path fill-rule="evenodd" clip-rule="evenodd" d="M64.5114 66.0707L64.27 67.8747L61.7162 82.8331H103.512C96.6995 77.1017 92.3354 69.7242 92.3354 69.7242C92.3354 69.7242 87.1611 65.4538 78.7712 66.2073C78.7712 66.2073 74.8027 66.4088 75.1545 62.9411C75.1545 62.9411 75.7122 60.5028 77.9671 60.7423C76.9285 60.587 73.499 59.884 73.6137 57.3414C73.6512 56.5099 74.1215 55.7526 74.8033 55.2754C75.2474 54.9648 75.807 54.7153 76.3603 54.8538C76.3603 54.8538 72.9282 53.3467 73.8408 50.6338C74.7521 47.921 80.4798 50.433 80.4798 50.433C80.4798 50.433 76.9628 48.0214 78.9727 45.6098C80.9819 43.1983 86.508 46.5143 86.508 46.5143C86.508 46.5143 85.8044 45.7614 86.7089 44.7316C87.6134 43.7011 91.0292 43.5002 92.6367 45.9118C94.2449 48.3227 96.6558 56.0595 100.072 58.9732C102.152 60.7473 107.095 64.2318 110.648 66.6882L109.622 59.0207L112.917 67.1299L113.581 66.9384L130.257 62.1333L131.647 61.7335L125.677 53.0261C118.848 43.0679 107.55 37.1151 95.475 37.1151H92.545C91.7603 38.7675 89.8178 39.9403 87.5385 39.9477C85.2586 39.9403 83.3161 38.7675 82.532 37.1151H79.6015C67.5268 37.1151 54.9544 42.8858 48.1262 52.8439L42.6088 61.4671L49.3507 63.6529L50.2533 63.9448C50.2533 63.9448 50.3362 62.7914 51.3412 58.672C52.3461 54.5525 55.963 42.897 65.3074 44.706C74.6517 46.5143 73.8408 50.6338 73.0442 52.0966C72.2483 53.5588 69.226 51.6388 69.226 51.6388C69.226 51.6388 70.9339 53.1458 69.9296 57.7618C69.221 61.0155 66.2231 64.369 64.5114 66.0707Z" fill="#EFF2F7"/>
<path fill-rule="evenodd" clip-rule="evenodd" d="M78.7713 66.2073C78.7713 66.2073 74.8027 66.4081 75.1539 62.9411C75.1539 62.9411 75.7122 60.5028 77.9666 60.7417C76.9286 60.587 73.499 59.8833 73.6132 57.3414C73.6512 56.5099 74.1209 55.7526 74.8033 55.2754C75.2475 54.9648 75.807 54.7153 76.3597 54.8537C76.3597 54.8537 72.9282 53.3467 73.8402 50.6338C74.7522 47.921 80.4792 50.4323 80.4792 50.4323C80.4792 50.4323 76.9629 48.0214 78.9721 45.6098C80.7137 43.5195 85.0915 45.729 86.2292 46.3559L86.2929 46.1033C86.208 45.8082 86.2124 45.3734 86.6054 44.8613L86.9703 43.4091C87.1886 42.5414 86.6622 41.6613 85.7951 41.4436L75.0217 38.7338C74.1546 38.5155 73.2744 39.042 73.0561 39.9091L67.2012 63.1875C66.9835 64.0546 67.5094 64.9348 68.3765 65.1531L79.1499 67.8622C80.0176 68.0805 80.8971 67.5547 81.1154 66.687L81.2539 66.1356C80.4592 66.1162 79.6371 66.1293 78.7713 66.2073Z" fill="#FF5613"/>
<path fill-rule="evenodd" clip-rule="evenodd" d="M74.3617 41.4835C74.2364 41.9813 74.5383 42.486 75.0361 42.6113C75.5332 42.7361 76.0385 42.4342 76.1632 41.937C76.2886 41.4392 75.9867 40.9346 75.4889 40.8092C74.9918 40.6845 74.4871 40.9864 74.3617 41.4835Z" fill="#EFF2F7"/>
<path fill-rule="evenodd" clip-rule="evenodd" d="M74.6636 41.5596C74.5806 41.8896 74.7815 42.2252 75.1115 42.3088C75.2718 42.3487 75.4371 42.3244 75.5787 42.2395C75.7203 42.1553 75.8201 42.0206 75.86 41.8603C75.9006 41.7012 75.8762 41.5347 75.7914 41.3937C75.7072 41.2521 75.5724 41.1523 75.4121 41.1117C75.0821 41.0269 74.7466 41.2296 74.6636 41.5596ZM75.2643 42.9513C75.1626 42.9513 75.0603 42.9388 74.9593 42.9132C74.2956 42.7467 73.892 42.0711 74.0585 41.4074C74.2257 40.7437 74.9006 40.3389 75.565 40.5073C75.8862 40.5878 76.1569 40.7892 76.3272 41.0737C76.4969 41.3575 76.5462 41.6912 76.4651 42.0131C76.3846 42.3344 76.1831 42.6051 75.8987 42.7754C75.7041 42.892 75.4857 42.9513 75.2643 42.9513Z" fill="black"/>
<path fill-rule="evenodd" clip-rule="evenodd" d="M103.147 82.5212H62.0862L64.5795 67.9159L64.8758 65.702C64.6101 65.9746 64.363 66.221 64.1497 66.4263L63.9632 67.8223L61.4088 82.7807C61.3932 82.8712 61.4188 82.9641 61.478 83.034C61.5373 83.1045 61.6246 83.145 61.7163 83.145H103.882C103.632 82.9398 103.39 82.7302 103.147 82.5212Z" fill="black"/>
<path fill-rule="evenodd" clip-rule="evenodd" d="M131.904 61.557L125.934 52.8501C119.045 42.8022 107.658 36.8032 95.4751 36.8032H92.5445C92.4241 36.8032 92.315 36.8731 92.2632 36.9816C91.5009 38.5873 89.6458 39.6296 87.5393 39.6358C85.4309 39.6296 83.5757 38.5873 82.8134 36.9816C82.7623 36.8731 82.6525 36.8032 82.5321 36.8032H79.6016C66.9331 36.8032 54.4773 43.0305 47.8635 52.6761L42.3461 61.2993C42.2943 61.3804 42.2824 61.4815 42.3155 61.5726C42.3479 61.6636 42.4209 61.7341 42.5126 61.7641L43.7321 62.1595C43.8506 61.9855 43.918 61.8919 43.918 61.8919L50.2532 63.9454C50.2532 63.9454 50.2607 63.85 50.2925 63.6298L43.0896 61.2956L48.3837 53.0204C54.879 43.5482 67.1327 37.427 79.6016 37.427H82.3394C83.252 39.1474 85.2674 40.2528 87.5393 40.2596C89.8092 40.2528 91.8247 39.1474 92.7373 37.427H95.4751C107.452 37.427 118.646 43.3243 125.419 53.2026L131.145 61.5532L113.1 66.7525L109.911 58.9034C109.852 58.7574 109.692 58.6788 109.542 58.7194C109.39 58.7599 109.292 58.9065 109.313 59.0618L110.301 66.4487C110.538 66.6121 110.77 66.7724 110.995 66.9278L110.256 61.411L112.628 67.2471C112.688 67.3956 112.849 67.4736 113.003 67.4299L113.705 67.2278L113.581 66.9384L130.257 62.134C130.257 62.134 130.286 62.24 130.334 62.4365L131.733 62.0329C131.829 62.0055 131.907 61.9331 131.941 61.8389C131.974 61.7441 131.961 61.6393 131.904 61.557Z" fill="black"/>
<path fill-rule="evenodd" clip-rule="evenodd" d="M51.0389 58.5978C50.5973 60.4086 50.3328 61.6475 50.175 62.4727C50.1032 62.8314 50.0309 63.182 49.9573 63.5213L44.0144 61.5951C43.8847 61.5526 43.7437 61.5994 43.6651 61.7098C43.642 61.7416 41.3721 64.9304 39.3585 69.2084C37.4915 73.1757 35.4667 78.9226 36.4261 83.775C37.0106 86.7318 38.6268 89.0573 41.2292 90.6866C42.6003 91.5449 43.9964 91.9747 45.4036 91.9747C46.2626 91.9747 47.1259 91.8144 47.9892 91.4932C51.8236 90.0666 55.6175 85.5541 59.2667 78.0799C61.778 72.9355 63.3481 68.088 63.5695 67.39C63.9363 67.0688 65.5775 65.5885 67.1588 63.5968C67.1576 63.4614 67.1675 63.3248 67.2019 63.1876L67.4688 62.1271C65.5526 64.8381 63.1323 66.944 63.0955 66.9758C63.0506 67.0139 63.0181 67.0644 63.0007 67.1206C62.937 67.3252 56.5825 87.6313 47.7715 90.9087C45.6849 91.684 43.5953 91.4314 41.5605 90.1576C39.1096 88.6231 37.5882 86.4355 37.038 83.6553C35.3794 75.2653 42.9478 63.8532 44.0419 62.2594L49.8206 64.1326C47.9493 72.3385 45.5446 74.5823 45.509 74.6147C45.3805 74.7276 45.3674 74.9241 45.4803 75.0539C45.5421 75.1244 45.6288 75.1605 45.7155 75.1605C45.7885 75.1605 45.8615 75.135 45.9207 75.0832C46.0336 74.9846 48.5238 72.7172 50.4513 64.1782C50.5143 64.1245 50.558 64.0515 50.5642 63.9679C50.5648 63.9611 50.6041 63.4976 50.868 62.1858C50.8699 62.177 50.8711 62.1683 50.873 62.159C51.0339 61.3605 51.2778 60.252 51.6452 58.7456C52.7911 54.0466 56.4135 43.3019 65.2488 45.0117C67.8656 45.5182 69.8804 46.2574 71.2259 47.1893L71.3887 46.5412C69.9802 45.6211 67.971 44.9031 65.3673 44.3997C56.003 42.587 52.2272 53.7247 51.0389 58.5978ZM69.3926 51.3749L67.0035 49.8498C66.9661 49.8254 66.9255 49.8117 66.8837 49.8049C64.5776 47.9453 61.0208 47.6752 60.8074 47.6609C60.6334 47.6584 60.4874 47.7794 60.4756 47.951C60.4637 48.1231 60.5935 48.2716 60.7656 48.2834C60.8355 48.2878 67.7477 48.8124 68.1874 53.3143C68.606 57.591 67.8493 58.7443 67.3615 59.0512C66.9548 59.307 66.3728 59.2084 65.6324 58.7618C65.7653 57.352 65.3723 55.5287 64.4422 53.2943C63.0524 49.9533 58.3522 50.8285 58.152 50.8678C57.9835 50.9008 57.8731 51.0643 57.9062 51.2333C57.9392 51.4024 58.1008 51.5128 58.2717 51.4797C58.3154 51.4722 62.6719 50.6632 63.8702 53.5432C65.6156 57.7382 65.3954 60.33 63.2421 61.2382C62.8559 61.3593 61.7624 61.5707 61.3489 61.0923C61.3476 61.091 61.3457 61.0904 61.3445 61.0892C61.8516 59.5852 61.9171 57.6172 61.7231 56.2635C61.2728 53.1203 56.4721 53.4353 56.2675 53.449C56.096 53.4615 55.9668 53.6106 55.9793 53.7821C55.9918 53.9543 56.1409 54.0884 56.313 54.0709C56.3567 54.0666 60.7375 53.7821 61.1062 56.3515C61.3875 58.3158 61.0632 61.615 59.7407 62.4428C59.2311 62.7609 58.5855 62.6605 57.822 62.144C55.6393 60.6662 57.7091 56.9029 57.7309 56.8649C57.8145 56.7145 57.7608 56.5249 57.6105 56.4407C57.4608 56.3565 57.2705 56.4095 57.1863 56.5598C57.1533 56.6197 56.8701 57.1393 56.6137 57.8636C56.3423 57.7419 56.2563 57.0526 56.2831 56.6197C56.2943 56.4482 56.1639 56.2997 55.9918 56.2885C55.8202 56.2729 55.6724 56.407 55.6605 56.5792C55.6506 56.7358 55.5832 58.1199 56.3854 58.4462C56.3991 58.4518 56.4135 58.4505 56.4272 58.4543C56.0479 59.8329 55.9481 61.6287 57.472 62.6605C58.1164 63.0965 58.6597 63.2481 59.1039 63.2481C59.5081 63.2481 59.8299 63.1227 60.0713 62.9718C60.5043 62.701 60.8423 62.2482 61.1037 61.6936C61.4331 61.9294 61.8523 62.0105 62.2502 62.0105C62.8572 62.0105 63.4024 61.8408 63.4573 61.8227C64.5676 61.3555 65.2575 60.5502 65.5289 59.4155C66.0142 59.6763 66.4589 59.8154 66.855 59.8154C67.1626 59.8154 67.4426 59.7368 67.6934 59.579C68.7775 58.8978 69.1524 56.7694 68.8081 53.2538C68.7382 52.5377 68.5293 51.9157 68.2261 51.3699L69.0308 51.8839C69.0926 51.9469 69.4556 52.3493 69.7032 53.2438L70.0781 51.7523C69.7924 51.6107 69.5467 51.4722 69.3938 51.3749H69.3926ZM128.706 84.4887C126.977 87.0643 124.396 88.5844 121.033 89.0074C105.446 90.9642 92.731 69.7798 92.6043 69.5658C92.5862 69.5346 92.5625 69.5065 92.5345 69.4835C92.3374 69.3207 87.9864 65.8044 80.7817 65.8044C80.1298 65.8044 79.4537 65.8337 78.7569 65.8961C78.7375 65.8992 76.9641 65.9703 76.0272 64.9822C75.5675 64.4982 75.3791 63.822 75.4583 63.0111C75.4795 62.9206 75.9642 60.9282 77.8087 61.0355C78.0489 61.0736 78.2067 61.0892 78.2404 61.0929C78.2691 61.0954 78.2959 61.0892 78.3234 61.0842C79.8298 61.3418 82.3175 61.809 83.8551 62.3218C83.8882 62.3324 83.9212 62.338 83.9543 62.338C84.0846 62.338 84.2063 62.255 84.25 62.1246C84.3042 61.9612 84.2163 61.7841 84.0528 61.7298C81.7455 60.9607 77.5243 60.3175 77.1619 60.2633C75.8394 59.9376 73.8452 59.1492 73.9257 57.3558C73.9575 56.654 74.3523 55.9722 74.9824 55.5312C75.472 55.1888 75.9105 55.0634 76.2848 55.1563C76.2948 55.1588 76.3048 55.1563 76.3154 55.1582C76.3254 55.1594 76.3335 55.1651 76.3434 55.1657C76.3609 55.1663 77.0695 55.2112 78.2323 55.4395L83.5382 57.0982C84.177 57.372 84.8369 57.6814 85.515 58.0376C85.5612 58.0619 85.6104 58.0738 85.6597 58.0738C85.772 58.0738 85.8799 58.0133 85.9354 57.9066C86.0159 57.7544 85.9573 57.566 85.8044 57.4855C80.9352 54.9255 76.9622 54.5818 76.4376 54.5463C76.039 54.3597 73.3705 53.0124 74.1365 50.733C74.2675 50.3426 74.5207 50.0693 74.9094 49.8972C76.6641 49.1193 80.3182 50.7025 80.3544 50.7187C80.3619 50.7218 80.37 50.7212 80.3775 50.7237C80.3843 50.7262 80.3893 50.7312 80.3962 50.7337C80.4205 50.7399 81.7635 51.1179 83.4103 51.8141L85.215 52.6643C85.9629 53.0579 86.7008 53.5058 87.3477 54.0067C87.4044 54.0503 87.4718 54.0716 87.5386 54.0716C87.6315 54.0716 87.7238 54.0298 87.7856 53.9505C87.891 53.8146 87.866 53.6187 87.7294 53.5133C85.0765 51.4604 81.1086 50.2877 80.6176 50.1479C80.3656 49.9645 78.8704 48.8243 78.6833 47.465C78.6028 46.8755 78.7756 46.3341 79.2122 45.8101C81.0281 43.6294 86.2953 46.7495 86.3484 46.782C86.3527 46.7851 86.359 46.7851 86.364 46.7876C86.3683 46.7901 86.3715 46.7945 86.3764 46.7969C86.3977 46.8069 88.5273 47.8137 90.4984 49.6576C90.5583 49.7144 90.635 49.7419 90.7111 49.7419C90.7941 49.7419 90.8777 49.7088 90.9388 49.6433C91.0567 49.5173 91.0505 49.3202 90.9239 49.2023C89.0438 47.4426 87.0819 46.4464 86.7064 46.2636C86.6066 46.1283 86.3303 45.6361 86.9441 44.9368C87.3152 44.5139 88.2416 44.2606 89.201 44.3261C90.5334 44.4141 91.6917 45.0553 92.3779 46.0846C92.8988 46.8662 93.5182 48.2485 94.2349 49.8485C95.7071 53.1334 97.5391 57.2217 99.8702 59.2103C102.747 61.6643 111.168 67.4362 113.722 69.1753C113.768 69.2071 113.822 69.2439 113.889 69.2888C114.242 69.529 114.452 69.6706 114.467 69.6812C114.504 69.7062 114.547 69.708 114.588 69.7149C115.577 70.2694 117.185 70.9831 118.912 70.9831C119.07 70.9831 119.229 70.9768 119.389 70.9643C119.56 70.9506 119.689 70.8003 119.675 70.6287C119.661 70.4572 119.512 70.3331 119.339 70.3424C119.017 70.368 118.696 70.3611 118.38 70.3324L115.026 69.2377C114.969 69.2071 114.916 69.1772 114.863 69.1472L114.006 67.1405L130.034 62.5226C130.558 64.6703 133.408 77.4854 128.706 84.4887ZM131.894 70.4385C131.561 65.8094 130.569 62.0897 130.559 62.0523C130.537 61.9718 130.483 61.9032 130.411 61.862C130.337 61.8209 130.251 61.8096 130.171 61.834L113.495 66.639C113.409 66.6633 113.338 66.7238 113.3 66.8049C113.262 66.8854 113.26 66.979 113.295 67.0607L113.937 68.5671C111.237 66.727 103.08 61.1278 100.275 58.7362C98.0506 56.8387 96.251 52.8215 94.8044 49.5928C94.0758 47.9672 93.4471 46.5637 92.8969 45.7384C92.1022 44.5463 90.7698 43.8046 89.2421 43.7036C88.07 43.6275 86.9815 43.9487 86.475 44.5251C86.0527 45.0061 85.923 45.4639 85.9367 45.8457C84.3142 45.011 80.4498 43.3518 78.7332 45.4103C78.1849 46.0684 77.9603 46.7888 78.0657 47.5517C78.1755 48.3471 78.6303 49.0557 79.1012 49.5971C77.7807 49.1867 75.8856 48.7831 74.6567 49.3264C74.1066 49.5697 73.7329 49.9764 73.5451 50.5347C72.9201 52.3948 74.1583 53.8351 75.336 54.6361C75.1046 54.7228 74.867 54.8507 74.6249 55.0203C73.8371 55.5705 73.343 56.4338 73.3025 57.3277C73.2133 59.3001 74.973 60.2583 76.4177 60.7105C75.4857 61.2102 74.9986 62.2201 74.8445 62.91C74.7391 63.9499 74.9855 64.792 75.5762 65.4139C76.7134 66.6097 78.7032 66.5223 78.7999 66.518C86.5761 65.8193 91.6038 69.5496 92.0978 69.9332C92.7771 71.0542 104.36 89.759 118.99 89.759C119.689 89.759 120.398 89.716 121.111 89.6262C124.661 89.1795 127.39 87.5677 129.225 84.8355C131.989 80.716 132.202 74.7326 131.894 70.4385Z" fill="black"/>
<path fill-rule="evenodd" clip-rule="evenodd" d="M80.9177 66.1306L80.798 66.6072C80.7137 66.9415 80.5042 67.2234 80.2079 67.4006C79.9116 67.5778 79.5641 67.6289 79.2298 67.5447L68.457 64.835C68.122 64.7508 67.8406 64.5412 67.6629 64.2455C67.4857 63.9492 67.4346 63.6017 67.5188 63.2668L73.3743 39.9889C73.5215 39.4032 74.0492 39.0114 74.6275 39.0114C74.7316 39.0114 74.8364 39.0245 74.9418 39.0507L85.7153 41.7611C86.0496 41.8447 86.3316 42.0543 86.5087 42.3506C86.6859 42.6469 86.737 42.9943 86.6528 43.3287L85.9317 46.1962C86.2891 46.384 86.5075 46.5137 86.5075 46.5137C86.5075 46.5137 85.8045 45.7608 86.709 44.7309C86.7963 44.6311 86.9129 44.5426 87.0433 44.4596L87.2878 43.4884C87.4151 42.9843 87.3377 42.4603 87.0708 42.0143C86.8038 41.5683 86.379 41.2527 85.875 41.1254L75.1015 38.4157C74.0604 38.1531 73.0006 38.7881 72.7386 39.8292L66.8838 63.1071C66.7571 63.6117 66.8339 64.1351 67.1008 64.5817C67.3678 65.0277 67.7926 65.3434 68.2973 65.47L79.0701 68.1797C79.2285 68.2196 79.3888 68.2396 79.5485 68.2396C79.896 68.2396 80.2384 68.1454 80.5441 67.9626C80.9907 67.6957 81.3063 67.2709 81.433 66.7668L81.5908 66.1393C81.3712 66.1306 81.1429 66.1324 80.9177 66.1306Z" fill="black"/>
<path fill-rule="evenodd" clip-rule="evenodd" d="M87.2461 23.3301C86.3173 23.3301 85.5619 22.5747 85.5619 21.6459C85.5619 20.7171 86.3173 19.961 87.2461 19.961C88.1749 19.961 88.9303 20.7171 88.9303 21.6459C88.9303 22.5747 88.1749 23.3301 87.2461 23.3301ZM82.3475 23.3301C81.4187 23.3301 80.6633 22.5747 80.6633 21.6459C80.6633 20.7171 81.4187 19.961 82.3475 19.961C83.2769 19.961 84.0324 20.7171 84.0324 21.6459C84.0324 22.5747 83.2769 23.3301 82.3475 23.3301ZM90.8609 21.334H89.5223C89.3682 20.2093 88.412 19.3372 87.2461 19.3372C86.0802 19.3372 85.124 20.2093 84.9699 21.334H84.6243C84.4709 20.2093 83.5134 19.3372 82.3475 19.3372C81.1823 19.3372 80.2247 20.2093 80.0713 21.334H79.533C79.3602 21.334 79.2211 21.4731 79.2211 21.6459C79.2211 21.8181 79.3602 21.9578 79.533 21.9578H80.0713C80.2247 23.0825 81.1823 23.9539 82.3475 23.9539C83.5134 23.9539 84.4709 23.0825 84.6243 21.9578H84.9699C85.124 23.0825 86.0802 23.9539 87.2461 23.9539C88.412 23.9539 89.3682 23.0825 89.5223 21.9578H90.8609C91.0331 21.9578 91.1728 21.8181 91.1728 21.6459C91.1728 21.4731 91.0331 21.334 90.8609 21.334Z" fill="black"/>
<path fill-rule="evenodd" clip-rule="evenodd" d="M102.621 22.4662C97.6041 21.7826 99.8329 11.0584 90.1779 11.0584H87.1975H85.4739C75.819 11.0584 78.0908 21.7826 73.0743 22.4662C65.0368 23.5622 66.5507 31.6515 66.5507 31.6515H84.3717L84.9375 29.8862C81.8329 28.865 79.5785 25.7954 79.5785 22.1674C79.5785 20.4109 80.1125 18.7903 81.0101 17.4641H89.7338C90.4867 17.4641 91.1205 18.0292 91.2059 18.7778L91.5983 22.2142C92.0019 22.1381 92.4498 22.1868 92.9875 22.8174C93.1864 23.0514 93.328 23.3477 93.3256 23.6546C93.3193 24.4543 92.6693 25.1005 91.8684 25.1005C91.8204 25.1005 91.7748 25.0911 91.7274 25.0861L91.816 28.7116L91.8572 30.3715L91.8877 31.6515H109.144C109.144 31.6515 110.657 23.5622 102.621 22.4662ZM92.5708 5.68512C92.5708 2.71714 90.1654 0.311817 87.1975 0.311817C84.2301 0.311817 81.8242 2.71714 81.8242 5.68512C81.8242 8.65247 84.2301 11.0584 87.1975 11.0584C90.1654 11.0584 92.5708 8.65247 92.5708 5.68512Z" fill="#4B2500"/>
<path fill-rule="evenodd" clip-rule="evenodd" d="M108.874 31.3397H92.1926L92.0473 25.4031C92.9324 25.3139 93.6304 24.5647 93.6373 23.6565C93.6398 23.3003 93.4932 22.9304 93.225 22.6154C92.7172 22.0191 92.2456 21.8768 91.8732 21.875L91.5152 18.7423C91.4123 17.8359 90.6462 17.1523 89.7336 17.1523H81.0106C80.9071 17.1523 80.8104 17.204 80.7517 17.2895C79.7799 18.7248 79.2665 20.4116 79.2665 22.1675C79.2665 25.7562 81.3755 28.8957 84.5481 30.0796L84.1439 31.3397H66.8207C66.7165 30.4845 66.5207 27.6519 68.0945 25.4742C69.1661 23.9915 70.856 23.0839 73.1166 22.7757C75.3585 22.4694 76.2499 20.3398 77.193 18.0848C78.5092 14.9378 80.0013 11.3704 85.4738 11.3704H90.1778C95.6509 11.3704 97.158 14.9391 98.4873 18.0867C99.4385 20.3411 100.337 22.4694 102.579 22.7757C104.839 23.0839 106.529 23.9915 107.6 25.4742C109.174 27.6519 108.978 30.4845 108.874 31.3397ZM82.1359 5.6852C82.1359 2.89437 84.4065 0.623787 87.1973 0.623787C89.9888 0.623787 92.2594 2.89437 92.2594 5.6852C92.2594 8.47602 89.9888 10.7466 87.1973 10.7466C84.4065 10.7466 82.1359 8.47602 82.1359 5.6852ZM108.109 25.113C106.933 23.4843 105.101 22.4894 102.662 22.1569C100.774 21.8999 99.9806 20.0204 99.0618 17.8447C97.7262 14.6821 96.0651 10.7466 90.1778 10.7466H89.7736C91.6162 9.80531 92.8832 7.89215 92.8832 5.6852C92.8832 2.55067 90.3325 0 87.1973 0C84.0628 0 81.5121 2.55067 81.5121 5.6852C81.5121 7.9196 82.8115 9.85147 84.6903 10.7803C79.4437 11.1184 77.8792 14.8287 76.6173 17.8441C75.7072 20.0204 74.9206 21.8999 73.0324 22.1569C70.594 22.4894 68.7613 23.4843 67.5861 25.113C65.5631 27.9151 66.215 31.5555 66.2437 31.709C66.2718 31.8568 66.4003 31.9635 66.5506 31.9635H84.3716C84.5069 31.9635 84.6267 31.8761 84.6685 31.747L85.2349 29.9817C85.2873 29.8183 85.1981 29.6436 85.0359 29.59C81.9581 28.5782 79.8903 25.5952 79.8903 22.1675C79.8903 20.5925 80.335 19.0779 81.1778 17.7761H89.7336C90.3294 17.7761 90.8284 18.2221 90.8958 18.8128L91.2888 22.2492C91.2981 22.3353 91.343 22.4133 91.4129 22.4651C91.4827 22.5162 91.5707 22.5374 91.6562 22.5206C91.935 22.4682 92.2718 22.4588 92.7497 23.0202C92.9212 23.2211 93.0154 23.4457 93.0135 23.6521C93.0085 24.279 92.4952 24.7887 91.8689 24.7887L91.7578 24.7762C91.6693 24.7681 91.5807 24.7974 91.5146 24.8579C91.4497 24.919 91.4135 25.0045 91.4154 25.0937L91.5763 31.6591C91.5807 31.8287 91.7192 31.9635 91.8882 31.9635H109.144C109.294 31.9635 109.423 31.8568 109.451 31.709C109.48 31.5555 110.132 27.9151 108.109 25.113Z" fill="black"/>
</svg>
