<?xml version="1.0" encoding="utf-8"?>
<svg width="411px" height="805px" viewBox="0 0 411 805" version="1.1" xmlns:xlink="http://www.w3.org/1999/xlink" xmlns="http://www.w3.org/2000/svg">
  <defs>
    <path d="M411 0L411 0L411 805L0 805L0 0L411 0Z" id="path_1" />
    <clipPath id="clip_1">
      <use xlink:href="#path_1" clip-rule="evenodd" fill-rule="evenodd" />
    </clipPath>
  </defs>
  <g id="Çerçeve 8">
    <path d="M411 0L411 0L411 805L0 805L0 0L411 0Z" id="Çerçeve-8" fill="none" stroke="none" />
    <path d="M239 139.5C239 62.4563 301.456 0 378.5 0C455.544 0 518 62.4563 518 139.5C518 216.544 455.544 279 378.5 279C301.456 279 239 216.544 239 139.5Z" id="Daire" fill="#FFE3D3" fill-rule="evenodd" stroke="none" clip-path="url(#clip_1)" />
    <path d="M24.5011 226.35C19.1764 226.35 14.85 230.674 14.85 235.999C14.85 241.324 19.1762 245.65 24.5011 245.65C29.826 245.65 34.15 241.324 34.15 235.999C34.15 230.674 29.8258 226.35 24.5011 226.35L24.5011 226.35ZM24.5011 227.514C29.1936 227.514 32.9864 231.306 32.9864 235.999C32.9864 240.691 29.1934 244.486 24.5011 244.486C19.8087 244.486 16.0136 240.691 16.0136 235.999C16.0136 231.307 19.8085 227.514 24.5011 227.514L24.5011 227.514Z" id="Şekil" fill="#ACB8C2" fill-rule="evenodd" stroke="#ACB8C2" stroke-width="0.3" clip-path="url(#clip_1)" />
    <path d="M19.2491 234.126C19.3566 234.015 19.5035 233.952 19.6577 233.949C19.7356 233.948 19.8129 233.963 19.885 233.992C19.9571 234.021 20.0227 234.064 20.0778 234.119C20.1328 234.174 20.1763 234.24 20.2056 234.312C20.2348 234.384 20.2493 234.461 20.2484 234.538M19.2491 234.126L20.0984 234.537M19.2491 234.126C19.142 234.236 19.0829 234.384 19.0847 234.538M19.2491 234.126L19.2347 234.537M20.2484 234.538C20.2484 234.538 20.2484 234.539 20.2483 234.539L20.0984 234.537M20.2484 234.538C20.2484 234.538 20.2484 234.537 20.2484 234.537L20.0984 234.537M20.2484 234.538C20.2488 234.951 20.5714 235.273 20.9843 235.273C21.3945 235.273 21.7196 234.95 21.7202 234.538M20.0984 234.537C20.0984 235.033 20.4882 235.423 20.9843 235.423C21.4775 235.423 21.8702 235.032 21.8702 234.537M21.7202 234.538C21.7202 234.539 21.7202 234.539 21.7202 234.539L21.8702 234.537M21.7202 234.538C21.7202 234.538 21.7202 234.537 21.7202 234.537L21.8702 234.537M21.7202 234.538C21.7192 234.461 21.7335 234.385 21.7621 234.314C21.7908 234.242 21.8335 234.177 21.8877 234.122C21.9418 234.068 22.0063 234.024 22.0774 233.994C22.1485 233.964 22.2249 233.949 22.302 233.949C22.3791 233.949 22.4554 233.964 22.5266 233.994C22.5977 234.024 22.6622 234.068 22.7163 234.122C22.7705 234.177 22.8131 234.242 22.8419 234.314C22.8705 234.385 22.8847 234.461 22.8838 234.538M21.8702 234.537L22.7338 234.537M22.8838 234.538C22.8838 234.538 22.8838 234.539 22.8838 234.539L22.7338 234.537M22.8838 234.538C22.8838 234.538 22.8838 234.537 22.8838 234.537L22.7338 234.537M22.8838 234.538C22.8833 235.583 22.0266 236.437 20.9843 236.437C19.9403 236.437 19.0853 235.582 19.0847 234.538M22.7338 234.537C22.7338 235.499 21.9442 236.287 20.9843 236.287C20.0229 236.287 19.2347 235.499 19.2347 234.537M19.0847 234.538C19.0847 234.538 19.0847 234.539 19.0847 234.539L19.2347 234.537M19.0847 234.538C19.0847 234.538 19.0847 234.537 19.0847 234.537L19.2347 234.537" id="Şekil" fill="#ACB8C2" fill-rule="evenodd" stroke="#ACB8C2" stroke-width="0.3" clip-path="url(#clip_1)" />
    <path d="M26.2806 234.126C26.3881 234.015 26.535 233.952 26.6892 233.949C26.7671 233.948 26.8443 233.963 26.9165 233.992C26.9886 234.021 27.0542 234.064 27.1093 234.119C27.1643 234.174 27.2078 234.24 27.2371 234.312C27.2663 234.384 27.2808 234.461 27.2799 234.538M26.2806 234.126L27.1299 234.537M26.2806 234.126C26.1735 234.236 26.1143 234.384 26.1162 234.538M26.2806 234.126L26.2662 234.537M27.2799 234.538C27.2798 234.538 27.2798 234.539 27.2798 234.539L27.1299 234.537M27.2799 234.538C27.2799 234.538 27.2799 234.537 27.2799 234.537L27.1299 234.537M27.2799 234.538C27.2803 234.95 27.6055 235.273 28.0158 235.273C28.4286 235.273 28.7511 234.951 28.7516 234.538M27.1299 234.537C27.1299 235.032 27.5225 235.423 28.0158 235.423C28.5118 235.423 28.9016 235.033 28.9016 234.537M28.7516 234.538C28.7517 234.539 28.7517 234.539 28.7517 234.539L28.9016 234.537M28.7516 234.538C28.7516 234.538 28.7516 234.537 28.7516 234.537L28.9016 234.537M28.7516 234.538C28.7507 234.461 28.7649 234.385 28.7936 234.314C28.8223 234.242 28.865 234.177 28.9191 234.122C28.9733 234.068 29.0378 234.024 29.1089 233.994C29.18 233.964 29.2563 233.949 29.3335 233.949C29.4106 233.949 29.4869 233.964 29.558 233.994C29.6291 234.024 29.6937 234.068 29.7478 234.122C29.8019 234.177 29.8446 234.242 29.8734 234.314C29.902 234.385 29.9162 234.461 29.9153 234.538M28.9016 234.537L29.7653 234.537M29.9153 234.538C29.9153 234.538 29.9153 234.539 29.9153 234.539L29.7653 234.537M29.9153 234.538C29.9153 234.538 29.9153 234.537 29.9153 234.537L29.7653 234.537M29.9153 234.538C29.9147 235.582 29.0597 236.437 28.0158 236.437C26.9734 236.437 26.1168 235.583 26.1162 234.538M29.7653 234.537C29.7653 235.499 28.9772 236.287 28.0158 236.287C27.0558 236.287 26.2662 235.499 26.2662 234.537M26.1162 234.538C26.1162 234.538 26.1162 234.539 26.1162 234.539L26.2662 234.537M26.1162 234.538C26.1162 234.538 26.1162 234.537 26.1162 234.537L26.2662 234.537" id="Şekil" fill="#ACB8C2" fill-rule="evenodd" stroke="#ACB8C2" stroke-width="0.3" clip-path="url(#clip_1)" />
    <path d="M29.3563 238.312L29.3563 238.312C29.4586 238.315 29.5585 238.344 29.6457 238.398C29.7329 238.452 29.8044 238.527 29.853 238.618C29.9016 238.708 29.9255 238.809 29.9224 238.912C29.9192 239.014 29.8893 239.113 29.8356 239.2C29.8355 239.2 29.8353 239.2 29.8351 239.201L29.7077 239.121C28.6455 240.887 26.7079 242.069 24.501 242.069C22.2921 242.069 20.3542 240.887 19.2941 239.121L29.3563 238.312L29.3563 238.312ZM29.3563 238.312C29.2519 238.309 29.1487 238.335 29.0576 238.385C28.9667 238.436 28.8911 238.51 28.8386 238.6C27.9532 240.071 26.3446 241.056 24.501 241.056C22.6551 241.056 21.047 240.071 20.1638 238.6C20.1253 238.534 20.074 238.476 20.0129 238.429C19.9514 238.383 19.8812 238.348 19.8064 238.329C19.7316 238.31 19.6537 238.305 19.5772 238.316C19.5008 238.327 19.4272 238.354 19.361 238.393C19.2947 238.433 19.237 238.486 19.1913 238.548C19.1456 238.61 19.1128 238.681 19.0947 238.756C19.0766 238.831 19.0737 238.909 19.0861 238.986C19.0984 239.061 19.1257 239.134 19.1662 239.199L29.3563 238.312L29.3563 238.312Z" id="Şekil" fill="#ACB8C2" fill-rule="evenodd" stroke="#ACB8C2" stroke-width="0.3" clip-path="url(#clip_1)" />
    <path d="M46.2 246.6L46.2 241.52C45.92 242.027 45.5 242.433 44.94 242.74C44.38 243.047 43.7533 243.2 43.06 243.2C42.2067 243.2 41.4533 242.993 40.8 242.58C40.16 242.167 39.66 241.58 39.3 240.82C38.94 240.047 38.76 239.14 38.76 238.1C38.76 237.047 38.94 236.147 39.3 235.4C39.66 234.64 40.16 234.053 40.8 233.64C41.4533 233.227 42.2067 233.02 43.06 233.02C43.78 233.02 44.4267 233.187 45 233.52C45.5733 233.84 45.9933 234.273 46.26 234.82L46.26 233.22L48.7 233.22L48.7 246.6L46.2 246.6L46.2 246.6ZM43.76 241.3C44.5067 241.3 45.1067 241.033 45.56 240.5C46.0133 239.953 46.24 239.153 46.24 238.1C46.24 237.033 46.0133 236.24 45.56 235.72C45.1067 235.187 44.5067 234.92 43.76 234.92C43.0133 234.92 42.4133 235.187 41.96 235.72C41.5067 236.24 41.28 237.033 41.28 238.1C41.28 239.153 41.5067 239.953 41.96 240.5C42.4133 241.033 43.0133 241.3 43.76 241.3L43.76 241.3ZM50.7922 243L50.7922 233.22L53.2322 233.22L53.2322 234.94C53.7122 233.78 54.7389 233.14 56.3122 233.02L57.0722 232.96L57.2322 235.08L55.7922 235.22C54.1522 235.38 53.3322 236.22 53.3322 237.74L53.3322 243L50.7922 243L50.7922 243ZM58.1242 246.6L58.1242 233.22L60.5642 233.22L60.5642 234.78C60.8442 234.247 61.2642 233.82 61.8242 233.5C62.3976 233.18 63.0442 233.02 63.7642 233.02C64.6176 233.02 65.3642 233.227 66.0042 233.64C66.6576 234.053 67.1642 234.64 67.5242 235.4C67.8842 236.147 68.0642 237.047 68.0642 238.1C68.0642 239.14 67.8842 240.047 67.5242 240.82C67.1642 241.58 66.6642 242.167 66.0242 242.58C65.3842 242.993 64.6309 243.2 63.7642 243.2C63.0709 243.2 62.4442 243.053 61.8842 242.76C61.3376 242.453 60.9176 242.047 60.6242 241.54L60.6242 246.6L58.1242 246.6L58.1242 246.6ZM63.0642 241.3C63.8109 241.3 64.4109 241.033 64.8642 240.5C65.3176 239.953 65.5442 239.153 65.5442 238.1C65.5442 237.033 65.3176 236.24 64.8642 235.72C64.4109 235.187 63.8109 234.92 63.0642 234.92C62.3176 234.92 61.7176 235.187 61.2642 235.72C60.8109 236.24 60.5842 237.033 60.5842 238.1C60.5842 239.153 60.8109 239.953 61.2642 240.5C61.7176 241.033 62.3176 241.3 63.0642 241.3L63.0642 241.3ZM73.3764 243.2C72.5231 243.2 71.7697 242.993 71.1164 242.58C70.4764 242.167 69.9764 241.58 69.6164 240.82C69.2564 240.047 69.0764 239.14 69.0764 238.1C69.0764 237.047 69.2564 236.147 69.6164 235.4C69.9764 234.64 70.4764 234.053 71.1164 233.64C71.7697 233.227 72.5231 233.02 73.3764 233.02C74.0697 233.02 74.6964 233.173 75.2564 233.48C75.8164 233.787 76.2364 234.193 76.5164 234.7L76.5164 228.9L79.0164 228.9L79.0164 243L76.5764 243L76.5764 241.38C76.3097 241.94 75.8897 242.387 75.3164 242.72C74.7431 243.04 74.0964 243.2 73.3764 243.2L73.3764 243.2ZM74.0764 241.3C74.8231 241.3 75.4231 241.033 75.8764 240.5C76.3297 239.953 76.5564 239.153 76.5564 238.1C76.5564 237.033 76.3297 236.24 75.8764 235.72C75.4231 235.187 74.8231 234.92 74.0764 234.92C73.3297 234.92 72.7297 235.187 72.2764 235.72C71.8231 236.24 71.5964 237.033 71.5964 238.1C71.5964 239.153 71.8231 239.953 72.2764 240.5C72.7297 241.033 73.3297 241.3 74.0764 241.3L74.0764 241.3ZM81.1086 243L81.1086 228.9L83.6086 228.9L83.6086 237.38L83.6486 237.38L87.5886 233.22L90.6086 233.22L86.1686 237.9L90.8886 243L87.8286 243L83.6486 238.64L83.6086 238.64L83.6086 243L81.1086 243L81.1086 243ZM94.755 243.2C93.9283 243.2 93.155 243.1 92.435 242.9C91.715 242.7 91.115 242.413 90.635 242.04L91.275 240.4C91.7683 240.733 92.3217 240.993 92.935 241.18C93.5483 241.353 94.1617 241.44 94.775 241.44C95.415 241.44 95.8883 241.333 96.195 241.12C96.515 240.893 96.675 240.6 96.675 240.24C96.675 239.68 96.2617 239.32 95.435 239.16L93.435 238.78C91.7417 238.46 90.895 237.58 90.895 236.14C90.895 235.5 91.0683 234.947 91.415 234.48C91.775 234.013 92.2683 233.653 92.895 233.4C93.5217 233.147 94.2417 233.02 95.055 233.02C95.7483 233.02 96.415 233.12 97.055 233.32C97.695 233.507 98.2417 233.793 98.695 234.18L98.015 235.82C97.6283 235.5 97.1617 235.247 96.615 235.06C96.0817 234.873 95.5683 234.78 95.075 234.78C94.4217 234.78 93.935 234.893 93.615 235.12C93.3083 235.347 93.155 235.647 93.155 236.02C93.155 236.607 93.535 236.967 94.295 237.1L96.295 237.48C97.1617 237.64 97.815 237.933 98.255 238.36C98.7083 238.787 98.935 239.36 98.935 240.08C98.935 241.053 98.555 241.82 97.795 242.38C97.035 242.927 96.0217 243.2 94.755 243.2L94.755 243.2Z" id="Şekil" fill="#ACB8C2" fill-rule="evenodd" stroke="none" clip-path="url(#clip_1)" />
    <path d="M15.035 287L26.2 262.325L29.875 262.325L41.04 287L36.49 287L34.04 281.295L22 281.295L19.585 287L15.035 287L15.035 287ZM27.985 267.19L23.54 277.725L32.5 277.725L28.055 267.19L27.985 267.19L27.985 267.19ZM42.3199 287L42.3199 269.885L46.5899 269.885L46.5899 272.545C47.1733 271.565 47.9549 270.818 48.9349 270.305C49.9383 269.792 51.0583 269.535 52.2949 269.535C56.3316 269.535 58.3499 271.88 58.3499 276.57L58.3499 287L53.9749 287L53.9749 276.78C53.9749 275.45 53.7183 274.482 53.2049 273.875C52.7149 273.268 51.9449 272.965 50.8949 272.965C49.6116 272.965 48.5849 273.373 47.8149 274.19C47.0683 274.983 46.6949 276.045 46.6949 277.375L46.6949 287L42.3199 287L42.3199 287ZM61.7936 287L61.7936 269.885L66.1686 269.885L66.1686 287L61.7936 287L61.7936 287ZM69.7145 287L69.7145 269.885L73.9845 269.885L73.9845 272.545C74.5678 271.565 75.3495 270.818 76.3295 270.305C77.3328 269.792 78.4528 269.535 79.6895 269.535C83.7261 269.535 85.7445 271.88 85.7445 276.57L85.7445 287L81.3695 287L81.3695 276.78C81.3695 275.45 81.1128 274.482 80.5995 273.875C80.1095 273.268 79.3395 272.965 78.2895 272.965C77.0061 272.965 75.9795 273.373 75.2095 274.19C74.4628 274.983 74.0895 276.045 74.0895 277.375L74.0895 287L69.7145 287L69.7145 287ZM95.7681 287.35C94.2748 287.35 92.9564 286.988 91.8131 286.265C90.6931 285.542 89.8181 284.515 89.1881 283.185C88.5581 281.832 88.2431 280.245 88.2431 278.425C88.2431 276.582 88.5581 275.007 89.1881 273.7C89.8181 272.37 90.6931 271.343 91.8131 270.62C92.9564 269.897 94.2748 269.535 95.7681 269.535C96.9814 269.535 98.0781 269.803 99.0581 270.34C100.038 270.877 100.773 271.588 101.263 272.475L101.263 262.325L105.638 262.325L105.638 287L101.368 287L101.368 284.165C100.901 285.145 100.166 285.927 99.1631 286.51C98.1598 287.07 97.0281 287.35 95.7681 287.35L95.7681 287.35ZM96.9931 284.025C98.2998 284.025 99.3498 283.558 100.143 282.625C100.936 281.668 101.333 280.268 101.333 278.425C101.333 276.558 100.936 275.17 100.143 274.26C99.3498 273.327 98.2998 272.86 96.9931 272.86C95.6864 272.86 94.6364 273.327 93.8431 274.26C93.0498 275.17 92.6531 276.558 92.6531 278.425C92.6531 280.268 93.0498 281.668 93.8431 282.625C94.6364 283.558 95.6864 284.025 96.9931 284.025L96.9931 284.025ZM114.809 287.35C113.573 287.35 112.464 287.117 111.484 286.65C110.528 286.16 109.769 285.507 109.209 284.69C108.673 283.873 108.404 282.952 108.404 281.925C108.404 280.665 108.731 279.673 109.384 278.95C110.038 278.203 111.099 277.667 112.569 277.34C114.039 277.013 116.011 276.85 118.484 276.85L119.709 276.85L119.709 276.115C119.709 274.948 119.453 274.108 118.939 273.595C118.426 273.082 117.563 272.825 116.349 272.825C115.393 272.825 114.413 272.977 113.409 273.28C112.406 273.56 111.391 274.003 110.364 274.61L109.104 271.635C109.711 271.215 110.423 270.853 111.239 270.55C112.079 270.223 112.954 269.978 113.864 269.815C114.798 269.628 115.673 269.535 116.489 269.535C118.986 269.535 120.841 270.118 122.054 271.285C123.268 272.428 123.874 274.213 123.874 276.64L123.874 287L119.779 287L119.779 284.27C119.383 285.227 118.753 285.985 117.889 286.545C117.026 287.082 115.999 287.35 114.809 287.35L114.809 287.35ZM115.719 284.34C116.863 284.34 117.808 283.943 118.554 283.15C119.324 282.357 119.709 281.353 119.709 280.14L119.709 279.37L118.519 279.37C116.326 279.37 114.798 279.545 113.934 279.895C113.094 280.222 112.674 280.828 112.674 281.715C112.674 282.485 112.943 283.115 113.479 283.605C114.016 284.095 114.763 284.34 115.719 284.34L115.719 284.34ZM136.169 287L136.169 262.325L146.949 262.325C149.539 262.325 151.545 262.897 152.969 264.04C154.392 265.16 155.104 266.723 155.104 268.73C155.104 270.06 154.765 271.203 154.089 272.16C153.412 273.117 152.479 273.817 151.289 274.26C152.689 274.657 153.774 275.357 154.544 276.36C155.337 277.34 155.734 278.588 155.734 280.105C155.734 282.298 154.987 284.002 153.494 285.215C152.024 286.405 149.97 287 147.334 287L136.169 287L136.169 287ZM140.474 272.79L146.179 272.79C149.235 272.79 150.764 271.612 150.764 269.255C150.764 266.898 149.235 265.72 146.179 265.72L140.474 265.72L140.474 272.79L140.474 272.79ZM140.474 283.605L146.774 283.605C149.854 283.605 151.394 282.368 151.394 279.895C151.394 277.422 149.854 276.185 146.774 276.185L140.474 276.185L140.474 283.605L140.474 283.605ZM158.565 266.21L158.565 261.94L163.465 261.94L163.465 266.21L158.565 266.21L158.565 266.21ZM158.845 287L158.845 269.885L163.22 269.885L163.22 287L158.845 287L158.845 287ZM172.716 287.35C170.686 287.35 169.181 286.802 168.201 285.705C167.245 284.585 166.766 282.952 166.766 280.805L166.766 262.325L171.141 262.325L171.141 280.595C171.141 282.695 172.028 283.745 173.801 283.745C174.058 283.745 174.315 283.733 174.571 283.71C174.828 283.687 175.073 283.64 175.306 283.57L175.236 287.035C174.396 287.245 173.556 287.35 172.716 287.35L172.716 287.35ZM183.352 287.35C181.859 287.35 180.54 286.988 179.397 286.265C178.277 285.542 177.402 284.515 176.772 283.185C176.142 281.832 175.827 280.245 175.827 278.425C175.827 276.582 176.142 275.007 176.772 273.7C177.402 272.37 178.277 271.343 179.397 270.62C180.54 269.897 181.859 269.535 183.352 269.535C184.565 269.535 185.662 269.803 186.642 270.34C187.622 270.877 188.357 271.588 188.847 272.475L188.847 262.325L193.222 262.325L193.222 287L188.952 287L188.952 284.165C188.485 285.145 187.75 285.927 186.747 286.51C185.744 287.07 184.612 287.35 183.352 287.35L183.352 287.35ZM184.577 284.025C185.884 284.025 186.934 283.558 187.727 282.625C188.52 281.668 188.917 280.268 188.917 278.425C188.917 276.558 188.52 275.17 187.727 274.26C186.934 273.327 185.884 272.86 184.577 272.86C183.27 272.86 182.22 273.327 181.427 274.26C180.634 275.17 180.237 276.558 180.237 278.425C180.237 280.268 180.634 281.668 181.427 282.625C182.22 283.558 183.27 284.025 184.577 284.025L184.577 284.025ZM196.478 266.21L196.478 261.94L201.378 261.94L201.378 266.21L196.478 266.21L196.478 266.21ZM196.758 287L196.758 269.885L201.133 269.885L201.133 287L196.758 287L196.758 287ZM204.679 287L204.679 269.885L208.949 269.885L208.949 272.895C209.789 270.865 211.586 269.745 214.339 269.535L215.669 269.43L215.949 273.14L213.429 273.385C210.559 273.665 209.124 275.135 209.124 277.795L209.124 287L204.679 287L204.679 287ZM217.105 266.21L217.105 261.94L222.005 261.94L222.005 266.21L217.105 266.21L217.105 266.21ZM217.385 287L217.385 269.885L221.76 269.885L221.76 287L217.385 287L217.385 287ZM225.376 287L225.376 269.885L229.646 269.885L229.646 272.51C230.16 271.577 230.871 270.853 231.781 270.34C232.691 269.803 233.741 269.535 234.931 269.535C237.498 269.535 239.178 270.655 239.971 272.895C240.508 271.845 241.278 271.028 242.281 270.445C243.285 269.838 244.428 269.535 245.711 269.535C249.561 269.535 251.486 271.88 251.486 276.57L251.486 287L247.111 287L247.111 276.745C247.111 275.438 246.89 274.482 246.446 273.875C246.026 273.268 245.303 272.965 244.276 272.965C243.133 272.965 242.235 273.373 241.581 274.19C240.928 274.983 240.601 276.092 240.601 277.515L240.601 287L236.226 287L236.226 276.745C236.226 275.438 236.005 274.482 235.561 273.875C235.141 273.268 234.43 272.965 233.426 272.965C232.283 272.965 231.385 273.373 230.731 274.19C230.078 274.983 229.751 276.092 229.751 277.515L229.751 287L225.376 287L225.376 287ZM260.95 287.35C258.92 287.35 257.415 286.802 256.435 285.705C255.478 284.585 255 282.952 255 280.805L255 262.325L259.375 262.325L259.375 280.595C259.375 282.695 260.261 283.745 262.035 283.745C262.291 283.745 262.548 283.733 262.805 283.71C263.061 283.687 263.306 283.64 263.54 283.57L263.47 287.035C262.63 287.245 261.79 287.35 260.95 287.35L260.95 287.35ZM273.44 287.35C271.504 287.35 269.835 286.988 268.435 286.265C267.035 285.542 265.95 284.515 265.18 283.185C264.434 281.855 264.06 280.28 264.06 278.46C264.06 276.687 264.422 275.135 265.145 273.805C265.892 272.475 266.907 271.437 268.19 270.69C269.497 269.92 270.979 269.535 272.635 269.535C275.062 269.535 276.975 270.305 278.375 271.845C279.799 273.385 280.51 275.485 280.51 278.145L280.51 279.44L268.26 279.44C268.587 282.497 270.337 284.025 273.51 284.025C274.467 284.025 275.424 283.885 276.38 283.605C277.337 283.302 278.212 282.835 279.005 282.205L280.23 285.145C279.414 285.822 278.387 286.358 277.15 286.755C275.914 287.152 274.677 287.35 273.44 287.35L273.44 287.35ZM272.81 272.51C271.527 272.51 270.489 272.907 269.695 273.7C268.902 274.493 268.424 275.567 268.26 276.92L276.87 276.92C276.777 275.497 276.38 274.412 275.68 273.665C275.004 272.895 274.047 272.51 272.81 272.51L272.81 272.51ZM282.975 287L282.975 269.885L287.245 269.885L287.245 272.895C288.085 270.865 289.882 269.745 292.635 269.535L293.965 269.43L294.245 273.14L291.725 273.385C288.855 273.665 287.42 275.135 287.42 277.795L287.42 287L282.975 287L282.975 287ZM296.611 291.655L294.826 290.255C295.409 289.672 295.841 289.112 296.121 288.575C296.424 288.062 296.634 287.537 296.751 287L294.476 287L294.476 282.135L299.376 282.135L299.376 285.355C299.376 286.545 299.166 287.63 298.746 288.61C298.349 289.613 297.638 290.628 296.611 291.655L296.611 291.655ZM17.695 326L17.695 301.325L22.175 301.325L22.175 312.245L22.245 312.245L33.13 301.325L38.59 301.325L26.585 313.19L39.185 326L33.655 326L22.245 314.59L22.175 314.59L22.175 326L17.695 326L17.695 326ZM47.5079 326.35C45.5712 326.35 43.9029 325.988 42.5029 325.265C41.1029 324.542 40.0179 323.515 39.2479 322.185C38.5012 320.855 38.1279 319.28 38.1279 317.46C38.1279 315.687 38.4895 314.135 39.2129 312.805C39.9595 311.475 40.9745 310.437 42.2579 309.69C43.5645 308.92 45.0462 308.535 46.7029 308.535C49.1295 308.535 51.0429 309.305 52.4429 310.845C53.8662 312.385 54.5779 314.485 54.5779 317.145L54.5779 318.44L42.3279 318.44C42.6545 321.497 44.4045 323.025 47.5779 323.025C48.5345 323.025 49.4912 322.885 50.4479 322.605C51.4045 322.302 52.2795 321.835 53.0729 321.205L54.2979 324.145C53.4812 324.822 52.4545 325.358 51.2179 325.755C49.9812 326.152 48.7445 326.35 47.5079 326.35L47.5079 326.35ZM46.8779 311.51C45.5945 311.51 44.5562 311.907 43.7629 312.7C42.9695 313.493 42.4912 314.567 42.3279 315.92L50.9379 315.92C50.8445 314.497 50.4479 313.412 49.7479 312.665C49.0712 311.895 48.1145 311.51 46.8779 311.51L46.8779 311.51ZM63.3076 326.35C61.8609 326.35 60.5076 326.175 59.2476 325.825C57.9876 325.475 56.9376 324.973 56.0976 324.32L57.2176 321.45C58.0809 322.033 59.0492 322.488 60.1226 322.815C61.1959 323.118 62.2692 323.27 63.3426 323.27C64.4626 323.27 65.2909 323.083 65.8276 322.71C66.3876 322.313 66.6676 321.8 66.6676 321.17C66.6676 320.19 65.9442 319.56 64.4976 319.28L60.9976 318.615C58.0342 318.055 56.5526 316.515 56.5526 313.995C56.5526 312.875 56.8559 311.907 57.4626 311.09C58.0926 310.273 58.9559 309.643 60.0526 309.2C61.1492 308.757 62.4092 308.535 63.8326 308.535C65.0459 308.535 66.2126 308.71 67.3326 309.06C68.4526 309.387 69.4092 309.888 70.2026 310.565L69.0126 313.435C68.3359 312.875 67.5192 312.432 66.5626 312.105C65.6292 311.778 64.7309 311.615 63.8676 311.615C62.7242 311.615 61.8726 311.813 61.3126 312.21C60.7759 312.607 60.5076 313.132 60.5076 313.785C60.5076 314.812 61.1726 315.442 62.5026 315.675L66.0026 316.34C67.5192 316.62 68.6626 317.133 69.4326 317.88C70.2259 318.627 70.6226 319.63 70.6226 320.89C70.6226 322.593 69.9576 323.935 68.6276 324.915C67.2976 325.872 65.5242 326.35 63.3076 326.35L63.3076 326.35ZM72.8524 305.21L72.8524 300.94L77.7524 300.94L77.7524 305.21L72.8524 305.21L72.8524 305.21ZM73.1324 326L73.1324 308.885L77.5074 308.885L77.5074 326L73.1324 326L73.1324 326ZM81.0533 326L81.0533 308.885L85.3233 308.885L85.3233 311.545C85.9067 310.565 86.6883 309.818 87.6683 309.305C88.6717 308.792 89.7917 308.535 91.0283 308.535C95.065 308.535 97.0833 310.88 97.0833 315.57L97.0833 326L92.7083 326L92.7083 315.78C92.7083 314.45 92.4517 313.482 91.9383 312.875C91.4483 312.268 90.6783 311.965 89.6283 311.965C88.345 311.965 87.3183 312.373 86.5483 313.19C85.8017 313.983 85.4283 315.045 85.4283 316.375L85.4283 326L81.0533 326L81.0533 326ZM108.367 326.35C103.84 326.35 101.577 324.11 101.577 319.63L101.577 312.175L98.287 312.175L98.287 308.885L101.577 308.885L101.577 303.775L105.952 303.775L105.952 308.885L111.132 308.885L111.132 312.175L105.952 312.175L105.952 319.385C105.952 320.505 106.197 321.345 106.687 321.905C107.177 322.465 107.97 322.745 109.067 322.745C109.394 322.745 109.732 322.71 110.082 322.64C110.432 322.547 110.794 322.453 111.167 322.36L111.832 325.58C111.412 325.813 110.875 326 110.222 326.14C109.592 326.28 108.974 326.35 108.367 326.35L108.367 326.35ZM112.68 305.21L112.68 300.94L117.58 300.94L117.58 305.21L112.68 305.21L112.68 305.21ZM112.96 326L112.96 308.885L117.335 308.885L117.335 326L112.96 326L112.96 326ZM127.145 326.35C125.699 326.35 124.345 326.175 123.085 325.825C121.825 325.475 120.775 324.973 119.935 324.32L121.055 321.45C121.919 322.033 122.887 322.488 123.96 322.815C125.034 323.118 126.107 323.27 127.18 323.27C128.3 323.27 129.129 323.083 129.665 322.71C130.225 322.313 130.505 321.8 130.505 321.17C130.505 320.19 129.782 319.56 128.335 319.28L124.835 318.615C121.872 318.055 120.39 316.515 120.39 313.995C120.39 312.875 120.694 311.907 121.3 311.09C121.93 310.273 122.794 309.643 123.89 309.2C124.987 308.757 126.247 308.535 127.67 308.535C128.884 308.535 130.05 308.71 131.17 309.06C132.29 309.387 133.247 309.888 134.04 310.565L132.85 313.435C132.174 312.875 131.357 312.432 130.4 312.105C129.467 311.778 128.569 311.615 127.705 311.615C126.562 311.615 125.71 311.813 125.15 312.21C124.614 312.607 124.345 313.132 124.345 313.785C124.345 314.812 125.01 315.442 126.34 315.675L129.84 316.34C131.357 316.62 132.5 317.133 133.27 317.88C134.064 318.627 134.46 319.63 134.46 320.89C134.46 322.593 133.795 323.935 132.465 324.915C131.135 325.872 129.362 326.35 127.145 326.35L127.145 326.35ZM136.69 305.21L136.69 300.94L141.59 300.94L141.59 305.21L136.69 305.21L136.69 305.21ZM136.97 326L136.97 308.885L141.345 308.885L141.345 326L136.97 326L136.97 326ZM144.331 326L144.331 323.165L153.151 312.175L144.331 312.175L144.331 308.885L157.911 308.885L157.911 311.72L149.091 322.71L158.296 322.71L158.296 326L144.331 326L144.331 326ZM175.272 326L175.272 305.07L166.802 305.07L166.802 301.325L188.222 301.325L188.222 305.07L179.752 305.07L179.752 326L175.272 326L175.272 326ZM192.541 326.35C191.304 326.35 190.196 326.117 189.216 325.65C188.259 325.16 187.501 324.507 186.941 323.69C186.404 322.873 186.136 321.952 186.136 320.925C186.136 319.665 186.463 318.673 187.116 317.95C187.769 317.203 188.831 316.667 190.301 316.34C191.771 316.013 193.743 315.85 196.216 315.85L197.441 315.85L197.441 315.115C197.441 313.948 197.184 313.108 196.671 312.595C196.158 312.082 195.294 311.825 194.081 311.825C193.124 311.825 192.144 311.977 191.141 312.28C190.138 312.56 189.123 313.003 188.096 313.61L186.836 310.635C187.443 310.215 188.154 309.853 188.971 309.55C189.811 309.223 190.686 308.978 191.596 308.815C192.529 308.628 193.404 308.535 194.221 308.535C196.718 308.535 198.573 309.118 199.786 310.285C200.999 311.428 201.606 313.213 201.606 315.64L201.606 326L197.511 326L197.511 323.27C197.114 324.227 196.484 324.985 195.621 325.545C194.758 326.082 193.731 326.35 192.541 326.35L192.541 326.35ZM193.451 323.34C194.594 323.34 195.539 322.943 196.286 322.15C197.056 321.357 197.441 320.353 197.441 319.14L197.441 318.37L196.251 318.37C194.058 318.37 192.529 318.545 191.666 318.895C190.826 319.222 190.406 319.828 190.406 320.715C190.406 321.485 190.674 322.115 191.211 322.605C191.748 323.095 192.494 323.34 193.451 323.34L193.451 323.34ZM205.046 326L205.046 301.325L209.421 301.325L209.421 316.165L209.491 316.165L216.386 308.885L221.671 308.885L213.901 317.075L222.161 326L216.806 326L209.491 318.37L209.421 318.37L209.421 326L205.046 326L205.046 326ZM222.531 305.21L222.531 300.94L227.431 300.94L227.431 305.21L222.531 305.21L222.531 305.21ZM222.811 326L222.811 308.885L227.186 308.885L227.186 326L222.811 326L222.811 326ZM230.732 332.3L230.732 308.885L235.002 308.885L235.002 311.615C235.492 310.682 236.227 309.935 237.207 309.375C238.21 308.815 239.342 308.535 240.602 308.535C242.095 308.535 243.402 308.897 244.522 309.62C245.665 310.343 246.552 311.37 247.182 312.7C247.812 314.007 248.127 315.582 248.127 317.425C248.127 319.245 247.812 320.832 247.182 322.185C246.552 323.515 245.677 324.542 244.557 325.265C243.437 325.988 242.119 326.35 240.602 326.35C239.389 326.35 238.292 326.093 237.312 325.58C236.355 325.043 235.62 324.332 235.107 323.445L235.107 332.3L230.732 332.3L230.732 332.3ZM239.377 323.025C240.684 323.025 241.734 322.558 242.527 321.625C243.32 320.668 243.717 319.268 243.717 317.425C243.717 315.558 243.32 314.17 242.527 313.26C241.734 312.327 240.684 311.86 239.377 311.86C238.07 311.86 237.02 312.327 236.227 313.26C235.434 314.17 235.037 315.558 235.037 317.425C235.037 319.268 235.434 320.668 236.227 321.625C237.02 322.558 238.07 323.025 239.377 323.025L239.377 323.025Z" id="Şekil" fill="#191D21" fill-rule="evenodd" stroke="none" clip-path="url(#clip_1)" />
    <path d="M364.839 757.718L91.7094 757.718L91.7094 756.392L364.839 756.392L364.839 757.718L364.839 757.718Z" id="Şekil" fill="#000000" fill-rule="evenodd" stroke="none" clip-path="url(#clip_1)" />
    <path d="M48.482 689.797C45.7302 675.703 47.6842 661.476 54.1322 648.658L54.3006 648.324L53.9585 648.171C40.5278 642.119 30.8294 629.901 28.0159 615.488C25.8404 604.346 27.9025 592.884 33.8219 583.217C39.7024 573.61 48.8758 566.585 59.6492 563.431L59.9438 563.345L59.9041 563.041C55.5966 530.056 63.9404 496.979 83.3942 469.899C102.934 442.704 131.825 424.218 164.745 417.846L164.607 417.141C131.507 423.548 102.457 442.135 82.8105 469.48C63.3059 496.621 54.9122 529.764 59.1526 562.829C48.3352 566.074 39.1306 573.166 33.209 582.842C27.1955 592.663 25.1009 604.305 27.3108 615.624C30.1452 630.143 39.8576 642.47 53.3238 648.672C46.9361 661.543 45.0182 675.802 47.777 689.936L48.482 689.797L48.482 689.797Z" id="Şekil" fill="#000000" fill-rule="evenodd" stroke="none" clip-path="url(#clip_1)" />
    <path d="M304.876 485.137C286.331 457.041 258.073 437.352 225.311 429.696C192.689 422.073 158.754 427.076 129.756 443.782L130.112 444.404C158.952 427.79 192.702 422.814 225.145 430.396C257.732 438.009 285.834 457.591 304.277 485.534L304.876 485.137L304.876 485.137Z" id="Şekil" fill="#000000" fill-rule="evenodd" stroke="none" clip-path="url(#clip_1)" />
    <path d="M120.666 721.077L120.416 720.404C109.898 724.293 98.3437 724.127 87.8819 719.934C77.3529 715.714 68.8404 707.759 63.9125 697.54C57.539 684.317 57.9945 668.755 65.131 655.907L64.5035 655.559C57.2543 668.609 56.7916 684.417 63.2661 697.848C68.2723 708.233 76.9196 716.314 87.6158 720.6C98.243 724.859 109.981 725.028 120.666 721.077L120.666 721.077Z" id="Şekil" fill="#000000" fill-rule="evenodd" stroke="none" clip-path="url(#clip_1)" />
    <path d="M264.799 770.148L129.336 726.278C112.485 720.822 103.336 703.215 108.901 686.949L195.405 434.137C200.97 417.873 219.142 409.112 235.994 414.569L371.455 458.437C388.307 463.894 397.455 481.502 391.89 497.766L305.387 750.578C299.822 766.843 281.647 775.604 264.799 770.148L264.799 770.148Z" id="Şekil" fill="#FFFFFF" fill-rule="evenodd" stroke="none" clip-path="url(#clip_1)" />
    <path d="M236.405 415.907C219.88 410.556 202.09 419.155 196.648 435.059L110.144 687.871C104.705 703.768 113.639 721.008 130.156 726.354L265.617 770.224C282.141 775.574 299.931 766.976 305.374 751.072L391.877 498.259C397.316 482.363 388.383 465.124 371.866 459.775L236.405 415.907L236.405 415.907ZM236.813 414.646L372.274 458.514C389.46 464.079 398.824 482.056 393.133 498.688L306.627 751.5C300.939 768.126 282.386 777.049 265.21 771.484L129.747 727.617C112.562 722.052 103.198 704.073 108.889 687.443L195.394 434.629C201.082 418.006 219.636 409.083 236.813 414.646L236.813 414.646Z" id="Şekil" fill="#000000" fill-rule="evenodd" stroke="none" clip-path="url(#clip_1)" />
    <path d="M219.141 437.521L137.629 675.872C137.273 676.913 137.853 678.066 138.967 678.428L287.173 726.447C288.29 726.809 289.476 726.222 289.838 725.171L371.349 486.821C371.704 485.779 371.124 484.628 370.01 484.267L221.806 436.247C220.686 435.884 219.5 436.472 219.141 437.521L219.141 437.521ZM222.113 435.301L370.318 483.321C371.932 483.845 372.834 485.548 372.29 487.143L290.776 725.493C290.236 727.08 288.475 727.912 286.865 727.392L138.66 679.372C137.045 678.849 136.143 677.145 136.688 675.55L218.2 437.199C218.744 435.612 220.502 434.779 222.113 435.301L222.113 435.301Z" id="Şekil" fill="#000000" fill-rule="evenodd" stroke="none" clip-path="url(#clip_1)" />
    <path d="M214.362 713.981C218.575 719.271 217.597 726.868 212.179 730.952C206.759 735.032 198.951 734.055 194.738 728.761C190.525 723.471 191.503 715.874 196.921 711.79C202.341 707.71 210.149 708.691 214.362 713.981L214.362 713.981Z" id="Şekil" fill="#000000" fill-rule="evenodd" stroke="none" clip-path="url(#clip_1)" />
    <path d="M122.427 608.332C112.686 616.798 97.9264 615.767 89.4591 606.026C80.9921 596.286 82.0243 581.526 91.7644 573.058C101.505 564.591 116.265 565.624 124.732 575.364C133.199 585.104 132.167 599.864 122.427 608.332L122.427 608.332Z" id="Şekil" fill="#FFFFFF" fill-rule="evenodd" stroke="none" clip-path="url(#clip_1)" />
    <path d="M89.0835 606.352C97.7312 616.301 112.805 617.355 122.753 608.707L123.048 608.445C132.72 599.759 133.668 584.886 125.107 575.038C116.46 565.09 101.386 564.036 91.4379 572.683C81.4903 581.331 80.4362 596.405 89.0835 606.352L89.0835 606.352ZM124.357 575.69C132.56 585.128 131.653 599.381 122.384 607.706L122.1 607.956L121.813 608.202C112.279 616.221 98.0385 615.137 89.8343 605.7C81.5469 596.167 82.5572 581.721 92.0903 573.434C101.624 565.147 116.07 566.157 124.357 575.69L124.357 575.69Z" id="Şekil" fill="#000000" fill-rule="evenodd" stroke="none" clip-path="url(#clip_1)" />
    <path d="M115.655 597.471C116.033 597.073 116.662 597.056 117.06 597.434C117.459 597.812 117.475 598.442 117.098 598.84C116.72 599.238 116.09 599.255 115.692 598.877C115.293 598.499 115.277 597.869 115.655 597.471L115.655 597.471Z" id="Şekil" fill="#000000" fill-rule="evenodd" stroke="none" clip-path="url(#clip_1)" />
    <path d="M103.979 607.62C104.358 607.222 104.987 607.205 105.385 607.583C105.784 607.961 105.8 608.591 105.422 608.989C105.044 609.386 104.415 609.403 104.017 609.025C103.618 608.647 103.602 608.019 103.979 607.62L103.979 607.62Z" id="Şekil" fill="#000000" fill-rule="evenodd" stroke="none" clip-path="url(#clip_1)" />
    <path d="M103.582 594.301C103.96 593.903 104.589 593.886 104.988 594.264C105.386 594.642 105.403 595.272 105.025 595.67C104.647 596.068 104.017 596.085 103.619 595.707C103.221 595.329 103.204 594.7 103.582 594.301L103.582 594.301Z" id="Şekil" fill="#000000" fill-rule="evenodd" stroke="none" clip-path="url(#clip_1)" />
    <path d="M91.9066 604.45C92.2848 604.051 92.914 604.035 93.3127 604.413C93.7111 604.791 93.7274 605.42 93.3495 605.819C92.9716 606.217 92.3425 606.234 91.9438 605.856C91.5453 605.478 91.5288 604.848 91.9066 604.45L91.9066 604.45Z" id="Şekil" fill="#000000" fill-rule="evenodd" stroke="none" clip-path="url(#clip_1)" />
    <path d="M90.7783 592.077C91.1562 591.678 91.786 591.662 92.1841 592.039C92.5825 592.418 92.5991 593.047 92.2212 593.445C91.8433 593.844 91.2138 593.86 90.8154 593.482C90.417 593.104 90.4004 592.475 90.7783 592.077L90.7783 592.077Z" id="Şekil" fill="#000000" fill-rule="evenodd" stroke="none" clip-path="url(#clip_1)" />
    <path d="M90.0501 578.734C90.428 578.336 91.0574 578.319 91.4558 578.697C91.8542 579.075 91.8708 579.705 91.4929 580.103C91.1147 580.502 90.4853 580.518 90.0869 580.14C89.6888 579.762 89.6719 579.133 90.0501 578.734L90.0501 578.734Z" id="Şekil" fill="#000000" fill-rule="evenodd" stroke="none" clip-path="url(#clip_1)" />
    <path d="M339.289 390.436C334.314 394.76 326.777 394.233 322.454 389.259C318.132 384.285 318.659 376.748 323.631 372.424C328.606 368.101 336.144 368.628 340.466 373.602C344.788 378.575 344.261 386.113 339.289 390.436L339.289 390.436Z" id="Şekil" fill="#FFFFFF" fill-rule="evenodd" stroke="none" clip-path="url(#clip_1)" />
    <path d="M322.08 389.585C326.581 394.766 334.433 395.315 339.614 390.811L339.77 390.675C344.805 386.151 345.299 378.405 340.841 373.275C336.336 368.094 328.487 367.545 323.306 372.049C318.125 376.553 317.575 384.404 322.08 389.585L322.08 389.585ZM340.092 373.928C344.192 378.647 343.738 385.773 339.104 389.936L338.961 390.061L338.819 390.184C334.052 394.194 326.932 393.651 322.829 388.933C318.685 384.166 319.189 376.943 323.956 372.8C328.722 368.656 335.948 369.161 340.092 373.928L340.092 373.928Z" id="Şekil" fill="#000000" fill-rule="evenodd" stroke="none" clip-path="url(#clip_1)" />
    <path d="M335.981 384.918C336.17 384.719 336.485 384.711 336.684 384.9C336.883 385.089 336.893 385.404 336.704 385.603C336.515 385.802 336.2 385.81 336.001 385.621C335.802 385.432 335.792 385.118 335.981 384.918L335.981 384.918Z" id="Şekil" fill="#000000" fill-rule="evenodd" stroke="none" clip-path="url(#clip_1)" />
    <path d="M329.969 390.146C330.158 389.947 330.472 389.939 330.671 390.128C330.87 390.317 330.877 390.631 330.688 390.831C330.499 391.03 330.184 391.038 329.985 390.849C329.786 390.66 329.78 390.346 329.969 390.146L329.969 390.146Z" id="Şekil" fill="#000000" fill-rule="evenodd" stroke="none" clip-path="url(#clip_1)" />
    <path d="M329.793 383.156C329.982 382.957 330.297 382.949 330.496 383.138C330.695 383.327 330.701 383.641 330.512 383.841C330.323 384.04 330.008 384.048 329.809 383.859C329.611 383.67 329.604 383.355 329.793 383.156L329.793 383.156Z" id="Şekil" fill="#000000" fill-rule="evenodd" stroke="none" clip-path="url(#clip_1)" />
    <path d="M323.777 388.384C323.966 388.185 324.281 388.177 324.479 388.366C324.678 388.555 324.688 388.87 324.499 389.069C324.31 389.268 323.996 389.276 323.797 389.087C323.598 388.898 323.588 388.583 323.777 388.384L323.777 388.384Z" id="Şekil" fill="#000000" fill-rule="evenodd" stroke="none" clip-path="url(#clip_1)" />
    <path d="M323.223 382.033C323.412 381.833 323.727 381.825 323.926 382.014C324.128 382.203 324.135 382.518 323.946 382.717C323.757 382.916 323.442 382.925 323.243 382.736C323.044 382.546 323.034 382.232 323.223 382.033L323.223 382.033Z" id="Şekil" fill="#000000" fill-rule="evenodd" stroke="none" clip-path="url(#clip_1)" />
    <path d="M322.696 375.35C322.885 375.151 323.2 375.143 323.399 375.332C323.598 375.52 323.604 375.835 323.415 376.034C323.227 376.233 322.912 376.242 322.713 376.053C322.514 375.864 322.507 375.549 322.696 375.35L322.696 375.35Z" id="Şekil" fill="#000000" fill-rule="evenodd" stroke="none" clip-path="url(#clip_1)" />
    <path d="M207.218 617.063L213.137 703.231L183.37 693.685L178.509 628.247L207.218 617.063L207.218 617.063ZM179.555 628.906L184.312 692.943L212.045 701.836L206.318 618.478L179.555 628.906L179.555 628.906Z" id="Şekil" fill="#000000" fill-rule="evenodd" stroke="none" clip-path="url(#clip_1)" />
    <path d="M162.062 630.378L220.523 624.117C219.973 621.624 219.445 619.128 218.878 616.642L217.18 609.194L216.331 605.471L215.453 601.757L213.697 594.337C211.304 584.457 208.865 574.611 206.3 564.792C205.832 561.629 204.748 558.71 203.194 556.146C201.626 553.578 199.608 551.376 197.236 549.627C192.513 546.144 186.457 544.499 180.263 545.567C174.065 546.637 168.872 550.03 165.439 554.698C163.73 557.023 162.445 559.679 161.721 562.503C160.984 565.333 160.794 568.345 161.247 571.412C161.582 581.255 161.792 591.107 161.95 600.937L162.031 608.31L162.07 611.991L162.08 615.674L162.1 623.033C162.106 625.482 162.073 627.932 162.062 630.378L162.062 630.378Z" id="Şekil" fill="#FF2A67" fill-rule="evenodd" stroke="none" clip-path="url(#clip_1)" />
    <path d="M188.271 559.961C189.125 559.914 189.785 559.178 189.734 558.317C189.684 557.455 188.949 556.795 188.093 556.844C187.238 556.892 186.585 557.629 186.635 558.488C186.687 559.348 187.414 560.007 188.271 559.961L188.271 559.961Z" id="Şekil" fill="#000000" fill-rule="evenodd" stroke="none" clip-path="url(#clip_1)" />
    <path d="M167.174 563.17C168.029 563.123 168.69 562.395 168.641 561.547C168.593 560.7 167.86 560.053 167.005 560.103C166.149 560.153 165.494 560.879 165.543 561.724C165.592 562.569 166.318 563.218 167.174 563.17L167.174 563.17Z" id="Şekil" fill="#000000" fill-rule="evenodd" stroke="none" clip-path="url(#clip_1)" />
    <path d="M199.995 572.757C200.851 572.719 201.512 571.986 201.47 571.119C201.428 570.252 200.7 569.582 199.843 569.622C198.987 569.661 198.327 570.395 198.369 571.259C198.411 572.124 199.139 572.794 199.995 572.757L199.995 572.757Z" id="Şekil" fill="#000000" fill-rule="evenodd" stroke="none" clip-path="url(#clip_1)" />
    <path d="M178.869 575.764C179.725 575.725 180.387 575 180.346 574.145C180.305 573.29 179.579 572.63 178.723 572.671C177.867 572.712 177.206 573.436 177.246 574.29C177.286 575.142 178.012 575.802 178.869 575.764L178.869 575.764Z" id="Şekil" fill="#000000" fill-rule="evenodd" stroke="none" clip-path="url(#clip_1)" />
    <path d="M192.303 588.313C193.159 588.283 193.828 587.56 193.798 586.697C193.767 585.836 193.049 585.163 192.193 585.195C191.337 585.228 190.667 585.952 190.697 586.811C190.727 587.672 191.446 588.344 192.303 588.313L192.303 588.313Z" id="Şekil" fill="#000000" fill-rule="evenodd" stroke="none" clip-path="url(#clip_1)" />
    <path d="M171.15 591.13C172.007 591.098 172.677 590.383 172.648 589.532C172.62 588.682 171.902 588.019 171.046 588.052C170.19 588.086 169.519 588.801 169.548 589.65C169.577 590.499 170.294 591.161 171.15 591.13L171.15 591.13Z" id="Şekil" fill="#000000" fill-rule="evenodd" stroke="none" clip-path="url(#clip_1)" />
    <path d="M203.789 601.318C204.645 601.296 205.32 600.575 205.295 599.707C205.27 598.84 204.556 598.156 203.699 598.18C202.843 598.204 202.168 598.926 202.193 599.791C202.217 600.657 202.932 601.34 203.789 601.318L203.789 601.318Z" id="Şekil" fill="#000000" fill-rule="evenodd" stroke="none" clip-path="url(#clip_1)" />
    <path d="M182.611 603.941C183.468 603.917 184.143 603.205 184.12 602.349C184.096 601.494 183.383 600.82 182.527 600.845C181.67 600.87 180.995 601.583 181.018 602.437C181.041 603.291 181.754 603.964 182.611 603.941L182.611 603.941Z" id="Şekil" fill="#000000" fill-rule="evenodd" stroke="none" clip-path="url(#clip_1)" />
    <path d="M195.819 616.735C196.676 616.722 197.357 616.009 197.34 615.147C197.322 614.285 196.614 613.599 195.757 613.616C194.9 613.632 194.219 614.342 194.236 615.203C194.253 616.065 194.962 616.748 195.819 616.735L195.819 616.735Z" id="Şekil" fill="#000000" fill-rule="evenodd" stroke="none" clip-path="url(#clip_1)" />
    <path d="M174.617 619.154C175.474 619.141 176.156 618.438 176.14 617.59C176.125 616.738 175.417 616.065 174.56 616.082C173.704 616.098 173.022 616.801 173.038 617.649C173.053 618.498 173.76 619.171 174.617 619.154L174.617 619.154Z" id="Şekil" fill="#000000" fill-rule="evenodd" stroke="none" clip-path="url(#clip_1)" />
    <path d="M277.915 774.719L270.301 750.598L227.85 616.055L255.571 607.308L298.025 741.851L305.636 765.972L277.915 774.719L277.915 774.719Z" id="Şekil" fill="#FFFFFF" fill-rule="evenodd" stroke="none" clip-path="url(#clip_1)" />
    <path d="M256.011 606.501L298.655 741.652L306.468 766.403L277.481 775.551L269.671 750.797L227.025 615.648L256.011 606.501L256.011 606.501ZM255.13 608.115L228.672 616.463L270.934 750.399L278.346 773.887L304.804 765.537L297.392 742.05L255.13 608.115L255.13 608.115Z" id="Şekil" fill="#000000" fill-rule="evenodd" stroke="none" clip-path="url(#clip_1)" />
    <path d="M304.813 798.114C304.784 797.985 304.747 797.856 304.704 797.73C303.723 794.614 300.388 792.877 297.273 793.861C294.157 794.843 292.423 798.177 293.404 801.293C293.444 801.422 293.491 801.548 293.54 801.674L287.063 803.716L270.301 750.598L266.496 738.536L294.23 729.782L298.035 741.847L310.071 779.983C310.124 780.152 310.243 780.291 310.399 780.374C310.554 780.453 310.733 780.467 310.903 780.414C310.906 780.414 310.956 780.397 310.956 780.397C311.396 780.258 315.391 779.058 319.822 779.777C325.318 780.672 329.113 784.047 331.119 789.814L304.813 798.114L304.813 798.114Z" id="Şekil" fill="#FFFFFF" fill-rule="evenodd" stroke="none" clip-path="url(#clip_1)" />
    <path d="M294.671 728.977L298.668 741.649L310.7 779.781C310.7 779.781 310.72 779.777 310.757 779.764C311.791 779.436 327.115 774.891 331.957 790.245L315.629 795.399L307.313 798.021L304.29 798.976C304.253 798.628 304.184 798.277 304.074 797.929C303.199 795.157 300.243 793.619 297.471 794.494C294.7 795.366 293.162 798.323 294.037 801.094C294.147 801.442 294.289 801.77 294.462 802.078L286.629 804.548L269.671 750.797L265.67 738.125L294.671 728.977L294.671 728.977ZM293.789 730.591L267.321 738.944L270.934 750.399L287.498 802.884L292.698 801.243C291.774 797.852 293.693 794.296 297.074 793.228C300.455 792.161 304.068 793.974 305.254 797.282L306.915 796.758L315.228 794.133L330.257 789.393C328.285 784.262 324.745 781.249 319.716 780.434C315.434 779.738 311.579 780.894 311.154 781.03L311.118 781.04L311.101 781.047C310.77 781.15 310.409 781.12 310.097 780.961C309.782 780.802 309.544 780.52 309.437 780.182L297.402 742.046L293.789 730.591L293.789 730.591Z" id="Şekil" fill="#000000" fill-rule="evenodd" stroke="none" clip-path="url(#clip_1)" />
    <path d="M327.284 783.871L284.571 797.352L284.972 798.615L327.685 785.137L327.284 783.871L327.284 783.871Z" id="Şekil" fill="#000000" fill-rule="evenodd" stroke="none" clip-path="url(#clip_1)" />
    <path d="M303.561 758.636C300.219 759.691 298.37 763.251 299.42 766.588C300.475 769.93 304.035 771.779 307.376 770.728L306.975 769.462C304.336 770.294 301.519 768.829 300.687 766.191C299.855 763.552 301.32 760.735 303.958 759.903L303.561 758.636L303.561 758.636Z" id="Şekil" fill="#000000" fill-rule="evenodd" stroke="none" clip-path="url(#clip_1)" />
    <path d="M248.597 564.076C249.684 543.361 230.853 525.535 206.537 524.26C182.221 522.986 161.63 538.746 160.544 559.462C159.458 580.177 178.29 598.004 202.605 599.278C226.922 600.552 247.513 584.792 248.597 564.076L248.597 564.076Z" id="Şekil" fill="#000000" fill-rule="evenodd" stroke="none" clip-path="url(#clip_1)" />
    <path d="M275.124 614.842L219.053 632.536L208.15 575.952C204.512 564.423 211.284 552.01 223.276 548.226C235.268 544.442 247.937 550.721 251.576 562.25L275.124 614.842L275.124 614.842Z" id="Şekil" fill="#000000" fill-rule="evenodd" stroke="none" clip-path="url(#clip_1)" />
    <path d="M44.9396 462.308C46.1487 462.733 47.2078 463.489 47.5859 464.696C48.6339 468.07 49.8647 471.25 51.2229 474.214C55.7232 484.675 62.4297 490.407 70.3224 492.886C92.0541 499.713 122.792 481.886 141.319 470.239L162.684 503.015C104.219 542.635 31.104 553.909 8.60179 470.709C11.8559 470.306 42.4364 460.353 44.9396 462.308L44.9396 462.308Z" id="Şekil" fill="#FFFFFF" fill-rule="evenodd" stroke="none" clip-path="url(#clip_1)" />
    <path d="M161.772 502.83C143.456 515.169 124.503 524.144 106.923 528.802C87.1583 534.039 69.5613 533.882 54.6234 528.335C32.8448 520.249 17.6438 501.038 9.42772 471.227C10.9558 470.887 13.9954 470.016 17.9448 468.884C23.0198 467.43 29.3349 465.621 34.5933 464.339C42.8777 462.321 44.2962 462.676 44.5369 462.834C44.5911 462.878 44.6524 462.91 44.7209 462.934C45.552 463.226 46.6138 463.803 46.9549 464.894C47.9713 468.173 49.2062 471.402 50.621 474.49C54.8905 484.414 61.4815 490.829 70.2017 493.543C79.8591 496.548 92.3449 495.049 107.312 489.088C119.805 484.113 131.884 476.937 141.119 471.147L161.772 502.83L161.772 502.83ZM75.3164 533.828C85.207 534.346 95.883 533.099 107.262 530.084C125.157 525.342 144.45 516.172 163.056 503.564C163.355 503.361 163.437 502.955 163.239 502.653L141.874 469.877C141.676 469.574 141.272 469.485 140.966 469.678C131.71 475.496 119.465 482.821 106.821 487.856C92.1434 493.702 79.9569 495.19 70.5966 492.277C62.2618 489.684 55.9465 483.518 51.8341 473.952C50.434 470.901 49.2196 467.726 48.2203 464.5C47.8249 463.24 46.7966 462.277 45.2364 461.711C43.2953 460.558 34.3282 462.81 17.5801 467.609C13.2296 468.857 9.46893 469.934 8.52008 470.052C8.32966 470.075 8.15819 470.18 8.05026 470.34C7.94234 470.499 7.91201 470.697 7.96204 470.883C16.2475 501.524 31.7921 521.272 54.1599 529.578C60.727 532.017 67.7957 533.434 75.3164 533.828L75.3164 533.828Z" id="Şekil" fill="#000000" fill-rule="evenodd" stroke="none" clip-path="url(#clip_1)" />
    <path d="M31.7725 466.419C30.9378 461.826 27.312 453.234 29.2055 449.089C31.138 445.845 35.7969 447.454 36.3154 451.114C37.2847 456.622 38.5461 462.003 40.1551 467.15" id="Şekil" fill="#FFFFFF" fill-rule="evenodd" stroke="none" clip-path="url(#clip_1)" />
    <path d="M40.1204 467.811C40.1965 467.815 40.2734 467.806 40.351 467.782C40.7019 467.672 40.894 467.301 40.7862 466.951C39.2481 462.036 37.966 456.669 36.9686 450.999C36.6678 448.886 35.0846 447.175 33.0317 446.763C31.235 446.402 29.5928 447.144 28.6358 448.749C28.6214 448.769 28.6104 448.791 28.6026 448.813C27.1401 452.018 28.6385 457.31 29.9572 461.98C30.4391 463.677 30.8928 465.281 31.1191 466.537C31.1865 466.897 31.5324 467.136 31.891 467.07C32.2496 467.005 32.4901 466.66 32.426 466.3C32.1864 464.981 31.7243 463.348 31.2341 461.619C30.0409 457.406 28.5595 452.167 29.7934 449.396C30.4582 448.302 31.5426 447.815 32.7677 448.062C34.0225 448.314 35.4003 449.384 35.6599 451.207C36.6698 456.954 37.9688 462.377 39.5207 467.347C39.606 467.619 39.849 467.797 40.1204 467.811L40.1204 467.811Z" id="Şekil" fill="#000000" fill-rule="evenodd" stroke="none" clip-path="url(#clip_1)" />
    <path d="M31.7725 466.419C30.4783 461.853 29.4347 457.193 28.6096 452.478C28.3897 451.227 27.7649 450.167 26.943 449.445C25.2883 447.895 22.5631 448.278 21.4775 450.308C19.6136 454.775 23.3238 463.593 24.2453 468.557" id="Şekil" fill="#FFFFFF" fill-rule="evenodd" stroke="none" clip-path="url(#clip_1)" />
    <path d="M24.2106 469.219C24.2636 469.222 24.3135 469.218 24.3671 469.209C24.7291 469.142 24.9663 468.796 24.8989 468.436C24.6317 467.011 24.1478 465.287 23.6327 463.462C22.3927 459.066 20.8504 453.598 22.0767 450.593C22.4877 449.844 23.208 449.335 24.0585 449.195C24.9491 449.048 25.8345 449.316 26.4895 449.929C27.2573 450.605 27.7723 451.546 27.9564 452.593C28.8103 457.454 29.8777 462.167 31.1357 466.599C31.2367 466.951 31.6011 467.156 31.9549 467.056C32.3053 466.956 32.5104 466.59 32.4094 466.237C31.1656 461.848 30.1058 457.18 29.2629 452.364C29.0279 451.021 28.358 449.807 27.3807 448.947C26.4379 448.064 25.144 447.672 23.8449 447.887C22.5726 448.096 21.4967 448.865 20.8932 449.994C20.8822 450.013 20.8746 450.033 20.8636 450.052C19.436 453.478 20.9869 458.973 22.3558 463.822C22.8625 465.617 23.3413 467.313 23.595 468.678C23.6519 468.985 23.9127 469.203 24.2106 469.219L24.2106 469.219Z" id="Şekil" fill="#000000" fill-rule="evenodd" stroke="none" clip-path="url(#clip_1)" />
    <path d="M24.2453 468.557C22.8672 463.692 21.7705 458.777 20.9039 453.843C20.6738 452.533 20.0384 451.42 19.2117 450.664C16.1958 447.917 12.3538 451.115 13.2015 455.207C14.1031 460.361 15.2528 465.53 16.7181 470.696" id="Şekil" fill="#FFFFFF" fill-rule="evenodd" stroke="none" clip-path="url(#clip_1)" />
    <path d="M16.6834 471.358C16.7562 471.362 16.8263 471.354 16.9004 471.333C17.2508 471.234 17.4559 470.867 17.3582 470.515C15.9686 465.616 14.79 460.427 13.8547 455.093C13.4099 452.941 14.4129 451.283 15.535 450.645C16.5786 450.05 17.7571 450.236 18.7678 451.155C19.5278 451.853 20.0565 452.848 20.2539 453.957C21.1506 459.078 22.2775 464.051 23.6085 468.738C23.7095 469.09 24.0739 469.295 24.4276 469.195C24.7781 469.095 24.9832 468.728 24.8821 468.376C23.5654 463.733 22.4462 458.804 21.5571 453.728C21.3117 452.332 20.6376 451.071 19.6589 450.175C18.2174 448.863 16.4318 448.608 14.8784 449.493C13.0172 450.554 12.058 452.959 12.5505 455.341C13.4911 460.701 14.6807 465.934 16.0812 470.877C16.1595 471.157 16.4086 471.344 16.6834 471.358L16.6834 471.358Z" id="Şekil" fill="#000000" fill-rule="evenodd" stroke="none" clip-path="url(#clip_1)" />
    <path d="M41.5265 471.192C40.7524 468.04 38.2189 464.384 39.6343 461.126C40.8509 458.622 44.6015 458.562 46.1248 460.782C48.2802 465.7 49.4753 471.334 51.9206 475.659" id="Şekil" fill="#FFFFFF" fill-rule="evenodd" stroke="none" clip-path="url(#clip_1)" />
    <path d="M51.8859 476.321C52.0084 476.327 52.1326 476.3 52.2488 476.236C52.567 476.055 52.6778 475.651 52.4986 475.332C51.0982 472.857 50.1274 469.973 49.0992 466.92C48.3811 464.788 47.6402 462.584 46.7329 460.516C46.715 460.478 46.697 460.441 46.6723 460.407C45.7902 459.125 44.218 458.406 42.5685 458.53C41.0023 458.648 39.6825 459.51 39.0387 460.837C37.9143 463.419 38.9824 466.154 39.9248 468.567C40.3049 469.547 40.668 470.473 40.8842 471.35C40.9718 471.706 41.3289 471.923 41.6852 471.836C42.0417 471.749 42.2563 471.39 42.1721 471.034C41.9337 470.072 41.5419 469.062 41.1583 468.085C40.2687 465.805 39.35 463.447 40.2444 461.391C40.6759 460.505 41.5621 459.935 42.6685 459.852C43.8281 459.765 44.9248 460.245 45.5435 461.109C46.4146 463.106 47.1415 465.26 47.8423 467.343C48.8446 470.321 49.8814 473.4 51.3458 475.985C51.4612 476.19 51.6674 476.309 51.8859 476.321L51.8859 476.321Z" id="Şekil" fill="#000000" fill-rule="evenodd" stroke="none" clip-path="url(#clip_1)" />
    <path d="M16.718 470.696C14.7004 466.38 15.1088 453.646 9.08825 454.397C2.70663 456.146 8.50143 468.127 9.19079 472.834" id="Şekil" fill="#FFFFFF" fill-rule="evenodd" stroke="none" clip-path="url(#clip_1)" />
    <path d="M9.15605 473.496C9.19908 473.499 9.24234 473.497 9.28915 473.49C9.6504 473.437 9.90041 473.101 9.84637 472.738C9.67325 471.545 9.20432 469.979 8.66538 468.166C7.44834 464.091 5.93499 459.019 7.34615 456.477C7.74203 455.763 8.35403 455.296 9.21667 455.049C12.4619 454.689 13.5481 459.169 14.6302 465.059C15.0564 467.378 15.4594 469.567 16.1191 470.977C16.2743 471.308 16.6684 471.451 16.9985 471.296C17.3319 471.141 17.4754 470.747 17.3202 470.415C16.7321 469.16 16.3447 467.052 15.9339 464.819C14.9785 459.617 13.7876 453.143 9.00653 453.739C8.97645 453.743 8.94294 453.749 8.91263 453.757C7.68342 454.095 6.76389 454.794 6.18827 455.834C4.50593 458.864 6.10663 464.232 7.39415 468.545C7.8997 470.235 8.37367 471.832 8.53517 472.93C8.58156 473.248 8.8482 473.48 9.15605 473.496L9.15605 473.496Z" id="Şekil" fill="#000000" fill-rule="evenodd" stroke="none" clip-path="url(#clip_1)" />
    <path d="M136.23 468.638C141.825 465.097 147.343 461.292 152.734 457.302C162.425 450.32 171.619 450.266 178.541 450.628C190.681 451.265 190.999 487.128 180.54 494.848C174.285 499.478 167.868 503.907 161.22 508.115L136.23 468.638L136.23 468.638Z" id="Şekil" fill="#000000" fill-rule="evenodd" stroke="none" clip-path="url(#clip_1)" />
    <path d="M20.1244 479.547L36.4249 476.258C39.4006 475.656 41.3284 472.754 40.7278 469.776L33.9221 436.042C33.3181 433.064 30.4185 431.136 27.4395 431.737L11.139 435.027C8.16334 435.628 6.23551 438.53 6.83619 441.508L13.6418 475.242C14.2458 478.221 17.1454 480.148 20.1244 479.547L20.1244 479.547Z" id="Şekil" fill="#FFFFFF" fill-rule="evenodd" stroke="none" clip-path="url(#clip_1)" />
    <path d="M28.7877 432.297C29.6417 432.342 30.4738 432.614 31.2052 433.1C32.2797 433.815 33.0157 434.907 33.2713 436.174L40.077 469.907C40.6071 472.523 38.9064 475.08 36.293 475.608L19.9925 478.897C18.7277 479.153 17.4366 478.899 16.3588 478.184C15.281 477.469 14.5482 476.378 14.2926 475.111L7.48367 441.377C6.95688 438.762 8.65427 436.204 11.2709 435.677L27.5681 432.387C27.9773 432.305 28.3839 432.276 28.7877 432.297L28.7877 432.297ZM18.7135 480.311C19.22 480.337 19.7363 480.301 20.2563 480.197L36.5535 476.907C39.8848 476.235 42.0503 472.977 41.3786 469.645L34.5696 435.911C34.2426 434.297 33.3098 432.907 31.9369 431.995C30.5673 431.084 28.9212 430.762 27.3076 431.088L11.0071 434.377C7.67588 435.049 5.51359 438.307 6.18537 441.64L12.9943 475.373C13.5605 478.186 15.9727 480.167 18.7135 480.311L18.7135 480.311Z" id="Şekil" fill="#000000" fill-rule="evenodd" stroke="none" clip-path="url(#clip_1)" />
    <path d="M18.1837 473.13L35.7221 469.591C36.7084 469.391 37.3496 468.43 37.1491 467.443L30.8674 436.315C30.6668 435.328 29.7079 434.689 28.7183 434.888L11.1832 438.428C10.1936 438.627 9.55562 439.589 9.75614 440.576L16.0379 471.703C16.2351 472.69 17.1974 473.329 18.1837 473.13L18.1837 473.13Z" id="Şekil" fill="#FF2A67" fill-rule="evenodd" stroke="none" clip-path="url(#clip_1)" />
    <path d="M26.9771 472.481C25.4307 473.996 27.8444 476.389 29.3468 474.83C30.8899 473.316 28.4761 470.922 26.9771 472.481L26.9771 472.481Z" id="Şekil" fill="#FF2A67" fill-rule="evenodd" stroke="none" clip-path="url(#clip_1)" />
    <path d="M148.549 556.975C148.021 560.573 150.703 563.845 154.334 564.035L252.228 569.165C255.426 569.333 258.255 567.107 258.844 563.958L258.422 475.065C260.394 464.52 252.627 454.651 241.914 454.089L177.887 450.734C164.002 450.11 152.411 461.958 152.831 475.829L148.549 556.975L148.549 556.975Z" id="Şekil" fill="#FF2A67" fill-rule="evenodd" stroke="none" clip-path="url(#clip_1)" />
    <path d="M183 451.002C192.784 417.668 251.129 444.654 210.952 470.801C210.227 471.329 209.222 471.221 208.622 470.554L204.272 465.724L199.938 460.91C197.635 462.924 192.901 467.062 190.583 469.09C187.027 472.392 182.503 455.283 183 451.002L183 451.002Z" id="Şekil" fill="#FF2A67" fill-rule="evenodd" stroke="none" clip-path="url(#clip_1)" />
    <path d="M209.483 471.423C210.067 471.454 210.773 471.278 211.598 470.897C216.744 468.521 225.759 458.468 225.236 453.141C225.209 452.868 224.966 452.669 224.692 452.695C224.419 452.722 224.22 452.965 224.246 453.238C224.455 455.367 222.767 458.85 219.729 462.554C216.971 465.917 213.537 468.906 211.181 469.994C210.559 470.282 209.444 470.692 208.979 470.21C207.797 468.895 205.933 466.826 204.14 464.834L200.307 460.577C200.125 460.375 199.815 460.356 199.61 460.535L190.256 468.715C189.907 469.039 189.604 469.092 189.231 468.904C186.428 467.483 183.052 454.861 183.493 451.059C183.525 450.787 183.33 450.54 183.057 450.508C182.784 450.477 182.537 450.672 182.505 450.945C182.058 454.802 185.411 468.083 188.782 469.791C189.523 470.167 190.283 470.047 190.922 469.454L199.895 461.607L203.401 465.499C205.194 467.491 207.058 469.56 208.251 470.888C208.571 471.219 208.982 471.397 209.483 471.423L209.483 471.423Z" id="Şekil" fill="#000000" fill-rule="evenodd" stroke="none" clip-path="url(#clip_1)" />
    <path d="M104.483 531.994C124.358 496.166 110.784 498.057 146.589 513.324C165.988 520.844 196.007 533.341 215.829 525.036C224.415 520.077 224.651 508.799 224.574 499.477L255.986 498.319C257.742 498.243 259.237 499.926 259.242 502.115C259.529 519.971 253.818 540.238 238.496 551.503C202.806 577.143 147.012 551.788 111.911 535.643C113.775 536.54 117.541 538.318 119.419 539.186C115.723 547.491 100.282 540.072 104.483 531.994L104.483 531.994Z" id="Şekil" fill="#FFFFFF" fill-rule="evenodd" stroke="none" clip-path="url(#clip_1)" />
    <path d="M257.591 499.614C258.217 500.211 258.577 501.124 258.579 502.117C258.732 511.625 257.184 520.933 254.103 529.045C250.55 538.399 245.167 545.775 238.103 550.968C202.471 576.567 145.955 550.572 112.188 535.04C111.857 534.888 111.466 535.03 111.311 535.36C111.156 535.689 111.295 536.081 111.623 536.239C113.285 537.04 116.519 538.568 118.518 539.498C117.39 541.452 115.561 542.017 114.166 542.135C110.97 542.407 107.219 540.6 105.443 537.935C104.597 536.667 103.847 534.661 105.067 532.307C109.645 524.054 112.448 517.808 114.495 513.247C115.363 511.313 116.097 509.679 116.767 508.338C118.035 505.807 118.072 503.75 119.383 503.262C121.551 502.458 125.466 504.574 132.941 507.894C136.535 509.491 140.785 511.57 146.329 513.933C147.27 514.298 148.215 514.667 149.181 515.043C158.816 518.798 170.805 523.47 182.671 526.178C196.675 529.373 207.606 529.2 216.085 525.647C216.111 525.636 216.136 525.624 216.161 525.61C225.173 520.404 225.305 508.389 225.243 500.115L256.011 498.981C256.073 498.978 256.135 498.978 256.197 498.982C256.7 499.008 257.188 499.228 257.591 499.614L257.591 499.614ZM238.882 552.041C246.161 546.69 251.697 539.113 255.342 529.516C258.482 521.248 260.06 511.77 259.905 502.104C259.902 500.762 259.392 499.501 258.507 498.655C257.791 497.971 256.885 497.616 255.958 497.656L224.55 498.814C224.192 498.827 223.909 499.123 223.912 499.482C223.995 509.599 223.416 519.857 215.534 524.44C196.899 532.217 168.476 521.14 149.663 513.808C148.696 513.431 147.75 513.062 146.829 512.705C141.327 510.359 136.989 508.327 133.503 506.694C126.029 503.192 121.61 501.022 118.922 502.019C117.186 502.664 117 504.885 115.535 507.836C114.867 509.18 114.143 510.793 113.285 512.704C111.247 517.245 108.456 523.464 103.903 531.672C103.9 531.677 103.897 531.682 103.895 531.688C102.705 533.975 102.863 536.455 104.339 538.67C106.397 541.757 110.576 543.769 114.278 543.456C116.737 543.248 118.667 542.016 119.773 539.969C141.437 549.791 169.733 561.563 196.084 562.945C211.612 563.76 226.459 560.966 238.882 552.041L238.882 552.041Z" id="Şekil" fill="#000000" fill-rule="evenodd" stroke="none" clip-path="url(#clip_1)" />
    <path d="M119.152 509.492C114.857 507.358 110.584 505.162 106.325 502.927C104.066 501.725 103.066 499.207 104.089 497.304L104.089 497.304C105.113 495.401 107.747 494.82 109.974 496.004C115.128 498.718 120.304 501.354 125.502 503.892" id="Şekil" fill="#FFFFFF" fill-rule="evenodd" stroke="none" clip-path="url(#clip_1)" />
    <path d="M119.117 510.154C119.373 510.168 119.624 510.031 119.746 509.787C119.908 509.459 119.775 509.061 119.447 508.899C115.426 506.901 111.235 504.756 106.634 502.34C105.585 501.782 104.803 500.874 104.493 499.849C104.256 499.067 104.32 498.275 104.673 497.618C105.522 496.04 107.761 495.578 109.663 496.59C114.96 499.379 120.19 502.036 125.211 504.488C125.54 504.649 125.937 504.512 126.097 504.183C126.258 503.854 126.121 503.457 125.792 503.296C120.784 500.851 115.566 498.2 110.283 495.418C107.741 494.066 104.699 494.771 103.505 496.99C102.984 497.96 102.884 499.112 103.224 500.233C103.636 501.593 104.653 502.788 106.014 503.512C110.628 505.934 114.827 508.084 118.857 510.086C118.941 510.128 119.029 510.15 119.117 510.154L119.117 510.154Z" id="Şekil" fill="#000000" fill-rule="evenodd" stroke="none" clip-path="url(#clip_1)" />
    <path d="M219.223 502.764C219.223 502.764 219.339 495.661 219.132 482.868C218.924 470.075 222.035 459.705 233.411 455.285C242.693 451.591 253.182 455.835 258.669 464.022C265.491 475.51 265.298 489.357 265.943 503.164L219.223 502.764L219.223 502.764Z" id="Şekil" fill="#000000" fill-rule="evenodd" stroke="none" clip-path="url(#clip_1)" />
    <path d="M170.384 406.098C169.419 424.51 183.563 440.218 201.975 441.183C220.387 442.148 236.096 428.004 237.061 409.592C238.026 391.18 223.882 375.472 205.469 374.507C187.057 373.542 171.349 387.686 170.384 406.098L170.384 406.098Z" id="Şekil" fill="#000000" fill-rule="evenodd" stroke="none" clip-path="url(#clip_1)" />
    <path d="M180.456 419.79C180.31 422.575 182.449 424.951 185.234 425.097C188.019 425.243 190.395 423.104 190.541 420.319C190.687 417.534 188.547 415.158 185.763 415.012C182.978 414.866 180.602 417.006 180.456 419.79L180.456 419.79Z" id="Şekil" fill="#FFFFFF" fill-rule="evenodd" stroke="none" clip-path="url(#clip_1)" />
    <path d="M185.728 415.675C188.143 415.801 190.005 417.869 189.879 420.284C189.752 422.7 187.684 424.562 185.269 424.435C182.853 424.309 180.992 422.241 181.118 419.825C181.245 417.41 183.313 415.548 185.728 415.675L185.728 415.675ZM185.199 425.759C188.345 425.924 191.038 423.499 191.203 420.354C191.368 417.208 188.943 414.515 185.797 414.35C182.652 414.186 179.959 416.611 179.794 419.756C179.629 422.901 182.054 425.594 185.199 425.759L185.199 425.759Z" id="Şekil" fill="#000000" fill-rule="evenodd" stroke="none" clip-path="url(#clip_1)" />
    <path d="M200.688 453.875C206.963 454.204 213 449.695 213.302 443.95L209.004 423.921C209.305 418.176 211.083 413.598 204.808 413.269L198.187 412.922C191.912 412.594 193.202 417.332 192.901 423.077L191.858 442.981C191.557 448.726 194.413 453.547 200.688 453.875L200.688 453.875Z" id="Şekil" fill="#FFFFFF" fill-rule="evenodd" stroke="none" clip-path="url(#clip_1)" />
    <path d="M212.635 444.001C212.303 449.234 206.762 453.53 200.723 453.213C194.298 452.877 192.273 447.725 192.52 443.016L193.563 423.112C193.616 422.103 193.62 421.142 193.624 420.212C193.637 417.655 193.647 415.446 194.757 414.398C195.426 413.766 196.537 413.5 198.153 413.584L204.773 413.931C206.389 414.016 207.465 414.397 208.065 415.095C209.06 416.254 208.839 418.451 208.584 420.996C208.491 421.921 208.395 422.877 208.342 423.886L208.337 423.974L212.635 444.001L212.635 444.001ZM200.653 454.537C207.431 454.892 213.65 449.961 213.964 443.984L213.968 443.897L209.671 423.868C209.723 422.922 209.814 422.011 209.903 421.128C210.189 418.281 210.435 415.822 209.071 414.232C208.223 413.243 206.84 412.712 204.842 412.607L198.222 412.26C196.225 412.156 194.794 412.539 193.847 413.434C192.324 414.872 192.312 417.344 192.299 420.206C192.294 421.12 192.29 422.065 192.239 423.042L191.196 442.946C190.843 449.668 194.556 454.218 200.653 454.537L200.653 454.537Z" id="Şekil" fill="#000000" fill-rule="evenodd" stroke="none" clip-path="url(#clip_1)" />
    <path d="M197.752 436.439C203.534 436.742 208.931 433.586 211.502 428.4L211.744 427.913C213.463 424.444 213.729 420.515 212.492 416.846C211.255 413.178 208.663 410.211 205.195 408.492C203.408 407.606 201.5 407.105 199.524 407.001C193.742 406.698 188.345 409.854 185.774 415.04L185.533 415.527C181.984 422.687 184.921 431.399 192.081 434.949C193.868 435.834 195.776 436.336 197.752 436.439L197.752 436.439Z" id="Şekil" fill="#FFFFFF" fill-rule="evenodd" stroke="none" clip-path="url(#clip_1)" />
    <path d="M199.559 406.339C201.625 406.447 203.621 406.972 205.49 407.898C209.117 409.696 211.826 412.798 213.12 416.634C214.413 420.47 214.136 424.58 212.338 428.207L212.096 428.694C209.408 434.118 203.764 437.418 197.717 437.101C195.651 436.993 193.655 436.468 191.787 435.542C188.16 433.744 185.45 430.642 184.156 426.806C182.863 422.97 183.141 418.86 184.939 415.233L185.18 414.746C187.869 409.322 193.513 406.022 199.559 406.339L199.559 406.339ZM199.49 407.663C194.146 407.383 188.895 410.236 186.368 415.335L186.127 415.822C182.735 422.665 185.533 430.962 192.376 434.354C194.12 435.219 195.959 435.681 197.787 435.777C203.13 436.057 208.381 433.204 210.908 428.105L211.15 427.618C214.542 420.775 211.744 412.478 204.901 409.086C203.157 408.221 201.317 407.759 199.49 407.663L199.49 407.663Z" id="Şekil" fill="#000000" fill-rule="evenodd" stroke="none" clip-path="url(#clip_1)" />
    <path d="M211.866 426.493C214.651 426.639 217.027 424.5 217.173 421.715C217.319 418.93 215.18 416.554 212.395 416.408C212.047 416.39 211.705 416.407 211.373 416.457" id="Şekil" fill="#FFFFFF" fill-rule="evenodd" stroke="none" clip-path="url(#clip_1)" />
    <path d="M211.832 427.155C214.977 427.32 217.67 424.895 217.835 421.749C218 418.604 215.575 415.911 212.429 415.746C212.043 415.726 211.654 415.745 211.274 415.802C210.912 415.856 210.663 416.194 210.718 416.556C210.772 416.918 211.11 417.167 211.472 417.113C211.764 417.069 212.062 417.054 212.36 417.07C214.775 417.197 216.637 419.264 216.511 421.68C216.384 424.095 214.316 425.957 211.901 425.831C211.535 425.812 211.223 426.093 211.204 426.458C211.185 426.823 211.466 427.136 211.832 427.155L211.832 427.155Z" id="Şekil" fill="#000000" fill-rule="evenodd" stroke="none" clip-path="url(#clip_1)" />
    <path d="M209.096 417.515C206.536 417.381 204.57 415.197 204.705 412.638C204.839 410.078 207.022 408.112 209.582 408.246C212.141 408.381 214.107 410.564 213.973 413.123C213.839 415.683 211.655 417.649 209.096 417.515L209.096 417.515Z" id="Şekil" fill="#000000" stroke="none" clip-path="url(#clip_1)" />
    <path d="M201.691 413.143C199.131 413.009 197.165 410.826 197.299 408.266C197.433 405.707 199.617 403.741 202.176 403.875C204.736 404.009 206.702 406.193 206.568 408.752C206.434 411.312 204.25 413.278 201.691 413.143L201.691 413.143Z" id="Şekil" fill="#000000" stroke="none" clip-path="url(#clip_1)" />
    <path d="M192.753 412.675C190.194 412.541 188.228 410.357 188.362 407.798C188.496 405.238 190.68 403.272 193.239 403.407C195.798 403.541 197.764 405.724 197.63 408.284C197.496 410.843 195.313 412.809 192.753 412.675L192.753 412.675Z" id="Şekil" fill="#000000" stroke="none" clip-path="url(#clip_1)" />
    <path d="M184.949 415.917C182.39 415.783 180.424 413.6 180.558 411.04C180.692 408.481 182.876 406.515 185.435 406.649C187.994 406.783 189.96 408.967 189.826 411.526C189.692 414.085 187.509 416.051 184.949 415.917L184.949 415.917Z" id="Şekil" fill="#000000" stroke="none" clip-path="url(#clip_1)" />
    <path d="M196.297 426.467L193.794 426.336C193.104 426.3 192.645 425.27 192.855 424.225L194.286 417.084C194.618 415.427 196.12 415.412 196.364 417.064L197.436 424.336C197.597 425.43 197.022 426.505 196.297 426.467L196.297 426.467Z" id="Şekil" fill="#FF2A67" fill-rule="evenodd" stroke="none" clip-path="url(#clip_1)" />
    <path d="M211.439 413.987C210.434 413.934 209.57 414.832 209.509 415.993L209.014 425.432C208.955 426.554 209.695 427.504 210.667 427.555L211.253 427.586C211.969 427.623 212.584 426.984 212.627 426.158L213.15 416.184C213.211 415.023 212.445 414.039 211.439 413.987L211.439 413.987ZM185.951 412.651C184.969 412.599 184.121 413.456 184.026 414.579L184.021 414.658L183.533 423.954C183.472 425.128 184.227 426.126 185.233 426.221L185.302 426.226L185.369 426.228C186.288 426.236 187.071 425.424 187.162 424.366L187.167 424.287L187.662 414.848C187.723 413.687 186.957 412.704 185.951 412.651L185.951 412.651Z" id="Şekil" fill="#000000" fill-rule="evenodd" stroke="none" clip-path="url(#clip_1)" />
    <path d="M200.019 418.912C200.866 419.039 201.656 418.454 201.783 417.607C201.91 416.759 201.325 415.97 200.478 415.843C199.63 415.716 198.841 416.3 198.714 417.148C198.587 417.995 199.171 418.785 200.019 418.912L200.019 418.912Z" id="Şekil" fill="#000000" fill-rule="evenodd" stroke="none" clip-path="url(#clip_1)" />
    <path d="M195.446 430.867C197.177 430.958 198.941 430.39 200.327 429.142C200.599 428.897 200.621 428.478 200.376 428.206C200.131 427.934 199.712 427.912 199.44 428.157C197.211 430.164 193.765 429.983 191.758 427.754C191.513 427.482 191.094 427.46 190.822 427.705C190.55 427.95 190.528 428.369 190.773 428.641C192.021 430.027 193.716 430.777 195.446 430.867L195.446 430.867Z" id="Şekil" fill="#000000" fill-rule="evenodd" stroke="none" clip-path="url(#clip_1)" />
    <path d="M189.576 419.468C189.709 419.475 189.845 419.442 189.966 419.365L192.99 417.444C193.175 417.326 193.29 417.124 193.297 416.904C193.304 416.684 193.201 416.476 193.023 416.347L190.207 414.308C189.91 414.093 189.496 414.16 189.281 414.456C189.066 414.753 189.133 415.168 189.429 415.382L191.454 416.848L189.255 418.246C188.946 418.443 188.854 418.852 189.051 419.161C189.17 419.35 189.369 419.457 189.576 419.468L189.576 419.468Z" id="Şekil" fill="#000000" fill-rule="evenodd" stroke="none" clip-path="url(#clip_1)" />
    <path d="M197.354 413.58L205.298 413.997L205.004 419.624L197.059 419.208L197.354 413.58L197.354 413.58Z" id="Şekil" fill="#FFFFFF" stroke="none" clip-path="url(#clip_1)" />
    <path d="M186.1 412.991L194.044 413.407L193.749 419.034L185.805 418.618L186.1 412.991L186.1 412.991Z" id="Şekil" fill="#FFFFFF" stroke="none" clip-path="url(#clip_1)" />
    <path d="M197.267 412.912C196.901 412.893 196.59 413.174 196.57 413.54L196.474 415.388C196.276 415.276 196.051 415.188 195.799 415.143C195.392 415.07 194.978 415.119 194.56 415.29L194.657 413.439C194.676 413.073 194.395 412.762 194.029 412.743L185.881 412.315C185.515 412.296 185.203 412.577 185.184 412.943L184.999 416.471C184.898 418.397 186.383 420.046 188.309 420.147L191.679 420.323C193.118 420.399 194.35 419.289 194.425 417.85L194.476 416.88C194.819 416.6 195.21 416.386 195.561 416.447C195.968 416.517 196.259 416.944 196.381 417.157L196.339 417.95C196.264 419.39 197.373 420.622 198.812 420.697L202.53 420.892C204.456 420.993 206.105 419.508 206.206 417.582L206.261 416.547L210.598 417.766C210.646 417.78 210.695 417.787 210.743 417.79C211.046 417.806 211.33 417.611 211.415 417.307C211.514 416.954 211.309 416.588 210.956 416.489L206.332 415.19L206.391 414.054C206.41 413.688 206.13 413.377 205.764 413.358L197.267 412.912L197.267 412.912ZM205.159 414.42C205.344 414.715 205.269 415.099 204.995 415.303L204.95 415.334L198.776 419.212C198.656 419.288 198.521 419.32 198.389 419.313C198.181 419.302 197.981 419.193 197.862 419.003C197.677 418.709 197.752 418.325 198.026 418.12L198.071 418.089L204.245 414.211C204.555 414.017 204.965 414.11 205.159 414.42L205.159 414.42ZM193.287 413.903C193.472 414.198 193.397 414.582 193.123 414.786L193.078 414.817L187.213 418.501C187.093 418.576 186.959 418.608 186.827 418.601C186.619 418.591 186.419 418.482 186.3 418.292C186.115 417.997 186.19 417.613 186.463 417.409L186.508 417.378L192.373 413.695C192.683 413.5 193.092 413.594 193.287 413.903L193.287 413.903Z" id="Şekil" fill="#000000" fill-rule="evenodd" stroke="none" clip-path="url(#clip_1)" />
  </g>
</svg>