<?xml version="1.0" encoding="utf-8"?>
<svg width="428px" height="785px" viewBox="0 0 428 785" version="1.1" xmlns:xlink="http://www.w3.org/1999/xlink" xmlns="http://www.w3.org/2000/svg">
  <defs>
    <path d="M428 0L428 0L428 785L0 785L0 0L428 0Z" id="path_1" />
    <clipPath id="clip_1">
      <use xlink:href="#path_1" clip-rule="evenodd" fill-rule="evenodd" />
    </clipPath>
  </defs>
  <g id="Çerçeve 7">
    <path d="M428 0L428 0L428 785L0 785L0 0L428 0Z" id="Çerçeve-7" fill="none" stroke="none" />
    <path d="M256 139.5C256 62.4563 318.456 0 395.5 0C472.544 0 535 62.4563 535 139.5C535 216.544 472.544 279 395.5 279C318.456 279 256 216.544 256 139.5Z" id="Daire" fill="#FFE3D3" fill-rule="evenodd" stroke="none" clip-path="url(#clip_1)" />
    <path d="M41.5011 226.35C36.1764 226.35 31.85 230.674 31.85 235.999C31.85 241.324 36.1762 245.65 41.5011 245.65C46.826 245.65 51.15 241.324 51.15 235.999C51.15 230.674 46.8258 226.35 41.5011 226.35L41.5011 226.35ZM41.5011 227.514C46.1936 227.514 49.9864 231.306 49.9864 235.999C49.9864 240.691 46.1934 244.486 41.5011 244.486C36.8087 244.486 33.0136 240.691 33.0136 235.999C33.0136 231.307 36.8085 227.514 41.5011 227.514L41.5011 227.514Z" id="Şekil" fill="#ACB8C2" fill-rule="evenodd" stroke="#ACB8C2" stroke-width="0.3" clip-path="url(#clip_1)" />
    <path d="M36.2491 234.126C36.3566 234.015 36.5035 233.952 36.6577 233.949C36.7356 233.948 36.8129 233.963 36.885 233.992C36.9571 234.021 37.0227 234.064 37.0778 234.119C37.1328 234.174 37.1763 234.24 37.2056 234.312C37.2348 234.384 37.2493 234.461 37.2484 234.538M36.2491 234.126L37.0984 234.537M36.2491 234.126C36.142 234.236 36.0829 234.384 36.0847 234.538M36.2491 234.126L36.2347 234.537M37.2484 234.538C37.2484 234.538 37.2484 234.539 37.2483 234.539L37.0984 234.537M37.2484 234.538C37.2484 234.538 37.2484 234.537 37.2484 234.537L37.0984 234.537M37.2484 234.538C37.2488 234.951 37.5714 235.273 37.9843 235.273C38.3945 235.273 38.7196 234.95 38.7202 234.538M37.0984 234.537C37.0984 235.033 37.4882 235.423 37.9843 235.423C38.4775 235.423 38.8702 235.032 38.8702 234.537M38.7202 234.538C38.7202 234.539 38.7202 234.539 38.7202 234.539L38.8702 234.537M38.7202 234.538C38.7202 234.538 38.7202 234.537 38.7202 234.537L38.8702 234.537M38.7202 234.538C38.7192 234.461 38.7335 234.385 38.7621 234.314C38.7908 234.242 38.8335 234.177 38.8877 234.122C38.9418 234.068 39.0063 234.024 39.0774 233.994C39.1485 233.964 39.2249 233.949 39.302 233.949C39.3791 233.949 39.4554 233.964 39.5266 233.994C39.5977 234.024 39.6622 234.068 39.7163 234.122C39.7705 234.177 39.8131 234.242 39.8419 234.314C39.8705 234.385 39.8847 234.461 39.8838 234.538M38.8702 234.537L39.7338 234.537M39.8838 234.538C39.8838 234.538 39.8838 234.539 39.8838 234.539L39.7338 234.537M39.8838 234.538C39.8838 234.538 39.8838 234.537 39.8838 234.537L39.7338 234.537M39.8838 234.538C39.8833 235.583 39.0266 236.437 37.9843 236.437C36.9403 236.437 36.0853 235.582 36.0847 234.538M39.7338 234.537C39.7338 235.499 38.9442 236.287 37.9843 236.287C37.0229 236.287 36.2347 235.499 36.2347 234.537M36.0847 234.538C36.0847 234.538 36.0847 234.539 36.0847 234.539L36.2347 234.537M36.0847 234.538C36.0847 234.538 36.0847 234.537 36.0847 234.537L36.2347 234.537" id="Şekil" fill="#ACB8C2" fill-rule="evenodd" stroke="#ACB8C2" stroke-width="0.3" clip-path="url(#clip_1)" />
    <path d="M43.2806 234.126C43.3881 234.015 43.535 233.952 43.6892 233.949C43.7671 233.948 43.8443 233.963 43.9165 233.992C43.9886 234.021 44.0542 234.064 44.1093 234.119C44.1643 234.174 44.2078 234.24 44.2371 234.312C44.2663 234.384 44.2808 234.461 44.2799 234.538M43.2806 234.126L44.1299 234.537M43.2806 234.126C43.1735 234.236 43.1143 234.384 43.1162 234.538M43.2806 234.126L43.2662 234.537M44.2799 234.538C44.2798 234.538 44.2798 234.539 44.2798 234.539L44.1299 234.537M44.2799 234.538C44.2799 234.538 44.2799 234.537 44.2799 234.537L44.1299 234.537M44.2799 234.538C44.2803 234.95 44.6055 235.273 45.0158 235.273C45.4286 235.273 45.7511 234.951 45.7516 234.538M44.1299 234.537C44.1299 235.032 44.5225 235.423 45.0158 235.423C45.5118 235.423 45.9016 235.033 45.9016 234.537M45.7516 234.538C45.7517 234.539 45.7517 234.539 45.7517 234.539L45.9016 234.537M45.7516 234.538C45.7516 234.538 45.7516 234.537 45.7516 234.537L45.9016 234.537M45.7516 234.538C45.7507 234.461 45.7649 234.385 45.7936 234.314C45.8223 234.242 45.865 234.177 45.9191 234.122C45.9733 234.068 46.0378 234.024 46.1089 233.994C46.18 233.964 46.2563 233.949 46.3335 233.949C46.4106 233.949 46.4869 233.964 46.558 233.994C46.6291 234.024 46.6937 234.068 46.7478 234.122C46.8019 234.177 46.8446 234.242 46.8734 234.314C46.902 234.385 46.9162 234.461 46.9153 234.538M45.9016 234.537L46.7653 234.537M46.9153 234.538C46.9153 234.538 46.9153 234.539 46.9153 234.539L46.7653 234.537M46.9153 234.538C46.9153 234.538 46.9153 234.537 46.9153 234.537L46.7653 234.537M46.9153 234.538C46.9147 235.582 46.0597 236.437 45.0158 236.437C43.9734 236.437 43.1168 235.583 43.1162 234.538M46.7653 234.537C46.7653 235.499 45.9772 236.287 45.0158 236.287C44.0558 236.287 43.2662 235.499 43.2662 234.537M43.1162 234.538C43.1162 234.538 43.1162 234.539 43.1162 234.539L43.2662 234.537M43.1162 234.538C43.1162 234.538 43.1162 234.537 43.1162 234.537L43.2662 234.537" id="Şekil" fill="#ACB8C2" fill-rule="evenodd" stroke="#ACB8C2" stroke-width="0.3" clip-path="url(#clip_1)" />
    <path d="M46.3563 238.312L46.3563 238.312C46.4586 238.315 46.5585 238.344 46.6457 238.398C46.7329 238.452 46.8044 238.527 46.853 238.618C46.9016 238.708 46.9255 238.809 46.9224 238.912C46.9192 239.014 46.8893 239.113 46.8356 239.2C46.8355 239.2 46.8353 239.2 46.8351 239.201L46.7077 239.121C45.6455 240.887 43.7079 242.069 41.501 242.069C39.2921 242.069 37.3542 240.887 36.2941 239.121L46.3563 238.312L46.3563 238.312ZM46.3563 238.312C46.2519 238.309 46.1487 238.335 46.0576 238.385C45.9667 238.436 45.8911 238.51 45.8386 238.6C44.9532 240.071 43.3446 241.056 41.501 241.056C39.6551 241.056 38.047 240.071 37.1638 238.6C37.1253 238.534 37.074 238.476 37.0129 238.429C36.9514 238.383 36.8812 238.348 36.8064 238.329C36.7316 238.31 36.6537 238.305 36.5772 238.316C36.5008 238.327 36.4272 238.354 36.361 238.393C36.2947 238.433 36.237 238.486 36.1913 238.548C36.1456 238.61 36.1128 238.681 36.0947 238.756C36.0766 238.831 36.0737 238.909 36.0861 238.986C36.0984 239.061 36.1257 239.134 36.1662 239.199L46.3563 238.312L46.3563 238.312Z" id="Şekil" fill="#ACB8C2" fill-rule="evenodd" stroke="#ACB8C2" stroke-width="0.3" clip-path="url(#clip_1)" />
    <path d="M63.2 246.6L63.2 241.52C62.92 242.027 62.5 242.433 61.94 242.74C61.38 243.047 60.7533 243.2 60.06 243.2C59.2067 243.2 58.4533 242.993 57.8 242.58C57.16 242.167 56.66 241.58 56.3 240.82C55.94 240.047 55.76 239.14 55.76 238.1C55.76 237.047 55.94 236.147 56.3 235.4C56.66 234.64 57.16 234.053 57.8 233.64C58.4533 233.227 59.2067 233.02 60.06 233.02C60.78 233.02 61.4267 233.187 62 233.52C62.5733 233.84 62.9933 234.273 63.26 234.82L63.26 233.22L65.7 233.22L65.7 246.6L63.2 246.6L63.2 246.6ZM60.76 241.3C61.5067 241.3 62.1067 241.033 62.56 240.5C63.0133 239.953 63.24 239.153 63.24 238.1C63.24 237.033 63.0133 236.24 62.56 235.72C62.1067 235.187 61.5067 234.92 60.76 234.92C60.0133 234.92 59.4133 235.187 58.96 235.72C58.5067 236.24 58.28 237.033 58.28 238.1C58.28 239.153 58.5067 239.953 58.96 240.5C59.4133 241.033 60.0133 241.3 60.76 241.3L60.76 241.3ZM67.7922 243L67.7922 233.22L70.2322 233.22L70.2322 234.94C70.7122 233.78 71.7389 233.14 73.3122 233.02L74.0722 232.96L74.2322 235.08L72.7922 235.22C71.1522 235.38 70.3322 236.22 70.3322 237.74L70.3322 243L67.7922 243L67.7922 243ZM75.1242 246.6L75.1242 233.22L77.5642 233.22L77.5642 234.78C77.8442 234.247 78.2642 233.82 78.8242 233.5C79.3976 233.18 80.0442 233.02 80.7642 233.02C81.6176 233.02 82.3642 233.227 83.0042 233.64C83.6576 234.053 84.1642 234.64 84.5242 235.4C84.8842 236.147 85.0642 237.047 85.0642 238.1C85.0642 239.14 84.8842 240.047 84.5242 240.82C84.1642 241.58 83.6642 242.167 83.0242 242.58C82.3842 242.993 81.6309 243.2 80.7642 243.2C80.0709 243.2 79.4442 243.053 78.8842 242.76C78.3376 242.453 77.9176 242.047 77.6242 241.54L77.6242 246.6L75.1242 246.6L75.1242 246.6ZM80.0642 241.3C80.8109 241.3 81.4109 241.033 81.8642 240.5C82.3176 239.953 82.5442 239.153 82.5442 238.1C82.5442 237.033 82.3176 236.24 81.8642 235.72C81.4109 235.187 80.8109 234.92 80.0642 234.92C79.3176 234.92 78.7176 235.187 78.2642 235.72C77.8109 236.24 77.5842 237.033 77.5842 238.1C77.5842 239.153 77.8109 239.953 78.2642 240.5C78.7176 241.033 79.3176 241.3 80.0642 241.3L80.0642 241.3ZM90.3764 243.2C89.5231 243.2 88.7697 242.993 88.1164 242.58C87.4764 242.167 86.9764 241.58 86.6164 240.82C86.2564 240.047 86.0764 239.14 86.0764 238.1C86.0764 237.047 86.2564 236.147 86.6164 235.4C86.9764 234.64 87.4764 234.053 88.1164 233.64C88.7697 233.227 89.5231 233.02 90.3764 233.02C91.0697 233.02 91.6964 233.173 92.2564 233.48C92.8164 233.787 93.2364 234.193 93.5164 234.7L93.5164 228.9L96.0164 228.9L96.0164 243L93.5764 243L93.5764 241.38C93.3097 241.94 92.8897 242.387 92.3164 242.72C91.7431 243.04 91.0964 243.2 90.3764 243.2L90.3764 243.2ZM91.0764 241.3C91.8231 241.3 92.4231 241.033 92.8764 240.5C93.3297 239.953 93.5564 239.153 93.5564 238.1C93.5564 237.033 93.3297 236.24 92.8764 235.72C92.4231 235.187 91.8231 234.92 91.0764 234.92C90.3297 234.92 89.7297 235.187 89.2764 235.72C88.8231 236.24 88.5964 237.033 88.5964 238.1C88.5964 239.153 88.8231 239.953 89.2764 240.5C89.7297 241.033 90.3297 241.3 91.0764 241.3L91.0764 241.3ZM98.1086 243L98.1086 228.9L100.609 228.9L100.609 237.38L100.649 237.38L104.589 233.22L107.609 233.22L103.169 237.9L107.889 243L104.829 243L100.649 238.64L100.609 238.64L100.609 243L98.1086 243L98.1086 243ZM111.755 243.2C110.928 243.2 110.155 243.1 109.435 242.9C108.715 242.7 108.115 242.413 107.635 242.04L108.275 240.4C108.768 240.733 109.322 240.993 109.935 241.18C110.548 241.353 111.162 241.44 111.775 241.44C112.415 241.44 112.888 241.333 113.195 241.12C113.515 240.893 113.675 240.6 113.675 240.24C113.675 239.68 113.262 239.32 112.435 239.16L110.435 238.78C108.742 238.46 107.895 237.58 107.895 236.14C107.895 235.5 108.068 234.947 108.415 234.48C108.775 234.013 109.268 233.653 109.895 233.4C110.522 233.147 111.242 233.02 112.055 233.02C112.748 233.02 113.415 233.12 114.055 233.32C114.695 233.507 115.242 233.793 115.695 234.18L115.015 235.82C114.628 235.5 114.162 235.247 113.615 235.06C113.082 234.873 112.568 234.78 112.075 234.78C111.422 234.78 110.935 234.893 110.615 235.12C110.308 235.347 110.155 235.647 110.155 236.02C110.155 236.607 110.535 236.967 111.295 237.1L113.295 237.48C114.162 237.64 114.815 237.933 115.255 238.36C115.708 238.787 115.935 239.36 115.935 240.08C115.935 241.053 115.555 241.82 114.795 242.38C114.035 242.927 113.022 243.2 111.755 243.2L111.755 243.2Z" id="Şekil" fill="#ACB8C2" fill-rule="evenodd" stroke="none" clip-path="url(#clip_1)" />
    <path d="M34.695 287L34.695 262.325L39.175 262.325L39.175 272.615L51.88 272.615L51.88 262.325L56.36 262.325L56.36 287L51.88 287L51.88 276.36L39.175 276.36L39.175 287L34.695 287L34.695 287ZM60.3453 287L60.3453 269.885L64.7203 269.885L64.7203 287L60.3453 287L60.3453 287ZM67.7062 287L67.7062 284.165L76.5262 273.175L67.7062 273.175L67.7062 269.885L81.2862 269.885L81.2862 272.72L72.4662 283.71L81.6712 283.71L81.6712 287L67.7062 287L67.7062 287ZM89.7934 287.35C87.7634 287.35 86.2584 286.802 85.2784 285.705C84.3217 284.585 83.8434 282.952 83.8434 280.805L83.8434 262.325L88.2184 262.325L88.2184 280.595C88.2184 282.695 89.105 283.745 90.8784 283.745C91.135 283.745 91.3917 283.733 91.6484 283.71C91.905 283.687 92.15 283.64 92.3834 283.57L92.3134 287.035C91.4734 287.245 90.6334 287.35 89.7934 287.35L89.7934 287.35ZM94.0201 287L94.0201 269.885L98.3951 269.885L98.3951 287L94.0201 287L94.0201 287ZM115.415 287L107.995 269.885L112.65 269.885L117.41 281.855L122.345 269.885L126.72 269.885L119.195 287L115.415 287L115.415 287ZM135.925 287.35C133.988 287.35 132.32 286.988 130.92 286.265C129.52 285.542 128.435 284.515 127.665 283.185C126.918 281.855 126.545 280.28 126.545 278.46C126.545 276.687 126.907 275.135 127.63 273.805C128.377 272.475 129.392 271.437 130.675 270.69C131.982 269.92 133.463 269.535 135.12 269.535C137.547 269.535 139.46 270.305 140.86 271.845C142.283 273.385 142.995 275.485 142.995 278.145L142.995 279.44L130.745 279.44C131.072 282.497 132.822 284.025 135.995 284.025C136.952 284.025 137.908 283.885 138.865 283.605C139.822 283.302 140.697 282.835 141.49 282.205L142.715 285.145C141.898 285.822 140.872 286.358 139.635 286.755C138.398 287.152 137.162 287.35 135.925 287.35L135.925 287.35ZM135.295 272.51C134.012 272.51 132.973 272.907 132.18 273.7C131.387 274.493 130.908 275.567 130.745 276.92L139.355 276.92C139.262 275.497 138.865 274.412 138.165 273.665C137.488 272.895 136.532 272.51 135.295 272.51L135.295 272.51ZM166.178 287.35C163.448 287.35 161.138 286.837 159.248 285.81C157.381 284.783 155.958 283.325 154.978 281.435C153.998 279.545 153.508 277.305 153.508 274.715C153.508 272.102 154.01 269.85 155.013 267.96C156.016 266.047 157.463 264.577 159.353 263.55C161.243 262.5 163.506 261.975 166.143 261.975C167.87 261.975 169.491 262.232 171.008 262.745C172.525 263.235 173.785 263.923 174.788 264.81L173.283 268.31C172.186 267.447 171.066 266.828 169.923 266.455C168.78 266.082 167.52 265.895 166.143 265.895C163.53 265.895 161.546 266.653 160.193 268.17C158.863 269.687 158.198 271.868 158.198 274.715C158.198 277.585 158.886 279.767 160.263 281.26C161.64 282.753 163.681 283.5 166.388 283.5C167.158 283.5 167.94 283.442 168.733 283.325C169.55 283.185 170.355 282.987 171.148 282.73L171.148 276.99L165.478 276.99L165.478 273.665L174.893 273.665L174.893 285.53C173.75 286.09 172.396 286.533 170.833 286.86C169.27 287.187 167.718 287.35 166.178 287.35L166.178 287.35ZM184.86 287.35C180.66 287.35 178.56 284.993 178.56 280.28L178.56 269.885L182.935 269.885L182.935 280.35C182.935 281.563 183.18 282.462 183.67 283.045C184.16 283.628 184.941 283.92 186.015 283.92C187.181 283.92 188.138 283.523 188.885 282.73C189.631 281.913 190.005 280.84 190.005 279.51L190.005 269.885L194.38 269.885L194.38 287L190.11 287L190.11 284.445C188.966 286.382 187.216 287.35 184.86 287.35L184.86 287.35ZM187.765 266.07L187.765 262.045L191.825 262.045L191.825 266.07L187.765 266.07L187.765 266.07ZM181.185 266.07L181.185 262.045L185.245 262.045L185.245 266.07L181.185 266.07L181.185 266.07ZM202.973 287L195.553 269.885L200.208 269.885L204.968 281.855L209.903 269.885L214.278 269.885L206.753 287L202.973 287L202.973 287ZM223.483 287.35C221.547 287.35 219.878 286.988 218.478 286.265C217.078 285.542 215.993 284.515 215.223 283.185C214.477 281.855 214.103 280.28 214.103 278.46C214.103 276.687 214.465 275.135 215.188 273.805C215.935 272.475 216.95 271.437 218.233 270.69C219.54 269.92 221.022 269.535 222.678 269.535C225.105 269.535 227.018 270.305 228.418 271.845C229.842 273.385 230.553 275.485 230.553 278.145L230.553 279.44L218.303 279.44C218.63 282.497 220.38 284.025 223.553 284.025C224.51 284.025 225.467 283.885 226.423 283.605C227.38 283.302 228.255 282.835 229.048 282.205L230.273 285.145C229.457 285.822 228.43 286.358 227.193 286.755C225.957 287.152 224.72 287.35 223.483 287.35L223.483 287.35ZM222.853 272.51C221.57 272.51 220.532 272.907 219.738 273.7C218.945 274.493 218.467 275.567 218.303 276.92L226.913 276.92C226.82 275.497 226.423 274.412 225.723 273.665C225.047 272.895 224.09 272.51 222.853 272.51L222.853 272.51ZM233.018 287L233.018 269.885L237.288 269.885L237.288 272.545C237.871 271.565 238.653 270.818 239.633 270.305C240.636 269.792 241.756 269.535 242.993 269.535C247.03 269.535 249.048 271.88 249.048 276.57L249.048 287L244.673 287L244.673 276.78C244.673 275.45 244.416 274.482 243.903 273.875C243.413 273.268 242.643 272.965 241.593 272.965C240.31 272.965 239.283 273.373 238.513 274.19C237.766 274.983 237.393 276.045 237.393 277.375L237.393 287L233.018 287L233.018 287ZM258.442 287.35C256.412 287.35 254.907 286.802 253.927 285.705C252.97 284.585 252.492 282.952 252.492 280.805L252.492 262.325L256.867 262.325L256.867 280.595C256.867 282.695 257.753 283.745 259.527 283.745C259.783 283.745 260.04 283.733 260.297 283.71C260.553 283.687 260.798 283.64 261.032 283.57L260.962 287.035C260.122 287.245 259.282 287.35 258.442 287.35L258.442 287.35ZM262.389 266.21L262.389 261.94L267.289 261.94L267.289 266.21L262.389 266.21L262.389 266.21ZM262.669 287L262.669 269.885L267.044 269.885L267.044 287L262.669 287L262.669 287ZM34.695 326L34.695 301.325L45.405 301.325C48.1117 301.325 50.2 302.002 51.67 303.355C53.14 304.708 53.875 306.598 53.875 309.025C53.875 311.452 53.14 313.353 51.67 314.73C50.2 316.083 48.1117 316.76 45.405 316.76L39.175 316.76L39.175 326L34.695 326L34.695 326ZM39.175 313.225L44.705 313.225C47.925 313.225 49.535 311.825 49.535 309.025C49.535 306.248 47.925 304.86 44.705 304.86L39.175 304.86L39.175 313.225L39.175 313.225ZM63.6534 326.35C61.7167 326.35 60.0484 325.988 58.6484 325.265C57.2484 324.542 56.1634 323.515 55.3934 322.185C54.6467 320.855 54.2734 319.28 54.2734 317.46C54.2734 315.687 54.635 314.135 55.3584 312.805C56.105 311.475 57.12 310.437 58.4034 309.69C59.71 308.92 61.1917 308.535 62.8484 308.535C65.275 308.535 67.1884 309.305 68.5884 310.845C70.0117 312.385 70.7234 314.485 70.7234 317.145L70.7234 318.44L58.4734 318.44C58.8 321.497 60.55 323.025 63.7234 323.025C64.68 323.025 65.6367 322.885 66.5934 322.605C67.55 322.302 68.425 321.835 69.2184 321.205L70.4434 324.145C69.6267 324.822 68.6 325.358 67.3634 325.755C66.1267 326.152 64.89 326.35 63.6534 326.35L63.6534 326.35ZM63.0234 311.51C61.74 311.51 60.7017 311.907 59.9084 312.7C59.115 313.493 58.6367 314.567 58.4734 315.92L67.0834 315.92C66.99 314.497 66.5934 313.412 65.8934 312.665C65.2167 311.895 64.26 311.51 63.0234 311.51L63.0234 311.51ZM73.1881 326L73.1881 308.885L77.4581 308.885L77.4581 311.895C78.2981 309.865 80.0948 308.745 82.8481 308.535L84.1781 308.43L84.4581 312.14L81.9381 312.385C79.0681 312.665 77.6331 314.135 77.6331 316.795L77.6331 326L73.1881 326L73.1881 326ZM91.9882 326.35C90.5416 326.35 89.1882 326.175 87.9282 325.825C86.6682 325.475 85.6182 324.973 84.7782 324.32L85.8982 321.45C86.7616 322.033 87.7299 322.488 88.8032 322.815C89.8766 323.118 90.9499 323.27 92.0232 323.27C93.1432 323.27 93.9716 323.083 94.5082 322.71C95.0682 322.313 95.3482 321.8 95.3482 321.17C95.3482 320.19 94.6249 319.56 93.1782 319.28L89.6782 318.615C86.7149 318.055 85.2332 316.515 85.2332 313.995C85.2332 312.875 85.5366 311.907 86.1432 311.09C86.7732 310.273 87.6366 309.643 88.7332 309.2C89.8299 308.757 91.0899 308.535 92.5132 308.535C93.7266 308.535 94.8932 308.71 96.0132 309.06C97.1332 309.387 98.0899 309.888 98.8832 310.565L97.6932 313.435C97.0166 312.875 96.1999 312.432 95.2432 312.105C94.3099 311.778 93.4116 311.615 92.5482 311.615C91.4049 311.615 90.5532 311.813 89.9932 312.21C89.4566 312.607 89.1882 313.132 89.1882 313.785C89.1882 314.812 89.8532 315.442 91.1832 315.675L94.6832 316.34C96.1999 316.62 97.3432 317.133 98.1132 317.88C98.9066 318.627 99.3032 319.63 99.3032 320.89C99.3032 322.593 98.6382 323.935 97.3082 324.915C95.9782 325.872 94.2049 326.35 91.9882 326.35L91.9882 326.35ZM109.618 326.35C107.845 326.35 106.305 325.988 104.998 325.265C103.691 324.542 102.676 323.515 101.953 322.185C101.23 320.832 100.868 319.245 100.868 317.425C100.868 315.605 101.23 314.03 101.953 312.7C102.676 311.37 103.691 310.343 104.998 309.62C106.305 308.897 107.845 308.535 109.618 308.535C111.391 308.535 112.931 308.897 114.238 309.62C115.545 310.343 116.56 311.37 117.283 312.7C118.006 314.03 118.368 315.605 118.368 317.425C118.368 319.245 118.006 320.832 117.283 322.185C116.56 323.515 115.545 324.542 114.238 325.265C112.931 325.988 111.391 326.35 109.618 326.35L109.618 326.35ZM109.618 323.025C110.925 323.025 111.975 322.558 112.768 321.625C113.561 320.668 113.958 319.268 113.958 317.425C113.958 315.558 113.561 314.17 112.768 313.26C111.975 312.327 110.925 311.86 109.618 311.86C108.311 311.86 107.261 312.327 106.468 313.26C105.675 314.17 105.278 315.558 105.278 317.425C105.278 319.268 105.675 320.668 106.468 321.625C107.261 322.558 108.311 323.025 109.618 323.025L109.618 323.025ZM120.979 326L120.979 308.885L125.249 308.885L125.249 311.545C125.832 310.565 126.614 309.818 127.594 309.305C128.597 308.792 129.717 308.535 130.954 308.535C134.991 308.535 137.009 310.88 137.009 315.57L137.009 326L132.634 326L132.634 315.78C132.634 314.45 132.377 313.482 131.864 312.875C131.374 312.268 130.604 311.965 129.554 311.965C128.271 311.965 127.244 312.373 126.474 313.19C125.727 313.983 125.354 315.045 125.354 316.375L125.354 326L120.979 326L120.979 326ZM148.888 326.35C146.951 326.35 145.283 325.988 143.883 325.265C142.483 324.542 141.398 323.515 140.628 322.185C139.881 320.855 139.508 319.28 139.508 317.46C139.508 315.687 139.869 314.135 140.593 312.805C141.339 311.475 142.354 310.437 143.638 309.69C144.944 308.92 146.426 308.535 148.083 308.535C150.509 308.535 152.423 309.305 153.823 310.845C155.246 312.385 155.958 314.485 155.958 317.145L155.958 318.44L143.708 318.44C144.034 321.497 145.784 323.025 148.958 323.025C149.914 323.025 150.871 322.885 151.828 322.605C152.784 322.302 153.659 321.835 154.453 321.205L155.678 324.145C154.861 324.822 153.834 325.358 152.598 325.755C151.361 326.152 150.124 326.35 148.888 326.35L148.888 326.35ZM148.258 311.51C146.974 311.51 145.936 311.907 145.143 312.7C144.349 313.493 143.871 314.567 143.708 315.92L152.318 315.92C152.224 314.497 151.828 313.412 151.128 312.665C150.451 311.895 149.494 311.51 148.258 311.51L148.258 311.51ZM164.372 326.35C162.342 326.35 160.837 325.802 159.857 324.705C158.901 323.585 158.422 321.952 158.422 319.805L158.422 301.325L162.797 301.325L162.797 319.595C162.797 321.695 163.684 322.745 165.457 322.745C165.714 322.745 165.971 322.733 166.227 322.71C166.484 322.687 166.729 322.64 166.962 322.57L166.892 326.035C166.052 326.245 165.212 326.35 164.372 326.35L164.372 326.35ZM183.403 326L183.403 305.07L174.933 305.07L174.933 301.325L196.353 301.325L196.353 305.07L187.883 305.07L187.883 326L183.403 326L183.403 326ZM200.672 326.35C199.435 326.35 198.327 326.117 197.347 325.65C196.39 325.16 195.632 324.507 195.072 323.69C194.535 322.873 194.267 321.952 194.267 320.925C194.267 319.665 194.593 318.673 195.247 317.95C195.9 317.203 196.962 316.667 198.432 316.34C199.902 316.013 201.873 315.85 204.347 315.85L205.572 315.85L205.572 315.115C205.572 313.948 205.315 313.108 204.802 312.595C204.288 312.082 203.425 311.825 202.212 311.825C201.255 311.825 200.275 311.977 199.272 312.28C198.268 312.56 197.253 313.003 196.227 313.61L194.967 310.635C195.573 310.215 196.285 309.853 197.102 309.55C197.942 309.223 198.817 308.978 199.727 308.815C200.66 308.628 201.535 308.535 202.352 308.535C204.848 308.535 206.703 309.118 207.917 310.285C209.13 311.428 209.737 313.213 209.737 315.64L209.737 326L205.642 326L205.642 323.27C205.245 324.227 204.615 324.985 203.752 325.545C202.888 326.082 201.862 326.35 200.672 326.35L200.672 326.35ZM201.582 323.34C202.725 323.34 203.67 322.943 204.417 322.15C205.187 321.357 205.572 320.353 205.572 319.14L205.572 318.37L204.382 318.37C202.188 318.37 200.66 318.545 199.797 318.895C198.957 319.222 198.537 319.828 198.537 320.715C198.537 321.485 198.805 322.115 199.342 322.605C199.878 323.095 200.625 323.34 201.582 323.34L201.582 323.34ZM213.177 326L213.177 301.325L217.552 301.325L217.552 316.165L217.622 316.165L224.517 308.885L229.802 308.885L222.032 317.075L230.292 326L224.937 326L217.622 318.37L217.552 318.37L217.552 326L213.177 326L213.177 326ZM230.662 305.21L230.662 300.94L235.562 300.94L235.562 305.21L230.662 305.21L230.662 305.21ZM230.942 326L230.942 308.885L235.317 308.885L235.317 326L230.942 326L230.942 326ZM248.733 326.35C247.473 326.35 246.341 326.07 245.338 325.51C244.358 324.95 243.623 324.192 243.133 323.235L243.133 326L238.863 326L238.863 301.325L243.238 301.325L243.238 311.405C243.751 310.542 244.486 309.853 245.443 309.34C246.423 308.803 247.52 308.535 248.733 308.535C250.25 308.535 251.568 308.897 252.688 309.62C253.808 310.343 254.683 311.37 255.313 312.7C255.943 314.007 256.258 315.582 256.258 317.425C256.258 319.245 255.943 320.832 255.313 322.185C254.683 323.515 253.796 324.542 252.653 325.265C251.533 325.988 250.226 326.35 248.733 326.35L248.733 326.35ZM247.508 323.025C248.815 323.025 249.865 322.558 250.658 321.625C251.451 320.668 251.848 319.268 251.848 317.425C251.848 315.558 251.451 314.17 250.658 313.26C249.865 312.327 248.815 311.86 247.508 311.86C246.201 311.86 245.151 312.327 244.358 313.26C243.565 314.17 243.168 315.558 243.168 317.425C243.168 319.268 243.565 320.668 244.358 321.625C245.151 322.558 246.201 323.025 247.508 323.025L247.508 323.025ZM258.569 305.21L258.569 300.94L263.469 300.94L263.469 305.21L258.569 305.21L258.569 305.21ZM258.849 326L258.849 308.885L263.224 308.885L263.224 326L258.849 326L258.849 326Z" id="Şekil" fill="#191D21" fill-rule="evenodd" stroke="none" clip-path="url(#clip_1)" />
    <path d="M281.195 470.393C272.522 461.774 261.509 456.402 249.346 454.858L249.028 454.817L249.082 454.504C251.213 442.191 247.191 429.579 238.324 420.766C231.468 413.952 222.362 409.967 212.683 409.544C203.065 409.123 193.703 412.24 186.32 418.32L186.118 418.486L185.922 418.313C164.609 399.643 137.185 389.824 108.7 390.659C80.0919 391.5 53.186 403.045 32.9382 423.168L32.5047 422.737C52.8632 402.504 79.9167 390.895 108.682 390.05C137.234 389.208 164.729 399.023 186.131 417.685C193.6 411.618 203.024 408.51 212.71 408.935C222.542 409.365 231.793 413.413 238.757 420.335C247.69 429.213 251.782 441.886 249.739 454.294C261.914 455.908 272.934 461.321 281.628 469.963L281.195 470.393L281.195 470.393Z" id="Şekil" fill="#000000" fill-rule="evenodd" stroke="none" clip-path="url(#clip_1)" />
    <path d="M13.4305 553.798C2.40445 527.402 1.95899 498.161 12.1755 471.462C22.3478 444.879 42.0778 423.365 67.7304 410.884L68.0004 411.43C42.4882 423.843 22.8659 445.24 12.7489 471.679C2.58803 498.232 3.03123 527.313 13.9969 553.565L13.4305 553.798L13.4305 553.798Z" id="Şekil" fill="#000000" fill-rule="evenodd" stroke="none" clip-path="url(#clip_1)" />
    <path d="M271.443 533.46L271.083 532.964C278.923 527.407 284.366 519.195 286.41 509.84C288.467 500.426 286.888 490.657 281.964 482.336C275.596 471.572 264.269 464.504 251.665 463.428L251.718 462.821C264.522 463.914 276.028 471.094 282.497 482.028C287.499 490.482 289.103 500.405 287.013 509.969C284.937 519.471 279.407 527.814 271.443 533.46L271.443 533.46Z" id="Şekil" fill="#000000" fill-rule="evenodd" stroke="none" clip-path="url(#clip_1)" />
    <path d="M422.67 614.308C464.139 559.946 458.991 483.339 410.311 434.946C362.723 387.639 285.571 387.639 237.984 434.946C188.814 483.827 184.056 561.496 226.897 615.948L324.148 739.556L421.4 615.948L422.67 614.308L422.67 614.308ZM257.23 529.204C257.23 492.385 287.254 462.537 324.29 462.537C361.328 462.537 391.351 492.385 391.351 529.204C391.351 566.023 361.328 595.871 324.29 595.871C287.254 595.871 257.23 566.023 257.23 529.204L257.23 529.204Z" id="Şekil" fill="#FFFFFF" fill-rule="evenodd" stroke="none" clip-path="url(#clip_1)" />
    <path d="M410.311 434.946C362.723 387.639 285.571 387.639 237.984 434.946C188.814 483.827 184.056 561.496 226.897 615.948L324.148 739.556L421.4 615.948L422.67 614.308C464.139 559.946 458.991 483.339 410.311 434.946L410.311 434.946ZM238.59 435.547C285.842 388.573 362.452 388.573 409.706 435.547L411.158 437.013L412.571 438.481C458.74 487.188 462.453 562.387 420.724 615.424L324.148 738.175L227.571 615.424L226.308 613.793C185.096 559.77 190.214 483.639 238.59 435.547L238.59 435.547ZM324.29 461.686C361.799 461.686 392.207 491.915 392.207 529.204C392.207 566.493 361.799 596.722 324.29 596.722C286.781 596.722 256.374 566.493 256.374 529.204C256.374 491.915 286.781 461.686 324.29 461.686L324.29 461.686ZM257.23 529.204C257.23 492.385 287.254 462.537 324.29 462.537C361.328 462.537 391.351 492.385 391.351 529.204C391.351 566.023 361.328 595.871 324.29 595.871C287.254 595.871 257.23 566.023 257.23 529.204L257.23 529.204Z" id="Şekil" fill="#000000" fill-rule="evenodd" stroke="none" clip-path="url(#clip_1)" />
    <path d="M244.959 765.801L403.337 765.801L403.337 783.957L244.959 783.957L244.959 765.801L244.959 765.801ZM402.48 783.106L402.48 766.652L245.815 766.652L245.815 783.106L402.48 783.106L402.48 783.106Z" id="Şekil" fill="#000000" fill-rule="evenodd" stroke="none" clip-path="url(#clip_1)" />
    <path d="M281.343 748.779L366.953 748.779C376.538 748.779 384.346 756.425 384.5 765.942L384.505 766.652L263.793 766.652L263.793 766.226C263.793 756.589 271.65 748.779 281.343 748.779L281.343 748.779ZM367.226 749.633L366.953 749.63L281.343 749.63C272.308 749.63 264.949 756.765 264.658 765.679L264.655 765.801L383.641 765.801L383.638 765.681C383.35 756.847 376.127 749.775 367.226 749.633L367.226 749.633Z" id="Şekil" fill="#000000" fill-rule="evenodd" stroke="none" clip-path="url(#clip_1)" />
    <path d="M104.392 449.266C99.9878 453.64 92.8471 453.64 88.4431 449.266C84.0388 444.891 84.0388 437.798 88.4431 433.423C92.8471 429.048 99.9878 429.048 104.392 433.423C108.796 437.798 108.796 444.891 104.392 449.266L104.392 449.266Z" id="Şekil" fill="#FFFFFF" fill-rule="evenodd" stroke="none" clip-path="url(#clip_1)" />
    <path d="M88.1403 449.566C92.6659 454.062 99.9753 454.107 104.557 449.701L104.695 449.566L104.83 449.429C109.266 444.878 109.22 437.617 104.695 433.122C100.123 428.581 92.7119 428.581 88.1403 433.122C83.5688 437.663 83.5688 445.025 88.1403 449.566L88.1403 449.566ZM104.089 433.724C108.284 437.89 108.326 444.62 104.215 448.837L104.089 448.964L103.962 449.089C99.7153 453.173 92.9402 453.131 88.7456 448.964C84.5085 444.756 84.5085 437.933 88.7456 433.724C92.9827 429.515 99.8523 429.515 104.089 433.724L104.089 433.724Z" id="Şekil" fill="#000000" fill-rule="evenodd" stroke="none" clip-path="url(#clip_1)" />
    <path d="M100.91 444.315C101.075 444.116 101.372 444.087 101.572 444.251C101.772 444.415 101.801 444.71 101.636 444.908C101.471 445.107 101.174 445.136 100.974 444.972C100.774 444.808 100.745 444.514 100.91 444.315L100.91 444.315Z" id="Şekil" fill="#000000" fill-rule="evenodd" stroke="none" clip-path="url(#clip_1)" />
    <path d="M95.5849 449.604C95.7499 449.406 96.0461 449.377 96.2464 449.541C96.4467 449.705 96.475 449.999 96.3101 450.198C96.1451 450.397 95.8489 450.425 95.6486 450.262C95.4485 450.098 95.4197 449.804 95.5849 449.604L95.5849 449.604Z" id="Şekil" fill="#000000" fill-rule="evenodd" stroke="none" clip-path="url(#clip_1)" />
    <path d="M94.9586 443.07C95.1235 442.871 95.4197 442.843 95.6198 443.007C95.8201 443.171 95.8486 443.465 95.6837 443.664C95.5187 443.863 95.2225 443.891 95.0222 443.727C94.8219 443.563 94.7933 443.269 94.9586 443.07L94.9586 443.07Z" id="Şekil" fill="#000000" fill-rule="evenodd" stroke="none" clip-path="url(#clip_1)" />
    <path d="M89.6328 448.36C89.798 448.161 90.0939 448.133 90.2943 448.297C90.4946 448.46 90.5231 448.755 90.3582 448.954C90.1932 449.152 89.897 449.181 89.6967 449.017C89.4964 448.853 89.4678 448.559 89.6328 448.36L89.6328 448.36Z" id="Şekil" fill="#000000" fill-rule="evenodd" stroke="none" clip-path="url(#clip_1)" />
    <path d="M88.6928 442.447C88.858 442.249 89.1542 442.22 89.3543 442.384C89.5546 442.548 89.5831 442.842 89.4182 443.041C89.2532 443.24 88.957 443.268 88.7567 443.104C88.5564 442.94 88.5278 442.646 88.6928 442.447L88.6928 442.447Z" id="Şekil" fill="#000000" fill-rule="evenodd" stroke="none" clip-path="url(#clip_1)" />
    <path d="M87.7531 436.224C87.9183 436.025 88.2142 435.997 88.4146 436.161C88.6149 436.325 88.6434 436.619 88.4785 436.818C88.3135 437.017 88.0173 437.045 87.817 436.881C87.6167 436.717 87.5881 436.423 87.7531 436.224L87.7531 436.224Z" id="Şekil" fill="#000000" fill-rule="evenodd" stroke="none" clip-path="url(#clip_1)" />
    <path d="M7.50591 615.916C20.0075 627.851 35.3487 636.981 51.7774 642.459L43.9193 666.09C28.2645 660.942 13.6144 652.943 0.612635 642.896C-0.441219 642.41 -0.498861 643.747 -2.04354 644.86C-7.39642 650.111 -15.805 649.122 -20.8123 643.675L7.50591 615.916L7.50591 615.916Z" id="Şekil" fill="#FFFFFF" fill-rule="evenodd" stroke="none" clip-path="url(#clip_1)" />
    <path d="M44.3716 666.832C28.4186 661.682 13.4863 653.56 0.261326 643.344C-5.23709 650.439 -15.1002 651.137 -22 643.283C-15.3767 637.09 1.0047 621.773 7.80638 615.413C20.3776 627.454 35.884 636.652 52.4632 642.082L44.3716 666.832L44.3716 666.832ZM43.4722 665.351L51.0857 642.834C34.8858 637.335 19.7772 628.323 7.37605 616.588C1.18648 622.788 -13.8066 637.806 -19.8172 643.826C-14.0611 649.622 -5.39176 648.681 -0.701782 642.612C-0.319393 642.106 0.473066 642.049 0.963326 642.449C3.35126 644.286 5.77201 646.075 8.26667 647.756C15.7304 652.852 23.6441 657.252 31.9406 660.894C35.6223 662.526 39.6545 664.073 43.4722 665.351L43.4722 665.351Z" id="Şekil" fill="#000000" fill-rule="evenodd" stroke="none" clip-path="url(#clip_1)" />
    <path d="M-17.4977 646.501L-18.3315 645.726L8.66955 617.015L9.50339 617.79L-17.4977 646.501L-17.4977 646.501Z" id="Şekil" fill="#000000" fill-rule="evenodd" stroke="none" clip-path="url(#clip_1)" />
    <path d="M1.45842 643.552C-1.83012 641.032 -4.9757 638.43 -8.02771 635.6L1.45842 643.552L1.45842 643.552Z" id="Şekil" fill="#FFFFFF" fill-rule="evenodd" stroke="none" clip-path="url(#clip_1)" />
    <path d="M1.45818 644.12C1.33661 644.12 1.2139 644.082 1.11003 644.002C-2.43107 641.288 -5.54753 638.675 -8.41691 636.015C-8.64748 635.801 -8.66004 635.442 -8.44487 635.213C-8.22999 634.984 -7.86901 634.971 -7.63843 635.185C-4.79531 637.821 -1.70566 640.411 1.80718 643.103C2.05659 643.295 2.1031 643.651 1.91048 643.899C1.79805 644.044 1.62911 644.12 1.45818 644.12L1.45818 644.12Z" id="Şekil" fill="#000000" fill-rule="evenodd" stroke="none" clip-path="url(#clip_1)" />
    <path d="M142.842 783.262C143.197 763.206 144.291 743.207 145.947 723.222L170.897 725.295C169.647 740.272 168.756 755.293 168.221 770.309C168.205 770.633 168.5 770.91 168.823 770.892C174.91 770.909 183.004 775.563 182.609 783.775L142.842 783.262L142.842 783.262Z" id="Şekil" fill="#FFFFFF" fill-rule="evenodd" stroke="none" clip-path="url(#clip_1)" />
    <path d="M171.511 724.782C170.244 739.913 169.329 755.165 168.792 770.328C175.383 770.36 183.766 775.366 183.182 784.258C174.09 784.177 151.602 783.976 142.264 783.893C142.598 763.452 143.732 742.975 145.425 722.599L171.511 724.782L171.511 724.782ZM170.283 725.808L146.47 723.845C144.853 743.417 143.791 763.034 143.423 782.671C152.208 782.801 173.489 783.115 182.021 783.24C182.15 775.596 174.285 771.449 168.804 771.453C168.177 771.469 167.618 770.915 167.651 770.289C168.181 755.451 169.052 740.608 170.283 725.808L170.283 725.808Z" id="Şekil" fill="#000000" fill-rule="evenodd" stroke="none" clip-path="url(#clip_1)" />
    <path d="M168.257 769.309C168.126 773.136 168.003 776.968 167.928 780.778L168.257 769.309L168.257 769.309Z" id="Şekil" fill="#FFFFFF" fill-rule="evenodd" stroke="none" clip-path="url(#clip_1)" />
    <path d="M167.928 781.345C167.925 781.345 167.921 781.345 167.917 781.345C167.602 781.339 167.351 781.08 167.358 780.767C167.433 776.899 167.561 772.965 167.687 769.29C167.697 768.977 167.96 768.737 168.277 768.742C168.592 768.753 168.838 769.015 168.827 769.329C168.701 772.999 168.574 776.928 168.499 780.789C168.493 781.099 168.238 781.345 167.928 781.345L167.928 781.345Z" id="Şekil" fill="#000000" fill-rule="evenodd" stroke="none" clip-path="url(#clip_1)" />
    <path d="M173.872 771.979C173.791 774.601 173.673 778.312 173.628 780.891L173.872 771.979L173.872 771.979Z" id="Şekil" fill="#FFFFFF" fill-rule="evenodd" stroke="none" clip-path="url(#clip_1)" />
    <path d="M173.628 781.459C173.625 781.459 173.621 781.459 173.618 781.459C173.303 781.453 173.052 781.195 173.058 780.882C173.099 778.526 173.199 775.285 173.28 772.68L173.302 771.962C173.311 771.648 173.575 771.403 173.89 771.412C174.205 771.422 174.452 771.683 174.443 771.996L174.42 772.715C174.34 775.316 174.24 778.553 174.199 780.902C174.193 781.211 173.939 781.459 173.628 781.459L173.628 781.459Z" id="Şekil" fill="#000000" fill-rule="evenodd" stroke="none" clip-path="url(#clip_1)" />
    <path d="M177.091 758.808L137.933 756.951C139.537 721.217 143.459 685.472 149.622 650.191C154.06 623.079 158.653 596.049 163.335 569.027C165.175 558.408 175.335 551.293 185.998 553.15C196.66 555.009 203.8 565.071 201.968 575.647C196.149 609.288 190.427 642.939 185.064 676.622C180.844 703.723 178.428 731.398 177.091 758.808L177.091 758.808Z" id="Şekil" fill="#FF5812" fill-rule="evenodd" stroke="none" clip-path="url(#clip_1)" />
    <path d="M143.011 757.759C143.004 757.759 142.996 757.759 142.989 757.758C142.674 757.746 142.428 757.483 142.44 757.17C144.54 703.08 154.045 648.809 163.237 596.324C165.543 583.161 167.926 569.551 170.153 556.172C170.204 555.863 170.498 555.653 170.809 555.705C171.12 555.756 171.33 556.048 171.279 556.357C169.052 569.741 166.668 583.354 164.362 596.519C155.176 648.966 145.678 703.199 143.581 757.213C143.569 757.519 143.316 757.759 143.011 757.759L143.011 757.759Z" id="Şekil" fill="#000000" fill-rule="evenodd" stroke="none" clip-path="url(#clip_1)" />
    <path d="M152.679 758.217C152.671 758.217 152.664 758.217 152.656 758.217C152.341 758.204 152.096 757.941 152.108 757.627C154.271 703.12 163.901 648.373 173.213 595.429C175.705 581.264 178.281 566.618 180.669 552.228C180.72 551.919 181.014 551.709 181.325 551.761C181.635 551.812 181.846 552.104 181.795 552.413C179.406 566.808 176.83 581.457 174.338 595.624C165.032 648.532 155.409 703.241 153.249 757.672C153.237 757.978 152.984 758.217 152.679 758.217L152.679 758.217Z" id="Şekil" fill="#000000" fill-rule="evenodd" stroke="none" clip-path="url(#clip_1)" />
    <path d="M162.346 758.676C162.339 758.676 162.331 758.676 162.323 758.675C162.009 758.663 161.763 758.399 161.776 758.086C163.928 704.036 173.476 649.781 182.708 597.313C185.214 583.076 187.804 568.354 190.202 553.886C190.253 553.577 190.547 553.367 190.858 553.419C191.169 553.47 191.379 553.762 191.328 554.071C188.93 568.544 186.338 583.268 183.833 597.508C174.607 649.94 165.066 704.156 162.916 758.131C162.904 758.436 162.651 758.676 162.346 758.676L162.346 758.676Z" id="Şekil" fill="#000000" fill-rule="evenodd" stroke="none" clip-path="url(#clip_1)" />
    <path d="M172.013 759.134C172.006 759.134 171.998 759.134 171.991 759.134C171.676 759.122 171.43 758.858 171.443 758.545C173.51 705.844 182.762 653.085 191.709 602.063C194.062 588.644 196.495 574.769 198.758 561.117C198.81 560.807 199.103 560.598 199.414 560.649C199.726 560.7 199.936 560.992 199.885 561.301C197.621 574.958 195.187 588.836 192.834 602.257C183.893 653.243 174.648 705.964 172.583 758.589C172.571 758.895 172.318 759.134 172.013 759.134L172.013 759.134Z" id="Şekil" fill="#000000" fill-rule="evenodd" stroke="none" clip-path="url(#clip_1)" />
    <path d="M182.392 781.634L142.862 780.847L142.885 779.712L182.414 780.499L182.392 781.634L182.392 781.634Z" id="Şekil" fill="#000000" fill-rule="evenodd" stroke="none" clip-path="url(#clip_1)" />
    <path d="M128.565 565.811C128.696 523.808 204.353 523.812 204.476 565.813C204.345 607.814 128.688 607.81 128.565 565.811L128.565 565.811Z" id="Şekil" fill="#000000" fill-rule="evenodd" stroke="none" clip-path="url(#clip_1)" />
    <path d="M6.41833 657.231L27.7959 624.563C44.2144 635.239 63.6657 641.939 83.3721 641.811C91.4999 641.731 100.185 641.051 106.593 635.542C119.304 624.423 123.439 606.574 126.218 590.094C127.193 583.593 127.805 576.896 128.095 570.152C128.583 559.602 136.874 550.914 147.567 550.159C159.345 549.275 167.866 560.175 167.262 571.808C166.001 596.727 162.022 621.725 149.476 644.045C140.174 660.848 123.838 674.654 104.634 678.698C70.735 685.341 35.0033 675.789 6.41833 657.231L6.41833 657.231Z" id="Şekil" fill="#000000" fill-rule="evenodd" stroke="none" clip-path="url(#clip_1)" />
    <path d="M283.395 443.19C251.753 445.7 257.121 436.889 256.863 469.308L283.806 469.715C283.937 460.776 283.76 451.953 283.395 443.19L283.395 443.19Z" id="Şekil" fill="#FFFFFF" fill-rule="evenodd" stroke="none" clip-path="url(#clip_1)" />
    <path d="M257.436 468.749L283.244 469.139C283.349 461.216 283.218 452.915 282.847 443.801C276.369 444.294 271.424 444.314 267.785 444.328C262.629 444.349 259.788 444.36 258.507 445.667C257.086 447.116 257.162 450.539 257.314 457.357C257.381 460.4 257.464 464.157 257.436 468.749L257.436 468.749ZM283.806 470.283C283.803 470.283 283.8 470.283 283.797 470.282L256.853 469.875C256.539 469.87 256.289 469.615 256.291 469.303C256.329 464.472 256.242 460.541 256.172 457.382C256.009 450.024 255.935 446.665 257.69 444.875C259.304 443.227 262.137 443.216 267.782 443.193C271.512 443.178 276.62 443.158 283.349 442.624C283.503 442.612 283.654 442.663 283.771 442.765C283.888 442.867 283.957 443.012 283.963 443.166C284.365 452.751 284.499 461.438 284.376 469.724C284.374 469.874 284.311 470.017 284.202 470.122C284.097 470.225 283.954 470.283 283.806 470.283L283.806 470.283Z" id="Şekil" fill="#000000" fill-rule="evenodd" stroke="none" clip-path="url(#clip_1)" />
    <path d="M263.269 445.634C263.105 441.475 262.897 437.316 262.658 433.156C262.319 427.935 255.646 428.348 255.933 433.546C256.227 438.596 256.466 443.641 256.635 448.676" id="Şekil" fill="#FFFFFF" fill-rule="evenodd" stroke="none" clip-path="url(#clip_1)" />
    <path d="M256.635 449.244C256.328 449.244 256.075 449.002 256.065 448.695C255.904 443.883 255.668 438.797 255.363 433.579C255.201 430.645 257.084 428.993 259.028 428.878C261.594 428.727 263.083 430.896 263.228 433.12C263.483 437.566 263.683 441.651 263.84 445.612C263.852 445.925 263.606 446.189 263.292 446.201C262.974 446.213 262.711 445.97 262.699 445.657C262.543 441.702 262.343 437.624 262.089 433.189C261.939 430.893 260.432 429.932 259.096 430.011C257.758 430.09 256.376 431.221 256.503 433.515C256.808 438.741 257.044 443.836 257.206 448.657C257.216 448.971 256.969 449.233 256.654 449.243C256.648 449.244 256.641 449.244 256.635 449.244L256.635 449.244Z" id="Şekil" fill="#000000" fill-rule="evenodd" stroke="none" clip-path="url(#clip_1)" />
    <path d="M263.269 445.634C263.105 441.475 262.897 437.315 262.658 433.156C262.523 430.949 263.917 429.064 265.773 428.944C267.628 428.825 269.246 430.536 269.383 432.767C269.626 436.967 269.834 441.169 270 445.377" id="Şekil" fill="#FFFFFF" fill-rule="evenodd" stroke="none" clip-path="url(#clip_1)" />
    <path d="M263.269 446.202C262.964 446.202 262.711 445.962 262.699 445.656C262.543 441.702 262.343 437.624 262.089 433.189C261.934 430.677 263.57 428.518 265.736 428.378C266.67 428.318 267.597 428.648 268.35 429.307C269.286 430.127 269.871 431.376 269.954 432.733C270.211 437.224 270.414 441.352 270.57 445.355C270.585 445.668 270.339 445.932 270.023 445.944C269.709 445.953 269.443 445.712 269.432 445.399C269.272 441.403 269.072 437.282 268.813 432.8C268.75 431.744 268.305 430.781 267.594 430.159C267.066 429.694 266.447 429.47 265.811 429.511C264.27 429.61 263.112 431.23 263.228 433.122C263.483 437.566 263.683 441.651 263.84 445.612C263.852 445.925 263.607 446.189 263.292 446.201C263.284 446.202 263.276 446.202 263.269 446.202L263.269 446.202Z" id="Şekil" fill="#000000" fill-rule="evenodd" stroke="none" clip-path="url(#clip_1)" />
    <path d="M270 445.377C269.834 441.169 269.626 436.967 269.383 432.767C269.246 430.54 270.639 428.638 272.497 428.518C274.352 428.399 275.97 430.127 276.109 432.378C276.352 436.618 276.563 440.864 276.731 445.12" id="Şekil" fill="#FFFFFF" fill-rule="evenodd" stroke="none" clip-path="url(#clip_1)" />
    <path d="M270 445.945C269.694 445.945 269.443 445.705 269.432 445.399C269.272 441.403 269.072 437.282 268.813 432.8C268.659 430.267 270.294 428.092 272.46 427.952C273.387 427.893 274.312 428.222 275.062 428.879C276.004 429.706 276.595 430.969 276.677 432.344C276.94 436.882 277.142 441.053 277.302 445.098C277.314 445.411 277.071 445.674 276.754 445.687C276.438 445.698 276.175 445.455 276.161 445.142C276.004 441.105 275.798 436.94 275.539 432.41C275.473 431.337 275.025 430.359 274.306 429.73C273.778 429.267 273.164 429.045 272.534 429.085C270.993 429.184 269.837 430.821 269.954 432.733C270.211 437.224 270.413 441.352 270.57 445.355C270.585 445.668 270.339 445.932 270.023 445.944C270.017 445.945 270.008 445.945 270 445.945L270 445.945Z" id="Şekil" fill="#000000" fill-rule="evenodd" stroke="none" clip-path="url(#clip_1)" />
    <path d="M259.794 468.796C251.293 469.233 249.019 465.722 249.601 457.738C249.092 452.188 249.669 446.493 256.607 445.889C257.627 447.854 258.656 449.831 259.655 451.815" id="Şekil" fill="#FFFFFF" fill-rule="evenodd" stroke="none" clip-path="url(#clip_1)" />
    <path d="M256.862 469.308C253.883 469.263 250.061 469.161 250.061 469.161C250.178 466.03 250.18 460.981 250.122 457.731C249.648 452.499 250.092 446.411 256.538 445.892C256.607 447.893 256.685 449.896 256.733 451.894" id="Şekil" fill="#FFFFFF" fill-rule="evenodd" stroke="none" clip-path="url(#clip_1)" />
    <path d="M256.863 469.875C256.86 469.875 256.857 469.875 256.854 469.875C253.905 469.831 250.084 469.729 250.046 469.728C249.893 469.724 249.749 469.66 249.645 469.549C249.54 469.439 249.485 469.292 249.491 469.14C249.607 466.033 249.609 460.964 249.552 457.761C249.277 454.715 249.179 450.365 251.45 447.685C252.628 446.294 254.325 445.501 256.492 445.326C256.647 445.313 256.801 445.365 256.918 445.468C257.034 445.571 257.103 445.717 257.108 445.872L257.157 447.242C257.211 448.763 257.266 450.335 257.304 451.88C257.311 452.193 257.062 452.454 256.747 452.461C256.431 452.468 256.17 452.221 256.163 451.907C256.126 450.369 256.07 448.8 256.016 447.282L255.989 446.524C254.407 446.754 253.204 447.376 252.323 448.416C250.322 450.778 250.433 454.834 250.691 457.68C250.692 457.694 250.693 457.707 250.693 457.721C250.747 460.748 250.748 465.453 250.651 468.609C251.831 468.639 254.609 468.706 256.871 468.741C257.186 468.745 257.438 469.003 257.433 469.317C257.428 469.627 257.174 469.875 256.863 469.875L256.863 469.875Z" id="Şekil" fill="#000000" fill-rule="evenodd" stroke="none" clip-path="url(#clip_1)" />
    <path d="M256.755 452.692C256.7 450.445 256.62 448.193 256.54 445.942C256.306 440.78 249.627 441.072 249.808 446.199C249.999 451.177 250.123 456.138 250.16 461.069" id="Şekil" fill="#FFFFFF" fill-rule="evenodd" stroke="none" clip-path="url(#clip_1)" />
    <path d="M250.16 461.636C249.847 461.636 249.592 461.385 249.589 461.073C249.555 456.393 249.436 451.395 249.238 446.22C249.135 443.318 251.052 441.723 252.999 441.645C255.566 441.542 257.01 443.716 257.11 445.916C257.196 448.32 257.272 450.484 257.325 452.679C257.333 452.992 257.084 453.252 256.768 453.26C256.451 453.264 256.192 453.019 256.184 452.706C256.13 450.518 256.055 448.357 255.969 445.962C255.867 443.701 254.381 442.724 253.045 442.779C251.704 442.832 250.298 443.919 250.378 446.179C250.578 451.364 250.696 456.373 250.731 461.065C250.733 461.378 250.48 461.634 250.164 461.636L250.16 461.636L250.16 461.636Z" id="Şekil" fill="#000000" fill-rule="evenodd" stroke="none" clip-path="url(#clip_1)" />
    <path d="M276.732 445.12C277.194 441.255 274.023 431.713 279.397 430.977C284.919 431.135 282.707 441.027 283.463 444.863" id="Şekil" fill="#FFFFFF" fill-rule="evenodd" stroke="none" clip-path="url(#clip_1)" />
    <path d="M276.731 445.687C276.711 445.687 276.689 445.686 276.666 445.683C276.352 445.646 276.129 445.364 276.166 445.053C276.289 444.014 276.126 442.465 275.955 440.825C275.499 436.455 274.931 431.016 279.32 430.415C279.351 430.41 279.383 430.409 279.414 430.409C283.974 430.54 283.911 436.144 283.86 440.647C283.843 442.245 283.826 443.753 284.023 444.753C284.085 445.061 283.883 445.359 283.575 445.419C283.263 445.479 282.964 445.279 282.904 444.972C282.684 443.857 282.701 442.292 282.718 440.635C282.775 435.565 282.567 431.674 279.428 431.545C276.423 431.996 276.577 435.794 277.091 440.708C277.271 442.413 277.439 444.022 277.299 445.187C277.265 445.475 277.017 445.687 276.731 445.687L276.731 445.687Z" id="Şekil" fill="#000000" fill-rule="evenodd" stroke="none" clip-path="url(#clip_1)" />
    <path d="M255.226 457.576L287.259 457.576L287.259 405.232L255.226 405.232L255.226 457.576L255.226 457.576Z" id="Şekil" fill="#FFFFFF" fill-rule="evenodd" stroke="none" clip-path="url(#clip_1)" />
    <path d="M255.796 457.008L286.688 457.008L286.688 405.8L255.796 405.8L255.796 457.008L255.796 457.008ZM254.655 458.143L287.829 458.143L287.829 404.665L254.655 404.665L254.655 458.143L254.655 458.143Z" id="Şekil" fill="#000000" fill-rule="evenodd" stroke="none" clip-path="url(#clip_1)" />
    <path d="M260.888 414.838L281.597 414.838L281.597 413.703L260.888 413.703L260.888 414.838L260.888 414.838Z" id="Şekil" fill="#000000" fill-rule="evenodd" stroke="none" clip-path="url(#clip_1)" />
    <path d="M260.888 419.663L281.597 419.663L281.597 418.528L260.888 418.528L260.888 419.663L260.888 419.663Z" id="Şekil" fill="#000000" fill-rule="evenodd" stroke="none" clip-path="url(#clip_1)" />
    <path d="M260.888 424.488L281.597 424.488L281.597 423.353L260.888 423.353L260.888 424.488L260.888 424.488Z" id="Şekil" fill="#000000" fill-rule="evenodd" stroke="none" clip-path="url(#clip_1)" />
    <path d="M260.888 429.313L281.597 429.313L281.597 428.178L260.888 428.178L260.888 429.313L260.888 429.313Z" id="Şekil" fill="#000000" fill-rule="evenodd" stroke="none" clip-path="url(#clip_1)" />
    <path d="M260.888 434.138L281.597 434.138L281.597 433.003L260.888 433.003L260.888 434.138L260.888 434.138Z" id="Şekil" fill="#000000" fill-rule="evenodd" stroke="none" clip-path="url(#clip_1)" />
    <path d="M260.888 438.963L281.597 438.963L281.597 437.828L260.888 437.828L260.888 438.963L260.888 438.963Z" id="Şekil" fill="#000000" fill-rule="evenodd" stroke="none" clip-path="url(#clip_1)" />
    <path d="M260.888 443.788L281.597 443.788L281.597 442.653L260.888 442.653L260.888 443.788L260.888 443.788Z" id="Şekil" fill="#000000" fill-rule="evenodd" stroke="none" clip-path="url(#clip_1)" />
    <path d="M260.888 448.613L281.597 448.613L281.597 447.478L260.888 447.478L260.888 448.613L260.888 448.613Z" id="Şekil" fill="#000000" fill-rule="evenodd" stroke="none" clip-path="url(#clip_1)" />
    <path d="M246.608 468.618C246.292 481.667 245.9 494.515 242.23 506.758C233.368 499.671 216.45 472.049 194.928 471.951C173.407 471.853 183.442 499.31 186.733 503.989C192.237 511.79 197.966 519.215 204.589 526.343C216.041 538.666 231.734 551.29 249.69 548.988C284.864 543.138 285.952 496.982 286.828 469.161L246.608 468.618L246.608 468.618Z" id="Şekil" fill="#000000" fill-rule="evenodd" stroke="none" clip-path="url(#clip_1)" />
    <path d="M209.959 569.793L125.565 569.793C122.808 569.793 120.476 567.763 120.112 565.046L124.48 489.09C123.259 479.988 127.528 471.902 136.764 471.902L194.814 471.902C206.78 471.99 216.212 482.635 215.225 494.472L215.251 564.018C215.542 567.116 213.09 569.793 209.959 569.793L209.959 569.793Z" id="Şekil" fill="#FF5812" fill-rule="evenodd" stroke="none" clip-path="url(#clip_1)" />
    <path d="M190.407 471.901C183.497 442.973 132.12 463.424 165.484 487.571C166.082 488.055 166.952 488.007 167.498 487.465L171.455 483.531L175.399 479.611C177.287 481.435 181.171 485.184 183.072 487.021C185.981 490.003 190.641 475.582 190.407 471.901L190.407 471.901Z" id="Şekil" fill="#FF5812" fill-rule="evenodd" stroke="none" clip-path="url(#clip_1)" />
    <path d="M173.959 489.536L169.907 485.508L175.545 479.903L181.182 485.508L177.118 489.547L181.076 501.482L190.408 471.901L154.422 471.901L172.39 501.686C172.394 501.665 173.95 489.554 173.959 489.536L173.959 489.536Z" id="Şekil" fill="#FF5812" fill-rule="evenodd" stroke="none" clip-path="url(#clip_1)" />
    <path d="M181.86 537.646L177.118 489.547L181.182 485.508L175.544 479.903L169.907 485.508L173.959 489.536C173.953 489.531 167.468 537.846 167.466 537.85C175.91 548.079 174.185 549.806 181.86 537.646L181.86 537.646Z" id="Şekil" fill="#000000" fill-rule="evenodd" stroke="none" clip-path="url(#clip_1)" />
    <path d="M166.718 488.169C166.215 488.169 165.616 487.987 164.924 487.624C160.607 485.363 153.309 476.367 153.999 471.838C154.034 471.605 154.253 471.446 154.486 471.481C154.72 471.516 154.881 471.733 154.845 471.965C154.57 473.775 155.865 476.827 158.31 480.13C160.529 483.127 163.347 485.836 165.323 486.871C165.845 487.145 166.785 487.546 167.206 487.154C168.285 486.081 169.985 484.39 171.621 482.765L175.096 479.31C175.262 479.145 175.53 479.143 175.697 479.305L183.371 486.716C183.656 487.008 183.914 487.067 184.243 486.922C186.717 485.834 190.188 475.197 189.98 471.928C189.965 471.694 190.144 471.492 190.38 471.477C190.616 471.462 190.82 471.64 190.835 471.874C191.046 475.191 187.564 486.392 184.589 487.701C183.935 487.988 183.287 487.852 182.765 487.317L175.404 480.208L172.226 483.367C170.591 484.992 168.89 486.682 167.801 487.766C167.512 488.035 167.15 488.169 166.718 488.169L166.718 488.169Z" id="Şekil" fill="#000000" fill-rule="evenodd" stroke="none" clip-path="url(#clip_1)" />
    <path d="M185.431 499.505C185.53 502.156 185.457 504.526 185.391 506.63C185.248 511.255 185.144 514.597 187.089 516.46C188.972 518.263 192.785 518.828 199.84 518.35L199.862 518.349C201.706 518.317 203.092 517.782 204.099 516.713C206.522 514.14 206.269 508.984 206.045 504.435C205.956 502.62 205.872 500.895 205.977 499.505L185.431 499.505L185.431 499.505ZM195.625 519.36C190.945 519.36 188.124 518.633 186.495 517.073C184.276 514.948 184.385 511.448 184.536 506.604C184.604 504.397 184.682 501.897 184.558 499.099L184.538 498.654L206.928 498.654L206.873 499.129C206.71 500.521 206.803 502.402 206.901 504.394C207.132 509.111 207.395 514.458 204.724 517.295C203.568 518.522 201.941 519.162 199.887 519.199C198.319 519.306 196.903 519.36 195.625 519.36L195.625 519.36Z" id="Şekil" fill="#000000" fill-rule="evenodd" stroke="none" clip-path="url(#clip_1)" />
    <path d="M174.805 569.792L175.661 569.792L175.661 546.5L174.805 546.5L174.805 569.792L174.805 569.792Z" id="Şekil" fill="#000000" fill-rule="evenodd" stroke="none" clip-path="url(#clip_1)" />
    <path d="M212.121 547.903C198.143 519.571 208.359 521.296 177.936 532.972L187.457 558.032C195.869 554.869 204.058 551.461 212.121 547.903L212.121 547.903Z" id="Şekil" fill="#FFFFFF" fill-rule="evenodd" stroke="none" clip-path="url(#clip_1)" />
    <path d="M178.67 533.298L187.79 557.3C195.242 554.485 202.961 551.315 211.348 547.622C208.506 541.813 206.671 537.25 205.32 533.891C203.405 529.131 202.35 526.508 200.658 525.804C198.78 525.024 195.606 526.352 189.283 528.997C186.461 530.178 182.976 531.636 178.67 533.298L178.67 533.298ZM187.457 558.599C187.377 558.599 187.297 558.582 187.223 558.549C187.085 558.487 186.977 558.373 186.923 558.232L177.402 533.172C177.292 532.881 177.438 532.555 177.731 532.442C182.265 530.702 185.911 529.177 188.84 527.951C195.664 525.096 198.778 523.794 201.098 524.758C203.232 525.645 204.284 528.26 206.38 533.47C207.765 536.913 209.662 541.629 212.633 547.653C212.702 547.791 212.71 547.951 212.657 548.096C212.605 548.241 212.494 548.358 212.353 548.421C203.535 552.313 195.457 555.63 187.659 558.562C187.594 558.587 187.526 558.599 187.457 558.599L187.457 558.599Z" id="Şekil" fill="#000000" fill-rule="evenodd" stroke="none" clip-path="url(#clip_1)" />
    <path d="M202.438 530.195C206.268 528.514 210.083 526.793 213.886 525.044C218.646 522.811 215.807 516.794 211.05 518.969C206.434 521.098 201.802 523.173 197.154 525.179" id="Şekil" fill="#FFFFFF" fill-rule="evenodd" stroke="none" clip-path="url(#clip_1)" />
    <path d="M202.438 530.762C202.219 530.762 202.01 530.636 201.916 530.424C201.788 530.137 201.919 529.802 202.207 529.676C205.847 528.079 209.589 526.396 213.647 524.529C215.74 523.547 216.086 521.801 215.52 520.595C214.954 519.387 213.388 518.525 211.289 519.485C206.515 521.686 201.835 523.777 197.381 525.7C197.092 525.825 196.756 525.693 196.63 525.406C196.505 525.118 196.637 524.784 196.927 524.659C201.372 522.74 206.043 520.653 210.81 518.455C213.495 517.227 215.732 518.361 216.555 520.115C217.641 522.432 216.157 524.606 214.13 525.557C210.062 527.429 206.314 529.115 202.668 530.714C202.593 530.747 202.515 530.762 202.438 530.762L202.438 530.762Z" id="Şekil" fill="#000000" fill-rule="evenodd" stroke="none" clip-path="url(#clip_1)" />
    <path d="M202.438 530.195C206.269 528.514 210.084 526.793 213.887 525.044C215.902 524.108 218.178 524.703 218.972 526.376C219.766 528.048 218.76 530.172 216.723 531.119C212.883 532.885 209.028 534.624 205.153 536.324" id="Şekil" fill="#FFFFFF" fill-rule="evenodd" stroke="none" clip-path="url(#clip_1)" />
    <path d="M205.154 536.892C204.935 536.892 204.725 536.765 204.631 536.553C204.504 536.266 204.635 535.932 204.923 535.805C208.601 534.192 212.382 532.49 216.484 530.604C217.447 530.156 218.185 529.392 218.506 528.507C218.746 527.846 218.729 527.192 218.456 526.618C217.798 525.231 215.856 524.755 214.129 525.558C210.063 527.429 206.315 529.114 202.669 530.714C202.381 530.84 202.044 530.711 201.917 530.424C201.789 530.137 201.92 529.802 202.208 529.676C205.848 528.079 209.59 526.396 213.648 524.529C215.941 523.463 218.562 524.183 219.488 526.134C219.888 526.975 219.92 527.954 219.58 528.892C219.157 530.059 218.203 531.057 216.965 531.633C212.855 533.523 209.068 535.227 205.384 536.843C205.309 536.876 205.231 536.892 205.154 536.892L205.154 536.892Z" id="Şekil" fill="#000000" fill-rule="evenodd" stroke="none" clip-path="url(#clip_1)" />
    <path d="M205.153 536.324C209.028 534.624 212.883 532.885 216.722 531.119C218.756 530.174 221.047 530.762 221.841 532.435C222.635 534.107 221.614 536.238 219.558 537.193C215.682 538.977 211.787 540.733 207.868 542.453" id="Şekil" fill="#FFFFFF" fill-rule="evenodd" stroke="none" clip-path="url(#clip_1)" />
    <path d="M207.868 543.02C207.649 543.02 207.439 542.894 207.345 542.682C207.218 542.395 207.349 542.06 207.637 541.934C211.357 540.302 215.179 538.583 219.319 536.678C220.299 536.223 221.048 535.448 221.373 534.554C221.612 533.895 221.596 533.246 221.325 532.677C220.666 531.29 218.71 530.822 216.964 531.633C212.855 533.523 209.067 535.227 205.383 536.843C205.095 536.969 204.758 536.839 204.631 536.553C204.504 536.266 204.634 535.931 204.923 535.805C208.6 534.191 212.382 532.49 216.483 530.604C218.795 529.53 221.431 530.242 222.357 532.192C222.754 533.029 222.786 534.004 222.447 534.939C222.02 536.115 221.055 537.124 219.8 537.707C215.651 539.616 211.824 541.337 208.098 542.972C208.023 543.005 207.945 543.02 207.868 543.02L207.868 543.02Z" id="Şekil" fill="#000000" fill-rule="evenodd" stroke="none" clip-path="url(#clip_1)" />
    <path d="M179.493 535.494C175.96 527.795 178.409 524.402 186.092 522.006C191.097 519.496 196.637 517.936 199.752 524.129C198.288 525.794 196.817 527.472 195.328 529.125" id="Şekil" fill="#FFFFFF" fill-rule="evenodd" stroke="none" clip-path="url(#clip_1)" />
    <path d="M177.936 532.972C176.883 530.2 175.574 526.63 175.574 526.63C178.541 525.587 183.274 523.734 186.29 522.486C191.008 520.125 196.869 518.297 199.723 524.066C197.876 524.865 196.031 525.673 194.18 526.452" id="Şekil" fill="#FFFFFF" fill-rule="evenodd" stroke="none" clip-path="url(#clip_1)" />
    <path d="M177.936 533.539C177.706 533.539 177.489 533.4 177.403 533.172C176.361 530.429 175.051 526.86 175.038 526.824C174.986 526.681 174.993 526.524 175.058 526.388C175.123 526.251 175.24 526.145 175.384 526.095C178.403 525.033 183.128 523.179 186.052 521.969C188.801 520.596 192.833 518.906 196.176 520.021C197.91 520.599 199.276 521.876 200.235 523.815C200.305 523.954 200.313 524.116 200.259 524.261C200.205 524.407 200.094 524.524 199.951 524.586L198.688 525.134C197.285 525.742 195.835 526.372 194.403 526.975C194.112 527.097 193.777 526.962 193.655 526.673C193.532 526.385 193.667 526.052 193.958 525.93C195.384 525.33 196.832 524.701 198.231 524.094L198.93 523.79C198.134 522.413 197.11 521.529 195.813 521.097C193.57 520.349 190.626 520.951 186.546 522.992C186.534 522.998 186.522 523.004 186.509 523.009C183.742 524.155 179.352 525.881 176.308 526.971C176.713 528.074 177.671 530.667 178.47 532.771C178.582 533.064 178.433 533.392 178.138 533.503C178.072 533.527 178.004 533.539 177.936 533.539L177.936 533.539Z" id="Şekil" fill="#000000" fill-rule="evenodd" stroke="none" clip-path="url(#clip_1)" />
    <path d="M193.441 526.766C195.524 525.889 197.601 524.989 199.678 524.086C204.421 521.974 201.692 515.905 196.963 517.957C192.376 519.963 187.78 521.902 183.181 523.748" id="Şekil" fill="#FFFFFF" fill-rule="evenodd" stroke="none" clip-path="url(#clip_1)" />
    <path d="M193.441 527.333C193.219 527.333 193.008 527.203 192.916 526.987C192.793 526.699 192.928 526.366 193.219 526.243C195.25 525.388 197.242 524.525 199.449 523.566C201.527 522.641 201.893 520.909 201.352 519.693C200.809 518.473 199.276 517.572 197.191 518.477C192.413 520.567 187.771 522.517 183.395 524.274C183.102 524.391 182.77 524.251 182.652 523.96C182.534 523.669 182.675 523.339 182.967 523.221C187.332 521.469 191.964 519.523 196.733 517.437C199.41 516.276 201.608 517.462 202.396 519.234C203.435 521.569 201.932 523.703 199.911 524.604C197.696 525.566 195.701 526.431 193.664 527.288C193.591 527.319 193.516 527.333 193.441 527.333L193.441 527.333Z" id="Şekil" fill="#000000" fill-rule="evenodd" stroke="none" clip-path="url(#clip_1)" />
    <path d="M207.867 542.453C211.653 541.459 219.414 535.022 222.078 539.719C224.005 544.821 213.868 546.505 210.582 548.582" id="Şekil" fill="#FFFFFF" fill-rule="evenodd" stroke="none" clip-path="url(#clip_1)" />
    <path d="M210.582 549.15C210.394 549.15 210.209 549.057 210.1 548.887C209.931 548.622 210.01 548.272 210.275 548.103C211.22 547.507 212.673 546.951 214.211 546.364C219.024 544.524 222.624 542.883 221.559 539.959C220.034 537.343 216.536 538.882 212.126 541.164C210.597 541.955 209.153 542.702 208.013 543.002C207.708 543.082 207.396 542.901 207.315 542.598C207.235 542.295 207.417 541.984 207.721 541.904C208.739 541.637 210.129 540.918 211.599 540.157C215.52 538.129 220.399 535.604 222.575 539.44C222.589 539.465 222.602 539.492 222.612 539.519C224.213 543.757 218.894 545.79 214.62 547.423C213.137 547.99 211.736 548.525 210.888 549.061C210.793 549.121 210.687 549.15 210.582 549.15L210.582 549.15Z" id="Şekil" fill="#000000" fill-rule="evenodd" stroke="none" clip-path="url(#clip_1)" />
    <path d="M189.087 560.622L174.813 523.238C162.491 527.742 150.326 532.101 137.524 533.208C139.677 526.088 143.18 519.524 146.991 512.94C148.951 509.599 151.061 506.256 153.265 502.942C158.926 494.265 155.895 482.747 147.707 476.311C138.862 469.331 125.973 471.431 119.717 480.88C114.443 488.836 109.603 496.861 105.368 505.604C99.739 517.366 94.8695 530.994 96.8942 544.204C98.7337 558.629 110.858 570.034 125.138 572.305C146.924 575.898 169.112 567.754 189.087 560.622L189.087 560.622Z" id="Şekil" fill="#000000" fill-rule="evenodd" stroke="none" clip-path="url(#clip_1)" />
    <path d="M193.152 439.953C193.152 448.82 185.374 456.009 175.779 456.009C166.184 456.009 158.406 448.82 158.406 439.953C158.406 431.086 166.184 423.898 175.779 423.898C185.374 423.898 193.152 431.086 193.152 439.953L193.152 439.953Z" id="Şekil" fill="#000000" fill-rule="evenodd" stroke="none" clip-path="url(#clip_1)" />
    <path d="M194.013 445.423C194.013 447.81 192.067 449.744 189.666 449.744C187.265 449.744 185.319 447.81 185.319 445.423C185.319 443.036 187.265 441.102 189.666 441.102C192.067 441.102 194.013 443.036 194.013 445.423L194.013 445.423Z" id="Şekil" fill="#FFFFFF" fill-rule="evenodd" stroke="none" clip-path="url(#clip_1)" />
    <path d="M189.666 441.669C187.583 441.669 185.89 443.353 185.89 445.423C185.89 447.493 187.583 449.177 189.666 449.177C191.748 449.177 193.442 447.493 193.442 445.423C193.442 443.353 191.748 441.669 189.666 441.669L189.666 441.669ZM189.666 450.312C186.954 450.312 184.748 448.119 184.748 445.423C184.748 442.727 186.954 440.534 189.666 440.534C192.377 440.534 194.583 442.727 194.583 445.423C194.583 448.119 192.377 450.312 189.666 450.312L189.666 450.312Z" id="Şekil" fill="#000000" fill-rule="evenodd" stroke="none" clip-path="url(#clip_1)" />
    <path d="M175.083 473.649C169.673 473.649 164.686 469.524 164.686 464.6L169.283 447.675C169.283 442.751 167.961 438.759 173.37 438.759L179.078 438.759C184.487 438.759 183.165 442.751 183.165 447.675L183.165 464.733C183.165 469.657 180.492 473.649 175.083 473.649L175.083 473.649Z" id="Şekil" fill="#FFFFFF" fill-rule="evenodd" stroke="none" clip-path="url(#clip_1)" />
    <path d="M165.257 464.674C165.306 469.161 169.877 473.081 175.083 473.081C180.621 473.081 182.595 468.769 182.595 464.733L182.595 447.675C182.595 446.81 182.634 445.988 182.672 445.194C182.777 443.007 182.868 441.119 181.96 440.173C181.414 439.603 180.471 439.326 179.078 439.326L173.371 439.326C171.978 439.326 171.035 439.603 170.488 440.173C169.581 441.119 169.671 443.007 169.776 445.194C169.814 445.988 169.854 446.81 169.854 447.675L169.854 447.75L165.257 464.674L165.257 464.674ZM175.083 474.216C169.24 474.216 164.115 469.723 164.115 464.6L164.115 464.525L168.712 447.6C168.71 446.789 168.672 446.006 168.636 445.248C168.519 442.801 168.417 440.688 169.662 439.39C170.436 438.583 171.649 438.191 173.371 438.191L179.078 438.191C180.8 438.191 182.013 438.583 182.786 439.39C184.031 440.688 183.93 442.801 183.812 445.248C183.775 446.029 183.736 446.837 183.736 447.675L183.736 464.733C183.736 470.494 180.339 474.216 175.083 474.216L175.083 474.216Z" id="Şekil" fill="#000000" fill-rule="evenodd" stroke="none" clip-path="url(#clip_1)" />
    <path d="M178.393 458.878C173.408 458.878 168.91 455.938 166.934 451.39L166.748 450.963C164.019 444.685 166.938 437.37 173.253 434.658C174.829 433.981 176.492 433.638 178.195 433.638C183.18 433.638 187.678 436.577 189.655 441.125L189.84 441.552C192.569 447.83 189.651 455.145 183.335 457.857C181.759 458.534 180.096 458.878 178.393 458.878L178.393 458.878Z" id="Şekil" fill="#FFFFFF" fill-rule="evenodd" stroke="none" clip-path="url(#clip_1)" />
    <path d="M178.196 433.07C176.414 433.07 174.675 433.429 173.026 434.137C169.827 435.511 167.358 438.042 166.073 441.262C164.788 444.483 164.842 448.008 166.224 451.188L166.409 451.615C168.476 456.372 173.18 459.445 178.393 459.445C180.174 459.445 181.913 459.086 183.561 458.378C186.761 457.004 189.23 454.474 190.515 451.253C191.8 448.032 191.746 444.507 190.364 441.327L190.179 440.9C188.112 436.144 183.408 433.07 178.196 433.07L178.196 433.07ZM178.195 434.205C182.802 434.205 187.188 436.879 189.131 441.35L189.316 441.777C191.924 447.778 189.145 454.744 183.109 457.337C181.57 457.997 179.968 458.31 178.393 458.31C173.786 458.31 169.4 455.637 167.457 451.165L167.272 450.738C164.664 444.738 167.443 437.771 173.479 435.179C175.018 434.518 176.62 434.205 178.195 434.205L178.195 434.205Z" id="Şekil" fill="#000000" fill-rule="evenodd" stroke="none" clip-path="url(#clip_1)" />
    <path d="M166.706 449.744C164.306 449.744 162.359 447.81 162.359 445.423C162.359 443.036 164.306 441.102 166.706 441.102C167.007 441.102 167.299 441.132 167.582 441.19" id="Şekil" fill="#FFFFFF" fill-rule="evenodd" stroke="none" clip-path="url(#clip_1)" />
    <path d="M166.706 450.312C163.995 450.312 161.789 448.119 161.789 445.423C161.789 442.727 163.995 440.534 166.706 440.534C167.039 440.534 167.373 440.568 167.697 440.633C168.006 440.696 168.205 440.996 168.141 441.303C168.078 441.61 167.777 441.808 167.468 441.745C167.219 441.695 166.963 441.669 166.706 441.669C164.624 441.669 162.93 443.353 162.93 445.423C162.93 447.493 164.624 449.177 166.706 449.177C167.021 449.177 167.277 449.431 167.277 449.744C167.277 450.058 167.021 450.312 166.706 450.312L166.706 450.312Z" id="Şekil" fill="#000000" fill-rule="evenodd" stroke="none" clip-path="url(#clip_1)" />
    <path d="M169.48 442.395C171.686 442.395 173.475 440.617 173.475 438.424C173.475 436.23 171.686 434.452 169.48 434.452C167.273 434.452 165.485 436.23 165.485 438.424C165.485 440.617 167.273 442.395 169.48 442.395L169.48 442.395Z" id="Şekil" fill="#000000" stroke="none" clip-path="url(#clip_1)" />
    <path d="M182.321 439.275C188.468 439.275 193.451 436.481 193.451 433.034C193.451 429.587 188.468 426.792 182.321 426.792C176.175 426.792 171.192 429.587 171.192 433.034C171.192 436.481 176.175 439.275 182.321 439.275L182.321 439.275Z" id="Şekil" fill="#000000" stroke="none" clip-path="url(#clip_1)" />
    <path d="M180.081 450.336L182.238 450.336C182.833 450.336 183.274 449.476 183.141 448.575L182.232 442.407C182.021 440.976 180.73 440.896 180.446 442.296L179.197 448.464C179.01 449.392 179.455 450.336 180.081 450.336L180.081 450.336Z" id="Şekil" fill="#FF830F" fill-rule="evenodd" stroke="none" clip-path="url(#clip_1)" />
    <path d="M166.648 426.134C166.648 426.134 161.886 436.486 159.534 442.118C157.181 447.75 152.598 447.514 152.598 447.514C152.598 447.514 152.598 442.225 152.598 438.735C152.598 435.244 152.711 429.576 155.959 426.448C162.055 420.58 166.648 426.134 166.648 426.134L166.648 426.134Z" id="Şekil" fill="#000000" fill-rule="evenodd" stroke="none" clip-path="url(#clip_1)" />
    <path d="M178.316 443.714C178.001 443.714 177.745 443.46 177.745 443.147C177.745 442.74 177.257 442.112 176.609 442.112C175.961 442.112 175.473 442.74 175.473 443.147C175.473 443.46 175.217 443.714 174.902 443.714C174.587 443.714 174.331 443.46 174.331 443.147C174.331 442.143 175.326 440.977 176.609 440.977C177.892 440.977 178.887 442.143 178.887 443.147C178.887 443.46 178.631 443.714 178.316 443.714L178.316 443.714Z" id="Şekil" fill="#000000" fill-rule="evenodd" stroke="none" clip-path="url(#clip_1)" />
    <path d="M186.565 443.714C186.25 443.714 185.994 443.46 185.994 443.147C185.994 442.74 185.506 442.112 184.858 442.112C184.209 442.112 183.722 442.74 183.722 443.147C183.722 443.46 183.466 443.714 183.151 443.714C182.836 443.714 182.58 443.46 182.58 443.147C182.58 442.143 183.575 440.977 184.858 440.977C186.141 440.977 187.136 442.143 187.136 443.147C187.136 443.46 186.88 443.714 186.565 443.714L186.565 443.714Z" id="Şekil" fill="#000000" fill-rule="evenodd" stroke="none" clip-path="url(#clip_1)" />
    <path d="M180.614 453.568C179.123 453.568 177.631 453.004 176.496 451.875C176.273 451.653 176.273 451.294 176.496 451.072C176.719 450.851 177.08 450.851 177.303 451.072C179.129 452.887 182.1 452.887 183.926 451.072C184.148 450.851 184.51 450.851 184.733 451.072C184.956 451.294 184.956 451.653 184.733 451.875C183.597 453.004 182.106 453.568 180.614 453.568L180.614 453.568Z" id="Şekil" fill="#000000" fill-rule="evenodd" stroke="none" clip-path="url(#clip_1)" />
  </g>
</svg>