<?xml version="1.0" encoding="utf-8"?>
<svg width="428px" height="797px" viewBox="0 0 428 797" version="1.1" xmlns:xlink="http://www.w3.org/1999/xlink" xmlns="http://www.w3.org/2000/svg">
  <defs>
    <path d="M428 0L428 0L428 797L0 797L0 0L428 0Z" id="path_1" />
    <path d="M51.814 0L0 0L0 29.096L51.814 29.096L51.814 0L51.814 0Z" id="path_2" />
    <path d="M12.2721 12.563C7.95422 16.881 1.52588e-05 46.079 1.52588e-05 46.079C1.52588e-05 46.079 14.0902 49.26 23.6352 47.102L24.4307 44.034L19.7272 88.052C19.7272 88.052 53.2166 94.072 82.1896 84.666L83.8826 45.915C83.8826 45.915 94.9826 46.856 102.509 45.351C102.509 45.351 95.1706 17.135 88.0216 11.491C80.8726 5.84802 63.1586 1.20001 63.1586 1.20001C63.1586 1.20001 62.0026 7.11801 50.6186 6.59402C42.305 6.21201 39.0148 1.57401 37.7603 0C37.7603 0 16.5903 8.246 12.2721 12.563L12.2721 12.563Z" id="path_3" />
    <path d="M12.2721 12.563C7.95422 16.88 1.52588e-05 46.079 1.52588e-05 46.079C1.52588e-05 46.079 14.0902 49.26 23.6352 47.101L24.4307 44.034L19.7272 88.051C19.7272 88.051 53.2166 94.071 82.1896 84.665L83.8826 45.915C83.8826 45.915 94.9826 46.855 102.509 45.35C102.509 45.35 95.1706 17.134 88.0216 11.491C80.8726 5.84702 63.1586 1.20001 63.1586 1.20001C63.1586 1.20001 62.0026 7.11801 50.6186 6.59399C42.305 6.211 39.0148 1.573 37.7603 0C37.7603 0 16.5903 8.246 12.2721 12.563L12.2721 12.563Z" id="path_4" />
    <path d="M0 0L6.659 0L6.659 2.24402L0 2.24402L0 0L0 0Z" id="path_5" />
    <path d="M0 0L21.975 0L21.975 38.327L0 38.327L0 0L0 0Z" id="path_6" />
    <path d="M10.151 0L0 0L0 3.09601L10.151 3.09601L10.151 0L10.151 0Z" id="path_7" />
    <path d="M6.65999 0L0 0L0 2.24396L6.65999 2.24396L6.65999 0L6.65999 0Z" id="path_8" />
    <clipPath id="clip_1">
      <use xlink:href="#path_1" clip-rule="evenodd" fill-rule="evenodd" />
    </clipPath>
    <clipPath id="clip_2">
      <use xlink:href="#path_2" clip-rule="evenodd" fill-rule="evenodd" />
    </clipPath>
    <clipPath id="clip_3">
      <use xlink:href="#path_3" clip-rule="evenodd" fill-rule="evenodd" />
    </clipPath>
    <clipPath id="clip_4">
      <use xlink:href="#path_4" clip-rule="evenodd" fill-rule="evenodd" />
    </clipPath>
    <clipPath id="clip_5">
      <use xlink:href="#path_5" clip-rule="evenodd" fill-rule="evenodd" />
    </clipPath>
    <clipPath id="clip_6">
      <use xlink:href="#path_6" clip-rule="evenodd" fill-rule="evenodd" />
    </clipPath>
    <clipPath id="clip_7">
      <use xlink:href="#path_7" clip-rule="evenodd" fill-rule="evenodd" />
    </clipPath>
    <clipPath id="clip_8">
      <use xlink:href="#path_8" clip-rule="evenodd" fill-rule="evenodd" />
    </clipPath>
  </defs>
  <g id="Çerçeve 9">
    <path d="M428 0L428 0L428 797L0 797L0 0L428 0Z" id="Çerçeve-9" fill="none" stroke="none" />
    <path d="M256 139.5C256 62.4563 318.456 0 395.5 0C472.544 0 535 62.4563 535 139.5C535 216.544 472.544 279 395.5 279C318.456 279 256 216.544 256 139.5Z" id="Daire" fill="#FFE3D3" fill-rule="evenodd" stroke="none" clip-path="url(#clip_1)" />
    <path d="M41.5011 207.35C36.1764 207.35 31.85 211.674 31.85 216.999C31.85 222.324 36.1762 226.65 41.5011 226.65C46.826 226.65 51.15 222.324 51.15 216.999C51.15 211.674 46.8258 207.35 41.5011 207.35L41.5011 207.35ZM41.5011 208.514C46.1936 208.514 49.9864 212.306 49.9864 216.999C49.9864 221.691 46.1934 225.486 41.5011 225.486C36.8087 225.486 33.0136 221.691 33.0136 216.999C33.0136 212.307 36.8085 208.514 41.5011 208.514L41.5011 208.514Z" id="Şekil" fill="#ACB8C2" fill-rule="evenodd" stroke="#ACB8C2" stroke-width="0.3" clip-path="url(#clip_1)" />
    <path d="M36.2491 215.126C36.3566 215.015 36.5035 214.952 36.6577 214.949C36.7356 214.948 36.8129 214.963 36.885 214.992C36.9571 215.021 37.0227 215.064 37.0778 215.119C37.1328 215.174 37.1763 215.24 37.2056 215.312C37.2348 215.384 37.2493 215.461 37.2484 215.538M36.2491 215.126L37.0984 215.537M36.2491 215.126C36.142 215.236 36.0829 215.384 36.0847 215.538M36.2491 215.126L36.2347 215.537M37.2484 215.538C37.2484 215.538 37.2484 215.539 37.2483 215.539L37.0984 215.537M37.2484 215.538C37.2484 215.538 37.2484 215.537 37.2484 215.537L37.0984 215.537M37.2484 215.538C37.2488 215.951 37.5714 216.273 37.9843 216.273C38.3945 216.273 38.7196 215.95 38.7202 215.538M37.0984 215.537C37.0984 216.033 37.4882 216.423 37.9843 216.423C38.4775 216.423 38.8702 216.032 38.8702 215.537M38.7202 215.538C38.7202 215.539 38.7202 215.539 38.7202 215.539L38.8702 215.537M38.7202 215.538C38.7202 215.538 38.7202 215.537 38.7202 215.537L38.8702 215.537M38.7202 215.538C38.7192 215.461 38.7335 215.385 38.7621 215.314C38.7908 215.242 38.8335 215.177 38.8877 215.122C38.9418 215.068 39.0063 215.024 39.0774 214.994C39.1485 214.964 39.2249 214.949 39.302 214.949C39.3791 214.949 39.4554 214.964 39.5266 214.994C39.5977 215.024 39.6622 215.068 39.7163 215.122C39.7705 215.177 39.8131 215.242 39.8419 215.314C39.8705 215.385 39.8847 215.461 39.8838 215.538M38.8702 215.537L39.7338 215.537M39.8838 215.538C39.8838 215.538 39.8838 215.539 39.8838 215.539L39.7338 215.537M39.8838 215.538C39.8838 215.538 39.8838 215.537 39.8838 215.537L39.7338 215.537M39.8838 215.538C39.8833 216.583 39.0266 217.437 37.9843 217.437C36.9403 217.437 36.0853 216.582 36.0847 215.538M39.7338 215.537C39.7338 216.499 38.9442 217.287 37.9843 217.287C37.0229 217.287 36.2347 216.499 36.2347 215.537M36.0847 215.538C36.0847 215.538 36.0847 215.539 36.0847 215.539L36.2347 215.537M36.0847 215.538C36.0847 215.538 36.0847 215.537 36.0847 215.537L36.2347 215.537" id="Şekil" fill="#ACB8C2" fill-rule="evenodd" stroke="#ACB8C2" stroke-width="0.3" clip-path="url(#clip_1)" />
    <path d="M43.2806 215.126C43.3881 215.015 43.535 214.952 43.6892 214.949C43.7671 214.948 43.8443 214.963 43.9165 214.992C43.9886 215.021 44.0542 215.064 44.1093 215.119C44.1643 215.174 44.2078 215.24 44.2371 215.312C44.2663 215.384 44.2808 215.461 44.2799 215.538M43.2806 215.126L44.1299 215.537M43.2806 215.126C43.1735 215.236 43.1143 215.384 43.1162 215.538M43.2806 215.126L43.2662 215.537M44.2799 215.538C44.2798 215.538 44.2798 215.539 44.2798 215.539L44.1299 215.537M44.2799 215.538C44.2799 215.538 44.2799 215.537 44.2799 215.537L44.1299 215.537M44.2799 215.538C44.2803 215.95 44.6055 216.273 45.0158 216.273C45.4286 216.273 45.7511 215.951 45.7516 215.538M44.1299 215.537C44.1299 216.032 44.5225 216.423 45.0158 216.423C45.5118 216.423 45.9016 216.033 45.9016 215.537M45.7516 215.538C45.7517 215.539 45.7517 215.539 45.7517 215.539L45.9016 215.537M45.7516 215.538C45.7516 215.538 45.7516 215.537 45.7516 215.537L45.9016 215.537M45.7516 215.538C45.7507 215.461 45.7649 215.385 45.7936 215.314C45.8223 215.242 45.865 215.177 45.9191 215.122C45.9733 215.068 46.0378 215.024 46.1089 214.994C46.18 214.964 46.2563 214.949 46.3335 214.949C46.4106 214.949 46.4869 214.964 46.558 214.994C46.6291 215.024 46.6937 215.068 46.7478 215.122C46.8019 215.177 46.8446 215.242 46.8734 215.314C46.902 215.385 46.9162 215.461 46.9153 215.538M45.9016 215.537L46.7653 215.537M46.9153 215.538C46.9153 215.538 46.9153 215.539 46.9153 215.539L46.7653 215.537M46.9153 215.538C46.9153 215.538 46.9153 215.537 46.9153 215.537L46.7653 215.537M46.9153 215.538C46.9147 216.582 46.0597 217.437 45.0158 217.437C43.9734 217.437 43.1168 216.583 43.1162 215.538M46.7653 215.537C46.7653 216.499 45.9772 217.287 45.0158 217.287C44.0558 217.287 43.2662 216.499 43.2662 215.537M43.1162 215.538C43.1162 215.538 43.1162 215.539 43.1162 215.539L43.2662 215.537M43.1162 215.538C43.1162 215.538 43.1162 215.537 43.1162 215.537L43.2662 215.537" id="Şekil" fill="#ACB8C2" fill-rule="evenodd" stroke="#ACB8C2" stroke-width="0.3" clip-path="url(#clip_1)" />
    <path d="M46.3563 219.312L46.3563 219.312C46.4586 219.315 46.5585 219.344 46.6457 219.398C46.7329 219.452 46.8044 219.527 46.853 219.618C46.9016 219.708 46.9255 219.809 46.9224 219.912C46.9192 220.014 46.8893 220.113 46.8356 220.2C46.8355 220.2 46.8353 220.2 46.8351 220.201L46.7077 220.121C45.6455 221.887 43.7079 223.069 41.501 223.069C39.2921 223.069 37.3542 221.887 36.2941 220.121L46.3563 219.312L46.3563 219.312ZM46.3563 219.312C46.2519 219.309 46.1487 219.335 46.0576 219.385C45.9667 219.436 45.8911 219.51 45.8386 219.6C44.9532 221.071 43.3446 222.056 41.501 222.056C39.6551 222.056 38.047 221.071 37.1638 219.6C37.1253 219.534 37.074 219.476 37.0129 219.429C36.9514 219.383 36.8812 219.348 36.8064 219.329C36.7316 219.31 36.6537 219.305 36.5772 219.316C36.5008 219.327 36.4272 219.354 36.361 219.393C36.2947 219.433 36.237 219.486 36.1913 219.548C36.1456 219.61 36.1128 219.681 36.0947 219.756C36.0766 219.831 36.0737 219.909 36.0861 219.986C36.0984 220.061 36.1257 220.134 36.1662 220.199L46.3563 219.312L46.3563 219.312Z" id="Şekil" fill="#ACB8C2" fill-rule="evenodd" stroke="#ACB8C2" stroke-width="0.3" clip-path="url(#clip_1)" />
    <path d="M63.2 227.6L63.2 222.52C62.92 223.027 62.5 223.433 61.94 223.74C61.38 224.047 60.7533 224.2 60.06 224.2C59.2067 224.2 58.4533 223.993 57.8 223.58C57.16 223.167 56.66 222.58 56.3 221.82C55.94 221.047 55.76 220.14 55.76 219.1C55.76 218.047 55.94 217.147 56.3 216.4C56.66 215.64 57.16 215.053 57.8 214.64C58.4533 214.227 59.2067 214.02 60.06 214.02C60.78 214.02 61.4267 214.187 62 214.52C62.5733 214.84 62.9933 215.273 63.26 215.82L63.26 214.22L65.7 214.22L65.7 227.6L63.2 227.6L63.2 227.6ZM60.76 222.3C61.5067 222.3 62.1067 222.033 62.56 221.5C63.0133 220.953 63.24 220.153 63.24 219.1C63.24 218.033 63.0133 217.24 62.56 216.72C62.1067 216.187 61.5067 215.92 60.76 215.92C60.0133 215.92 59.4133 216.187 58.96 216.72C58.5067 217.24 58.28 218.033 58.28 219.1C58.28 220.153 58.5067 220.953 58.96 221.5C59.4133 222.033 60.0133 222.3 60.76 222.3L60.76 222.3ZM67.7922 224L67.7922 214.22L70.2322 214.22L70.2322 215.94C70.7122 214.78 71.7389 214.14 73.3122 214.02L74.0722 213.96L74.2322 216.08L72.7922 216.22C71.1522 216.38 70.3322 217.22 70.3322 218.74L70.3322 224L67.7922 224L67.7922 224ZM75.1242 227.6L75.1242 214.22L77.5642 214.22L77.5642 215.78C77.8442 215.247 78.2642 214.82 78.8242 214.5C79.3976 214.18 80.0442 214.02 80.7642 214.02C81.6176 214.02 82.3642 214.227 83.0042 214.64C83.6576 215.053 84.1642 215.64 84.5242 216.4C84.8842 217.147 85.0642 218.047 85.0642 219.1C85.0642 220.14 84.8842 221.047 84.5242 221.82C84.1642 222.58 83.6642 223.167 83.0242 223.58C82.3842 223.993 81.6309 224.2 80.7642 224.2C80.0709 224.2 79.4442 224.053 78.8842 223.76C78.3376 223.453 77.9176 223.047 77.6242 222.54L77.6242 227.6L75.1242 227.6L75.1242 227.6ZM80.0642 222.3C80.8109 222.3 81.4109 222.033 81.8642 221.5C82.3176 220.953 82.5442 220.153 82.5442 219.1C82.5442 218.033 82.3176 217.24 81.8642 216.72C81.4109 216.187 80.8109 215.92 80.0642 215.92C79.3176 215.92 78.7176 216.187 78.2642 216.72C77.8109 217.24 77.5842 218.033 77.5842 219.1C77.5842 220.153 77.8109 220.953 78.2642 221.5C78.7176 222.033 79.3176 222.3 80.0642 222.3L80.0642 222.3ZM90.3764 224.2C89.5231 224.2 88.7697 223.993 88.1164 223.58C87.4764 223.167 86.9764 222.58 86.6164 221.82C86.2564 221.047 86.0764 220.14 86.0764 219.1C86.0764 218.047 86.2564 217.147 86.6164 216.4C86.9764 215.64 87.4764 215.053 88.1164 214.64C88.7697 214.227 89.5231 214.02 90.3764 214.02C91.0697 214.02 91.6964 214.173 92.2564 214.48C92.8164 214.787 93.2364 215.193 93.5164 215.7L93.5164 209.9L96.0164 209.9L96.0164 224L93.5764 224L93.5764 222.38C93.3097 222.94 92.8897 223.387 92.3164 223.72C91.7431 224.04 91.0964 224.2 90.3764 224.2L90.3764 224.2ZM91.0764 222.3C91.8231 222.3 92.4231 222.033 92.8764 221.5C93.3297 220.953 93.5564 220.153 93.5564 219.1C93.5564 218.033 93.3297 217.24 92.8764 216.72C92.4231 216.187 91.8231 215.92 91.0764 215.92C90.3297 215.92 89.7297 216.187 89.2764 216.72C88.8231 217.24 88.5964 218.033 88.5964 219.1C88.5964 220.153 88.8231 220.953 89.2764 221.5C89.7297 222.033 90.3297 222.3 91.0764 222.3L91.0764 222.3ZM98.1086 224L98.1086 209.9L100.609 209.9L100.609 218.38L100.649 218.38L104.589 214.22L107.609 214.22L103.169 218.9L107.889 224L104.829 224L100.649 219.64L100.609 219.64L100.609 224L98.1086 224L98.1086 224ZM111.755 224.2C110.928 224.2 110.155 224.1 109.435 223.9C108.715 223.7 108.115 223.413 107.635 223.04L108.275 221.4C108.768 221.733 109.322 221.993 109.935 222.18C110.548 222.353 111.162 222.44 111.775 222.44C112.415 222.44 112.888 222.333 113.195 222.12C113.515 221.893 113.675 221.6 113.675 221.24C113.675 220.68 113.262 220.32 112.435 220.16L110.435 219.78C108.742 219.46 107.895 218.58 107.895 217.14C107.895 216.5 108.068 215.947 108.415 215.48C108.775 215.013 109.268 214.653 109.895 214.4C110.522 214.147 111.242 214.02 112.055 214.02C112.748 214.02 113.415 214.12 114.055 214.32C114.695 214.507 115.242 214.793 115.695 215.18L115.015 216.82C114.628 216.5 114.162 216.247 113.615 216.06C113.082 215.873 112.568 215.78 112.075 215.78C111.422 215.78 110.935 215.893 110.615 216.12C110.308 216.347 110.155 216.647 110.155 217.02C110.155 217.607 110.535 217.967 111.295 218.1L113.295 218.48C114.162 218.64 114.815 218.933 115.255 219.36C115.708 219.787 115.935 220.36 115.935 221.08C115.935 222.053 115.555 222.82 114.795 223.38C114.035 223.927 113.022 224.2 111.755 224.2L111.755 224.2Z" id="Şekil" fill="#ACB8C2" fill-rule="evenodd" stroke="none" clip-path="url(#clip_1)" />
    <path d="M46.56 268.35C43.83 268.35 41.52 267.837 39.63 266.81C37.7633 265.783 36.34 264.325 35.36 262.435C34.38 260.545 33.89 258.305 33.89 255.715C33.89 253.102 34.3917 250.85 35.395 248.96C36.3983 247.047 37.845 245.577 39.735 244.55C41.625 243.5 43.8883 242.975 46.525 242.975C48.2517 242.975 49.8733 243.232 51.39 243.745C52.9067 244.235 54.1667 244.923 55.17 245.81L53.665 249.31C52.5683 248.447 51.4483 247.828 50.305 247.455C49.1617 247.082 47.9017 246.895 46.525 246.895C43.9117 246.895 41.9283 247.653 40.575 249.17C39.245 250.687 38.58 252.868 38.58 255.715C38.58 258.585 39.2683 260.767 40.645 262.26C42.0217 263.753 44.0633 264.5 46.77 264.5C47.54 264.5 48.3217 264.442 49.115 264.325C49.9317 264.185 50.7367 263.987 51.53 263.73L51.53 257.99L45.86 257.99L45.86 254.665L55.275 254.665L55.275 266.53C54.1317 267.09 52.7783 267.533 51.215 267.86C49.6517 268.187 48.1 268.35 46.56 268.35L46.56 268.35ZM65.2415 268.35C61.0415 268.35 58.9415 265.993 58.9415 261.28L58.9415 250.885L63.3165 250.885L63.3165 261.35C63.3165 262.563 63.5615 263.462 64.0515 264.045C64.5415 264.628 65.3232 264.92 66.3965 264.92C67.5632 264.92 68.5198 264.523 69.2665 263.73C70.0132 262.913 70.3865 261.84 70.3865 260.51L70.3865 250.885L74.7615 250.885L74.7615 268L70.4915 268L70.4915 265.445C69.3482 267.382 67.5982 268.35 65.2415 268.35L65.2415 268.35ZM68.1465 247.07L68.1465 243.045L72.2065 243.045L72.2065 247.07L68.1465 247.07L68.1465 247.07ZM61.5665 247.07L61.5665 243.045L65.6265 243.045L65.6265 247.07L61.5665 247.07L61.5665 247.07ZM83.355 268L75.935 250.885L80.59 250.885L85.35 262.855L90.285 250.885L94.66 250.885L87.135 268L83.355 268L83.355 268ZM103.865 268.35C101.929 268.35 100.26 267.988 98.8603 267.265C97.4603 266.542 96.3753 265.515 95.6053 264.185C94.8586 262.855 94.4853 261.28 94.4853 259.46C94.4853 257.687 94.8469 256.135 95.5703 254.805C96.3169 253.475 97.3319 252.437 98.6153 251.69C99.9219 250.92 101.404 250.535 103.06 250.535C105.487 250.535 107.4 251.305 108.8 252.845C110.224 254.385 110.935 256.485 110.935 259.145L110.935 260.44L98.6853 260.44C99.0119 263.497 100.762 265.025 103.935 265.025C104.892 265.025 105.849 264.885 106.805 264.605C107.762 264.302 108.637 263.835 109.43 263.205L110.655 266.145C109.839 266.822 108.812 267.358 107.575 267.755C106.339 268.152 105.102 268.35 103.865 268.35L103.865 268.35ZM103.235 253.51C101.952 253.51 100.914 253.907 100.12 254.7C99.3269 255.493 98.8486 256.567 98.6853 257.92L107.295 257.92C107.202 256.497 106.805 255.412 106.105 254.665C105.429 253.895 104.472 253.51 103.235 253.51L103.235 253.51ZM113.4 268L113.4 250.885L117.67 250.885L117.67 253.545C118.253 252.565 119.035 251.818 120.015 251.305C121.018 250.792 122.138 250.535 123.375 250.535C127.412 250.535 129.43 252.88 129.43 257.57L129.43 268L125.055 268L125.055 257.78C125.055 256.45 124.798 255.482 124.285 254.875C123.795 254.268 123.025 253.965 121.975 253.965C120.692 253.965 119.665 254.373 118.895 255.19C118.148 255.983 117.775 257.045 117.775 258.375L117.775 268L113.4 268L113.4 268ZM138.824 268.35C136.794 268.35 135.289 267.802 134.309 266.705C133.352 265.585 132.874 263.952 132.874 261.805L132.874 243.325L137.249 243.325L137.249 261.595C137.249 263.695 138.135 264.745 139.909 264.745C140.165 264.745 140.422 264.733 140.679 264.71C140.935 264.687 141.18 264.64 141.414 264.57L141.344 268.035C140.504 268.245 139.664 268.35 138.824 268.35L138.824 268.35ZM142.77 247.21L142.77 242.94L147.67 242.94L147.67 247.21L142.77 247.21L142.77 247.21ZM143.05 268L143.05 250.885L147.425 250.885L147.425 268L143.05 268L143.05 268ZM152.721 272.655L150.936 271.255C151.52 270.672 151.951 270.112 152.231 269.575C152.535 269.062 152.745 268.537 152.861 268L150.586 268L150.586 263.135L155.486 263.135L155.486 266.355C155.486 267.545 155.276 268.63 154.856 269.61C154.46 270.613 153.748 271.628 152.721 272.655L152.721 272.655ZM167.577 268L167.577 243.325L171.322 243.325L180.072 259.46L188.787 243.325L192.462 243.325L192.462 268L188.402 268L188.402 251.375L181.332 264.255L178.707 264.255L171.637 251.445L171.637 268L167.577 268L167.577 268ZM204.277 268.35C202.504 268.35 200.964 267.988 199.657 267.265C198.351 266.542 197.336 265.515 196.612 264.185C195.889 262.832 195.527 261.245 195.527 259.425C195.527 257.605 195.889 256.03 196.612 254.7C197.336 253.37 198.351 252.343 199.657 251.62C200.964 250.897 202.504 250.535 204.277 250.535C206.051 250.535 207.591 250.897 208.897 251.62C210.204 252.343 211.219 253.37 211.942 254.7C212.666 256.03 213.027 257.605 213.027 259.425C213.027 261.245 212.666 262.832 211.942 264.185C211.219 265.515 210.204 266.542 208.897 267.265C207.591 267.988 206.051 268.35 204.277 268.35L204.277 268.35ZM204.277 265.025C205.584 265.025 206.634 264.558 207.427 263.625C208.221 262.668 208.617 261.268 208.617 259.425C208.617 257.558 208.221 256.17 207.427 255.26C206.634 254.327 205.584 253.86 204.277 253.86C202.971 253.86 201.921 254.327 201.127 255.26C200.334 256.17 199.937 257.558 199.937 259.425C199.937 261.268 200.334 262.668 201.127 263.625C201.921 264.558 202.971 265.025 204.277 265.025L204.277 265.025ZM225.508 268.35C224.248 268.35 223.117 268.07 222.113 267.51C221.133 266.95 220.398 266.192 219.908 265.235L219.908 268L215.638 268L215.638 243.325L220.013 243.325L220.013 253.405C220.527 252.542 221.262 251.853 222.218 251.34C223.198 250.803 224.295 250.535 225.508 250.535C227.025 250.535 228.343 250.897 229.463 251.62C230.583 252.343 231.458 253.37 232.088 254.7C232.718 256.007 233.033 257.582 233.033 259.425C233.033 261.245 232.718 262.832 232.088 264.185C231.458 265.515 230.572 266.542 229.428 267.265C228.308 267.988 227.002 268.35 225.508 268.35L225.508 268.35ZM224.283 265.025C225.59 265.025 226.64 264.558 227.433 263.625C228.227 262.668 228.623 261.268 228.623 259.425C228.623 257.558 228.227 256.17 227.433 255.26C226.64 254.327 225.59 253.86 224.283 253.86C222.977 253.86 221.927 254.327 221.133 255.26C220.34 256.17 219.943 257.558 219.943 259.425C219.943 261.268 220.34 262.668 221.133 263.625C221.927 264.558 222.977 265.025 224.283 265.025L224.283 265.025ZM235.345 247.21L235.345 242.94L240.245 242.94L240.245 247.21L235.345 247.21L235.345 247.21ZM235.625 268L235.625 250.885L240 250.885L240 268L235.625 268L235.625 268ZM249.496 268.35C247.466 268.35 245.961 267.802 244.981 266.705C244.024 265.585 243.546 263.952 243.546 261.805L243.546 243.325L247.921 243.325L247.921 261.595C247.921 263.695 248.807 264.745 250.581 264.745C250.837 264.745 251.094 264.733 251.351 264.71C251.607 264.687 251.852 264.64 252.086 264.57L252.016 268.035C251.176 268.245 250.336 268.35 249.496 268.35L249.496 268.35ZM267.196 268L259.776 250.885L264.431 250.885L269.191 262.855L274.126 250.885L278.501 250.885L270.976 268L267.196 268L267.196 268ZM287.706 268.35C285.769 268.35 284.101 267.988 282.701 267.265C281.301 266.542 280.216 265.515 279.446 264.185C278.699 262.855 278.326 261.28 278.326 259.46C278.326 257.687 278.688 256.135 279.411 254.805C280.158 253.475 281.173 252.437 282.456 251.69C283.763 250.92 285.244 250.535 286.901 250.535C289.328 250.535 291.241 251.305 292.641 252.845C294.064 254.385 294.776 256.485 294.776 259.145L294.776 260.44L282.526 260.44C282.853 263.497 284.603 265.025 287.776 265.025C288.733 265.025 289.689 264.885 290.646 264.605C291.603 264.302 292.478 263.835 293.271 263.205L294.496 266.145C293.679 266.822 292.653 267.358 291.416 267.755C290.179 268.152 288.943 268.35 287.706 268.35L287.706 268.35ZM287.076 253.51C285.793 253.51 284.754 253.907 283.961 254.7C283.168 255.493 282.689 256.567 282.526 257.92L291.136 257.92C291.043 256.497 290.646 255.412 289.946 254.665C289.269 253.895 288.313 253.51 287.076 253.51L287.076 253.51ZM34.695 307L34.695 282.325L51.11 282.325L51.11 285.895L39 285.895L39 292.685L50.34 292.685L50.34 296.255L39 296.255L39 303.43L51.11 303.43L51.11 307L34.695 307L34.695 307ZM61.8279 307.35C57.3012 307.35 55.0379 305.11 55.0379 300.63L55.0379 293.175L51.7479 293.175L51.7479 289.885L55.0379 289.885L55.0379 284.775L59.4129 284.775L59.4129 289.885L64.5929 289.885L64.5929 293.175L59.4129 293.175L59.4129 300.385C59.4129 301.505 59.6579 302.345 60.1479 302.905C60.6379 303.465 61.4312 303.745 62.5279 303.745C62.8546 303.745 63.1929 303.71 63.5429 303.64C63.8929 303.547 64.2546 303.453 64.6279 303.36L65.2929 306.58C64.8729 306.813 64.3362 307 63.6829 307.14C63.0529 307.28 62.4346 307.35 61.8279 307.35L61.8279 307.35ZM66.4205 307L66.4205 282.325L70.7955 282.325L70.7955 297.165L70.8655 297.165L77.7605 289.885L83.0455 289.885L75.2755 298.075L83.5355 307L78.1805 307L70.8655 299.37L70.7955 299.37L70.7955 307L66.4205 307L66.4205 307ZM83.9052 286.21L83.9052 281.94L88.8052 281.94L88.8052 286.21L83.9052 286.21L83.9052 286.21ZM84.1852 307L84.1852 289.885L88.5602 289.885L88.5602 307L84.1852 307L84.1852 307ZM98.0561 307.35C96.0261 307.35 94.5211 306.802 93.5411 305.705C92.5844 304.585 92.1061 302.952 92.1061 300.805L92.1061 282.325L96.4811 282.325L96.4811 300.595C96.4811 302.695 97.3677 303.745 99.1411 303.745C99.3977 303.745 99.6544 303.733 99.9111 303.71C100.168 303.687 100.413 303.64 100.646 303.57L100.576 307.035C99.7361 307.245 98.8961 307.35 98.0561 307.35L98.0561 307.35ZM102.003 286.21L102.003 281.94L106.903 281.94L106.903 286.21L102.003 286.21L102.003 286.21ZM102.283 307L102.283 289.885L106.658 289.885L106.658 307L102.283 307L102.283 307ZM124.937 307L124.937 295.66L115.452 282.325L120.667 282.325L127.247 291.67L133.862 282.325L138.867 282.325L129.417 295.695L129.417 307L124.937 307L124.937 307ZM144.173 307.35C142.399 307.35 140.859 306.988 139.553 306.265C138.246 305.542 137.231 304.515 136.508 303.185C135.784 301.832 135.423 300.245 135.423 298.425C135.423 296.605 135.784 295.03 136.508 293.7C137.231 292.37 138.246 291.343 139.553 290.62C140.859 289.897 142.399 289.535 144.173 289.535C145.946 289.535 147.486 289.897 148.793 290.62C150.099 291.343 151.114 292.37 151.838 293.7C152.561 295.03 152.923 296.605 152.923 298.425C152.923 300.245 152.561 301.832 151.838 303.185C151.114 304.515 150.099 305.542 148.793 306.265C147.486 306.988 145.946 307.35 144.173 307.35L144.173 307.35ZM144.173 304.025C145.479 304.025 146.529 303.558 147.323 302.625C148.116 301.668 148.513 300.268 148.513 298.425C148.513 296.558 148.116 295.17 147.323 294.26C146.529 293.327 145.479 292.86 144.173 292.86C142.866 292.86 141.816 293.327 141.023 294.26C140.229 295.17 139.833 296.558 139.833 298.425C139.833 300.268 140.229 301.668 141.023 302.625C141.816 303.558 142.866 304.025 144.173 304.025L144.173 304.025ZM145.433 286.105L145.433 282.08L149.493 282.08L149.493 286.105L145.433 286.105L145.433 286.105ZM138.853 286.105L138.853 282.08L142.913 282.08L142.913 286.105L138.853 286.105L138.853 286.105ZM155.534 307L155.534 289.885L159.804 289.885L159.804 292.545C160.387 291.565 161.169 290.818 162.149 290.305C163.152 289.792 164.272 289.535 165.509 289.535C169.545 289.535 171.564 291.88 171.564 296.57L171.564 307L167.189 307L167.189 296.78C167.189 295.45 166.932 294.482 166.419 293.875C165.929 293.268 165.159 292.965 164.109 292.965C162.825 292.965 161.799 293.373 161.029 294.19C160.282 294.983 159.909 296.045 159.909 297.375L159.909 307L155.534 307L155.534 307ZM183.442 307.35C181.506 307.35 179.837 306.988 178.437 306.265C177.037 305.542 175.952 304.515 175.182 303.185C174.436 301.855 174.062 300.28 174.062 298.46C174.062 296.687 174.424 295.135 175.147 293.805C175.894 292.475 176.909 291.437 178.192 290.69C179.499 289.92 180.981 289.535 182.637 289.535C185.064 289.535 186.977 290.305 188.377 291.845C189.801 293.385 190.512 295.485 190.512 298.145L190.512 299.44L178.262 299.44C178.589 302.497 180.339 304.025 183.512 304.025C184.469 304.025 185.426 303.885 186.382 303.605C187.339 303.302 188.214 302.835 189.007 302.205L190.232 305.145C189.416 305.822 188.389 306.358 187.152 306.755C185.916 307.152 184.679 307.35 183.442 307.35L183.442 307.35ZM182.812 292.51C181.529 292.51 180.491 292.907 179.697 293.7C178.904 294.493 178.426 295.567 178.262 296.92L186.872 296.92C186.779 295.497 186.382 294.412 185.682 293.665C185.006 292.895 184.049 292.51 182.812 292.51L182.812 292.51ZM200.749 307.35C196.222 307.35 193.959 305.11 193.959 300.63L193.959 293.175L190.669 293.175L190.669 289.885L193.959 289.885L193.959 284.775L198.334 284.775L198.334 289.885L203.514 289.885L203.514 293.175L198.334 293.175L198.334 300.385C198.334 301.505 198.579 302.345 199.069 302.905C199.559 303.465 200.352 303.745 201.449 303.745C201.775 303.745 202.114 303.71 202.464 303.64C202.814 303.547 203.175 303.453 203.549 303.36L204.214 306.58C203.794 306.813 203.257 307 202.604 307.14C201.974 307.28 201.355 307.35 200.749 307.35L200.749 307.35ZM205.061 286.21L205.061 281.94L209.961 281.94L209.961 286.21L205.061 286.21L205.061 286.21ZM205.341 307L205.341 289.885L209.716 289.885L209.716 307L205.341 307L205.341 307ZM213.332 307L213.332 289.885L217.602 289.885L217.602 292.51C218.116 291.577 218.827 290.853 219.737 290.34C220.647 289.803 221.697 289.535 222.887 289.535C225.454 289.535 227.134 290.655 227.927 292.895C228.464 291.845 229.234 291.028 230.237 290.445C231.241 289.838 232.384 289.535 233.667 289.535C237.517 289.535 239.442 291.88 239.442 296.57L239.442 307L235.067 307L235.067 296.745C235.067 295.438 234.846 294.482 234.402 293.875C233.982 293.268 233.259 292.965 232.232 292.965C231.089 292.965 230.191 293.373 229.537 294.19C228.884 294.983 228.557 296.092 228.557 297.515L228.557 307L224.182 307L224.182 296.745C224.182 295.438 223.961 294.482 223.517 293.875C223.097 293.268 222.386 292.965 221.382 292.965C220.239 292.965 219.341 293.373 218.687 294.19C218.034 294.983 217.707 296.092 217.707 297.515L217.707 307L213.332 307L213.332 307ZM34.695 346L34.695 321.325L39.175 321.325L39.175 332.245L39.245 332.245L50.13 321.325L55.59 321.325L43.585 333.19L56.185 346L50.655 346L39.245 334.59L39.175 334.59L39.175 346L34.695 346L34.695 346ZM63.8779 346.35C62.1045 346.35 60.5645 345.988 59.2579 345.265C57.9512 344.542 56.9362 343.515 56.2129 342.185C55.4895 340.832 55.1279 339.245 55.1279 337.425C55.1279 335.605 55.4895 334.03 56.2129 332.7C56.9362 331.37 57.9512 330.343 59.2579 329.62C60.5645 328.897 62.1045 328.535 63.8779 328.535C65.6512 328.535 67.1912 328.897 68.4979 329.62C69.8045 330.343 70.8195 331.37 71.5429 332.7C72.2662 334.03 72.6279 335.605 72.6279 337.425C72.6279 339.245 72.2662 340.832 71.5429 342.185C70.8195 343.515 69.8045 344.542 68.4979 345.265C67.1912 345.988 65.6512 346.35 63.8779 346.35L63.8779 346.35ZM63.8779 343.025C65.1845 343.025 66.2345 342.558 67.0279 341.625C67.8212 340.668 68.2179 339.268 68.2179 337.425C68.2179 335.558 67.8212 334.17 67.0279 333.26C66.2345 332.327 65.1845 331.86 63.8779 331.86C62.5712 331.86 61.5212 332.327 60.7279 333.26C59.9345 334.17 59.5379 335.558 59.5379 337.425C59.5379 339.268 59.9345 340.668 60.7279 341.625C61.5212 342.558 62.5712 343.025 63.8779 343.025L63.8779 343.025ZM81.1889 346.35C79.1589 346.35 77.6539 345.802 76.6739 344.705C75.7172 343.585 75.2389 341.952 75.2389 339.805L75.2389 321.325L79.6139 321.325L79.6139 339.595C79.6139 341.695 80.5005 342.745 82.2739 342.745C82.5305 342.745 82.7872 342.733 83.0439 342.71C83.3005 342.687 83.5455 342.64 83.7789 342.57L83.7089 346.035C82.8689 346.245 82.0289 346.35 81.1889 346.35L81.1889 346.35ZM91.0506 346.35C89.814 346.35 88.7056 346.117 87.7256 345.65C86.769 345.16 86.0106 344.507 85.4506 343.69C84.914 342.873 84.6456 341.952 84.6456 340.925C84.6456 339.665 84.9723 338.673 85.6256 337.95C86.279 337.203 87.3406 336.667 88.8106 336.34C90.2806 336.013 92.2523 335.85 94.7256 335.85L95.9506 335.85L95.9506 335.115C95.9506 333.948 95.694 333.108 95.1806 332.595C94.6673 332.082 93.804 331.825 92.5906 331.825C91.634 331.825 90.654 331.977 89.6506 332.28C88.6473 332.56 87.6323 333.003 86.6056 333.61L85.3456 330.635C85.9523 330.215 86.664 329.853 87.4806 329.55C88.3206 329.223 89.1956 328.978 90.1056 328.815C91.039 328.628 91.914 328.535 92.7306 328.535C95.2273 328.535 97.0823 329.118 98.2956 330.285C99.509 331.428 100.116 333.213 100.116 335.64L100.116 346L96.0206 346L96.0206 343.27C95.624 344.227 94.994 344.985 94.1306 345.545C93.2673 346.082 92.2406 346.35 91.0506 346.35L91.0506 346.35ZM91.9606 343.34C93.104 343.34 94.049 342.943 94.7956 342.15C95.5656 341.357 95.9506 340.353 95.9506 339.14L95.9506 338.37L94.7606 338.37C92.5673 338.37 91.039 338.545 90.1756 338.895C89.3356 339.222 88.9156 339.828 88.9156 340.715C88.9156 341.485 89.184 342.115 89.7206 342.605C90.2573 343.095 91.004 343.34 91.9606 343.34L91.9606 343.34ZM104.925 352.3L108.075 345.3L100.97 328.885L105.625 328.885L110.42 340.855L115.32 328.885L119.73 328.885L109.44 352.3L104.925 352.3L104.925 352.3ZM126.758 346.35C124.728 346.35 123.223 345.802 122.243 344.705C121.287 343.585 120.808 341.952 120.808 339.805L120.808 321.325L125.183 321.325L125.183 339.595C125.183 341.695 126.07 342.745 127.843 342.745C128.1 342.745 128.357 342.733 128.613 342.71C128.87 342.687 129.115 342.64 129.348 342.57L129.278 346.035C128.438 346.245 127.598 346.35 126.758 346.35L126.758 346.35ZM130.985 346L130.985 328.885L135.36 328.885L135.36 346L130.985 346L130.985 346ZM146.886 352.65C145.299 352.65 143.806 352.463 142.406 352.09C141.029 351.74 139.816 351.192 138.766 350.445L140.026 347.4C141.006 348.053 142.056 348.532 143.176 348.835C144.296 349.162 145.416 349.325 146.536 349.325C149.663 349.325 151.226 347.82 151.226 344.81L151.226 342.465C150.736 343.422 149.978 344.18 148.951 344.74C147.948 345.3 146.828 345.58 145.591 345.58C144.051 345.58 142.709 345.23 141.566 344.53C140.423 343.807 139.536 342.803 138.906 341.52C138.276 340.237 137.961 338.743 137.961 337.04C137.961 335.337 138.276 333.855 138.906 332.595C139.536 331.312 140.423 330.32 141.566 329.62C142.709 328.897 144.051 328.535 145.591 328.535C146.874 328.535 148.018 328.827 149.021 329.41C150.024 329.97 150.759 330.728 151.226 331.685L151.226 328.885L155.496 328.885L155.496 344.285C155.496 347.062 154.761 349.15 153.291 350.55C151.821 351.95 149.686 352.65 146.886 352.65L146.886 352.65ZM146.781 342.255C148.134 342.255 149.208 341.788 150.001 340.855C150.794 339.922 151.191 338.65 151.191 337.04C151.191 335.43 150.794 334.17 150.001 333.26C149.208 332.327 148.134 331.86 146.781 331.86C145.428 331.86 144.354 332.327 143.561 333.26C142.768 334.17 142.371 335.43 142.371 337.04C142.371 338.65 142.768 339.922 143.561 340.855C144.354 341.788 145.428 342.255 146.781 342.255L146.781 342.255ZM147.201 326.715C145.498 326.715 144.121 326.108 143.071 324.895C142.021 323.682 141.461 322.037 141.391 319.96L143.876 319.715C143.969 321.115 144.296 322.188 144.856 322.935C145.439 323.682 146.221 324.055 147.201 324.055C148.181 324.055 148.951 323.682 149.511 322.935C150.094 322.188 150.433 321.115 150.526 319.715L153.011 319.96C152.964 322.037 152.416 323.682 151.366 324.895C150.316 326.108 148.928 326.715 147.201 326.715L147.201 326.715ZM159.029 346L159.029 328.885L163.404 328.885L163.404 346L159.029 346L159.029 346ZM167.685 338.685L166.32 321.325L171.71 321.325L170.345 338.685L167.685 338.685L167.685 338.685ZM166.565 346L166.565 341.135L171.465 341.135L171.465 346L166.565 346L166.565 346Z" id="Şekil" fill="#191D21" fill-rule="evenodd" stroke="none" clip-path="url(#clip_1)" />
    <path d="M117.547 780.565C233.088 780.565 326.753 777.174 326.753 772.992C326.753 768.81 233.088 765.419 117.547 765.419C2.00534 765.419 -91.6595 768.81 -91.6595 772.992C-91.6595 777.174 2.00534 780.565 117.547 780.565L117.547 780.565Z" id="Şekil" fill="#D5ECFF" fill-opacity="0.5" stroke="none" clip-path="url(#clip_1)" />
    <g id="Maske-Grubu" clip-path="url(#clip_1)">
      <path d="M51.814 0L0 0L0 29.096L51.814 29.096L51.814 0L51.814 0Z" id="Şekil" fill="none" fill-rule="evenodd" stroke="none" />
    </g>
    <path d="M48.7682 741.078C48.7682 741.078 49.8679 749.403 46.883 754.587C43.8982 759.77 39.8137 766.681 46.0976 766.838C52.3814 766.995 63.0639 765.895 77.3597 768.094C91.6553 770.293 96.6824 768.409 93.8547 764.796C91.0269 761.183 65.4203 755.686 68.2481 747.832L71.0758 739.979L48.7682 741.078L48.7682 741.078Z" id="Şekil" fill="#C26E5E" fill-rule="evenodd" stroke="none" clip-path="url(#clip_1)" />
    <path d="M155.929 691.801C156.442 713.896 156.699 745.496 156.699 745.496L132.064 746.448C132.064 746.448 126.924 747.866 123.734 686.018C123.32 677.999 107.296 618.704 107.809 625.74C108.404 633.881 70.3053 742.343 70.3053 742.343L48.2641 742.19L77.9592 569.694L135.027 569.694C135.027 569.694 155.414 669.706 155.929 691.801L155.929 691.801Z" id="Şekil" fill="#56ACF6" fill-rule="evenodd" stroke="none" clip-path="url(#clip_1)" />
    <path d="M111.459 606.228L107.172 625.599L108.447 625.881L112.734 606.51L111.459 606.228L111.459 606.228Z" id="Şekil" fill="#204EB2" stroke="none" clip-path="url(#clip_1)" />
    <path d="M99.4866 484.359C99.4866 484.359 99.0041 494.959 92.815 498.701C87.1996 502.096 99.0963 521.795 111.894 520.62C118.9 519.976 120.541 500.837 120.541 500.837C120.541 500.837 114.885 499.745 116.974 491.128L99.4866 484.359L99.4866 484.359Z" id="Şekil" fill="#C26E5E" fill-rule="evenodd" stroke="none" clip-path="url(#clip_1)" />
    <path d="M109.694 495.078C101.394 494.076 95.4041 488.632 94.5653 479.6C92.1524 479.983 91.5833 473.711 92.2553 471.696C92.9279 469.678 95.1236 470.858 95.1236 470.858C95.1236 470.858 95.3059 470.379 95.4336 469.856C99.0594 455.018 109.215 455.607 109.215 455.607C127.876 456.577 123.503 475.584 122.437 480.626C121.371 485.669 117.718 496.045 109.694 495.078L109.694 495.078Z" id="Şekil" fill="#C26E5E" fill-rule="evenodd" stroke="none" clip-path="url(#clip_1)" />
    <path d="M92.7914 497.62C92.7914 497.62 71.6212 505.866 67.3032 510.183C62.9852 514.5 55.0311 543.699 55.0311 543.699C55.0311 543.699 69.1213 546.88 78.6664 544.721L79.4618 541.654L74.7582 585.671C74.7582 585.671 108.247 591.692 137.22 582.285L138.914 543.535C138.914 543.535 150.014 544.475 157.54 542.971C157.54 542.971 150.202 514.754 143.052 509.111C135.904 503.468 118.189 498.82 118.189 498.82C118.189 498.82 117.034 504.738 105.65 504.214C97.3359 503.831 94.0458 499.193 92.7914 497.62L92.7914 497.62Z" id="Şekil" fill="#E4F9FF" fill-rule="evenodd" stroke="none" clip-path="url(#clip_1)" />
    <path d="M77.3207 544.234L76.5464 544.114L78.5199 531.364L79.2941 531.484L77.3207 544.234L77.3207 544.234Z" id="Şekil" fill="#204EB2" fill-rule="evenodd" stroke="none" clip-path="url(#clip_1)" />
    <path d="M137.174 543.433L135.201 530.683L135.976 530.563L137.949 543.314L137.174 543.433L137.174 543.433Z" id="Şekil" fill="#204EB2" fill-rule="evenodd" stroke="none" clip-path="url(#clip_1)" />
    <g id="Maske-Grubu" clip-path="url(#clip_1)">
      <path d="M12.2721 12.563C7.95422 16.881 1.52588e-05 46.079 1.52588e-05 46.079C1.52588e-05 46.079 14.0902 49.26 23.6352 47.102L24.4307 44.034L19.7272 88.052C19.7272 88.052 53.2166 94.072 82.1896 84.666L83.8826 45.915C83.8826 45.915 94.9826 46.856 102.509 45.351C102.509 45.351 95.1706 17.135 88.0216 11.491C80.8726 5.84802 63.1586 1.20001 63.1586 1.20001C63.1586 1.20001 62.0026 7.11801 50.6186 6.59402C42.305 6.21201 39.0148 1.57401 37.7603 0C37.7603 0 16.5903 8.246 12.2721 12.563L12.2721 12.563Z" id="Şekil" fill="none" fill-rule="evenodd" stroke="none" />
    </g>
    <g id="Maske-Grubu" clip-path="url(#clip_1)">
      <path d="M12.2721 12.563C7.95422 16.881 1.52588e-05 46.079 1.52588e-05 46.079C1.52588e-05 46.079 14.0902 49.26 23.6352 47.102L24.4307 44.034L19.7272 88.052C19.7272 88.052 53.2166 94.072 82.1896 84.666L83.8826 45.915C83.8826 45.915 94.9826 46.856 102.509 45.351C102.509 45.351 95.1706 17.135 88.0216 11.491C80.8726 5.84802 63.1586 1.20001 63.1586 1.20001C63.1586 1.20001 62.0026 7.11801 50.6186 6.59402C42.305 6.21201 39.0148 1.57401 37.7603 0C37.7603 0 16.5903 8.246 12.2721 12.563L12.2721 12.563Z" id="Şekil" fill="none" fill-rule="evenodd" stroke="none" />
    </g>
    <g id="Maske-Grubu" clip-path="url(#clip_1)">
      <path d="M12.2721 12.563C7.95422 16.881 1.52588e-05 46.079 1.52588e-05 46.079C1.52588e-05 46.079 14.0902 49.26 23.6352 47.102L24.4307 44.034L19.7272 88.052C19.7272 88.052 53.2166 94.072 82.1896 84.666L83.8826 45.915C83.8826 45.915 94.9826 46.856 102.509 45.351C102.509 45.351 95.1706 17.135 88.0216 11.491C80.8726 5.84802 63.1586 1.20001 63.1586 1.20001C63.1586 1.20001 62.0026 7.11801 50.6186 6.59402C42.305 6.21201 39.0148 1.57401 37.7603 0C37.7603 0 16.5903 8.246 12.2721 12.563L12.2721 12.563Z" id="Şekil" fill="none" fill-rule="evenodd" stroke="none" />
    </g>
    <g id="Maske-Grubu" clip-path="url(#clip_1)">
      <path d="M12.2721 12.563C7.95422 16.881 1.52588e-05 46.079 1.52588e-05 46.079C1.52588e-05 46.079 14.0902 49.26 23.6352 47.102L24.4307 44.034L19.7272 88.052C19.7272 88.052 53.2166 94.072 82.1896 84.666L83.8826 45.915C83.8826 45.915 94.9826 46.856 102.509 45.351C102.509 45.351 95.1706 17.135 88.0216 11.491C80.8726 5.84802 63.1586 1.20001 63.1586 1.20001C63.1586 1.20001 62.0026 7.11801 50.6186 6.59402C42.305 6.21201 39.0148 1.57401 37.7603 0C37.7603 0 16.5903 8.246 12.2721 12.563L12.2721 12.563Z" id="Şekil" fill="none" fill-rule="evenodd" stroke="none" />
    </g>
    <g id="Maske-Grubu" clip-path="url(#clip_1)">
      <path d="M12.2721 12.563C7.95422 16.881 1.52588e-05 46.079 1.52588e-05 46.079C1.52588e-05 46.079 14.0902 49.26 23.6352 47.102L24.4307 44.034L19.7272 88.052C19.7272 88.052 53.2166 94.072 82.1896 84.666L83.8826 45.915C83.8826 45.915 94.9826 46.856 102.509 45.351C102.509 45.351 95.1706 17.135 88.0216 11.491C80.8726 5.84802 63.1586 1.20001 63.1586 1.20001C63.1586 1.20001 62.0026 7.11801 50.6186 6.59402C42.305 6.21201 39.0148 1.57401 37.7603 0C37.7603 0 16.5903 8.246 12.2721 12.563L12.2721 12.563Z" id="Şekil" fill="none" fill-rule="evenodd" stroke="none" />
    </g>
    <g id="Maske-Grubu" clip-path="url(#clip_1)">
      <path d="M12.2721 12.563C7.95422 16.881 1.52588e-05 46.079 1.52588e-05 46.079C1.52588e-05 46.079 14.0902 49.26 23.6352 47.102L24.4307 44.034L19.7272 88.052C19.7272 88.052 53.2166 94.072 82.1896 84.666L83.8826 45.915C83.8826 45.915 94.9826 46.856 102.509 45.351C102.509 45.351 95.1706 17.135 88.0216 11.491C80.8726 5.84802 63.1586 1.20001 63.1586 1.20001C63.1586 1.20001 62.0026 7.11801 50.6186 6.59402C42.305 6.21201 39.0148 1.57401 37.7603 0C37.7603 0 16.5903 8.246 12.2721 12.563L12.2721 12.563Z" id="Şekil" fill="none" fill-rule="evenodd" stroke="none" />
    </g>
    <g id="Maske-Grubu" clip-path="url(#clip_1)">
      <path d="M12.2721 12.563C7.95422 16.881 1.52588e-05 46.079 1.52588e-05 46.079C1.52588e-05 46.079 14.0902 49.26 23.6352 47.102L24.4307 44.034L19.7272 88.052C19.7272 88.052 53.2166 94.072 82.1896 84.666L83.8826 45.915C83.8826 45.915 94.9826 46.856 102.509 45.351C102.509 45.351 95.1706 17.135 88.0216 11.491C80.8726 5.84802 63.1586 1.20001 63.1586 1.20001C63.1586 1.20001 62.0026 7.11801 50.6186 6.59402C42.305 6.21201 39.0148 1.57401 37.7603 0C37.7603 0 16.5903 8.246 12.2721 12.563L12.2721 12.563Z" id="Şekil" fill="none" fill-rule="evenodd" stroke="none" />
    </g>
    <g id="Maske-Grubu" clip-path="url(#clip_1)">
      <path d="M12.2721 12.563C7.95422 16.881 1.52588e-05 46.079 1.52588e-05 46.079C1.52588e-05 46.079 14.0902 49.26 23.6352 47.102L24.4307 44.034L19.7272 88.052C19.7272 88.052 53.2166 94.072 82.1896 84.666L83.8826 45.915C83.8826 45.915 94.9826 46.856 102.509 45.351C102.509 45.351 95.1706 17.135 88.0216 11.491C80.8726 5.84802 63.1586 1.20001 63.1586 1.20001C63.1586 1.20001 62.0026 7.11801 50.6186 6.59402C42.305 6.21201 39.0148 1.57401 37.7603 0C37.7603 0 16.5903 8.246 12.2721 12.563L12.2721 12.563Z" id="Şekil" fill="none" fill-rule="evenodd" stroke="none" />
    </g>
    <g id="Maske-Grubu" clip-path="url(#clip_1)">
      <path d="M12.2721 12.563C7.95422 16.881 1.52588e-05 46.079 1.52588e-05 46.079C1.52588e-05 46.079 14.0902 49.26 23.6352 47.102L24.4307 44.034L19.7272 88.052C19.7272 88.052 53.2166 94.072 82.1896 84.666L83.8826 45.915C83.8826 45.915 94.9826 46.856 102.509 45.351C102.509 45.351 95.1706 17.135 88.0216 11.491C80.8726 5.84802 63.1586 1.20001 63.1586 1.20001C63.1586 1.20001 62.0026 7.11801 50.6186 6.59402C42.305 6.21201 39.0148 1.57401 37.7603 0C37.7603 0 16.5903 8.246 12.2721 12.563L12.2721 12.563Z" id="Şekil" fill="none" fill-rule="evenodd" stroke="none" />
    </g>
    <g id="Maske-Grubu" clip-path="url(#clip_1)">
      <path d="M12.2721 12.563C7.95422 16.881 1.52588e-05 46.079 1.52588e-05 46.079C1.52588e-05 46.079 14.0902 49.26 23.6352 47.102L24.4307 44.034L19.7272 88.052C19.7272 88.052 53.2166 94.072 82.1896 84.666L83.8826 45.915C83.8826 45.915 94.9826 46.856 102.509 45.351C102.509 45.351 95.1706 17.135 88.0216 11.491C80.8726 5.84802 63.1586 1.20001 63.1586 1.20001C63.1586 1.20001 62.0026 7.11801 50.6186 6.59402C42.305 6.21201 39.0148 1.57401 37.7603 0C37.7603 0 16.5903 8.246 12.2721 12.563L12.2721 12.563Z" id="Şekil" fill="none" fill-rule="evenodd" stroke="none" />
    </g>
    <g id="Maske-Grubu" clip-path="url(#clip_1)">
      <path d="M12.2721 12.563C7.95422 16.881 1.52588e-05 46.079 1.52588e-05 46.079C1.52588e-05 46.079 14.0902 49.26 23.6352 47.102L24.4307 44.034L19.7272 88.052C19.7272 88.052 53.2166 94.072 82.1896 84.666L83.8826 45.915C83.8826 45.915 94.9826 46.856 102.509 45.351C102.509 45.351 95.1706 17.135 88.0216 11.491C80.8726 5.84802 63.1586 1.20001 63.1586 1.20001C63.1586 1.20001 62.0026 7.11801 50.6186 6.59402C42.305 6.21201 39.0148 1.57401 37.7603 0C37.7603 0 16.5903 8.246 12.2721 12.563L12.2721 12.563Z" id="Şekil" fill="none" fill-rule="evenodd" stroke="none" />
    </g>
    <g id="Maske-Grubu" clip-path="url(#clip_1)">
      <path d="M12.2721 12.563C7.95422 16.881 1.52588e-05 46.079 1.52588e-05 46.079C1.52588e-05 46.079 14.0902 49.26 23.6352 47.102L24.4307 44.034L19.7272 88.052C19.7272 88.052 53.2166 94.072 82.1896 84.666L83.8826 45.915C83.8826 45.915 94.9826 46.856 102.509 45.351C102.509 45.351 95.1706 17.135 88.0216 11.491C80.8726 5.84802 63.1586 1.20001 63.1586 1.20001C63.1586 1.20001 62.0026 7.11801 50.6186 6.59402C42.305 6.21201 39.0148 1.57401 37.7603 0C37.7603 0 16.5903 8.246 12.2721 12.563L12.2721 12.563Z" id="Şekil" fill="none" fill-rule="evenodd" stroke="none" />
    </g>
    <g id="Maske-Grubu" clip-path="url(#clip_1)">
      <path d="M12.2721 12.563C7.95422 16.881 1.52588e-05 46.079 1.52588e-05 46.079C1.52588e-05 46.079 14.0902 49.26 23.6352 47.102L24.4307 44.034L19.7272 88.052C19.7272 88.052 53.2166 94.072 82.1896 84.666L83.8826 45.915C83.8826 45.915 94.9826 46.856 102.509 45.351C102.509 45.351 95.1706 17.135 88.0216 11.491C80.8726 5.84802 63.1586 1.20001 63.1586 1.20001C63.1586 1.20001 62.0026 7.11801 50.6186 6.59402C42.305 6.21201 39.0148 1.57401 37.7603 0C37.7603 0 16.5903 8.246 12.2721 12.563L12.2721 12.563Z" id="Şekil" fill="none" fill-rule="evenodd" stroke="none" />
    </g>
    <g id="Maske-Grubu" clip-path="url(#clip_1)">
      <path d="M12.2721 12.563C7.95422 16.881 1.52588e-05 46.079 1.52588e-05 46.079C1.52588e-05 46.079 14.0902 49.26 23.6352 47.102L24.4307 44.034L19.7272 88.052C19.7272 88.052 53.2166 94.072 82.1896 84.666L83.8826 45.915C83.8826 45.915 94.9826 46.856 102.509 45.351C102.509 45.351 95.1706 17.135 88.0216 11.491C80.8726 5.84802 63.1586 1.20001 63.1586 1.20001C63.1586 1.20001 62.0026 7.11801 50.6186 6.59402C42.305 6.21201 39.0148 1.57401 37.7603 0C37.7603 0 16.5903 8.246 12.2721 12.563L12.2721 12.563Z" id="Şekil" fill="none" fill-rule="evenodd" stroke="none" />
    </g>
    <g id="Maske-Grubu" clip-path="url(#clip_1)">
      <path d="M12.2721 12.563C7.95422 16.881 1.52588e-05 46.079 1.52588e-05 46.079C1.52588e-05 46.079 14.0902 49.26 23.6352 47.102L24.4307 44.034L19.7272 88.052C19.7272 88.052 53.2166 94.072 82.1896 84.666L83.8826 45.915C83.8826 45.915 94.9826 46.856 102.509 45.351C102.509 45.351 95.1706 17.135 88.0216 11.491C80.8726 5.84802 63.1586 1.20001 63.1586 1.20001C63.1586 1.20001 62.0026 7.11801 50.6186 6.59402C42.305 6.21201 39.0148 1.57401 37.7603 0C37.7603 0 16.5903 8.246 12.2721 12.563L12.2721 12.563Z" id="Şekil" fill="none" fill-rule="evenodd" stroke="none" />
    </g>
    <g id="Maske-Grubu" clip-path="url(#clip_1)">
      <path d="M12.2721 12.563C7.95422 16.881 1.52588e-05 46.079 1.52588e-05 46.079C1.52588e-05 46.079 14.0902 49.26 23.6352 47.102L24.4307 44.034L19.7272 88.052C19.7272 88.052 53.2166 94.072 82.1896 84.666L83.8826 45.915C83.8826 45.915 94.9826 46.856 102.509 45.351C102.509 45.351 95.1706 17.135 88.0216 11.491C80.8726 5.84802 63.1586 1.20001 63.1586 1.20001C63.1586 1.20001 62.0026 7.11801 50.6186 6.59402C42.305 6.21201 39.0148 1.57401 37.7603 0C37.7603 0 16.5903 8.246 12.2721 12.563L12.2721 12.563Z" id="Şekil" fill="none" fill-rule="evenodd" stroke="none" />
    </g>
    <g id="Maske-Grubu" clip-path="url(#clip_1)">
      <path d="M12.2721 12.563C7.95422 16.881 1.52588e-05 46.079 1.52588e-05 46.079C1.52588e-05 46.079 14.0902 49.26 23.6352 47.102L24.4307 44.034L19.7272 88.052C19.7272 88.052 53.2166 94.072 82.1896 84.666L83.8826 45.915C83.8826 45.915 94.9826 46.856 102.509 45.351C102.509 45.351 95.1706 17.135 88.0216 11.491C80.8726 5.84802 63.1586 1.20001 63.1586 1.20001C63.1586 1.20001 62.0026 7.11801 50.6186 6.59402C42.305 6.21201 39.0148 1.57401 37.7603 0C37.7603 0 16.5903 8.246 12.2721 12.563L12.2721 12.563Z" id="Şekil" fill="none" fill-rule="evenodd" stroke="none" />
    </g>
    <g id="Maske-Grubu" clip-path="url(#clip_1)">
      <path d="M12.2721 12.563C7.95422 16.881 1.52588e-05 46.079 1.52588e-05 46.079C1.52588e-05 46.079 14.0902 49.26 23.6352 47.102L24.4307 44.034L19.7272 88.052C19.7272 88.052 53.2166 94.072 82.1896 84.666L83.8826 45.915C83.8826 45.915 94.9826 46.856 102.509 45.351C102.509 45.351 95.1706 17.135 88.0216 11.491C80.8726 5.84802 63.1586 1.20001 63.1586 1.20001C63.1586 1.20001 62.0026 7.11801 50.6186 6.59402C42.305 6.21201 39.0148 1.57401 37.7603 0C37.7603 0 16.5903 8.246 12.2721 12.563L12.2721 12.563Z" id="Şekil" fill="none" fill-rule="evenodd" stroke="none" />
    </g>
    <g id="Maske-Grubu" clip-path="url(#clip_1)">
      <path d="M12.2721 12.563C7.95422 16.881 1.52588e-05 46.079 1.52588e-05 46.079C1.52588e-05 46.079 14.0902 49.26 23.6352 47.102L24.4307 44.034L19.7272 88.052C19.7272 88.052 53.2166 94.072 82.1896 84.666L83.8826 45.915C83.8826 45.915 94.9826 46.856 102.509 45.351C102.509 45.351 95.1706 17.135 88.0216 11.491C80.8726 5.84802 63.1586 1.20001 63.1586 1.20001C63.1586 1.20001 62.0026 7.11801 50.6186 6.59402C42.305 6.21201 39.0148 1.57401 37.7603 0C37.7603 0 16.5903 8.246 12.2721 12.563L12.2721 12.563Z" id="Şekil" fill="none" fill-rule="evenodd" stroke="none" />
    </g>
    <g id="Maske-Grubu" clip-path="url(#clip_1)">
      <path d="M12.2721 12.563C7.95422 16.881 1.52588e-05 46.079 1.52588e-05 46.079C1.52588e-05 46.079 14.0902 49.26 23.6352 47.102L24.4307 44.034L19.7272 88.052C19.7272 88.052 53.2166 94.072 82.1896 84.666L83.8826 45.915C83.8826 45.915 94.9826 46.856 102.509 45.351C102.509 45.351 95.1706 17.135 88.0216 11.491C80.8726 5.84802 63.1586 1.20001 63.1586 1.20001C63.1586 1.20001 62.0026 7.11801 50.6186 6.59402C42.305 6.21201 39.0148 1.57401 37.7603 0C37.7603 0 16.5903 8.246 12.2721 12.563L12.2721 12.563Z" id="Şekil" fill="none" fill-rule="evenodd" stroke="none" />
    </g>
    <g id="Maske-Grubu" clip-path="url(#clip_1)">
      <path d="M12.2721 12.563C7.95422 16.881 1.52588e-05 46.079 1.52588e-05 46.079C1.52588e-05 46.079 14.0902 49.26 23.6352 47.102L24.4307 44.034L19.7272 88.052C19.7272 88.052 53.2166 94.072 82.1896 84.666L83.8826 45.915C83.8826 45.915 94.9826 46.856 102.509 45.351C102.509 45.351 95.1706 17.135 88.0216 11.491C80.8726 5.84802 63.1586 1.20001 63.1586 1.20001C63.1586 1.20001 62.0026 7.11801 50.6186 6.59402C42.305 6.21201 39.0148 1.57401 37.7603 0C37.7603 0 16.5903 8.246 12.2721 12.563L12.2721 12.563Z" id="Şekil" fill="none" fill-rule="evenodd" stroke="none" />
    </g>
    <g id="Maske-Grubu" clip-path="url(#clip_1)">
      <path d="M12.2721 12.563C7.95422 16.881 1.52588e-05 46.079 1.52588e-05 46.079C1.52588e-05 46.079 14.0902 49.26 23.6352 47.102L24.4307 44.034L19.7272 88.052C19.7272 88.052 53.2166 94.072 82.1896 84.666L83.8826 45.915C83.8826 45.915 94.9826 46.856 102.509 45.351C102.509 45.351 95.1706 17.135 88.0216 11.491C80.8726 5.84802 63.1586 1.20001 63.1586 1.20001C63.1586 1.20001 62.0026 7.11801 50.6186 6.59402C42.305 6.21201 39.0148 1.57401 37.7603 0C37.7603 0 16.5903 8.246 12.2721 12.563L12.2721 12.563Z" id="Şekil" fill="none" fill-rule="evenodd" stroke="none" />
    </g>
    <g id="Maske-Grubu" clip-path="url(#clip_1)">
      <path d="M12.2721 12.563C7.95422 16.881 1.52588e-05 46.079 1.52588e-05 46.079C1.52588e-05 46.079 14.0902 49.26 23.6352 47.102L24.4307 44.034L19.7272 88.052C19.7272 88.052 53.2166 94.072 82.1896 84.666L83.8826 45.915C83.8826 45.915 94.9826 46.856 102.509 45.351C102.509 45.351 95.1706 17.135 88.0216 11.491C80.8726 5.84802 63.1586 1.20001 63.1586 1.20001C63.1586 1.20001 62.0026 7.11801 50.6186 6.59402C42.305 6.21201 39.0148 1.57401 37.7603 0C37.7603 0 16.5903 8.246 12.2721 12.563L12.2721 12.563Z" id="Şekil" fill="none" fill-rule="evenodd" stroke="none" />
    </g>
    <g id="Maske-Grubu" clip-path="url(#clip_1)">
      <path d="M12.2721 12.563C7.95422 16.881 1.52588e-05 46.079 1.52588e-05 46.079C1.52588e-05 46.079 14.0902 49.26 23.6352 47.102L24.4307 44.034L19.7272 88.052C19.7272 88.052 53.2166 94.072 82.1896 84.666L83.8826 45.915C83.8826 45.915 94.9826 46.856 102.509 45.351C102.509 45.351 95.1706 17.135 88.0216 11.491C80.8726 5.84802 63.1586 1.20001 63.1586 1.20001C63.1586 1.20001 62.0026 7.11801 50.6186 6.59402C42.305 6.21201 39.0148 1.57401 37.7603 0C37.7603 0 16.5903 8.246 12.2721 12.563L12.2721 12.563Z" id="Şekil" fill="none" fill-rule="evenodd" stroke="none" />
    </g>
    <g id="Maske-Grubu" clip-path="url(#clip_1)">
      <path d="M12.2721 12.563C7.95422 16.88 1.52588e-05 46.079 1.52588e-05 46.079C1.52588e-05 46.079 14.0902 49.26 23.6352 47.101L24.4307 44.034L19.7272 88.051C19.7272 88.051 53.2166 94.071 82.1896 84.665L83.8826 45.915C83.8826 45.915 94.9826 46.855 102.509 45.35C102.509 45.35 95.1706 17.134 88.0216 11.491C80.8726 5.84702 63.1586 1.20001 63.1586 1.20001C63.1586 1.20001 62.0026 7.11801 50.6186 6.59399C42.305 6.211 39.0148 1.573 37.7603 0C37.7603 0 16.5903 8.246 12.2721 12.563L12.2721 12.563Z" id="Şekil" fill="none" fill-rule="evenodd" stroke="none" />
    </g>
    <path d="M155.663 543.362C155.663 543.362 157.439 566.429 152.315 570.669C148.002 574.239 141.899 576.943 129.144 560.599C116.39 544.254 107.435 534.993 107.393 528.517C107.344 520.888 105.846 500.778 107.822 500.598C109.798 500.419 111.899 521.264 119.444 528.628C126.988 535.992 138.516 543.298 138.516 543.298C138.516 543.298 144.171 544.178 155.663 543.362L155.663 543.362Z" id="Şekil" fill="#C26E5E" fill-rule="evenodd" stroke="none" clip-path="url(#clip_1)" />
    <path d="M57.0677 544.227C57.0677 544.227 53.2945 567.378 60.6869 572.305C65.1493 575.28 71.3117 577.808 84.5093 561.463C97.7069 545.119 106.815 535.6 107.187 529.134C107.559 522.668 107.373 500.217 105.328 500.037C103.283 499.857 102.354 522.129 94.5469 529.493C86.7399 536.857 74.2857 545.299 74.2857 545.299C74.2857 545.299 69.2767 546.025 57.0677 544.227L57.0677 544.227Z" id="Şekil" fill="#C26E5E" fill-rule="evenodd" stroke="none" clip-path="url(#clip_1)" />
    <path d="M107.132 528.525L106.486 505.768L107.008 505.753L107.655 528.51L107.132 528.525L107.132 528.525Z" id="Şekil" fill="#000000" fill-rule="evenodd" stroke="none" clip-path="url(#clip_1)" />
    <path d="M118.602 476.974C118.602 477.406 118.251 477.757 117.819 477.757C117.386 477.757 117.035 477.406 117.035 476.974C117.035 476.541 117.386 476.19 117.819 476.19C118.251 476.19 118.602 476.541 118.602 476.974L118.602 476.974Z" id="Şekil" fill="#000000" fill-rule="evenodd" stroke="none" clip-path="url(#clip_1)" />
    <path d="M106.919 486.318C106.919 486.318 106.888 488.4 109.81 488.773C112.733 489.146 114.038 488.773 113.976 487.437C113.976 487.437 113.51 485.976 112.826 485.914C112.142 485.852 111.427 486.225 111.427 486.225C111.427 486.225 110.743 485.323 110.028 485.416C109.313 485.51 107.883 486.349 106.919 486.318L106.919 486.318Z" id="Şekil" fill="#CE4129" fill-rule="evenodd" stroke="none" clip-path="url(#clip_1)" />
    <path d="M112.059 487.445C109.929 487.161 107.38 486.784 106.581 486.384C105.997 486.093 105.782 486.166 105.78 486.167C105.78 486.167 105.967 485.494 106.814 485.917C107.638 486.329 111.018 486.78 112.128 486.928C114.071 487.187 114.246 487.086 114.468 486.96L114.727 487.413C114.512 487.536 114.309 487.611 113.85 487.611C113.474 487.611 112.926 487.561 112.059 487.445L112.059 487.445Z" id="Şekil" fill="#000000" fill-rule="evenodd" stroke="none" clip-path="url(#clip_1)" />
    <g id="Maske-Grubu" clip-path="url(#clip_1)">
      <path d="M0 0L6.659 0L6.659 2.24402L0 2.24402L0 0L0 0Z" id="Şekil" fill="none" fill-rule="evenodd" stroke="none" />
    </g>
    <path d="M110.406 495.554C108.597 495.554 106.727 495.026 105.385 494.539C103.667 493.915 102.42 493.219 102.408 493.212L102.599 492.871C102.648 492.898 107.492 495.581 111.364 495.106L111.412 495.495C111.081 495.535 110.745 495.554 110.406 495.554L110.406 495.554Z" id="Şekil" fill="#000000" fill-rule="evenodd" stroke="none" clip-path="url(#clip_1)" />
    <path d="M115.3 473.271L115.798 473.43L115.749 473.586C115.71 473.713 115.667 473.858 115.62 474.02C115.485 474.481 115.351 474.976 115.226 475.485C115.086 476.052 114.967 476.601 114.874 477.12L114.847 477.274C114.62 478.593 114.588 479.6 114.79 480.142L114.802 480.173C115.962 483.04 114.387 484.495 111.083 483.476L110.982 483.445L111.141 482.947C114.118 483.9 115.312 482.827 114.318 480.368C114.044 479.692 114.087 478.543 114.36 477.027C114.455 476.497 114.577 475.937 114.718 475.361C114.832 474.901 114.952 474.453 115.073 474.031L115.118 473.874C115.145 473.78 115.171 473.692 115.196 473.609L115.26 473.399L115.3 473.271L115.3 473.271Z" id="Şekil" fill="#000000" stroke="none" clip-path="url(#clip_1)" />
    <path d="M102.404 493.25L102.66 492.794L102.753 492.845L102.838 492.891C102.968 492.959 103.115 493.034 103.279 493.115L103.351 493.15C103.902 493.418 104.511 493.687 105.162 493.937C106.657 494.514 108.134 494.907 109.508 495.035C110.131 495.092 110.721 495.094 111.274 495.035L111.384 495.022L111.448 495.54C110.824 495.617 110.16 495.62 109.46 495.555C108.031 495.422 106.51 495.017 104.974 494.425C104.309 494.168 103.686 493.894 103.122 493.619L102.909 493.514C102.818 493.468 102.733 493.425 102.653 493.383L102.506 493.305L102.404 493.25L102.404 493.25Z" id="Şekil" fill="#000000" stroke="none" clip-path="url(#clip_1)" />
    <path d="M112.935 483.801C112.407 483.801 111.748 483.698 110.926 483.435L111.085 482.937C112.616 483.427 113.747 483.387 114.27 482.825C114.714 482.346 114.711 481.47 114.262 480.359C113.957 479.605 114.032 478.174 114.486 476.108C114.818 474.595 115.24 473.274 115.244 473.261L115.742 473.42C115.284 474.848 114.212 478.842 114.746 480.163C115.425 481.842 115.07 482.73 114.652 483.18C114.355 483.501 113.835 483.801 112.935 483.801L112.935 483.801Z" id="Şekil" fill="#000000" fill-rule="evenodd" stroke="none" clip-path="url(#clip_1)" />
    <path d="M102.38 473.659C102.38 473.659 104.373 472.456 105.892 472.183C106.831 472.014 112.012 472.745 111.847 473.801C111.686 474.83 111.175 474.692 109.13 474.34C107.085 473.989 106.15 473.755 104.968 473.882C103.786 474.01 102.412 474.266 102.38 473.659L102.38 473.659Z" id="Şekil" fill="#000000" fill-rule="evenodd" stroke="none" clip-path="url(#clip_1)" />
    <path d="M109.384 476.745C109.29 476.745 109.195 476.711 109.12 476.642C109.115 476.638 108.469 476.064 107.536 476.099C106.571 476.135 105.931 476.607 105.924 476.611C105.752 476.741 105.506 476.707 105.376 476.535C105.246 476.363 105.279 476.119 105.45 475.988C105.483 475.962 106.283 475.361 107.507 475.316C108.767 475.271 109.614 476.033 109.649 476.065C109.809 476.211 109.819 476.459 109.673 476.618C109.596 476.703 109.49 476.745 109.384 476.745L109.384 476.745Z" id="Şekil" fill="#000000" fill-rule="evenodd" stroke="none" clip-path="url(#clip_1)" />
    <path d="M70.8731 429.761C78.8392 436.028 86.544 448.693 100.125 446.735C113.707 444.776 131.498 452.796 123.451 474.966C123.451 474.966 123.762 462.926 116.972 458.747C110.181 454.569 107.961 476.635 95.0324 471.021C95.0324 471.021 92.943 469.846 92.4206 471.674C91.8982 473.502 92.2561 478.372 93.6442 479.332C93.6442 479.332 93.9877 479.639 94.6406 479.377C94.6406 479.377 95.0311 485.577 98.6883 489.397C98.6883 489.397 97.7742 492.435 97.4481 492.892L97.2141 492.945C97.2141 492.945 84.7157 502.619 71.1343 491.651C57.5529 480.683 48.5421 489.04 37.5726 478.855C26.603 468.671 52.9502 437.952 46.1916 430.675C54.2881 421.927 66.9719 426.692 70.8731 429.761L70.8731 429.761Z" id="Şekil" fill="#FFC943" fill-rule="evenodd" stroke="none" clip-path="url(#clip_1)" />
    <path d="M34.7105 616.638L68.2671 635.235L-0.811474 775.35L-47.526 749.46L34.7105 616.638L34.7105 616.638Z" id="Şekil" fill="#DDB0C8" fill-rule="evenodd" stroke="none" clip-path="url(#clip_1)" />
    <path d="M42.0706 633.255C108.084 669.84 191.263 645.993 227.854 579.99C264.447 513.987 240.596 430.822 174.582 394.236C108.569 357.65 25.3902 381.497 -11.2021 447.5C-47.7941 513.504 -23.943 596.668 42.0706 633.255L42.0706 633.255ZM53.3079 612.984C108.125 643.365 177.195 623.562 207.581 568.754C237.967 513.946 218.162 444.887 163.344 414.506C108.527 384.125 39.4575 403.928 9.07162 458.736C-21.3143 513.544 -1.50884 582.604 53.3079 612.984L53.3079 612.984Z" id="Şekil" fill="#FCEBEC" fill-rule="evenodd" stroke="none" clip-path="url(#clip_1)" />
    <path d="M208.183 644.119C208.183 644.119 208.665 654.716 214.847 658.456C220.456 661.85 208.573 681.542 195.789 680.367C188.792 679.724 187.152 660.592 187.152 660.592C187.152 660.592 192.802 659.5 190.715 650.885L208.183 644.119L208.183 644.119Z" id="Şekil" fill="#C26E5E" fill-rule="evenodd" stroke="none" clip-path="url(#clip_1)" />
    <path d="M197.947 654.894C206.234 653.891 212.215 648.443 213.052 639.406C215.462 639.789 216.03 633.513 215.359 631.496C214.687 629.477 212.495 630.658 212.495 630.658C212.495 630.658 212.313 630.179 212.185 629.656C208.565 614.808 198.425 615.397 198.425 615.397C179.794 616.368 184.159 635.387 185.224 640.433C186.288 645.479 189.935 655.861 197.947 654.894L197.947 654.894Z" id="Şekil" fill="#C26E5E" fill-rule="evenodd" stroke="none" clip-path="url(#clip_1)" />
    <path d="M253.723 690.602C253.723 690.602 275.857 725.661 267.689 733.144C259.52 740.628 236.524 714.938 236.524 714.938C236.524 714.938 237.709 709.201 242.643 702.421C247.577 695.64 253.723 690.602 253.723 690.602L253.723 690.602Z" id="Şekil" fill="#C26E5E" fill-rule="evenodd" stroke="none" clip-path="url(#clip_1)" />
    <path d="M160.73 707.208L171.5 705.955C171.5 705.955 168.745 743.021 169.78 743.021C170.337 743.021 183.274 750.034 201.403 750.034C215.331 750.034 232.415 745.429 233.137 745.389C233.226 745.384 233.312 745.324 233.394 745.213C233.162 742.657 232.978 738.136 232.791 733.145C232.66 729.643 232.527 725.91 232.374 722.461C232.232 719.253 232.073 716.292 231.881 713.991C231.045 703.957 231.623 694.8 231.623 694.8L235.748 705.99L261.892 696.466C261.892 696.466 253.162 683.745 242.754 672.68C232.428 661.702 215.866 658.917 215.608 658.875C215.606 658.874 215.605 658.874 215.605 658.874C215.605 658.874 216.535 674.02 200.868 675.183C187.842 676.151 187.166 660.54 187.166 660.54C187.166 660.54 171.939 664.514 167.571 668.24C163.203 671.965 143.931 697.398 143.931 698.041C143.931 698.683 160.73 707.208 160.73 707.208L160.73 707.208Z" id="Şekil" fill="#F9C818" fill-rule="evenodd" stroke="none" clip-path="url(#clip_1)" />
    <path d="M232.374 722.461C232.527 725.91 232.66 729.643 232.791 733.145C232.821 730.772 232.727 727.36 232.374 722.461L232.374 722.461Z" id="Şekil" fill="#F9C818" fill-rule="evenodd" stroke="none" clip-path="url(#clip_1)" />
    <path d="M178.236 711.568L191.932 712.681C192.758 712.748 193.481 712.133 193.549 711.308L195.738 684.38C195.805 683.554 195.19 682.831 194.364 682.764L180.668 681.651C179.843 681.584 179.119 682.198 179.052 683.024L176.863 709.952C176.796 710.778 177.411 711.501 178.236 711.568L178.236 711.568Z" id="Şekil" fill="#204EB2" fill-rule="evenodd" stroke="none" clip-path="url(#clip_1)" />
    <path d="M176.84 710.822L190.585 711.939C191.397 712.005 192.109 711.4 192.175 710.588L194.288 684.592C194.354 683.78 193.75 683.068 192.938 683.002L179.192 681.886C178.38 681.819 177.669 682.424 177.603 683.236L175.489 709.232C175.423 710.044 176.028 710.756 176.84 710.822L176.84 710.822Z" id="Şekil" fill="#1F9BEB" fill-rule="evenodd" stroke="none" clip-path="url(#clip_1)" />
    <path d="M179.152 684.849C179.089 685.629 179.67 686.313 180.45 686.376C181.229 686.439 181.913 685.859 181.976 685.079C182.04 684.299 181.459 683.616 180.679 683.552C179.899 683.489 179.216 684.07 179.152 684.849L179.152 684.849Z" id="Şekil" fill="#204EB2" fill-rule="evenodd" stroke="none" clip-path="url(#clip_1)" />
    <path d="M181.864 709.872C181.864 709.872 188.733 711.369 188.777 708.992C188.777 708.992 184.109 707.055 183.053 707.143C181.996 707.231 177.109 707.803 177.109 707.803L183.141 704.809L189.129 706.658C189.129 706.658 190.494 706.746 191.11 705.778C191.727 704.809 191.022 704.237 191.022 704.237L183.185 701.64C183.185 701.64 182.921 700.803 184.902 700.715C186.883 700.627 191.242 700.319 191.242 700.319C191.242 700.319 192.211 699.483 191.771 697.986C191.33 696.489 188.865 697.017 188.865 697.017C188.865 697.017 190.23 695.697 188.16 694.244C188.16 694.244 181.82 694.42 179.486 695.873C177.153 697.325 161.178 707.132 161.178 707.132L148.746 700.602C148.746 700.602 125.142 729.491 136.221 734.833C147.301 740.174 181.864 709.872 181.864 709.872L181.864 709.872Z" id="Şekil" fill="#C26E5E" fill-rule="evenodd" stroke="none" clip-path="url(#clip_1)" />
    <path d="M174.967 701.214L181.209 697.677L188.983 696.844L188.927 696.325L181.1 697.163C181.064 697.167 181.03 697.178 180.999 697.196L174.709 700.76L174.967 701.214L174.967 701.214Z" id="Şekil" fill="#000000" fill-rule="evenodd" stroke="none" clip-path="url(#clip_1)" />
    <path d="M149.91 714.27L164.83 704.896L164.552 704.454L149.632 713.828L149.91 714.27L149.91 714.27Z" id="Şekil" fill="#000000" fill-rule="evenodd" stroke="none" clip-path="url(#clip_1)" />
    <path d="M243.464 703.549L258.432 712.848L258.707 712.404L243.74 703.105L243.464 703.549L243.464 703.549Z" id="Şekil" fill="#000000" fill-rule="evenodd" stroke="none" clip-path="url(#clip_1)" />
    <path d="M175.473 704.082C175.512 704.055 179.424 701.408 180.444 700.983C181.222 700.658 182.778 701.25 183.311 701.505L183.537 701.034C183.45 700.992 181.394 700.021 180.243 700.5C179.175 700.945 175.342 703.539 175.18 703.65L175.473 704.082L175.473 704.082Z" id="Şekil" fill="#000000" fill-rule="evenodd" stroke="none" clip-path="url(#clip_1)" />
    <path d="M176.816 693.752L172.962 699.646L176.628 697.341L176.816 693.752L176.816 693.752Z" id="Şekil" fill="#C26E5E" fill-rule="evenodd" stroke="none" clip-path="url(#clip_1)" />
    <path d="M173.102 699.867L176.767 697.563L176.489 697.12L172.824 699.425L173.102 699.867L173.102 699.867Z" id="Şekil" fill="#000000" fill-rule="evenodd" stroke="none" clip-path="url(#clip_1)" />
    <path d="M224.279 714.237L228.868 714.147C233.701 714.053 237.541 710.059 237.447 705.227L237.16 690.602L216.288 691.012L216.599 706.854C216.68 711.013 220.119 714.319 224.279 714.237L224.279 714.237Z" id="Şekil" fill="#FFFFFF" fill-rule="evenodd" stroke="none" clip-path="url(#clip_1)" />
    <path d="M237.617 695.657C237.617 695.657 239.5 696.867 240.106 697.607C240.711 698.347 240.173 698.482 241.518 699.894C242.864 701.307 245.285 704.871 241.048 710.319C236.809 715.767 235.397 715.296 233.648 714.354C231.899 713.413 231.697 712.74 228.401 712.404C225.105 712.068 221.943 708.839 222.011 708.032L222.078 707.225C222.078 707.225 219.051 706.082 219.252 704.804C219.454 703.526 220.329 703.66 220.329 703.66C220.329 703.66 219.723 703.055 220.194 701.979C220.665 700.903 222.885 701.105 225.441 701.441C227.997 701.777 234.59 703.122 234.993 702.853C235.397 702.584 235.262 702.181 233.715 701.979C232.168 701.777 225.912 701.71 225.912 699.961C225.912 698.213 227.796 697.876 231.428 697.944C235.061 698.011 235.733 697.809 236.608 698.145L237.482 698.482L237.617 695.657L237.617 695.657Z" id="Şekil" fill="#C26E5E" fill-rule="evenodd" stroke="none" clip-path="url(#clip_1)" />
    <path d="M220.276 703.653C220.276 703.653 220.083 703.513 221.522 704.063C222.046 704.263 222.786 704.472 223.827 704.669C227.729 705.409 233.85 706.754 235.733 707.023C237.617 707.292 236.07 707.696 231.765 706.821C227.459 705.947 222.334 704.774 222.104 704.697C221.713 704.567 220.537 704.175 220.276 703.653L220.276 703.653Z" id="Şekil" fill="#000000" fill-rule="evenodd" stroke="none" clip-path="url(#clip_1)" />
    <path d="M223.49 707.629C223.49 707.629 226.675 708.745 228.242 709.137C229.906 709.553 231.159 710.117 231.495 709.579C231.831 709.041 232.235 708.907 232.235 708.907L232.773 709.512C232.773 709.512 232.682 710.181 232.975 710.252C233.498 710.377 234.522 710.588 234.522 710.588C234.522 710.588 234.51 710.965 231.376 710.312C230.598 710.15 229.156 709.92 228.242 709.659C227.401 709.419 224.365 708.638 223.961 708.301C223.558 707.965 223.49 707.629 223.49 707.629L223.49 707.629Z" id="Şekil" fill="#000000" fill-rule="evenodd" stroke="none" clip-path="url(#clip_1)" />
    <path d="M233.379 707.292C233.379 707.292 233.429 710.001 232.664 709.958C231.899 709.915 231.63 709.915 231.495 709.713C231.361 709.512 231.697 708.839 231.697 708.099C231.697 707.36 231.697 707.023 232.303 707.09C232.908 707.158 233.312 707.158 233.379 707.292L233.379 707.292Z" id="Şekil" fill="#F9C818" fill-rule="evenodd" stroke="none" clip-path="url(#clip_1)" />
    <path d="M380.073 764.317L376.417 777.747L383.077 779.985L387.256 766.797L380.073 764.317L380.073 764.317Z" id="Şekil" fill="#F8D8B8" fill-rule="evenodd" stroke="none" clip-path="url(#clip_1)" />
    <path d="M386.864 765.884L382.163 780.769L388.953 782.988L393.916 768.495L386.864 765.884L386.864 765.884Z" id="Şekil" fill="#E4F9FF" fill-rule="evenodd" stroke="none" clip-path="url(#clip_1)" />
    <path d="M394.438 766.928C394.438 766.928 393.393 766.928 392.088 767.581C390.782 768.234 383.991 777.243 387.909 782.858C387.909 782.858 388.562 783.249 389.345 783.38C390.129 783.51 391.565 785.861 394.046 787.166C394.046 787.166 393.524 785.469 395.483 780.377C397.442 775.284 408.673 748.256 414.027 747.995C414.027 747.995 411.937 746.298 405.538 753.61C399.493 760.517 394.438 766.928 394.438 766.928L394.438 766.928Z" id="Şekil" fill="#2E2C36" fill-rule="evenodd" stroke="none" clip-path="url(#clip_1)" />
    <path d="M394.046 787.166C394.046 787.166 396.266 790.953 399.792 790.3C403.318 789.647 404.341 786.418 405.528 783.724C406.714 781.03 418.716 751.391 418.716 751.391C418.716 751.391 417.395 747.123 413.776 747.951C409.587 748.909 405.669 757.788 405.669 757.788L394.308 781.291C394.308 781.291 393.132 784.686 394.046 787.166L394.046 787.166Z" id="Şekil" fill="#E4F9FF" fill-rule="evenodd" stroke="none" clip-path="url(#clip_1)" />
    <g id="Maske-Grubu" clip-path="url(#clip_1)">
      <path d="M0 0L21.975 0L21.975 38.327L0 38.327L0 0L0 0Z" id="Şekil" fill="none" fill-rule="evenodd" stroke="none" />
    </g>
    <path d="M389.345 783.38C389.345 783.38 387.909 779.593 389.606 775.023C391.304 770.454 394.438 766.928 394.438 766.928C394.438 766.928 391.134 765.893 388.346 772.547C385.558 779.202 386.08 782.727 389.345 783.641" id="Şekil" fill="#3B3D4A" fill-rule="evenodd" stroke="none" clip-path="url(#clip_1)" />
    <path d="M396.793 767.784L398.091 767.639L398.105 767.786L398.121 767.967C398.126 768.031 398.13 768.099 398.135 768.169C398.186 768.907 398.198 769.675 398.148 770.401C398.112 770.914 398.046 771.379 397.945 771.787C397.779 772.45 397.312 772.971 396.588 773.425L396.511 773.472C396.06 773.747 395.563 773.975 394.74 774.308L393.895 774.646C393.149 774.946 392.693 775.151 392.273 775.386C391.738 775.686 391.373 776.328 391.179 777.241C391.034 777.921 391.001 778.654 391.035 779.315L391.042 779.419C391.044 779.465 391.047 779.508 391.051 779.545L391.057 779.618L389.759 779.762L389.749 779.657C389.746 779.622 389.743 779.582 389.74 779.536L389.738 779.501C389.687 778.705 389.72 777.82 389.901 776.969C390.167 775.725 390.711 774.765 391.634 774.247C392.115 773.978 392.61 773.755 393.401 773.437L394.036 773.183C395.833 772.467 396.539 772.024 396.678 771.47C396.759 771.144 396.815 770.752 396.845 770.31C396.891 769.653 396.879 768.941 396.833 768.259L396.824 768.132C396.82 768.091 396.818 768.052 396.814 768.015L396.794 767.803L396.793 767.784L396.793 767.784Z" id="Şekil" fill="#FFFFFF" stroke="none" clip-path="url(#clip_1)" />
    <path d="M228.603 782.43C228.603 782.43 230.037 788.16 230.698 789.189C231.358 790.217 243.629 795.743 247.545 795.365C251.461 794.988 258.044 792.496 258.907 790.62C259.77 788.744 258.608 782.953 257.369 781.887C256.128 780.821 228.603 782.43 228.603 782.43L228.603 782.43Z" id="Şekil" fill="#E4F9FF" fill-rule="evenodd" stroke="none" clip-path="url(#clip_1)" />
    <path d="M169.807 732.655C169.807 732.655 160.158 768.887 182.097 774.501C204.036 780.116 228.553 775.04 255.49 766.275C277.56 759.094 276.645 750.868 304.722 758.963C324.812 764.756 376.547 779.202 376.547 779.202L381.902 763.533C381.902 763.533 304.722 723.709 274.034 724.623C262.539 724.966 226.343 732.326 226.343 732.326L169.807 732.655L169.807 732.655Z" id="Şekil" fill="#204EB2" fill-rule="evenodd" stroke="none" clip-path="url(#clip_1)" />
    <path d="M172.652 737.122C172.652 737.122 196.723 687.28 205.865 682.841C215.006 678.402 218.532 683.755 219.316 689.631C220.099 695.506 237.076 751.39 237.076 751.39L216.834 756.743L172.652 737.122L172.652 737.122Z" id="Şekil" fill="#204EB2" fill-rule="evenodd" stroke="none" clip-path="url(#clip_1)" />
    <path d="M204.592 728.922L217.063 755.016L216.474 755.297L204.003 729.204L204.592 728.922L204.592 728.922Z" id="Şekil" fill="#000000" stroke="none" clip-path="url(#clip_1)" />
    <path d="M234.144 751.444L235.674 756.453C229.593 756.447 224.776 759.215 223.46 759.874L222.086 754.964L234.144 751.444L234.144 751.444Z" id="Şekil" fill="#F7C8A9" fill-rule="evenodd" stroke="none" clip-path="url(#clip_1)" />
    <path d="M239.032 765.92L225.732 769.224L222.972 759.224C222.972 759.224 223.009 759.207 223.233 759.094C224.549 758.435 229.779 755.997 235.86 756.003" id="Şekil" fill="#E4F9FF" fill-rule="evenodd" stroke="none" clip-path="url(#clip_1)" />
    <path d="M234.643 785.771C234.643 785.771 243.961 789.608 250.273 787.178C256.584 784.747 258.036 783.128 258.001 782.968C257.964 782.808 247.521 773.797 245.464 772.915C243.408 772.033 238.11 768.182 236.004 771.515C233.897 774.848 230.757 777.405 231.162 779.836C231.567 782.267 234.643 785.771 234.643 785.771L234.643 785.771Z" id="Şekil" fill="#353644" fill-rule="evenodd" stroke="none" clip-path="url(#clip_1)" />
    <path d="M226.043 771.069C226.043 771.069 226.557 779.69 228.89 783.704L234.987 786.029C234.987 786.029 233.227 781.388 234.67 779.55C236.114 777.712 236.941 775.676 236.961 774.494C236.98 773.313 242.248 771.958 242.248 771.958C242.248 771.958 243.125 773.946 244.693 773.929C246.261 773.912 254.337 779.778 254.337 779.778C254.337 779.778 252.359 777.694 250.287 775.47C248.214 773.247 240.95 766.197 240.95 766.197L226.043 771.069L226.043 771.069Z" id="Şekil" fill="#2C262B" fill-rule="evenodd" stroke="none" clip-path="url(#clip_1)" />
    <path d="M225.348 767.571C225.348 767.571 224.049 768.934 224.874 770.22C225.7 771.507 228.474 770.748 231.12 770.018C233.767 769.288 240.108 767.725 240.573 766.818C241.038 765.91 240.196 763.958 238.495 763.538C238.495 763.538 238.996 765.165 238.289 765.592C237.582 766.019 226.514 769.182 226.046 768.886C225.578 768.59 225.348 767.571 225.348 767.571L225.348 767.571Z" id="Şekil" fill="#3E454F" fill-rule="evenodd" stroke="none" clip-path="url(#clip_1)" />
    <path d="M234.817 774.539C234.817 774.539 238.262 770.818 242.103 771.827C242.103 771.827 243.365 772.078 242.909 771.244C242.453 770.409 241.788 770.426 241.788 770.426C241.788 770.426 241.87 769.604 241.176 769.493C241.176 769.493 241.386 768.642 240.437 768.588C240.437 768.588 240.133 766.649 238.082 767.646C236.031 768.644 232.054 769.406 232.567 770.495C233.08 771.584 233.376 771.116 233.376 771.116C233.376 771.116 233.137 771.839 233.692 772.517C234.246 773.195 234.16 772.813 234.16 772.813C234.16 772.813 233.526 774.16 234.817 774.539L234.817 774.539Z" id="Şekil" fill="#FFFFFF" fill-rule="evenodd" stroke="none" clip-path="url(#clip_1)" />
    <path d="M233.247 771.806C233.247 771.806 233.248 771.806 233.071 771.613C232.895 771.42 232.895 771.42 232.895 771.42L232.895 771.42L232.896 771.42L232.896 771.419L232.899 771.417C232.901 771.415 232.904 771.412 232.908 771.409C232.915 771.402 232.925 771.393 232.939 771.382C232.965 771.36 233.004 771.328 233.054 771.29C233.153 771.214 233.298 771.111 233.484 770.998C233.855 770.774 234.394 770.512 235.065 770.361L235.18 770.87C234.576 771.006 234.09 771.243 233.754 771.445C233.587 771.547 233.458 771.639 233.371 771.705C233.328 771.738 233.296 771.764 233.275 771.782C233.265 771.79 233.257 771.797 233.253 771.801C233.25 771.803 233.249 771.805 233.248 771.805L233.247 771.806L233.247 771.806L233.247 771.806Z" id="Şekil" fill="#000000" fill-rule="evenodd" stroke="none" clip-path="url(#clip_1)" />
    <path d="M241.009 768.346C241.009 768.346 241.009 768.346 241.043 768.605C241.077 768.864 241.077 768.864 241.077 768.864L241.076 768.864L241.074 768.864L241.063 768.866C241.053 768.867 241.038 768.87 241.018 768.872C240.979 768.878 240.921 768.887 240.85 768.899C240.706 768.923 240.506 768.96 240.281 769.011C239.824 769.114 239.287 769.269 238.904 769.478L238.653 769.02C239.103 768.774 239.699 768.607 240.166 768.501C240.403 768.448 240.612 768.41 240.763 768.384C240.838 768.372 240.899 768.362 240.941 768.356C240.962 768.353 240.979 768.35 240.99 768.349L241.004 768.347L241.007 768.346L241.009 768.346L241.009 768.346Z" id="Şekil" fill="#000000" fill-rule="evenodd" stroke="none" clip-path="url(#clip_1)" />
    <path d="M242.498 770.392C242.498 770.392 242.498 770.392 242.49 770.653C242.482 770.914 242.482 770.914 242.482 770.914L242.481 770.914L242.477 770.914L242.461 770.914C242.447 770.913 242.426 770.913 242.399 770.912C242.345 770.911 242.266 770.91 242.168 770.91C241.973 770.909 241.704 770.912 241.409 770.924C240.805 770.95 240.137 771.017 239.75 771.164L239.565 770.676C240.041 770.494 240.789 770.428 241.386 770.402C241.691 770.389 241.969 770.387 242.17 770.388C242.27 770.388 242.352 770.389 242.409 770.39C242.437 770.391 242.459 770.391 242.474 770.392L242.492 770.392L242.496 770.392L242.498 770.392L242.498 770.392Z" id="Şekil" fill="#000000" fill-rule="evenodd" stroke="none" clip-path="url(#clip_1)" />
    <path d="M233.925 773.658C233.925 773.658 233.925 773.658 233.753 773.461C233.58 773.265 233.58 773.265 233.58 773.265L233.581 773.265L233.582 773.264L233.585 773.261C233.588 773.258 233.592 773.255 233.597 773.25C233.608 773.242 233.623 773.229 233.643 773.213C233.682 773.18 233.739 773.134 233.813 773.077C233.961 772.964 234.176 772.808 234.446 772.635C234.986 772.291 235.754 771.876 236.661 771.602L236.812 772.102C235.964 772.358 235.24 772.748 234.727 773.076C234.471 773.239 234.269 773.386 234.131 773.492C234.063 773.544 234.01 773.587 233.975 773.615C233.958 773.63 233.945 773.641 233.936 773.648C233.932 773.652 233.929 773.654 233.927 773.656L233.925 773.657L233.925 773.658L233.925 773.658Z" id="Şekil" fill="#000000" fill-rule="evenodd" stroke="none" clip-path="url(#clip_1)" />
    <path d="M199.463 635.029C199.463 635.461 199.814 635.812 200.247 635.812C200.68 635.812 201.03 635.461 201.03 635.029C201.03 634.596 200.68 634.245 200.247 634.245C199.814 634.245 199.463 634.596 199.463 635.029L199.463 635.029Z" id="Şekil" fill="#000000" fill-rule="evenodd" stroke="none" clip-path="url(#clip_1)" />
    <path d="M189.081 636.791C189.081 637.224 189.432 637.575 189.865 637.575C190.298 637.575 190.648 637.224 190.648 636.791C190.648 636.359 190.298 636.008 189.865 636.008C189.432 636.008 189.081 636.359 189.081 636.791L189.081 636.791Z" id="Şekil" fill="#000000" fill-rule="evenodd" stroke="none" clip-path="url(#clip_1)" />
    <path d="M200.764 646.135C200.764 646.135 200.795 648.218 197.873 648.591C194.951 648.964 193.645 648.591 193.707 647.254C193.707 647.254 194.174 645.793 194.858 645.731C195.542 645.669 196.257 646.042 196.257 646.042C196.257 646.042 196.941 645.141 197.656 645.234C198.371 645.327 199.801 646.166 200.764 646.135L200.764 646.135Z" id="Şekil" fill="#CE4129" fill-rule="evenodd" stroke="none" clip-path="url(#clip_1)" />
    <g id="Maske-Grubu" clip-path="url(#clip_1)">
      <path d="M10.151 0L0 0L0 3.09601L10.151 3.09601L10.151 0L10.151 0Z" id="Şekil" fill="none" fill-rule="evenodd" stroke="none" />
    </g>
    <path d="M195.624 647.263C197.755 646.979 200.303 646.601 201.103 646.202C201.686 645.91 201.901 645.983 201.903 645.984C201.903 645.984 201.716 645.311 200.869 645.734C200.045 646.147 196.666 646.597 195.555 646.745C193.613 647.004 193.438 646.904 193.216 646.777L192.957 647.231C193.172 647.354 193.375 647.429 193.834 647.429C194.21 647.429 194.758 647.378 195.624 647.263L195.624 647.263Z" id="Şekil" fill="#000000" fill-rule="evenodd" stroke="none" clip-path="url(#clip_1)" />
    <g id="Maske-Grubu" clip-path="url(#clip_1)">
      <path d="M6.65999 0L0 0L0 2.24396L6.65999 2.24396L6.65999 0L6.65999 0Z" id="Şekil" fill="none" fill-rule="evenodd" stroke="none" />
    </g>
    <path d="M197.277 655.371C199.087 655.371 200.957 654.844 202.298 654.357C204.017 653.732 205.264 653.037 205.276 653.03L205.084 652.688C205.036 652.716 200.191 655.399 196.32 654.923L196.272 655.312C196.602 655.353 196.939 655.371 197.277 655.371L197.277 655.371Z" id="Şekil" fill="#000000" fill-rule="evenodd" stroke="none" clip-path="url(#clip_1)" />
    <path d="M192.383 633.088L191.886 633.248L191.934 633.404C191.973 633.531 192.017 633.676 192.064 633.837C192.198 634.298 192.333 634.793 192.458 635.303C192.597 635.87 192.716 636.419 192.81 636.938L192.837 637.091C193.064 638.41 193.096 639.418 192.893 639.96L192.881 639.99C191.722 642.858 193.296 644.312 196.601 643.294L196.701 643.262L196.542 642.765C193.565 643.717 192.372 642.644 193.365 640.186C193.639 639.509 193.597 638.361 193.324 636.845C193.228 636.315 193.107 635.755 192.965 635.178C192.852 634.719 192.732 634.271 192.611 633.848L192.565 633.691C192.538 633.598 192.512 633.509 192.487 633.426L192.423 633.217L192.383 633.088L192.383 633.088Z" id="Şekil" fill="#000000" stroke="none" clip-path="url(#clip_1)" />
    <path d="M205.279 653.068L205.024 652.612L204.931 652.663L204.845 652.709C204.716 652.777 204.568 652.852 204.404 652.932L204.333 652.967C203.782 653.236 203.172 653.504 202.522 653.755C201.027 654.331 199.55 654.725 198.175 654.852C197.553 654.91 196.962 654.912 196.41 654.852L196.3 654.84L196.236 655.358C196.859 655.435 197.524 655.437 198.224 655.372C199.652 655.24 201.174 654.835 202.71 654.242C203.375 653.986 203.998 653.712 204.562 653.437L204.775 653.331C204.866 653.286 204.951 653.243 205.03 653.201L205.178 653.123L205.279 653.068L205.279 653.068Z" id="Şekil" fill="#000000" stroke="none" clip-path="url(#clip_1)" />
    <path d="M194.749 643.619C195.277 643.619 195.935 643.515 196.757 643.252L196.598 642.755C195.067 643.245 193.936 643.205 193.414 642.642C192.97 642.163 192.972 641.288 193.422 640.176C193.727 639.422 193.651 637.992 193.198 635.925C192.866 634.413 192.444 633.092 192.439 633.078L191.942 633.238C192.4 634.665 193.471 638.66 192.937 639.981C192.259 641.659 192.614 642.548 193.031 642.997C193.329 643.318 193.849 643.619 194.749 643.619L194.749 643.619Z" id="Şekil" fill="#000000" fill-rule="evenodd" stroke="none" clip-path="url(#clip_1)" />
    <path d="M202.17 626.47C210.21 632.087 205.665 635.751 205.583 645.699C205.556 648.938 207.485 652.557 208.409 657.332C208.409 657.332 209.339 662.754 205.583 666.148C205.583 666.148 209.305 663.407 214.165 665.758C219.026 668.109 222.401 665.208 226.477 666.148C230.553 667.089 231.422 663.939 231.422 663.939C231.422 663.939 228.666 660.091 228.666 653.821C228.666 647.55 229.308 648.147 225.545 643.444C221.783 638.741 227.108 637.684 221.464 632.668C215.82 627.652 212.371 602.571 191.206 615.738C191.206 615.738 178.978 617.731 181.173 632.152C183.368 646.574 178.447 649.851 177.206 655.087C175.966 660.324 176.394 666.148 176.394 666.148C176.394 666.148 179.777 667.671 182.903 666.635C186.03 665.599 187.167 664.781 190.864 666.148C194.561 667.515 193.872 657.019 192.626 653.575C192.626 653.575 188.295 650.639 186.03 642.444C183.765 634.25 183.659 620.687 192.043 618.614C192.043 618.614 195.588 621.873 202.17 626.47L202.17 626.47Z" id="Şekil" fill="#9B5120" fill-rule="evenodd" stroke="none" clip-path="url(#clip_1)" />
  </g>
</svg>