<svg width="106" height="179" viewBox="0 0 106 179" fill="none" xmlns="http://www.w3.org/2000/svg">
<path fill-rule="evenodd" clip-rule="evenodd" d="M25.2518 141.926L18.3902 166.985H41.8606L46.8084 141.926H25.2518ZM95.2079 168.157L93.6229 141.926H74.4887L77.3906 169.628C77.8672 174.18 81.7056 177.637 86.283 177.637C91.4333 177.637 95.5189 173.298 95.2079 168.157Z" fill="#FBEFE3"/>
<path fill-rule="evenodd" clip-rule="evenodd" d="M41.6313 166.706H18.7569L25.4655 142.206H46.4683L41.6313 166.706ZM18.3905 167.265H41.8612C41.9949 167.265 42.1096 167.171 42.1359 167.04L47.0831 141.98C47.0993 141.898 47.0781 141.813 47.0249 141.749C46.9718 141.684 46.8923 141.646 46.809 141.646H25.2518C25.1259 141.646 25.0157 141.731 24.9821 141.852L18.1203 166.912C18.0973 166.996 18.1152 167.086 18.1678 167.155C18.221 167.224 18.3032 167.265 18.3905 167.265ZM77.6692 169.598L74.7998 142.206H93.36L94.9293 168.174C95.0747 170.582 94.2439 172.876 92.5902 174.633C90.9359 176.39 88.6965 177.358 86.2836 177.358C81.8354 177.358 78.1324 174.022 77.6692 169.598ZM77.1125 169.657C77.606 174.366 81.5484 177.917 86.2836 177.917C88.852 177.917 91.2364 176.887 92.9975 175.017C94.7581 173.147 95.6426 170.704 95.4876 168.14L93.9027 141.909C93.8937 141.762 93.7712 141.646 93.6235 141.646H74.4893C74.4099 141.646 74.3343 141.68 74.2812 141.739C74.2286 141.798 74.2029 141.876 74.2113 141.955L77.1125 169.657Z" fill="black"/>
<path fill-rule="evenodd" clip-rule="evenodd" d="M0.27948 177.862H41.8612V166.985H18.3905L18.3043 167.063C16.7681 168.445 14.8749 169.368 12.8396 169.726L8.87091 170.423C4.96485 171.11 1.72565 173.838 0.384658 177.57L0.27948 177.862ZM92.5819 168.281C88.7334 167.769 84.8341 167.769 80.9851 168.281C75.2647 169.041 70.3192 172.648 67.847 177.862H105.72C103.248 172.648 98.3028 169.041 92.5819 168.281Z" fill="#4B69FD"/>
<path fill-rule="evenodd" clip-rule="evenodd" d="M41.5809 177.583H0.677741C1.99971 173.995 5.14996 171.361 8.91952 170.699L12.8877 170.001C14.9767 169.634 16.9146 168.69 18.4917 167.271L41.5809 167.265V177.583ZM0.279411 178.142H41.8607C42.0151 178.142 42.1404 178.017 42.1404 177.862V166.985C42.1404 166.831 42.0151 166.706 41.8607 166.706H18.3904C18.321 166.706 18.2545 166.731 18.203 166.778L18.1168 166.855C16.6181 168.204 14.7764 169.101 12.7909 169.45L8.82273 170.147C4.82716 170.85 1.49285 173.657 0.121648 177.476L0.0164745 177.768C-0.0142951 177.853 -0.00142945 177.948 0.0505992 178.023C0.103187 178.098 0.188781 178.142 0.279411 178.142ZM105.271 177.583H68.2951C70.7936 172.65 75.5193 169.29 81.0214 168.558C84.8447 168.05 88.7217 168.05 92.5449 168.558C98.0476 169.29 102.773 172.65 105.271 177.583ZM67.8464 178.142H105.72C105.816 178.142 105.905 178.093 105.957 178.012C106.008 177.931 106.014 177.829 105.973 177.743C103.449 172.421 98.4572 168.78 92.6188 168.004C88.7468 167.489 84.8201 167.489 80.9481 168.004C75.1092 168.78 70.1172 172.421 67.5936 177.743C67.5527 177.829 67.5589 177.931 67.6104 178.012C67.6613 178.093 67.7508 178.142 67.8464 178.142Z" fill="black"/>
<path fill-rule="evenodd" clip-rule="evenodd" d="M1.47726 175.358H41.8612V177.862H0.27948L0.384658 177.57C0.667179 176.784 1.03809 176.046 1.47726 175.358ZM105.72 177.862C105.301 176.978 104.805 176.144 104.252 175.358H69.315C68.7617 176.144 68.266 176.978 67.8465 177.862H105.72Z" fill="#EFF2F7"/>
<path fill-rule="evenodd" clip-rule="evenodd" d="M41.581 177.582H0.677776C0.923374 176.917 1.24393 176.264 1.63219 175.638H41.581V177.582ZM0.280006 178.142H41.8607C42.0151 178.142 42.1404 178.017 42.1404 177.862V175.358C42.1404 175.204 42.0151 175.078 41.8607 175.078H1.47779C1.38212 175.078 1.29317 175.127 1.2417 175.208C0.778474 175.933 0.401408 176.696 0.121125 177.476L0.0165098 177.768C-0.0142598 177.853 -0.00139447 177.949 0.0511936 178.023C0.103222 178.098 0.188816 178.142 0.280006 178.142ZM105.271 177.582H68.2963C68.6319 176.924 69.0224 176.272 69.461 175.638H104.106C104.545 176.272 104.936 176.924 105.271 177.582ZM67.847 178.142H105.721C105.817 178.142 105.905 178.093 105.957 178.012C106.008 177.931 106.014 177.829 105.973 177.742C105.564 176.878 105.061 176.022 104.481 175.197C104.428 175.123 104.343 175.078 104.252 175.078H69.315C69.2244 175.078 69.1388 175.123 69.0868 175.197C68.5061 176.022 68.0042 176.878 67.5942 177.742C67.5533 177.829 67.5595 177.931 67.6104 178.012C67.6619 178.093 67.7508 178.142 67.847 178.142Z" fill="black"/>
<path fill-rule="evenodd" clip-rule="evenodd" d="M88.1147 65.5111H44.2618L15.1715 164.376H45.3723L63.5812 99.7555L72.6857 164.376H100.221L88.1147 65.5111Z" fill="#4B69FD"/>
<path fill-rule="evenodd" clip-rule="evenodd" d="M99.9067 164.096H72.9285L63.8671 99.7835L66.8507 89.2077C66.8926 89.0589 66.8059 88.9045 66.6571 88.8625C66.5083 88.8217 66.3539 88.9073 66.3119 89.0555L63.3261 99.6409C63.3205 99.6532 63.3155 99.666 63.3116 99.68L45.1603 164.096H15.5456L44.4711 65.7906H87.8652L99.9067 164.096ZM60.9602 110.087L45.6409 164.452C45.6073 164.572 45.4971 164.655 45.3718 164.655H15.1719C15.0835 164.655 15.0007 164.614 14.9475 164.543C14.895 164.472 14.8787 164.381 14.9033 164.297L43.9933 65.432C44.028 65.3129 44.1377 65.2312 44.2613 65.2312H88.1141C88.2562 65.2312 88.376 65.3375 88.3922 65.4785L100.499 164.343C100.508 164.423 100.483 164.502 100.43 164.562C100.377 164.621 100.301 164.655 100.221 164.655H72.6851C72.5458 164.655 72.4278 164.552 72.4082 164.415L63.4906 101.118L60.9614 110.084C60.9608 110.085 60.9608 110.086 60.9602 110.087Z" fill="black"/>
<path fill-rule="evenodd" clip-rule="evenodd" d="M61.2595 25.9226C61.2595 25.9226 63.2368 24.4808 62.8852 18.5267C62.8852 18.5267 66.0122 20.16 69.4238 17.3983L70.2107 25.8538C70.2107 25.8538 67.8454 28.8523 65.3652 28.5615C62.8852 28.2707 61.2595 25.9226 61.2595 25.9226Z" fill="#FBEFE3"/>
<path fill-rule="evenodd" clip-rule="evenodd" d="M63.0042 17.7666C64.9902 18.8475 67.0627 18.4748 69.2591 16.6221C69.4334 16.475 69.6798 16.6021 69.702 16.8505L70.4889 25.6617C70.497 25.7513 70.4723 25.8407 70.421 25.9085C68.7892 28.0642 67.0909 29.0531 65.3359 28.8387C63.6049 28.6272 62.1675 27.6644 61.0378 25.9642C60.9386 25.8148 60.97 25.5993 61.1061 25.4959C62.3141 24.578 62.8345 22.1111 62.6061 18.0809C62.5921 17.8348 62.8114 17.6616 63.0042 17.7666ZM69.8493 25.7054L69.1199 17.6785L68.9717 17.7898C66.978 19.2465 65.0338 19.5888 63.1619 18.8008L63.0791 18.7647L63.0923 19.0977C63.2038 22.5274 62.7107 24.8013 61.5736 25.9105L61.5392 25.9422L61.6161 26.0464C62.5722 27.3088 63.7331 28.0427 65.1086 28.2573L65.2974 28.2833C66.8586 28.4707 68.3998 27.5892 69.931 25.6024L69.8493 25.7054Z" fill="black"/>
<path fill-rule="evenodd" clip-rule="evenodd" d="M65.2932 19.0229C61.5197 19.0229 58.4601 15.7781 58.4601 11.7758C58.4601 7.7735 61.5197 4.52872 65.2932 4.52872C69.0672 4.52872 72.1268 7.7735 72.1268 11.7758C72.1268 15.7781 69.0672 19.0229 65.2932 19.0229Z" fill="#FBEFE3"/>
<path fill-rule="evenodd" clip-rule="evenodd" d="M65.2931 4.80613C61.678 4.80613 58.737 7.93232 58.737 11.7757C58.737 15.6191 61.678 18.7453 65.2931 18.7453C68.9083 18.7453 71.8493 15.6191 71.8493 11.7757C71.8493 7.93232 68.9083 4.80613 65.2931 4.80613ZM65.2931 19.2997C61.3725 19.2997 58.1826 15.9246 58.1826 11.7757C58.1826 7.62686 61.3725 4.25172 65.2931 4.25172C69.2137 4.25172 72.4037 7.62686 72.4037 11.7757C72.4037 15.9246 69.2137 19.2997 65.2931 19.2997Z" fill="black"/>
<path fill-rule="evenodd" clip-rule="evenodd" d="M63.3788 14.1013C63.3676 14.1013 63.3564 14.1007 63.3446 14.0996L62.2022 13.9608C62.1222 13.9508 62.0501 13.9071 62.0048 13.84C61.9594 13.7734 61.9449 13.6901 61.9656 13.6117L62.3119 12.2959C62.3516 12.1466 62.5049 12.0593 62.6537 12.0968C62.8025 12.1365 62.892 12.2892 62.8529 12.4386L62.5883 13.4439L63.4123 13.5435C63.5656 13.5625 63.6747 13.7018 63.6562 13.8551C63.6389 13.9972 63.5186 14.1013 63.3788 14.1013Z" fill="black"/>
<path fill-rule="evenodd" clip-rule="evenodd" d="M61.5671 11.6175C61.5671 11.9549 61.3954 12.2279 61.1834 12.2279C60.9713 12.2279 60.799 11.9549 60.799 11.6175C60.799 11.2802 60.9713 11.0072 61.1834 11.0072C61.3954 11.0072 61.5671 11.2802 61.5671 11.6175Z" fill="black"/>
<path fill-rule="evenodd" clip-rule="evenodd" d="M65.8665 10.2581C65.8016 10.2581 65.7373 10.2357 65.6841 10.1904C65.1516 9.73274 64.5239 9.73889 64.5306 9.73442C64.3566 9.72547 64.2492 9.61414 64.2464 9.46029C64.2441 9.30644 64.365 9.17889 64.5188 9.17497C64.5563 9.17441 65.3474 9.16378 66.0489 9.76631C66.1658 9.86701 66.1793 10.0432 66.0786 10.1607C66.0232 10.2251 65.9454 10.2581 65.8665 10.2581Z" fill="black"/>
<path fill-rule="evenodd" clip-rule="evenodd" d="M60.226 10.258C60.1471 10.258 60.0693 10.225 60.0139 10.1606C59.9132 10.0432 59.9267 9.86637 60.0436 9.76622C60.7451 9.1637 61.5401 9.17657 61.5737 9.17489C61.7286 9.1788 61.8506 9.30692 61.8467 9.46133C61.8433 9.6135 61.7186 9.73434 61.567 9.73434H61.5608C61.5317 9.73434 60.932 9.74105 60.4083 10.1903C60.3552 10.2356 60.2909 10.258 60.226 10.258Z" fill="black"/>
<path fill-rule="evenodd" clip-rule="evenodd" d="M63.8478 16.6374C63.1871 16.6374 62.6842 16.3258 62.6584 16.3095C62.5275 16.2273 62.4884 16.0544 62.5706 15.9241C62.6523 15.7932 62.824 15.7535 62.9555 15.8357C62.965 15.8418 63.567 16.206 64.2215 16.0293C64.6786 15.9062 65.0691 15.5476 65.3813 14.963C65.454 14.827 65.6229 14.7755 65.7595 14.8483C65.896 14.921 65.9474 15.0905 65.8747 15.227C65.4848 15.956 64.9751 16.4086 64.3597 16.5714C64.1829 16.6184 64.0106 16.6374 63.8478 16.6374Z" fill="black"/>
<path fill-rule="evenodd" clip-rule="evenodd" d="M65.8665 11.8405H64.1054C63.951 11.8405 63.8257 11.7151 63.8257 11.5607C63.8257 11.4063 63.951 11.281 64.1054 11.281H65.8665C66.021 11.281 66.1463 11.4063 66.1463 11.5607C66.1463 11.7151 66.021 11.8405 65.8665 11.8405Z" fill="black"/>
<path fill-rule="evenodd" clip-rule="evenodd" d="M65.9617 12.3399C65.9035 12.3399 65.8448 12.322 65.7944 12.2845L65.1254 11.7849C65.0571 11.734 65.0157 11.6534 65.0135 11.5678C65.0112 11.4822 65.0487 11.4 65.1147 11.3452L65.7838 10.7919C65.9035 10.6934 66.0792 10.7102 66.1777 10.8288C66.2761 10.948 66.2594 11.1248 66.1402 11.2227L65.7452 11.5494L66.1296 11.8358C66.2532 11.9287 66.2784 12.1038 66.1861 12.2274C66.1312 12.3013 66.0468 12.3399 65.9617 12.3399Z" fill="black"/>
<path fill-rule="evenodd" clip-rule="evenodd" d="M69.4645 1.61266C65.1713 -1.89563 61.386 2.60512 61.386 2.60512L57.8968 2.32931C57.8901 2.32931 57.8861 2.33714 57.8912 2.34218L59.5394 4.09605L56.7885 5.13662C56.7824 5.13942 56.7824 5.14837 56.7885 5.15061L59.2882 6.05579L56.7947 8.07875C56.7879 8.08323 56.793 8.0933 56.8008 8.09162L60.8322 7.19818H67.8242C68.5 7.19818 69.0678 7.70504 69.1445 8.37638L69.4964 11.4584C69.8583 11.3901 70.2606 11.4338 70.7423 11.9994C70.9213 12.2086 71.0478 12.4749 71.0455 12.7496C71.0405 13.4668 70.4575 14.0469 69.7392 14.0469C69.6955 14.0469 69.6547 14.038 69.6127 14.0341L69.7565 17.2386C75.0343 17.1692 76.1247 9.78842 76.1247 9.78842C77.7399 0.0478873 69.4645 1.61266 69.4645 1.61266Z" fill="#EE7A08"/>
<path fill-rule="evenodd" clip-rule="evenodd" d="M69.9056 14.318L70.0236 16.948C74.77 16.6358 75.8379 9.81783 75.848 9.74734C76.3537 6.69836 75.9291 4.4891 74.5876 3.1744C72.6922 1.31815 69.5475 1.88207 69.5162 1.88767C69.4345 1.90277 69.3511 1.88151 69.2879 1.82949C65.2616 -1.46118 61.7477 2.61047 61.6 2.78558C61.5424 2.85439 61.4551 2.893 61.3639 2.88404L58.5773 2.66362L59.7432 3.90503C59.8075 3.97273 59.8333 4.06839 59.812 4.15958C59.7913 4.25021 59.7259 4.32518 59.6386 4.35819L57.5753 5.13806L59.3835 5.79261C59.478 5.8273 59.5468 5.91009 59.5642 6.00912C59.5804 6.1087 59.5429 6.2094 59.464 6.27318L57.8668 7.56942L60.7715 6.92549C60.7916 6.92102 60.8117 6.91878 60.8324 6.91878H67.8244C68.6429 6.91878 69.3299 7.53193 69.4228 8.34481L69.7433 11.1544C70.0779 11.1555 70.5002 11.2836 70.9556 11.8179C71.1968 12.1009 71.3277 12.4327 71.3254 12.7521C71.3198 13.5639 70.6972 14.2347 69.9056 14.318ZM69.7567 17.5181C69.6074 17.5181 69.4843 17.4006 69.477 17.2512L69.3332 14.0467C69.3299 13.9656 69.3612 13.8873 69.42 13.8313C69.4787 13.7759 69.5593 13.748 69.6398 13.7558L69.7394 13.7675C70.3016 13.7675 70.7621 13.3099 70.766 12.7477C70.7677 12.5625 70.6837 12.3611 70.5299 12.1809C70.1014 11.678 69.7987 11.6858 69.5486 11.7328C69.4725 11.7479 69.3931 11.73 69.3304 11.6836C69.2678 11.6372 69.2275 11.5672 69.2186 11.49L68.8672 8.40803C68.8062 7.87823 68.3581 7.47822 67.8244 7.47822H60.8626L56.8615 8.36495C56.7295 8.39348 56.5946 8.32467 56.5392 8.20607C56.4839 8.08802 56.5197 7.93865 56.622 7.85865L58.7278 6.1501L56.6936 5.41386C56.5846 5.37414 56.5062 5.26505 56.504 5.14925C56.5023 5.03064 56.5795 4.91652 56.6903 4.87512L59.0489 3.9828L57.6872 2.53383C57.6095 2.45103 57.5882 2.32124 57.6352 2.2183C57.6822 2.1148 57.7946 2.04096 57.9082 2.04991L61.271 2.31564C61.9088 1.63536 65.5184 -1.86622 69.5425 1.31647C70.1954 1.21913 73.0765 0.915349 74.9758 2.77215C76.4584 4.22112 76.9373 6.59709 76.4007 9.83406C76.3901 9.90511 75.213 17.4465 69.7601 17.5181H69.7567Z" fill="black"/>
<path fill-rule="evenodd" clip-rule="evenodd" d="M103.955 47.6688L88.9991 51.9782L89.9496 54.206C89.9496 54.206 79.9473 47.4473 76.8832 44.8347C73.8197 42.2215 71.6568 35.2826 70.2151 33.1198C68.7734 30.957 65.7094 31.1371 64.8987 32.0614C64.0875 32.985 64.718 33.6603 64.718 33.6603C64.718 33.6603 59.7619 30.6868 57.9599 32.8496C56.1573 35.0119 59.3115 37.1747 59.3115 37.1747C59.3115 37.1747 54.1752 34.9218 53.3573 37.3548C52.5394 39.7884 55.6169 41.1401 55.6169 41.1401C55.1212 41.0159 54.6194 41.2396 54.2211 41.5183C53.6091 41.9462 53.1878 42.6254 53.1537 43.3711C53.0513 45.6509 56.1271 46.2819 57.0581 46.4207C55.0362 46.2064 54.5355 48.3933 54.5355 48.3933C54.2205 51.5027 57.7797 51.3226 57.7797 51.3226C65.3043 50.6468 69.9449 54.4762 69.9449 54.4762C69.9449 54.4762 81.389 73.8504 95.717 72.0484C110.044 70.2459 103.955 47.6688 103.955 47.6688ZM33.1794 44.5639C32.2781 48.2585 32.2031 49.2934 32.2031 49.2934L26.5214 47.4517C26.5214 47.4517 13.1741 66.1009 24.2579 73.0398C35.3414 79.978 43.9021 52.2238 43.9021 52.2238C43.9021 52.2238 45.7863 50.6009 47.4579 48.3961L49.7763 39.1798C49.5195 38.5235 49.2191 38.2561 49.2191 38.2561C49.2191 38.2561 49.5044 38.4368 49.9128 38.636L51.0854 33.9741C49.9654 33.2205 48.2602 32.533 45.7046 32.0384C37.3241 30.4166 34.0807 40.8693 33.1794 44.5639Z" fill="#FBEFE3"/>
<path fill-rule="evenodd" clip-rule="evenodd" d="M44.9902 51.2001L44.7737 52.818L42.4833 66.2336H79.968C73.8583 61.0933 69.9444 54.4768 69.9444 54.4768C69.9444 54.4768 65.3038 50.6468 57.7792 51.3226C57.7792 51.3226 54.22 51.5033 54.5355 48.3933C54.5355 48.3933 55.0357 46.2065 57.0581 46.4213C56.1266 46.282 53.0507 45.6515 53.1537 43.3712C53.1872 42.6254 53.6091 41.9463 54.2205 41.5183C54.6189 41.2397 55.1207 41.0159 55.6169 41.1401C55.6169 41.1401 52.5388 39.7885 53.3573 37.3554C54.1747 34.9224 59.3115 37.1753 59.3115 37.1753C59.3115 37.1753 56.1573 35.0125 57.9599 32.8496C59.7619 30.6868 64.718 33.6608 64.718 33.6608C64.718 33.6608 64.087 32.9856 64.8982 32.0619C65.7094 31.1377 68.7729 30.9576 70.2146 33.1204C71.6568 35.2827 73.8191 42.2215 76.8832 44.8347C78.7484 46.4258 83.182 49.5508 86.3681 51.7539L85.4478 44.8772L88.4033 52.15L88.9986 51.9783L103.954 47.6688L105.201 47.3102L99.8468 39.5009C93.7225 30.5699 83.5899 25.2311 72.7601 25.2311H70.1323C69.4286 26.7131 67.6864 27.7648 65.6422 27.7715C63.5974 27.7648 61.8553 26.7131 61.1521 25.2311H58.5238C47.6946 25.2311 36.4189 30.4065 30.295 39.3376L25.3467 47.0714L31.3932 49.0317L32.2027 49.2935C32.2027 49.2935 32.2771 48.2591 33.1784 44.5645C34.0797 40.8699 37.3236 30.4166 45.7041 32.039C54.0846 33.6608 53.3573 37.3554 52.6429 38.6673C51.929 39.9787 49.2185 38.2567 49.2185 38.2567C49.2185 38.2567 50.7503 39.6083 49.8496 43.7482C49.214 46.6663 46.5253 49.6739 44.9902 51.2001Z" fill="#EFF2F7"/>
<path fill-rule="evenodd" clip-rule="evenodd" d="M57.7792 51.3226C57.7792 51.3226 54.22 51.5027 54.5349 48.3933C54.5349 48.3933 55.0356 46.2064 57.0575 46.4207C56.1266 46.282 53.0507 45.6509 53.1531 43.3712C53.1872 42.6254 53.6085 41.9463 54.2205 41.5183C54.6188 41.2397 55.1207 41.0159 55.6163 41.1401C55.6163 41.1401 52.5388 39.7885 53.3567 37.3554C54.1746 34.9224 59.3109 37.1747 59.3109 37.1747C59.3109 37.1747 56.1573 35.0125 57.9593 32.8496C59.5213 30.9749 63.4475 32.9565 64.4679 33.5187L64.525 33.2922C64.4489 33.0275 64.4528 32.6376 64.8053 32.1783L65.1325 30.8759C65.3284 30.0977 64.8562 29.3083 64.0785 29.1131L54.4163 26.6829C53.6387 26.487 52.8493 26.9592 52.6535 27.7368L47.4025 48.6143C47.2073 49.3919 47.6789 50.1813 48.4565 50.3771L58.1188 52.8068C58.8969 53.0026 59.6858 52.531 59.8816 51.7528L60.0058 51.2583C59.293 51.2409 58.5557 51.2527 57.7792 51.3226Z" fill="#FF5613"/>
<path fill-rule="evenodd" clip-rule="evenodd" d="M53.8245 29.1489C53.712 29.5954 53.9828 30.048 54.4292 30.1604C54.8751 30.2723 55.3283 30.0015 55.4401 29.5556C55.5526 29.1092 55.2818 28.6566 54.8354 28.5442C54.3895 28.4323 53.9369 28.703 53.8245 29.1489Z" fill="#EFF2F7"/>
<path fill-rule="evenodd" clip-rule="evenodd" d="M54.0952 29.2172C54.0208 29.5131 54.201 29.8141 54.4969 29.8891C54.6407 29.9249 54.7889 29.903 54.9159 29.827C55.0429 29.7514 55.1324 29.6306 55.1683 29.4868C55.2046 29.3442 55.1828 29.1948 55.1067 29.0684C55.0312 28.9414 54.9103 28.8518 54.7666 28.8155C54.4706 28.7394 54.1696 28.9212 54.0952 29.2172ZM54.634 30.4653C54.5428 30.4653 54.451 30.4541 54.3604 30.4312C53.7652 30.2818 53.4032 29.6759 53.5526 29.0807C53.7025 28.4854 54.3078 28.1223 54.9036 28.2734C55.1918 28.3455 55.4345 28.5262 55.5873 28.7814C55.7394 29.0359 55.7836 29.3352 55.7109 29.6239C55.6387 29.912 55.458 30.1548 55.2029 30.3075C55.0284 30.4121 54.8326 30.4653 54.634 30.4653Z" fill="black"/>
<path fill-rule="evenodd" clip-rule="evenodd" d="M79.6407 65.9538H42.8151L45.0512 52.8549L45.3169 50.8694C45.0786 51.1139 44.8571 51.3349 44.6657 51.519L44.4984 52.771L42.2075 66.1866C42.1935 66.2677 42.2165 66.351 42.2696 66.4137C42.3228 66.4769 42.4011 66.5133 42.4833 66.5133H80.2997C80.0759 66.3292 79.8589 66.1412 79.6407 65.9538Z" fill="black"/>
<path fill-rule="evenodd" clip-rule="evenodd" d="M105.432 47.1519L100.077 39.3432C93.8988 30.3316 83.6866 24.9514 72.7601 24.9514H70.1318C70.0238 24.9514 69.9259 25.014 69.8795 25.1114C69.1958 26.5514 67.532 27.4862 65.6428 27.4918C63.7518 27.4862 62.088 26.5514 61.4044 25.1114C61.3585 25.014 61.26 24.9514 61.1521 24.9514H58.5238C47.162 24.9514 35.9909 30.5363 30.0593 39.1871L25.111 46.9209C25.0645 46.9936 25.0539 47.0842 25.0836 47.1659C25.1126 47.2476 25.1781 47.3108 25.2603 47.3377L26.3541 47.6923C26.4604 47.5363 26.5208 47.4523 26.5208 47.4523L32.2025 49.294C32.2025 49.294 32.2092 49.2084 32.2378 49.011L25.7778 46.9175L30.5259 39.4959C36.3512 31.0007 47.341 25.5108 58.5238 25.5108H60.9792C61.7977 27.0538 63.6053 28.0451 65.6428 28.0513C67.6786 28.0451 69.4862 27.0538 70.3046 25.5108H72.7601C83.502 25.5108 93.5413 30.7998 99.6158 39.6592L104.751 47.1486L88.5672 51.8116L85.7068 44.772C85.6536 44.6411 85.511 44.5706 85.3761 44.607C85.2396 44.6434 85.1518 44.7748 85.1703 44.9141L86.057 51.5391C86.2696 51.6857 86.4771 51.8295 86.6791 51.9688L86.0167 47.021L88.1437 52.2552C88.1974 52.3883 88.3423 52.4583 88.4805 52.4191L89.1093 52.2379L88.9986 51.9783L103.954 47.6694C103.954 47.6694 103.98 47.7645 104.024 47.9407L105.278 47.5788C105.365 47.5542 105.434 47.4893 105.465 47.4048C105.494 47.3197 105.483 47.2258 105.432 47.1519Z" fill="black"/>
<path fill-rule="evenodd" clip-rule="evenodd" d="M32.9073 44.4979C32.5112 46.122 32.274 47.2331 32.1324 47.9732C32.0681 48.2949 32.0032 48.6093 31.9372 48.9136L26.6073 47.1861C26.491 47.148 26.3645 47.19 26.294 47.289C26.2733 47.3175 24.2375 50.1774 22.4316 54.0141C20.7572 57.5722 18.9412 62.7264 19.8017 67.0783C20.3259 69.7301 21.7754 71.8157 24.1094 73.277C25.3391 74.0468 26.5911 74.4323 27.8532 74.4323C28.6236 74.4323 29.3979 74.2885 30.1721 74.0004C33.6111 72.7209 37.0136 68.6739 40.2864 61.9706C42.5387 57.3568 43.9468 53.0094 44.1454 52.3833C44.4744 52.0952 45.9463 50.7677 47.3645 48.9813C47.3634 48.8599 47.3723 48.7374 47.4031 48.6143L47.6426 47.6633C45.9239 50.0946 43.7533 51.9833 43.7203 52.0119C43.68 52.046 43.6509 52.0913 43.6352 52.1417C43.5782 52.3252 37.8791 70.5368 29.9769 73.4762C28.1055 74.1716 26.2314 73.945 24.4065 72.8026C22.2084 71.4264 20.8439 69.4644 20.3505 66.9709C18.8629 59.4464 25.6507 49.2113 26.6319 47.7819L31.8147 49.4619C30.1363 56.8214 27.9797 58.8338 27.9478 58.8629C27.8325 58.9641 27.8208 59.1403 27.922 59.2567C27.9774 59.3199 28.0552 59.3524 28.133 59.3524C28.1984 59.3524 28.2639 59.3294 28.317 59.283C28.4183 59.1946 30.6516 57.161 32.3803 49.5027C32.4368 49.4546 32.4759 49.3892 32.4815 49.3142C32.4821 49.3081 32.5173 48.8924 32.754 47.7159C32.7557 47.708 32.7568 47.7002 32.7585 47.6918C32.9028 46.9757 33.1215 45.9816 33.4511 44.6305C34.4788 40.4162 37.7275 30.7797 45.6515 32.3132C47.9984 32.7674 49.8054 33.4304 51.0121 34.2662L51.1581 33.6849C49.8949 32.8597 48.0929 32.2158 45.7578 31.7643C37.3594 30.1386 33.973 40.1275 32.9073 44.4979ZM49.3679 38.0201L47.2252 36.6522C47.1916 36.6304 47.1553 36.6181 47.1178 36.612C45.0495 34.9442 41.8596 34.702 41.6682 34.6891C41.5121 34.6869 41.3812 34.7954 41.3706 34.9493C41.36 35.1037 41.4763 35.2368 41.6307 35.2475C41.6934 35.2514 47.8926 35.7219 48.287 39.7594C48.6624 43.595 47.9838 44.6294 47.5463 44.9046C47.1816 45.134 46.6596 45.0456 45.9955 44.6451C46.1147 43.3807 45.7623 41.7454 44.9281 39.7415C43.6817 36.7451 39.4662 37.53 39.2866 37.5653C39.1356 37.5949 39.0366 37.7415 39.0662 37.8931C39.0959 38.0447 39.2408 38.1437 39.3941 38.1141C39.4332 38.1074 43.3404 37.3818 44.4151 39.9647C45.9804 43.727 45.783 46.0515 43.8517 46.8661C43.5054 46.9746 42.5247 47.1643 42.1538 46.7352C42.1527 46.734 42.151 46.7335 42.1499 46.7324C42.6047 45.3835 42.6635 43.6185 42.4895 42.4045C42.0856 39.5854 37.7801 39.8679 37.5966 39.8802C37.4427 39.8914 37.3269 40.0251 37.3381 40.179C37.3493 40.3334 37.483 40.4537 37.6374 40.438C37.6766 40.4341 41.6056 40.179 41.9362 42.4834C42.1885 44.2451 41.8976 47.204 40.7116 47.9464C40.2545 48.2317 39.6755 48.1416 38.9907 47.6784C37.0332 46.3531 38.8894 42.9779 38.909 42.9438C38.984 42.809 38.9359 42.6389 38.8011 42.5634C38.6668 42.4878 38.4962 42.5354 38.4206 42.6702C38.391 42.7239 38.137 43.1899 37.9071 43.8395C37.6637 43.7304 37.5865 43.1122 37.6105 42.7239C37.6206 42.5701 37.5037 42.4369 37.3493 42.4269C37.1954 42.4129 37.0628 42.5331 37.0522 42.6876C37.0433 42.828 36.9828 44.0694 37.7023 44.362C37.7146 44.367 37.7275 44.3659 37.7398 44.3693C37.3996 45.6056 37.3101 47.2163 38.6769 48.1416C39.2548 48.5327 39.742 48.6686 40.1404 48.6686C40.5029 48.6686 40.7916 48.5562 41.0081 48.4208C41.3963 48.178 41.6995 47.7718 41.934 47.2745C42.2293 47.4859 42.6053 47.5587 42.9622 47.5587C43.5066 47.5587 43.9955 47.4065 44.0447 47.3903C45.0406 46.9712 45.6593 46.249 45.9027 45.2314C46.3379 45.4652 46.7368 45.59 47.0921 45.59C47.3679 45.59 47.6191 45.5195 47.844 45.3779C48.8163 44.767 49.1525 42.8582 48.8437 39.7051C48.781 39.0629 48.5936 38.5051 48.3217 38.0156L49.0434 38.4766C49.0988 38.5331 49.4244 38.8939 49.6465 39.6962L49.9827 38.3585C49.7265 38.2316 49.5061 38.1074 49.369 38.0201H49.3679ZM102.564 67.7184C101.013 70.0283 98.6977 71.3917 95.6817 71.771C81.7028 73.526 70.2991 54.5266 70.1855 54.3347C70.1693 54.3067 70.148 54.2815 70.1228 54.2608C69.946 54.1148 66.0439 50.9612 59.5823 50.9612C58.9977 50.9612 58.3912 50.9875 57.7663 51.0435C57.749 51.0463 56.1585 51.11 55.3182 50.2239C54.9059 49.7897 54.7369 49.1833 54.808 48.456C54.827 48.3749 55.2617 46.588 56.916 46.6842C57.1313 46.7184 57.2729 46.7324 57.3031 46.7357C57.3288 46.738 57.3529 46.7324 57.3775 46.7279C58.7286 46.9589 60.9596 47.378 62.3387 47.8378C62.3683 47.8473 62.398 47.8524 62.4276 47.8524C62.5446 47.8524 62.6536 47.778 62.6928 47.661C62.7415 47.5145 62.6626 47.3556 62.516 47.3069C60.4466 46.6171 56.6609 46.0403 56.3358 45.9916C55.1498 45.6996 53.3612 44.9925 53.4334 43.3841C53.4619 42.7547 53.8161 42.1432 54.3811 41.7477C54.8203 41.4405 55.2136 41.3281 55.5492 41.4115C55.5582 41.4137 55.5671 41.4115 55.5766 41.4131C55.5856 41.4143 55.5929 41.4193 55.6018 41.4198C55.6175 41.4204 56.253 41.4607 57.2958 41.6654L62.0545 43.153C62.6274 43.3986 63.2192 43.6761 63.8274 43.9955C63.8688 44.0174 63.913 44.028 63.9572 44.028C64.0579 44.028 64.1546 43.9737 64.2044 43.8781C64.2766 43.7416 64.224 43.5726 64.087 43.5004C59.7199 41.2045 56.1568 40.8962 55.6863 40.8643C55.3288 40.697 52.9355 39.4886 53.6225 37.4444C53.74 37.0942 53.9671 36.8492 54.3156 36.6948C55.8894 35.9971 59.1666 37.417 59.1991 37.4315C59.2058 37.4343 59.213 37.4338 59.2198 37.436C59.2259 37.4383 59.2304 37.4427 59.2365 37.445C59.2584 37.4506 60.4629 37.7896 61.9398 38.4139L63.5583 39.1765C64.229 39.5295 64.8909 39.9312 65.471 40.3804C65.5219 40.4196 65.5824 40.4386 65.6422 40.4386C65.7256 40.4386 65.8084 40.4011 65.8638 40.33C65.9583 40.2081 65.9359 40.0324 65.8134 39.9379C63.4341 38.0967 59.8754 37.045 59.4351 36.9197C59.2091 36.7552 57.8681 35.7325 57.7003 34.5135C57.6281 33.9848 57.7831 33.4992 58.1747 33.0293C59.8033 31.0734 64.5272 33.8718 64.5748 33.9009C64.5787 33.9037 64.5843 33.9037 64.5888 33.9059C64.5927 33.9081 64.5955 33.9121 64.6 33.9143C64.619 33.9233 66.5289 34.8262 68.2968 36.4799C68.3505 36.5308 68.4193 36.5555 68.4876 36.5555C68.562 36.5555 68.6369 36.5258 68.6918 36.4671C68.7975 36.3541 68.7919 36.1773 68.6783 36.0715C66.9922 34.4933 65.2327 33.5999 64.8959 33.436C64.8064 33.3146 64.5586 32.8732 65.1091 32.246C65.4419 31.8667 66.2727 31.6396 67.1331 31.6983C68.3281 31.7772 69.367 32.3523 69.9824 33.2754C70.4495 33.9764 71.0051 35.2161 71.6479 36.6511C72.9682 39.5972 74.6113 43.2638 76.7019 45.0473C79.2821 47.2482 86.8346 52.4247 89.125 53.9845C89.1659 54.013 89.2145 54.046 89.2744 54.0863C89.5916 54.3017 89.7801 54.4287 89.793 54.4382C89.826 54.4606 89.8652 54.4622 89.9021 54.4684C90.7883 54.9657 92.2305 55.6058 93.7796 55.6058C93.9212 55.6058 94.0638 55.6002 94.207 55.589C94.3609 55.5767 94.4761 55.4418 94.4638 55.288C94.4515 55.1341 94.3178 55.0228 94.1628 55.0312C93.8742 55.0541 93.5861 55.048 93.3024 55.0223L90.2943 54.0404C90.2434 54.013 90.1958 53.9862 90.1482 53.9593L89.3801 52.1596L103.755 48.018C104.225 49.9441 106.78 61.4374 102.564 67.7184ZM105.422 55.1174C105.124 50.9657 104.234 47.6297 104.225 47.5961C104.205 47.524 104.157 47.4624 104.092 47.4255C104.026 47.3886 103.949 47.3785 103.877 47.4003L88.9214 51.7098C88.8442 51.7316 88.781 51.7858 88.7463 51.8586C88.7121 51.9307 88.7105 52.0147 88.7418 52.0879L89.318 53.439C86.8962 51.7886 79.5803 46.767 77.065 44.6221C75.07 42.9203 73.456 39.3174 72.1587 36.4217C71.5052 34.9638 70.9413 33.7051 70.4479 32.9649C69.7351 31.8958 68.5402 31.2306 67.1701 31.14C66.1189 31.0717 65.1426 31.3599 64.6884 31.8768C64.3096 32.3081 64.1932 32.7188 64.2056 33.0611C62.7504 32.3126 59.2847 30.8245 57.7451 32.6706C57.2533 33.2609 57.0519 33.907 57.1464 34.5912C57.2449 35.3045 57.6527 35.9401 58.0751 36.4257C56.8908 36.0575 55.1912 35.6956 54.0891 36.1829C53.5956 36.401 53.2605 36.7658 53.0921 37.2665C52.5316 38.9348 53.6421 40.2265 54.6983 40.9449C54.4908 41.0226 54.2776 41.1373 54.0605 41.2895C53.354 41.7829 52.9109 42.5572 52.8745 43.3589C52.7945 45.1279 54.3727 45.9872 55.6684 46.3928C54.8326 46.8409 54.3956 47.7466 54.2575 48.3654C54.1629 49.298 54.3839 50.0532 54.9137 50.611C55.9336 51.6835 57.7182 51.6051 57.8049 51.6012C64.779 50.9746 69.2881 54.3201 69.7312 54.6642C70.3405 55.6695 80.7288 72.4451 93.8495 72.4451C94.4767 72.4451 95.1122 72.4065 95.7517 72.326C98.9355 71.9254 101.384 70.4798 103.029 68.0294C105.508 64.3348 105.699 58.9686 105.422 55.1174Z" fill="black"/>
<path fill-rule="evenodd" clip-rule="evenodd" d="M59.7042 51.2538L59.5968 51.6812C59.5213 51.9811 59.3333 52.2339 59.0676 52.3928C58.8018 52.5517 58.4902 52.5976 58.1904 52.5221L48.5287 50.0918C48.2283 50.0163 47.976 49.8283 47.8165 49.5631C47.6577 49.2974 47.6118 48.9858 47.6873 48.6854L52.9388 27.8085C53.0709 27.2831 53.5442 26.9318 54.0628 26.9318C54.1562 26.9318 54.2502 26.9436 54.3447 26.9671L64.0069 29.3979C64.3068 29.4728 64.5597 29.6608 64.7186 29.9265C64.8774 30.1923 64.9233 30.5039 64.8478 30.8037L64.2011 33.3755C64.5216 33.5439 64.7174 33.6603 64.7174 33.6603C64.7174 33.6603 64.0869 32.985 64.8981 32.0614C64.9765 31.9719 65.0811 31.8924 65.198 31.818L65.4173 30.947C65.5314 30.4949 65.4621 30.025 65.2226 29.625C64.9832 29.225 64.6022 28.9419 64.1502 28.8278L54.4879 26.3975C53.5542 26.162 52.6037 26.7315 52.3688 27.6652L47.1178 48.5421C47.0042 48.9947 47.073 49.4641 47.3125 49.8647C47.5519 50.2647 47.9329 50.5478 48.3855 50.6613L58.0472 53.0916C58.1893 53.1274 58.333 53.1453 58.4762 53.1453C58.7879 53.1453 59.095 53.0608 59.3691 52.8969C59.7697 52.6574 60.0528 52.2765 60.1663 51.8244L60.3079 51.2616C60.111 51.2538 59.9062 51.2555 59.7042 51.2538Z" fill="black"/>
</svg>
