<svg width="95" height="109" viewBox="0 0 95 109" fill="none" xmlns="http://www.w3.org/2000/svg">
<path d="M58.2752 107.177L58.2733 107.178C54.9622 107.757 45.2965 108.242 40.9948 108.147C40.5551 108.137 40.1113 108.132 39.4776 108.129C39.3695 108.128 39.2832 108.127 39.0883 108.126C34.8782 108.104 33.0932 107.954 31.1322 107.223C28.4734 106.233 26.7599 104.259 26.0191 100.996C25.2261 97.4992 24.6594 93.7325 24.1482 88.9664C23.9574 87.1887 23.8583 86.1573 23.5126 82.4527C23.442 81.695 23.392 81.1612 23.3413 80.6312C22.8905 75.8878 22.4835 70.6505 21.9002 62.4196C21.9553 63.1993 21.3499 54.5971 21.1879 52.358C20.9628 49.2399 20.7697 46.6908 20.5824 44.3944C20.1171 38.6096 20.0482 32.8242 20.8236 30.5047C21.7674 27.6088 24.3053 25.5186 27.3192 25.1444C34.9805 23.9983 44.6086 23.1316 49.716 23.2376C50.173 23.2472 50.577 23.2513 51.4541 23.2571C54.0405 23.2743 55.2453 23.3051 56.7683 23.4295C61.5921 23.8237 64.9607 25.0576 66.8974 27.7101C67.9531 29.1589 68.5774 31.2512 68.9677 34.0715C69.0655 34.7777 69.147 35.5156 69.2262 36.3714C69.2564 36.6996 69.2852 37.0296 69.3208 37.4573C69.3144 37.3786 69.3866 38.2488 69.4055 38.4705C69.4292 38.7478 69.4501 38.9787 69.4706 39.193C69.486 39.3635 69.486 39.3635 69.5017 39.5336C70.146 46.5559 70.1649 46.7583 70.431 49.3816C70.6126 51.1685 70.7915 52.8214 70.9759 54.4004C72.6525 68.546 73.6575 80.478 74.033 92.0512C74.2043 97.274 73.4231 100.826 70.7075 103.151C69.4189 104.249 67.3207 105.129 64.5682 105.87C63.4348 106.175 62.2383 106.443 60.9402 106.695C60.4518 106.79 59.9714 106.879 59.4281 106.975C59.2052 107.014 58.4327 107.149 58.2752 107.177Z" fill="#1A4E66"/>
<path d="M56.8506 104.507C53.0485 104.928 49.2239 105.114 45.3987 105.064C39.8155 104.942 35.1174 105.684 33.6005 99.0027C32.2504 93.0538 31.7533 85.349 31.1729 79.253C30.23 69.3382 29.4732 55.5853 28.6618 45.6193C28.4438 42.9327 27.812 33.6992 28.8543 31.278C29.8965 28.8569 32.4524 28.1053 34.29 27.7599C38.7059 26.9091 44.0871 26.2471 49.138 26.3526C53.7335 26.4486 61.2505 25.972 64.3163 30.1906C66.1186 32.6661 66.2693 38.711 66.5612 41.6374C66.9973 46.1887 67.4046 50.8806 67.953 55.499C69.2999 66.8659 70.3581 79.8063 70.7333 91.3203C70.8392 94.5186 70.6371 98.6317 67.9081 100.966C65.3586 103.138 59.0538 104.238 56.8506 104.507Z" fill="white"/>
<path d="M26.3843 27.078C24.8136 28.1256 24.3088 30.7953 24.3803 35.0097C24.3983 36.0792 24.4496 37.1359 24.5436 38.6046C24.5567 38.8128 24.6131 39.678 24.6269 39.8932C24.6561 40.3525 24.6757 40.6931 24.6891 40.9919C24.8155 43.7245 25.007 46.8944 25.2991 51.2671C25.3402 51.8828 25.3838 52.527 25.4335 53.2597C25.4662 53.7423 25.6615 56.6115 25.716 57.4175C25.8212 58.97 25.9017 60.1873 25.9726 61.3C26.6325 71.7687 27.6302 82.9367 28.9669 95.3101C29.3334 98.7291 30.0992 101.932 31.2569 104.17C31.4195 104.484 31.8063 104.608 32.1212 104.445C32.4358 104.284 32.5596 103.898 32.397 103.584C31.3262 101.513 30.5934 98.4495 30.2426 95.1735C28.9075 82.8171 27.9115 71.6677 27.2528 61.2191C27.1816 60.1041 27.1011 58.8856 26.9959 57.3315C26.9414 56.5249 26.7461 53.6556 26.7134 53.1733C26.6636 52.4409 26.62 51.7971 26.579 51.1821C26.2875 46.8173 26.0967 43.6548 25.9706 40.9333C25.9565 40.626 25.9366 40.2786 25.9071 39.8126C25.8933 39.5958 25.8369 38.73 25.8238 38.5234C25.7311 37.0729 25.6804 36.0332 25.6628 34.9883C25.5996 31.2424 26.054 28.8372 27.0975 28.1413C27.3919 27.9449 27.4708 27.5478 27.2739 27.2541C27.077 26.9605 26.6787 26.8816 26.3843 27.078Z" fill="#0D323F"/>
<path d="M23.6319 49.1644C23.5093 47.3734 23.4173 45.5967 23.3573 43.8511C23.3452 43.498 23.0482 43.2216 22.6942 43.2338C22.3404 43.2459 22.063 43.5421 22.0752 43.8952C22.1358 45.6552 22.2288 47.4463 22.3523 49.2514C22.3763 49.6039 22.6823 49.8703 23.0357 49.846C23.3891 49.822 23.6562 49.5169 23.6319 49.1644Z" fill="#0D323F"/>
<path d="M24.2819 57.9734C24.1228 56.2616 23.9994 54.4443 23.9054 52.4972C23.8884 52.1444 23.5876 51.8719 23.2339 51.8889C22.8802 51.9058 22.6069 52.2058 22.6239 52.5586C22.7188 54.5237 22.8439 56.3595 23.0046 58.0911C23.037 58.4429 23.3493 58.7016 23.7021 58.669C24.0548 58.6367 24.3143 58.3252 24.2819 57.9734Z" fill="#0D323F"/>
<path d="M52.2816 42.786C45.117 41.5919 39.1376 43.6119 36.853 49.3944C35.0207 54.04 35.5422 59.5957 38.3508 63.4227C39.749 65.3322 42.5425 66.8869 45.6347 67.5105C48.9809 68.1853 52.2633 67.7134 54.7009 65.9947C64.7562 61.4785 62.9817 44.5586 52.2816 42.786Z" fill="#1FAD66"/>
<path d="M45.1059 57.8719C45.0671 57.8337 44.863 57.6346 44.8049 57.5778C44.6885 57.4643 44.5936 57.3722 44.5021 57.2841C44.002 56.8024 43.6159 56.4541 43.2266 56.1453C42.9534 55.9286 42.5566 55.974 42.3402 56.2472C42.1234 56.5201 42.1689 56.9169 42.4421 57.1337C42.7938 57.4129 43.1531 57.7368 43.627 58.193C43.7159 58.2788 43.809 58.369 43.9238 58.4813C43.9812 58.5372 44.185 58.7366 44.2245 58.7747C45.5387 60.0574 46.2712 60.6745 47.2135 61.1748C47.4747 61.3133 47.7971 61.2521 47.9893 61.0272C49.3944 59.3826 50.2897 57.8539 52.0645 54.3755L52.1008 54.3039C53.2469 52.0578 53.7854 51.064 54.5229 49.9173C54.7116 49.6242 54.6267 49.234 54.3336 49.0454C54.0406 48.8567 53.6503 48.9416 53.4617 49.2346C52.6935 50.4287 52.1421 51.4467 50.9767 53.7304L50.9405 53.802C49.3619 56.8958 48.5057 58.3924 47.3653 59.8041C46.7343 59.4022 46.1056 58.8479 45.1059 57.8719Z" fill="white"/>
<path d="M35.0078 13.6468C35.0384 14.4175 35.0441 15.0292 35.0428 16.4023C35.0425 16.5224 35.0425 16.5224 35.0425 16.6426C35.0419 17.7359 35.0485 18.3761 35.0741 19.0772C35.0867 19.4254 35.3791 19.6975 35.7274 19.6848C36.0757 19.6722 36.3476 19.3796 36.335 19.0314C36.3104 18.3499 36.3038 17.722 36.3044 16.6434C36.3044 16.5235 36.3044 16.5235 36.3047 16.4034C36.306 15.0135 36.3 14.3902 36.2688 13.597C36.2549 13.2488 35.9615 12.9777 35.6135 12.9914C35.2653 13.0052 34.994 13.2986 35.0078 13.6468Z" fill="#FCD400"/>
<path d="M33.6423 16.8578C34.0041 16.8773 34.36 16.8902 34.8931 16.905C34.9616 16.9069 35.0171 16.9084 35.1411 16.9118C36.238 16.9414 36.7209 16.9619 37.3014 17.0139C37.6484 17.0451 37.955 16.789 37.9863 16.4419C38.0172 16.0948 37.7614 15.7882 37.414 15.7571C36.7985 15.7019 36.2985 15.6807 35.1751 15.6503C35.0515 15.647 34.9963 15.6455 34.9278 15.6436C34.4051 15.6291 34.0587 15.6166 33.7104 15.5978C33.3625 15.579 33.065 15.8458 33.0464 16.1938C33.0274 16.5417 33.2943 16.839 33.6423 16.8578Z" fill="#FCD400"/>
<path d="M77.0154 47.0231C77.4794 47.0045 77.8517 47.007 78.6883 47.025C78.8195 47.0281 78.8782 47.0294 78.9517 47.0307C79.6155 47.0442 80.0508 47.0439 80.5079 47.0231C80.8562 47.007 81.1253 46.7121 81.1092 46.3638C81.0934 46.0158 80.7982 45.7467 80.4502 45.7625C80.0272 45.782 79.6155 45.7821 78.9773 45.7691C78.9047 45.7675 78.8467 45.7666 78.7158 45.7634C77.8533 45.7448 77.4633 45.7423 76.9646 45.7625C76.6166 45.7764 76.3456 46.0698 76.3595 46.418C76.3734 46.7663 76.6671 47.0373 77.0154 47.0231Z" fill="#EAF3F3"/>
<path d="M79.3215 48.3088C79.3285 47.9867 79.3319 47.663 79.3345 47.2034C79.3348 47.1249 79.3351 47.0618 79.3357 46.9204C79.3408 45.8535 79.3477 45.3854 79.3745 44.82C79.3909 44.4721 79.1221 44.1765 78.7742 44.1601C78.4259 44.1437 78.1303 44.4125 78.1139 44.7607C78.0861 45.35 78.0789 45.8295 78.0738 46.9144C78.0732 47.0558 78.0729 47.1185 78.0726 47.1968C78.0701 47.6501 78.0666 47.9678 78.06 48.2817C78.0524 48.63 78.3287 48.9186 78.677 48.9259C79.0253 48.9334 79.314 48.6571 79.3215 48.3088Z" fill="#EAF3F3"/>
<path d="M72.0001 6.10122C72.0197 6.49439 72.0427 6.86289 72.0837 7.46891C72.0897 7.55446 72.0897 7.55446 72.0954 7.63992C72.196 9.1196 72.2294 9.78028 72.2294 10.6093C72.2294 10.9577 72.5121 11.2402 72.8604 11.2402C73.209 11.2402 73.4913 10.9577 73.4913 10.6093C73.4913 9.74236 73.4569 9.06227 73.3544 7.55433C73.3487 7.4689 73.3487 7.46891 73.3427 7.38357C73.3024 6.78446 73.2796 6.42193 73.2604 6.0381C73.2427 5.69007 72.9465 5.42208 72.5985 5.43953C72.2506 5.45694 71.9824 5.75323 72.0001 6.10122Z" fill="#90BFFF"/>
<path d="M71.0089 8.9996C71.6673 9.07216 72.1853 9.06228 73.3519 8.99121C73.6254 8.97455 73.7497 8.9673 73.9017 8.9596C74.1961 8.94468 74.4418 8.93714 74.6743 8.93714C75.0229 8.93714 75.3052 8.65467 75.3052 8.3062C75.3052 7.95773 75.0229 7.67526 74.6743 7.67526C74.4178 7.67526 74.1516 7.68343 73.838 7.69933C73.6803 7.70731 73.5531 7.71476 73.2752 7.73167C72.1808 7.79833 71.7098 7.80732 71.1474 7.7453C70.801 7.70712 70.4893 7.95698 70.4511 8.30333C70.4129 8.64968 70.6625 8.96143 71.0089 8.9996Z" fill="#90BFFF"/>
<path d="M14.569 63.9706C14.5886 64.3637 14.6116 64.7322 14.653 65.3382C14.6586 65.424 14.6586 65.424 14.6643 65.5092C14.7649 66.989 14.7984 67.6496 14.7984 68.4787C14.7984 68.827 15.081 69.1096 15.4293 69.1096C15.7779 69.1096 16.0603 68.827 16.0603 68.4787C16.0603 67.6118 16.0259 66.9316 15.9233 65.4237C15.9177 65.3382 15.9177 65.3382 15.9117 65.253C15.8713 64.6539 15.8486 64.2915 15.8293 63.9075C15.812 63.5596 15.5158 63.2914 15.1675 63.3088C14.8195 63.3264 14.5517 63.6227 14.569 63.9706Z" fill="#90BFFF"/>
<path d="M13.578 66.8693C14.2361 66.9418 14.7557 66.932 15.9223 66.8607C16.0828 66.851 16.1564 66.8465 16.2463 66.8415C16.6564 66.8178 16.9545 66.8068 17.2435 66.8068C17.5917 66.8068 17.8744 66.5245 17.8744 66.1759C17.8744 65.8273 17.5917 65.5449 17.2435 65.5449C16.9258 65.5449 16.6059 65.5569 16.174 65.5818C16.0822 65.5869 16.0078 65.5913 15.8456 65.6014C14.7513 65.668 14.2787 65.6771 13.7162 65.615C13.3698 65.5768 13.0581 65.8266 13.02 66.173C12.9818 66.5194 13.2316 66.8311 13.578 66.8693Z" fill="#90BFFF"/>
<path fill-rule="evenodd" clip-rule="evenodd" d="M79.2817 32.064C79.3319 32.8423 80.4723 32.8549 80.5398 32.0782C80.6969 30.2747 81.3913 29.3062 82.6131 29.1955C82.7106 29.1939 82.8103 29.1895 82.9128 29.1828C83.7245 29.1283 83.6841 27.9222 82.8705 27.9222C82.7629 27.9222 82.6569 27.9263 82.5531 27.9342C81.2534 27.9446 80.8884 27.4758 80.5963 25.9534C80.5827 25.8829 80.5805 25.8716 80.5458 25.6857C80.5136 25.514 80.4947 25.4147 80.473 25.3072C80.325 24.5814 79.2638 24.6602 79.2246 25.3999C79.2186 25.509 79.2161 25.5853 79.2105 25.7742C79.2029 26.029 79.1975 26.1426 79.1839 26.2723C79.1508 26.5866 79.0742 26.839 78.906 27.1328C78.6095 27.6502 77.8867 27.9494 77.0003 27.9348C76.1895 27.9219 76.1261 29.1216 76.9337 29.1942C77.982 29.2885 78.5186 29.5043 78.6394 29.7355C79.0098 30.4564 79.2291 31.2504 79.2817 32.064ZM82.5737 27.9339C82.6554 27.933 82.7402 27.9295 82.8282 27.9235L82.832 27.9781C82.7566 27.9487 82.6705 27.9326 82.5737 27.9339ZM82.6333 29.1936C82.7099 29.1873 82.7888 29.1841 82.8705 29.1841V29.1327C82.8021 29.1649 82.7229 29.1863 82.6333 29.1936ZM79.2518 28.5762C79.513 28.3916 79.7376 28.1658 79.9152 27.8992C80.1057 28.2396 80.3405 28.5118 80.6348 28.7172C80.3714 28.9535 80.1452 29.2393 79.9565 29.5699C79.8953 29.4295 79.8297 29.291 79.7597 29.1544C79.6407 28.9273 79.4717 28.7358 79.2518 28.5762Z" fill="#FCD400"/>
<path fill-rule="evenodd" clip-rule="evenodd" d="M8.68202 46.9974C9.49435 46.9437 9.45492 45.7367 8.64069 45.7367C8.5347 45.7367 8.43059 45.7405 8.32838 45.7484C7.02044 45.7591 6.65766 45.2907 6.36396 43.7556C6.35102 43.6884 6.34881 43.677 6.316 43.501C6.28383 43.3285 6.2649 43.2294 6.24313 43.1218C6.09549 42.3959 5.03394 42.4745 4.99482 43.2143C4.98914 43.3231 4.9863 43.3994 4.98062 43.5875C4.97337 43.8376 4.96801 43.9493 4.95507 44.0767C4.92258 44.3963 4.84561 44.6512 4.67652 44.9474C4.37934 45.4648 3.6566 45.7636 2.77266 45.7462C1.96159 45.7307 1.89471 46.9308 2.70231 47.0052C3.75219 47.1024 4.2888 47.3191 4.40963 47.5501C4.77873 48.2709 4.99829 49.0656 5.05192 49.8795C5.10366 50.6571 6.2425 50.6688 6.31033 49.8927C6.46743 48.0873 7.16304 47.1185 8.38737 47.0097C8.48328 47.0081 8.58138 47.004 8.68202 46.9974ZM8.34857 45.7481C8.42902 45.7472 8.51261 45.7437 8.59937 45.738L8.60284 45.7907C8.52839 45.7623 8.44384 45.7468 8.34857 45.7481ZM8.40725 47.0078C8.48264 47.0018 8.56056 46.9986 8.64069 46.9986V46.9491C8.57287 46.98 8.49526 47.0008 8.40725 47.0078ZM5.02195 46.3907C5.28316 46.2062 5.50778 45.9806 5.68538 45.7137C5.87561 46.0544 6.11032 46.3267 6.40497 46.5317C6.14155 46.7683 5.91536 47.0541 5.72639 47.3851C5.66551 47.2447 5.60021 47.1062 5.53017 46.9699C5.41124 46.7421 5.24215 46.5507 5.02195 46.3907Z" fill="#EAF3F3"/>
<path d="M45.7868 8.11077V7.92464C45.7868 7.5762 45.5044 7.2937 45.1558 7.2937C44.8076 7.2937 44.5249 7.5762 44.5249 7.92464V8.11077C44.5249 8.45923 44.8076 8.7417 45.1558 8.7417C45.5044 8.7417 45.7868 8.45923 45.7868 8.11077Z" fill="#90BFFF"/>
<path d="M91.7226 40.44V40.2539C91.7226 39.9053 91.4399 39.623 91.0916 39.623C90.743 39.623 90.4607 39.9053 90.4607 40.2539V40.44C90.4607 40.7886 90.743 41.071 91.0916 41.071C91.4399 41.071 91.7226 40.7886 91.7226 40.44Z" fill="#90BFFF"/>
<path d="M89.6436 17.6189V17.436C89.6436 17.0875 89.3609 16.805 89.0127 16.805C88.6641 16.805 88.3817 17.0875 88.3817 17.436V17.6189C88.3817 17.9674 88.6641 18.2499 89.0127 18.2499C89.3609 18.2499 89.6436 17.9674 89.6436 17.6189Z" fill="#EAF3F3"/>
<path d="M94.262 23.7137V23.5276C94.262 23.1791 93.9793 22.8966 93.6311 22.8966C93.2825 22.8966 93.0001 23.1791 93.0001 23.5276V23.7137C93.0001 24.0622 93.2825 24.3446 93.6311 24.3446C93.9793 24.3446 94.262 24.0622 94.262 23.7137Z" fill="#4E6AF0"/>
<path d="M85.5804 3.6783V3.49217C85.5804 3.14371 85.298 2.86124 84.9494 2.86124C84.6008 2.86124 84.3185 3.14371 84.3185 3.49217V3.6783C84.3185 4.02677 84.6008 4.30924 84.9494 4.30924C85.298 4.30924 85.5804 4.02677 85.5804 3.6783Z" fill="#FCD400"/>
<path d="M1.26187 53.9829V53.7999C1.26187 53.4514 0.979215 53.169 0.630937 53.169C0.282344 53.169 0 53.4514 0 53.7999V53.9829C0 54.3315 0.282344 54.6138 0.630937 54.6138C0.979215 54.6138 1.26187 54.3315 1.26187 53.9829Z" fill="#FCD400"/>
<path d="M23.073 19.2814V19.19C23.073 18.8415 22.7907 18.559 22.4421 18.559C22.0938 18.559 21.8112 18.8415 21.8112 19.19V19.2814C21.8112 19.6299 22.0938 19.9124 22.4421 19.9124C22.7907 19.9124 23.073 19.6299 23.073 19.2814Z" fill="#EAF3F3"/>
<path d="M26.8587 3.95595V3.86131C26.8587 3.51285 26.5763 3.23038 26.2277 3.23038C25.8795 3.23038 25.5968 3.51285 25.5968 3.86131V3.95595C25.5968 4.30442 25.8795 4.58689 26.2277 4.58689C26.5763 4.58689 26.8587 4.30442 26.8587 3.95595Z" fill="#4E6AF0"/>
<path d="M65.1754 9.86457V9.58696C65.1754 9.23849 64.8931 8.95602 64.5445 8.95602C64.1962 8.95602 63.9136 9.23849 63.9136 9.58696V9.86457C63.9136 10.213 64.1962 10.4955 64.5445 10.4955C64.8931 10.4955 65.1754 10.213 65.1754 9.86457Z" fill="#EAF3F3"/>
<path d="M58.2513 0.813909V0.630937C58.2513 0.282502 57.9689 0 57.6203 0C57.272 0 56.9894 0.282502 56.9894 0.630937V0.813909C56.9894 1.16238 57.272 1.44485 57.6203 1.44485C57.9689 1.44485 58.2513 1.16238 58.2513 0.813909Z" fill="#FCD400"/>
<path d="M86.6056 63.9708V63.7847C86.6056 63.4361 86.3233 63.1538 85.9747 63.1538C85.6261 63.1538 85.3438 63.4361 85.3438 63.7847V63.9708C85.3438 64.3191 85.6261 64.6018 85.9747 64.6018C86.3233 64.6018 86.6056 64.3191 86.6056 63.9708Z" fill="#FCD400"/>
<path d="M9.98465 31.0831V30.9443C9.98465 30.5957 9.70231 30.3134 9.35372 30.3134C9.00544 30.3134 8.72278 30.5957 8.72278 30.9443V31.0831C8.72278 31.4317 9.00544 31.7141 9.35372 31.7141C9.70231 31.7141 9.98465 31.4317 9.98465 31.0831Z" fill="#90BFFF"/>
<path d="M81.8894 54.9138V54.775C81.8894 54.4264 81.6068 54.1441 81.2585 54.1441C80.9099 54.1441 80.6276 54.4264 80.6276 54.775V54.9138C80.6276 55.2621 80.9099 55.5448 81.2585 55.5448C81.6068 55.5448 81.8894 55.2621 81.8894 54.9138Z" fill="#4E6AF0"/>
<path d="M16.0763 49.9293V49.7936C16.0763 49.445 15.7937 49.1627 15.4454 49.1627C15.0968 49.1627 14.8145 49.445 14.8145 49.7936V49.9293C14.8145 50.2778 15.0968 50.5602 15.4454 50.5602C15.7937 50.5602 16.0763 50.2778 16.0763 49.9293Z" fill="#4E6AF0"/>
<path d="M74.132 38.9067V38.7679C74.132 38.4193 73.8496 38.1369 73.5011 38.1369C73.1525 38.1369 72.8701 38.4193 72.8701 38.7679V38.9067C72.8701 39.255 73.1525 39.5376 73.5011 39.5376C73.8496 39.5376 74.132 39.255 74.132 38.9067Z" fill="#EAF3F3"/>
<path d="M3.39127 63.8541V63.7153C3.39127 63.3667 3.10861 63.0844 2.76033 63.0844C2.41174 63.0844 2.12939 63.3667 2.12939 63.7153V63.8541C2.12939 64.2024 2.41174 64.485 2.76033 64.485C3.10861 64.485 3.39127 64.2024 3.39127 63.8541Z" fill="#EAF3F3"/>
</svg>
