<?xml version="1.0" encoding="utf-8"?>
<svg width="396px" height="134px" viewBox="0 0 396 134" version="1.1" xmlns:xlink="http://www.w3.org/1999/xlink" xmlns="http://www.w3.org/2000/svg">
  <defs>
    <path d="M396 0L396 0L396 134L0 134L0 0L396 0Z" id="path_1" />
    <path d="M0 8L0 4C0 2.89543 0.390524 1.95262 1.17157 1.17157C1.95262 0.390524 2.89543 0 4 0L86 0C87.1046 0 88.0474 0.390524 88.8284 1.17157C89.6095 1.95262 90 2.89543 90 4L90 16C90 17.1046 89.6095 18.0474 88.8284 18.8284C88.0474 19.6095 87.1046 20 86 20L4 20C2.89543 20 1.95262 19.6095 1.17157 18.8284C0.390524 18.0474 0 17.1046 0 16L0 8Z" id="path_2" />
    <clipPath id="clip_1">
      <use xlink:href="#path_1" clip-rule="evenodd" fill-rule="evenodd" />
    </clipPath>
    <clipPath id="clip_2">
      <use xlink:href="#path_2" clip-rule="evenodd" fill-rule="evenodd" />
    </clipPath>
  </defs>
  <g id="Çerçeve">
    <path d="M396 0L396 0L396 134L0 134L0 0L396 0Z" id="Çerçeve" fill="none" stroke="none" />
    <path d="M0 42L0 21C0 15.201 2.05025 10.2513 6.15076 6.15076C10.2513 2.05025 15.201 0 21 0L375 0C380.799 0 385.749 2.05025 389.849 6.15076C393.95 10.2513 396 15.201 396 21L396 113C396 118.799 393.95 123.749 389.849 127.849C385.749 131.95 380.799 134 375 134L21 134C15.201 134 10.2513 131.95 6.15076 127.849C2.05025 123.749 0 118.799 0 113L0 42Z" id="Çizgi" fill="#FFFFFF" fill-rule="evenodd" stroke="none" clip-path="url(#clip_1)" />
    <path d="M0 42L0 21C0 15.201 2.05025 10.2513 6.15076 6.15076C10.2513 2.05025 15.201 0 21 0L375 0C380.799 0 385.749 2.05025 389.849 6.15076C393.95 10.2513 396 15.201 396 21L396 113C396 118.799 393.95 123.749 389.849 127.849C385.749 131.95 380.799 134 375 134L21 134C15.201 134 10.2513 131.95 6.15076 127.849C2.05025 123.749 0 118.799 0 113L0 42Z" id="Çizgi" fill="#FFFFFF" fill-rule="evenodd" stroke="none" clip-path="url(#clip_1)" />
    <path d="M24.1889 27L22.6747 27L26.0771 17.5455L27.7251 17.5455L31.1275 27L29.6133 27L26.9403 19.2628L26.8665 19.2628L24.1889 27L24.1889 27ZM24.4428 23.2976L29.3548 23.2976L29.3548 24.4979L24.4428 24.4979L24.4428 23.2976L24.4428 23.2976ZM32.382 27L32.382 19.9091L33.7162 19.9091L33.7162 21.0355L33.79 21.0355C33.9193 20.6539 34.147 20.3538 34.4733 20.1353C34.8026 19.9137 35.175 19.8029 35.5905 19.8029C35.6766 19.8029 35.7782 19.806 35.8952 19.8121C36.0152 19.8183 36.109 19.826 36.1768 19.8352L36.1768 21.1555C36.1214 21.1402 36.0229 21.1232 35.8813 21.1048C35.7397 21.0832 35.5982 21.0724 35.4566 21.0724C35.1304 21.0724 34.8395 21.1417 34.5841 21.2802C34.3317 21.4156 34.1317 21.6049 33.9839 21.848C33.8362 22.0881 33.7623 22.362 33.7623 22.6697L33.7623 27L32.382 27L32.382 27ZM39.3714 27.157C38.922 27.157 38.5158 27.0739 38.1526 26.9077C37.7894 26.7384 37.5017 26.4937 37.2893 26.1737C37.08 25.8536 36.9754 25.4612 36.9754 24.9964C36.9754 24.5964 37.0523 24.267 37.2062 24.0085C37.3601 23.75 37.5679 23.5453 37.8295 23.3945C38.0911 23.2437 38.3834 23.1299 38.7066 23.0529C39.0297 22.976 39.359 22.9175 39.6945 22.8775C40.1192 22.8282 40.4639 22.7882 40.7286 22.7575C40.9933 22.7236 41.1856 22.6697 41.3057 22.5959C41.4257 22.522 41.4857 22.402 41.4857 22.2358L41.4857 22.2035C41.4857 21.8003 41.3718 21.4879 41.1441 21.2663C40.9194 21.0447 40.584 20.9339 40.1377 20.9339C39.673 20.9339 39.3067 21.037 39.039 21.2433C38.7743 21.4464 38.5912 21.6726 38.4896 21.9219L37.1924 21.6264C37.3463 21.1955 37.5709 20.8478 37.8664 20.5831C38.1649 20.3153 38.5081 20.1214 38.8959 20.0014C39.2836 19.8783 39.6914 19.8168 40.1192 19.8168C40.4024 19.8168 40.7024 19.8506 41.0194 19.9183C41.3395 19.983 41.6381 20.103 41.915 20.2784C42.1951 20.4538 42.4244 20.7047 42.6029 21.0309C42.7814 21.354 42.8706 21.7741 42.8706 22.2912L42.8706 27L41.5226 27L41.5226 26.0305L41.4672 26.0305C41.378 26.209 41.2441 26.3845 41.0656 26.5568C40.8871 26.7292 40.6578 26.8723 40.3778 26.9862C40.0977 27.1 39.7622 27.157 39.3714 27.157L39.3714 27.157ZM39.6714 26.049C40.0531 26.049 40.3793 25.9736 40.6501 25.8228C40.924 25.672 41.1318 25.475 41.2733 25.2319C41.418 24.9857 41.4903 24.7225 41.4903 24.4425L41.4903 23.5284C41.4411 23.5777 41.3457 23.6238 41.2041 23.6669C41.0656 23.7069 40.9071 23.7423 40.7286 23.7731C40.5501 23.8008 40.3762 23.8269 40.2069 23.8516C40.0377 23.8731 39.8961 23.8916 39.7822 23.907C39.5145 23.9408 39.2698 23.9978 39.0482 24.0778C38.8297 24.1578 38.6543 24.2732 38.5219 24.424C38.3927 24.5717 38.328 24.7687 38.328 25.0149C38.328 25.3565 38.4542 25.6151 38.7066 25.7905C38.959 25.9628 39.2806 26.049 39.6714 26.049L39.6714 26.049ZM46.0895 17.5455L46.0895 27L44.7092 27L44.7092 17.5455L46.0895 17.5455L46.0895 17.5455ZM47.9465 27L47.9465 19.9091L49.3268 19.9091L49.3268 27L47.9465 27L47.9465 27ZM52.4533 24.5948L52.4441 22.9098L52.6841 22.9098L55.5094 19.9091L57.1621 19.9091L53.9398 23.3253L53.7228 23.3253L52.4533 24.5948L52.4533 24.5948ZM51.1838 27L51.1838 17.5455L52.5641 17.5455L52.5641 27L51.1838 27L51.1838 27ZM55.6618 27L53.1227 23.63L54.0737 22.6651L57.356 27L55.6618 27L55.6618 27ZM61.8421 27L61.8421 25.9659L65.0413 22.6513C65.3829 22.2912 65.6645 21.9757 65.8861 21.7049C66.1108 21.431 66.2785 21.1709 66.3893 20.9247C66.5001 20.6785 66.5555 20.4169 66.5555 20.1399C66.5555 19.826 66.4816 19.5552 66.3339 19.3274C66.1862 19.0966 65.9846 18.9196 65.7291 18.7965C65.4737 18.6703 65.1859 18.6072 64.8659 18.6072C64.5273 18.6072 64.2319 18.6765 63.9795 18.815C63.7271 18.9535 63.5332 19.1489 63.3978 19.4013C63.2624 19.6536 63.1947 19.9491 63.1947 20.2876L61.8328 20.2876C61.8328 19.7121 61.9652 19.2089 62.2298 18.7781C62.4945 18.3472 62.8577 18.0133 63.3193 17.7763C63.781 17.5362 64.3057 17.4162 64.8936 17.4162C65.4875 17.4162 66.0107 17.5347 66.4632 17.7717C66.9186 18.0056 67.2741 18.3256 67.5296 18.7319C67.785 19.1351 67.9127 19.5906 67.9127 20.0984C67.9127 20.4492 67.8466 20.7924 67.7142 21.1278C67.585 21.4633 67.3588 21.8372 67.0356 22.2496C66.7124 22.659 66.2631 23.156 65.6876 23.7408L63.8087 25.7074L63.8087 25.7766L68.0651 25.7766L68.0651 27L61.8421 27L61.8421 27ZM73.1063 27.157C72.3769 27.1539 71.7536 26.9615 71.2366 26.5799C70.7195 26.1983 70.3241 25.6428 70.0502 24.9134C69.7762 24.1839 69.6393 23.3053 69.6393 22.2773C69.6393 21.2525 69.7762 20.3769 70.0502 19.6506C70.3271 18.9242 70.7242 18.3703 71.2412 17.9886C71.7613 17.607 72.383 17.4162 73.1063 17.4162C73.8295 17.4162 74.4497 17.6085 74.9667 17.9933C75.4838 18.3749 75.8792 18.9289 76.1531 19.6552C76.4301 20.3784 76.5686 21.2525 76.5686 22.2773C76.5686 23.3084 76.4317 24.1886 76.1578 24.918C75.8838 25.6443 75.4884 26.1998 74.9713 26.5845C74.4543 26.9661 73.8326 27.157 73.1063 27.157L73.1063 27.157ZM73.1063 25.9244C73.7464 25.9244 74.2465 25.612 74.6066 24.9872C74.9698 24.3625 75.1514 23.4592 75.1514 22.2773C75.1514 21.4925 75.0683 20.8293 74.9021 20.2876C74.739 19.7429 74.5035 19.3305 74.1958 19.0504C73.8911 18.7673 73.5279 18.6257 73.1063 18.6257C72.4692 18.6257 71.9691 18.9396 71.6059 19.5675C71.2427 20.1953 71.0596 21.0986 71.0566 22.2773C71.0566 23.0652 71.1381 23.7315 71.3012 24.2763C71.4674 24.8179 71.7029 25.2288 72.0075 25.5089C72.3122 25.7859 72.6785 25.9244 73.1063 25.9244L73.1063 25.9244ZM78.2063 27L78.2063 25.9659L81.4055 22.6513C81.7472 22.2912 82.0288 21.9757 82.2504 21.7049C82.475 21.431 82.6428 21.1709 82.7536 20.9247C82.8643 20.6785 82.9197 20.4169 82.9197 20.1399C82.9197 19.826 82.8459 19.5552 82.6982 19.3274C82.5504 19.0966 82.3488 18.9196 82.0934 18.7965C81.838 18.6703 81.5502 18.6072 81.2301 18.6072C80.8916 18.6072 80.5961 18.6765 80.3438 18.815C80.0914 18.9535 79.8975 19.1489 79.7621 19.4013C79.6267 19.6536 79.5589 19.9491 79.5589 20.2876L78.1971 20.2876C78.1971 19.7121 78.3294 19.2089 78.5941 18.7781C78.8588 18.3472 79.2219 18.0133 79.6836 17.7763C80.1452 17.5362 80.67 17.4162 81.2578 17.4162C81.8518 17.4162 82.375 17.5347 82.8274 17.7717C83.2829 18.0056 83.6384 18.3256 83.8938 18.7319C84.1493 19.1351 84.277 19.5906 84.277 20.0984C84.277 20.4492 84.2108 20.7924 84.0785 21.1278C83.9492 21.4633 83.723 21.8372 83.3999 22.2496C83.0767 22.659 82.6274 23.156 82.0518 23.7408L80.1729 25.7074L80.1729 25.7766L84.4293 25.7766L84.4293 27L78.2063 27L78.2063 27ZM89.4705 27.1293C88.8365 27.1293 88.2702 27.02 87.7717 26.8015C87.2762 26.583 86.8838 26.2798 86.5945 25.892C86.3082 25.5012 86.1544 25.0488 86.1328 24.5348L87.5824 24.5348C87.6009 24.8149 87.6947 25.058 87.864 25.2642C88.0363 25.4673 88.261 25.6243 88.538 25.7351C88.815 25.8459 89.1228 25.9013 89.4613 25.9013C89.8337 25.9013 90.163 25.8366 90.4492 25.7074C90.7385 25.5781 90.9647 25.3981 91.1278 25.1673C91.291 24.9334 91.3725 24.6641 91.3725 24.3594C91.3725 24.0424 91.291 23.7638 91.1278 23.5238C90.9678 23.2807 90.7324 23.0898 90.4215 22.9513C90.1138 22.8129 89.7414 22.7436 89.3043 22.7436L88.5057 22.7436L88.5057 21.5803L89.3043 21.5803C89.6552 21.5803 89.9629 21.5172 90.2276 21.391C90.4954 21.2648 90.7047 21.0894 90.8555 20.8647C91.0063 20.637 91.0817 20.3707 91.0817 20.0661C91.0817 19.7737 91.0155 19.5198 90.8832 19.3043C90.7539 19.0858 90.5692 18.915 90.3292 18.7919C90.0922 18.6688 89.8121 18.6072 89.489 18.6072C89.1812 18.6072 88.8935 18.6642 88.6257 18.7781C88.361 18.8888 88.1456 19.0489 87.9794 19.2582C87.8132 19.4644 87.724 19.7121 87.7116 20.0014L86.3313 20.0014C86.3467 19.4905 86.4975 19.0412 86.7837 18.6534C87.073 18.2656 87.4547 17.9625 87.9286 17.744C88.4026 17.5254 88.9289 17.4162 89.5075 17.4162C90.1138 17.4162 90.637 17.5347 91.0771 17.7717C91.5202 18.0056 91.8619 18.3179 92.1019 18.7088C92.3451 19.0997 92.4651 19.5275 92.462 19.9922C92.4651 20.5215 92.3174 20.9709 92.0188 21.3402C91.7234 21.7095 91.3294 21.9573 90.837 22.0835L90.837 22.1573C91.4648 22.2527 91.9511 22.502 92.2958 22.9052C92.6436 23.3084 92.8159 23.8085 92.8129 24.4055C92.8159 24.9257 92.6713 25.3919 92.3789 25.8043C92.0896 26.2167 91.6941 26.5414 91.1925 26.7784C90.6908 27.0123 90.1168 27.1293 89.4705 27.1293L89.4705 27.1293Z" id="Şekil" fill="#000000" fill-rule="evenodd" stroke="none" clip-path="url(#clip_1)" />
    <path d="M24.1889 27L22.6747 27L26.0771 17.5455L27.7251 17.5455L31.1275 27L29.6133 27L26.9403 19.2628L26.8665 19.2628L24.1889 27L24.1889 27ZM24.4428 23.2976L29.3548 23.2976L29.3548 24.4979L24.4428 24.4979L24.4428 23.2976L24.4428 23.2976ZM32.382 27L32.382 19.9091L33.7162 19.9091L33.7162 21.0355L33.79 21.0355C33.9193 20.6539 34.147 20.3538 34.4733 20.1353C34.8026 19.9137 35.175 19.8029 35.5905 19.8029C35.6766 19.8029 35.7782 19.806 35.8952 19.8121C36.0152 19.8183 36.109 19.826 36.1768 19.8352L36.1768 21.1555C36.1214 21.1402 36.0229 21.1232 35.8813 21.1048C35.7397 21.0832 35.5982 21.0724 35.4566 21.0724C35.1304 21.0724 34.8395 21.1417 34.5841 21.2802C34.3317 21.4156 34.1317 21.6049 33.9839 21.848C33.8362 22.0881 33.7623 22.362 33.7623 22.6697L33.7623 27L32.382 27L32.382 27ZM39.3714 27.157C38.922 27.157 38.5158 27.0739 38.1526 26.9077C37.7894 26.7384 37.5017 26.4937 37.2893 26.1737C37.08 25.8536 36.9754 25.4612 36.9754 24.9964C36.9754 24.5964 37.0523 24.267 37.2062 24.0085C37.3601 23.75 37.5679 23.5453 37.8295 23.3945C38.0911 23.2437 38.3834 23.1299 38.7066 23.0529C39.0297 22.976 39.359 22.9175 39.6945 22.8775C40.1192 22.8282 40.4639 22.7882 40.7286 22.7575C40.9933 22.7236 41.1856 22.6697 41.3057 22.5959C41.4257 22.522 41.4857 22.402 41.4857 22.2358L41.4857 22.2035C41.4857 21.8003 41.3718 21.4879 41.1441 21.2663C40.9194 21.0447 40.584 20.9339 40.1377 20.9339C39.673 20.9339 39.3067 21.037 39.039 21.2433C38.7743 21.4464 38.5912 21.6726 38.4896 21.9219L37.1924 21.6264C37.3463 21.1955 37.5709 20.8478 37.8664 20.5831C38.1649 20.3153 38.5081 20.1214 38.8959 20.0014C39.2836 19.8783 39.6914 19.8168 40.1192 19.8168C40.4024 19.8168 40.7024 19.8506 41.0194 19.9183C41.3395 19.983 41.6381 20.103 41.915 20.2784C42.1951 20.4538 42.4244 20.7047 42.6029 21.0309C42.7814 21.354 42.8706 21.7741 42.8706 22.2912L42.8706 27L41.5226 27L41.5226 26.0305L41.4672 26.0305C41.378 26.209 41.2441 26.3845 41.0656 26.5568C40.8871 26.7292 40.6578 26.8723 40.3778 26.9862C40.0977 27.1 39.7622 27.157 39.3714 27.157L39.3714 27.157ZM39.6714 26.049C40.0531 26.049 40.3793 25.9736 40.6501 25.8228C40.924 25.672 41.1318 25.475 41.2733 25.2319C41.418 24.9857 41.4903 24.7225 41.4903 24.4425L41.4903 23.5284C41.4411 23.5777 41.3457 23.6238 41.2041 23.6669C41.0656 23.7069 40.9071 23.7423 40.7286 23.7731C40.5501 23.8008 40.3762 23.8269 40.2069 23.8516C40.0377 23.8731 39.8961 23.8916 39.7822 23.907C39.5145 23.9408 39.2698 23.9978 39.0482 24.0778C38.8297 24.1578 38.6543 24.2732 38.5219 24.424C38.3927 24.5717 38.328 24.7687 38.328 25.0149C38.328 25.3565 38.4542 25.6151 38.7066 25.7905C38.959 25.9628 39.2806 26.049 39.6714 26.049L39.6714 26.049ZM46.0895 17.5455L46.0895 27L44.7092 27L44.7092 17.5455L46.0895 17.5455L46.0895 17.5455ZM47.9465 27L47.9465 19.9091L49.3268 19.9091L49.3268 27L47.9465 27L47.9465 27ZM52.4533 24.5948L52.4441 22.9098L52.6841 22.9098L55.5094 19.9091L57.1621 19.9091L53.9398 23.3253L53.7228 23.3253L52.4533 24.5948L52.4533 24.5948ZM51.1838 27L51.1838 17.5455L52.5641 17.5455L52.5641 27L51.1838 27L51.1838 27ZM55.6618 27L53.1227 23.63L54.0737 22.6651L57.356 27L55.6618 27L55.6618 27ZM61.8421 27L61.8421 25.9659L65.0413 22.6513C65.3829 22.2912 65.6645 21.9757 65.8861 21.7049C66.1108 21.431 66.2785 21.1709 66.3893 20.9247C66.5001 20.6785 66.5555 20.4169 66.5555 20.1399C66.5555 19.826 66.4816 19.5552 66.3339 19.3274C66.1862 19.0966 65.9846 18.9196 65.7291 18.7965C65.4737 18.6703 65.1859 18.6072 64.8659 18.6072C64.5273 18.6072 64.2319 18.6765 63.9795 18.815C63.7271 18.9535 63.5332 19.1489 63.3978 19.4013C63.2624 19.6536 63.1947 19.9491 63.1947 20.2876L61.8328 20.2876C61.8328 19.7121 61.9652 19.2089 62.2298 18.7781C62.4945 18.3472 62.8577 18.0133 63.3193 17.7763C63.781 17.5362 64.3057 17.4162 64.8936 17.4162C65.4875 17.4162 66.0107 17.5347 66.4632 17.7717C66.9186 18.0056 67.2741 18.3256 67.5296 18.7319C67.785 19.1351 67.9127 19.5906 67.9127 20.0984C67.9127 20.4492 67.8466 20.7924 67.7142 21.1278C67.585 21.4633 67.3588 21.8372 67.0356 22.2496C66.7124 22.659 66.2631 23.156 65.6876 23.7408L63.8087 25.7074L63.8087 25.7766L68.0651 25.7766L68.0651 27L61.8421 27L61.8421 27ZM73.1063 27.157C72.3769 27.1539 71.7536 26.9615 71.2366 26.5799C70.7195 26.1983 70.3241 25.6428 70.0502 24.9134C69.7762 24.1839 69.6393 23.3053 69.6393 22.2773C69.6393 21.2525 69.7762 20.3769 70.0502 19.6506C70.3271 18.9242 70.7242 18.3703 71.2412 17.9886C71.7613 17.607 72.383 17.4162 73.1063 17.4162C73.8295 17.4162 74.4497 17.6085 74.9667 17.9933C75.4838 18.3749 75.8792 18.9289 76.1531 19.6552C76.4301 20.3784 76.5686 21.2525 76.5686 22.2773C76.5686 23.3084 76.4317 24.1886 76.1578 24.918C75.8838 25.6443 75.4884 26.1998 74.9713 26.5845C74.4543 26.9661 73.8326 27.157 73.1063 27.157L73.1063 27.157ZM73.1063 25.9244C73.7464 25.9244 74.2465 25.612 74.6066 24.9872C74.9698 24.3625 75.1514 23.4592 75.1514 22.2773C75.1514 21.4925 75.0683 20.8293 74.9021 20.2876C74.739 19.7429 74.5035 19.3305 74.1958 19.0504C73.8911 18.7673 73.5279 18.6257 73.1063 18.6257C72.4692 18.6257 71.9691 18.9396 71.6059 19.5675C71.2427 20.1953 71.0596 21.0986 71.0566 22.2773C71.0566 23.0652 71.1381 23.7315 71.3012 24.2763C71.4674 24.8179 71.7029 25.2288 72.0075 25.5089C72.3122 25.7859 72.6785 25.9244 73.1063 25.9244L73.1063 25.9244ZM78.2063 27L78.2063 25.9659L81.4055 22.6513C81.7472 22.2912 82.0288 21.9757 82.2504 21.7049C82.475 21.431 82.6428 21.1709 82.7536 20.9247C82.8643 20.6785 82.9197 20.4169 82.9197 20.1399C82.9197 19.826 82.8459 19.5552 82.6982 19.3274C82.5504 19.0966 82.3488 18.9196 82.0934 18.7965C81.838 18.6703 81.5502 18.6072 81.2301 18.6072C80.8916 18.6072 80.5961 18.6765 80.3438 18.815C80.0914 18.9535 79.8975 19.1489 79.7621 19.4013C79.6267 19.6536 79.5589 19.9491 79.5589 20.2876L78.1971 20.2876C78.1971 19.7121 78.3294 19.2089 78.5941 18.7781C78.8588 18.3472 79.2219 18.0133 79.6836 17.7763C80.1452 17.5362 80.67 17.4162 81.2578 17.4162C81.8518 17.4162 82.375 17.5347 82.8274 17.7717C83.2829 18.0056 83.6384 18.3256 83.8938 18.7319C84.1493 19.1351 84.277 19.5906 84.277 20.0984C84.277 20.4492 84.2108 20.7924 84.0785 21.1278C83.9492 21.4633 83.723 21.8372 83.3999 22.2496C83.0767 22.659 82.6274 23.156 82.0518 23.7408L80.1729 25.7074L80.1729 25.7766L84.4293 25.7766L84.4293 27L78.2063 27L78.2063 27ZM89.4705 27.1293C88.8365 27.1293 88.2702 27.02 87.7717 26.8015C87.2762 26.583 86.8838 26.2798 86.5945 25.892C86.3082 25.5012 86.1544 25.0488 86.1328 24.5348L87.5824 24.5348C87.6009 24.8149 87.6947 25.058 87.864 25.2642C88.0363 25.4673 88.261 25.6243 88.538 25.7351C88.815 25.8459 89.1228 25.9013 89.4613 25.9013C89.8337 25.9013 90.163 25.8366 90.4492 25.7074C90.7385 25.5781 90.9647 25.3981 91.1278 25.1673C91.291 24.9334 91.3725 24.6641 91.3725 24.3594C91.3725 24.0424 91.291 23.7638 91.1278 23.5238C90.9678 23.2807 90.7324 23.0898 90.4215 22.9513C90.1138 22.8129 89.7414 22.7436 89.3043 22.7436L88.5057 22.7436L88.5057 21.5803L89.3043 21.5803C89.6552 21.5803 89.9629 21.5172 90.2276 21.391C90.4954 21.2648 90.7047 21.0894 90.8555 20.8647C91.0063 20.637 91.0817 20.3707 91.0817 20.0661C91.0817 19.7737 91.0155 19.5198 90.8832 19.3043C90.7539 19.0858 90.5692 18.915 90.3292 18.7919C90.0922 18.6688 89.8121 18.6072 89.489 18.6072C89.1812 18.6072 88.8935 18.6642 88.6257 18.7781C88.361 18.8888 88.1456 19.0489 87.9794 19.2582C87.8132 19.4644 87.724 19.7121 87.7116 20.0014L86.3313 20.0014C86.3467 19.4905 86.4975 19.0412 86.7837 18.6534C87.073 18.2656 87.4547 17.9625 87.9286 17.744C88.4026 17.5254 88.9289 17.4162 89.5075 17.4162C90.1138 17.4162 90.637 17.5347 91.0771 17.7717C91.5202 18.0056 91.8619 18.3179 92.1019 18.7088C92.3451 19.0997 92.4651 19.5275 92.462 19.9922C92.4651 20.5215 92.3174 20.9709 92.0188 21.3402C91.7234 21.7095 91.3294 21.9573 90.837 22.0835L90.837 22.1573C91.4648 22.2527 91.9511 22.502 92.2958 22.9052C92.6436 23.3084 92.8159 23.8085 92.8129 24.4055C92.8159 24.9257 92.6713 25.3919 92.3789 25.8043C92.0896 26.2167 91.6941 26.5414 91.1925 26.7784C90.6908 27.0123 90.1168 27.1293 89.4705 27.1293L89.4705 27.1293Z" id="Şekil" fill="#000000" fill-rule="evenodd" stroke="none" clip-path="url(#clip_1)" />
    <path d="M23.1076 108.727L24.4393 108.727L26.7546 114.381L26.8398 114.381L29.1552 108.727L30.4869 108.727L30.4869 116L29.4428 116L29.4428 110.737L29.3754 110.737L27.2305 115.989L26.364 115.989L24.2191 110.734L24.1516 110.734L24.1516 116L23.1076 116L23.1076 108.727L23.1076 108.727ZM34.3478 116.11C33.8104 116.11 33.3476 115.995 32.9593 115.766C32.5734 115.534 32.2752 115.208 32.0645 114.789C31.8561 114.368 31.752 113.874 31.752 113.308C31.752 112.75 31.8561 112.257 32.0645 111.831C32.2752 111.405 32.5687 111.072 32.9451 110.833C33.3239 110.594 33.7666 110.474 34.2733 110.474C34.581 110.474 34.8793 110.525 35.1681 110.627C35.457 110.729 35.7162 110.889 35.9458 111.107C36.1755 111.324 36.3566 111.607 36.4892 111.955C36.6217 112.301 36.688 112.721 36.688 113.216L36.688 113.592L32.3521 113.592L32.3521 112.797L35.6475 112.797C35.6475 112.518 35.5907 112.27 35.4771 112.055C35.3635 111.837 35.2037 111.665 34.9977 111.54C34.7941 111.414 34.555 111.352 34.2804 111.352C33.9821 111.352 33.7217 111.425 33.4991 111.572C33.2789 111.716 33.1085 111.906 32.9877 112.14C32.8694 112.372 32.8102 112.624 32.8102 112.896L32.8102 113.518C32.8102 113.882 32.8741 114.192 33.002 114.448C33.1322 114.704 33.3133 114.899 33.5453 115.034C33.7773 115.167 34.0484 115.233 34.3585 115.233C34.5597 115.233 34.7432 115.205 34.9089 115.148C35.0746 115.089 35.2179 115.001 35.3386 114.885C35.4593 114.769 35.5517 114.626 35.6156 114.455L36.6206 114.636C36.5401 114.932 36.3957 115.192 36.1873 115.414C35.9814 115.634 35.7221 115.806 35.4096 115.929C35.0995 116.05 34.7456 116.11 34.3478 116.11L34.3478 116.11ZM41.9535 111.877L40.9911 112.048C40.9509 111.924 40.887 111.807 40.7994 111.696C40.7141 111.585 40.5981 111.494 40.4513 111.423C40.3046 111.352 40.1211 111.316 39.9009 111.316C39.6003 111.316 39.3493 111.384 39.1481 111.518C38.9469 111.651 38.8462 111.823 38.8462 112.033C38.8462 112.216 38.9137 112.362 39.0487 112.474C39.1836 112.585 39.4014 112.676 39.7021 112.747L40.5685 112.946C41.0704 113.062 41.4445 113.241 41.6907 113.482C41.9369 113.724 42.06 114.037 42.06 114.423C42.06 114.75 41.9653 115.041 41.7759 115.297C41.5889 115.55 41.3273 115.749 40.9911 115.893C40.6573 116.038 40.2702 116.11 39.8299 116.11C39.2191 116.11 38.7208 115.98 38.3349 115.719C37.949 115.457 37.7122 115.084 37.6246 114.601L38.6509 114.445C38.7148 114.712 38.8462 114.915 39.0451 115.052C39.244 115.187 39.5032 115.254 39.8228 115.254C40.1708 115.254 40.449 115.182 40.6573 115.038C40.8656 114.891 40.9698 114.712 40.9698 114.501C40.9698 114.331 40.9059 114.188 40.7781 114.072C40.6526 113.956 40.4596 113.868 40.1992 113.809L39.2759 113.607C38.7669 113.491 38.3905 113.306 38.1467 113.053C37.9052 112.799 37.7844 112.478 37.7844 112.09C37.7844 111.768 37.8744 111.487 38.0543 111.245C38.2343 111.004 38.4828 110.815 38.8001 110.68C39.1173 110.543 39.4807 110.474 39.8903 110.474C40.4798 110.474 40.9438 110.602 41.2823 110.858C41.6209 111.111 41.8446 111.451 41.9535 111.877L41.9535 111.877ZM44.8148 116.121C44.4692 116.121 44.1567 116.057 43.8773 115.929C43.598 115.799 43.3766 115.611 43.2132 115.364C43.0523 115.118 42.9718 114.816 42.9718 114.459C42.9718 114.151 43.031 113.898 43.1493 113.699C43.2677 113.5 43.4275 113.343 43.6287 113.227C43.83 113.111 44.0549 113.023 44.3034 112.964C44.552 112.905 44.8053 112.86 45.0634 112.829C45.3901 112.791 45.6552 112.76 45.8588 112.737C46.0624 112.71 46.2104 112.669 46.3027 112.612C46.3951 112.555 46.4412 112.463 46.4412 112.335L46.4412 112.31C46.4412 112 46.3536 111.76 46.1784 111.589C46.0056 111.419 45.7476 111.334 45.4043 111.334C45.0468 111.334 44.7651 111.413 44.5591 111.572C44.3555 111.728 44.2147 111.902 44.1365 112.094L43.1387 111.866C43.257 111.535 43.4299 111.268 43.6571 111.064C43.8868 110.858 44.1507 110.709 44.449 110.616C44.7473 110.522 45.061 110.474 45.3901 110.474C45.6079 110.474 45.8387 110.5 46.0826 110.553C46.3288 110.602 46.5584 110.695 46.7715 110.83C46.9869 110.964 47.1633 111.157 47.3006 111.408C47.4379 111.657 47.5066 111.98 47.5066 112.378L47.5066 116L46.4696 116L46.4696 115.254L46.427 115.254C46.3584 115.392 46.2554 115.527 46.1181 115.659C45.9808 115.792 45.8044 115.902 45.589 115.989C45.3735 116.077 45.1155 116.121 44.8148 116.121L44.8148 116.121ZM45.0456 115.268C45.3392 115.268 45.5901 115.21 45.7985 115.094C46.0092 114.978 46.169 114.827 46.2779 114.64C46.3891 114.451 46.4448 114.248 46.4448 114.033L46.4448 113.33C46.4069 113.367 46.3335 113.403 46.2246 113.436C46.1181 113.467 45.9962 113.494 45.8588 113.518C45.7215 113.539 45.5878 113.559 45.4576 113.578C45.3274 113.595 45.2185 113.609 45.1309 113.621C44.9249 113.647 44.7367 113.691 44.5662 113.752C44.3981 113.814 44.2632 113.902 44.1614 114.018C44.062 114.132 44.0123 114.284 44.0123 114.473C44.0123 114.736 44.1093 114.935 44.3034 115.07C44.4976 115.202 44.745 115.268 45.0456 115.268L45.0456 115.268ZM48.9208 116L48.9208 110.545L49.9826 110.545L49.9826 116L48.9208 116L48.9208 116ZM49.457 109.704C49.2724 109.704 49.1138 109.642 48.9812 109.519C48.851 109.394 48.7859 109.245 48.7859 109.072C48.7859 108.897 48.851 108.747 48.9812 108.624C49.1138 108.499 49.2724 108.436 49.457 108.436C49.6417 108.436 49.7991 108.499 49.9293 108.624C50.0619 108.747 50.1282 108.897 50.1282 109.072C50.1282 109.245 50.0619 109.394 49.9293 109.519C49.7991 109.642 49.6417 109.704 49.457 109.704L49.457 109.704ZM58.1094 110.638C58.0715 110.302 57.9152 110.041 57.6406 109.857C57.366 109.67 57.0204 109.576 56.6037 109.576C56.3054 109.576 56.0473 109.623 55.8295 109.718C55.6117 109.81 55.4425 109.938 55.3217 110.102C55.2034 110.263 55.1442 110.446 55.1442 110.652C55.1442 110.825 55.1844 110.974 55.2649 111.099C55.3478 111.225 55.4555 111.33 55.5881 111.415C55.723 111.498 55.8674 111.568 56.0213 111.625C56.1752 111.679 56.3232 111.724 56.4652 111.76L57.1754 111.945C57.4074 112.001 57.6454 112.078 57.8892 112.175C58.133 112.272 58.3591 112.4 58.5675 112.559C58.7758 112.718 58.9439 112.914 59.0717 113.148C59.2019 113.383 59.267 113.663 59.267 113.99C59.267 114.402 59.1605 114.768 58.9474 115.087C58.7367 115.407 58.4302 115.659 58.0277 115.844C57.6276 116.028 57.1435 116.121 56.5753 116.121C56.0308 116.121 55.5597 116.034 55.1619 115.862C54.7642 115.689 54.4529 115.444 54.228 115.126C54.0031 114.807 53.8788 114.428 53.8551 113.99L54.956 113.99C54.9773 114.253 55.0625 114.472 55.2116 114.647C55.3632 114.82 55.5561 114.949 55.7905 115.034C56.0272 115.117 56.2865 115.158 56.5682 115.158C56.8783 115.158 57.1541 115.11 57.3956 115.013C57.6394 114.913 57.8312 114.776 57.9709 114.601C58.1106 114.423 58.1804 114.216 58.1804 113.979C58.1804 113.764 58.1188 113.588 57.9957 113.45C57.875 113.313 57.7105 113.199 57.5021 113.109C57.2962 113.019 57.063 112.94 56.8026 112.871L55.9432 112.637C55.3608 112.478 54.8991 112.245 54.5582 111.938C54.2197 111.63 54.0504 111.223 54.0504 110.716C54.0504 110.297 54.1641 109.931 54.3913 109.619C54.6186 109.306 54.9264 109.063 55.3146 108.891C55.7029 108.715 56.1409 108.628 56.6286 108.628C57.121 108.628 57.5554 108.714 57.9318 108.887C58.3106 109.06 58.6089 109.298 58.8267 109.601C59.0445 109.902 59.1581 110.247 59.1676 110.638L58.1094 110.638L58.1094 110.638ZM62.0804 116.121C61.7348 116.121 61.4223 116.057 61.1429 115.929C60.8636 115.799 60.6422 115.611 60.4789 115.364C60.3179 115.118 60.2374 114.816 60.2374 114.459C60.2374 114.151 60.2966 113.898 60.415 113.699C60.5333 113.5 60.6931 113.343 60.8944 113.227C61.0956 113.111 61.3205 113.023 61.5691 112.964C61.8176 112.905 62.071 112.86 62.329 112.829C62.6557 112.791 62.9209 112.76 63.1245 112.737C63.3281 112.71 63.476 112.669 63.5684 112.612C63.6607 112.555 63.7069 112.463 63.7069 112.335L63.7069 112.31C63.7069 112 63.6193 111.76 63.4441 111.589C63.2712 111.419 63.0132 111.334 62.6699 111.334C62.3124 111.334 62.0307 111.413 61.8248 111.572C61.6212 111.728 61.4803 111.902 61.4022 112.094L60.4043 111.866C60.5227 111.535 60.6955 111.268 60.9228 111.064C61.1524 110.858 61.4164 110.709 61.7147 110.616C62.013 110.522 62.3266 110.474 62.6557 110.474C62.8735 110.474 63.1043 110.5 63.3482 110.553C63.5944 110.602 63.824 110.695 64.0371 110.83C64.2525 110.964 64.4289 111.157 64.5662 111.408C64.7035 111.657 64.7722 111.98 64.7722 112.378L64.7722 116L63.7353 116L63.7353 115.254L63.6926 115.254C63.624 115.392 63.521 115.527 63.3837 115.659C63.2464 115.792 63.07 115.902 62.8546 115.989C62.6391 116.077 62.3811 116.121 62.0804 116.121L62.0804 116.121ZM62.3113 115.268C62.6048 115.268 62.8558 115.21 63.0641 115.094C63.2748 114.978 63.4346 114.827 63.5435 114.64C63.6548 114.451 63.7104 114.248 63.7104 114.033L63.7104 113.33C63.6725 113.367 63.5991 113.403 63.4902 113.436C63.3837 113.467 63.2618 113.494 63.1245 113.518C62.9872 113.539 62.8534 113.559 62.7232 113.578C62.593 113.595 62.4841 113.609 62.3965 113.621C62.1905 113.647 62.0023 113.691 61.8319 113.752C61.6638 113.814 61.5288 113.902 61.427 114.018C61.3276 114.132 61.2779 114.284 61.2779 114.473C61.2779 114.736 61.3749 114.935 61.5691 115.07C61.7632 115.202 62.0106 115.268 62.3113 115.268L62.3113 115.268ZM67.7738 116.121C67.4281 116.121 67.1156 116.057 66.8363 115.929C66.5569 115.799 66.3356 115.611 66.1722 115.364C66.0112 115.118 65.9308 114.816 65.9308 114.459C65.9308 114.151 65.9899 113.898 66.1083 113.699C66.2267 113.5 66.3865 113.343 66.5877 113.227C66.7889 113.111 67.0138 113.023 67.2624 112.964C67.511 112.905 67.7643 112.86 68.0224 112.829C68.3491 112.791 68.6142 112.76 68.8178 112.737C69.0214 112.71 69.1694 112.669 69.2617 112.612C69.354 112.555 69.4002 112.463 69.4002 112.335L69.4002 112.31C69.4002 112 69.3126 111.76 69.1374 111.589C68.9646 111.419 68.7066 111.334 68.3633 111.334C68.0058 111.334 67.7241 111.413 67.5181 111.572C67.3145 111.728 67.1737 111.902 67.0955 112.094L66.0977 111.866C66.216 111.535 66.3888 111.268 66.6161 111.064C66.8458 110.858 67.1097 110.709 67.408 110.616C67.7063 110.522 68.02 110.474 68.3491 110.474C68.5669 110.474 68.7977 110.5 69.0415 110.553C69.2878 110.602 69.5174 110.695 69.7305 110.83C69.9459 110.964 70.1223 111.157 70.2596 111.408C70.3969 111.657 70.4656 111.98 70.4656 112.378L70.4656 116L69.4286 116L69.4286 115.254L69.386 115.254C69.3174 115.392 69.2144 115.527 69.0771 115.659C68.9397 115.792 68.7634 115.902 68.5479 115.989C68.3325 116.077 68.0745 116.121 67.7738 116.121L67.7738 116.121ZM68.0046 115.268C68.2982 115.268 68.5491 115.21 68.7575 115.094C68.9682 114.978 69.128 114.827 69.2369 114.64C69.3481 114.451 69.4038 114.248 69.4038 114.033L69.4038 113.33C69.3659 113.367 69.2925 113.403 69.1836 113.436C69.0771 113.467 68.9551 113.494 68.8178 113.518C68.6805 113.539 68.5468 113.559 68.4165 113.578C68.2863 113.595 68.1774 113.609 68.0898 113.621C67.8839 113.647 67.6957 113.691 67.5252 113.752C67.3571 113.814 67.2222 113.902 67.1204 114.018C67.021 114.132 66.9712 114.284 66.9712 114.473C66.9712 114.736 67.0683 114.935 67.2624 115.07C67.4566 115.202 67.704 115.268 68.0046 115.268L68.0046 115.268ZM74.426 110.545L74.426 111.398L71.4466 111.398L71.4466 110.545L74.426 110.545L74.426 110.545ZM72.2456 109.239L73.3074 109.239L73.3074 114.398C73.3074 114.604 73.3381 114.759 73.3997 114.864C73.4612 114.965 73.5405 115.035 73.6376 115.073C73.737 115.109 73.8448 115.126 73.9608 115.126C74.046 115.126 74.1206 115.121 74.1845 115.109C74.2484 115.097 74.2981 115.087 74.3336 115.08L74.5254 115.957C74.4638 115.981 74.3762 116.005 74.2626 116.028C74.149 116.054 74.0069 116.069 73.8365 116.071C73.5571 116.076 73.2967 116.026 73.0552 115.922C72.8137 115.818 72.6184 115.657 72.4693 115.439C72.3201 115.221 72.2456 114.948 72.2456 114.619L72.2456 109.239L72.2456 109.239ZM76.7795 108.727L76.7795 116L75.7177 116L75.7177 108.727L76.7795 108.727L76.7795 108.727ZM80.5588 116.11C80.0214 116.11 79.5585 115.995 79.1703 115.766C78.7844 115.534 78.4861 115.208 78.2754 114.789C78.0671 114.368 77.9629 113.874 77.9629 113.308C77.9629 112.75 78.0671 112.257 78.2754 111.831C78.4861 111.405 78.7797 111.072 79.1561 110.833C79.5349 110.594 79.9776 110.474 80.4842 110.474C80.792 110.474 81.0903 110.525 81.3791 110.627C81.6679 110.729 81.9271 110.889 82.1568 111.107C82.3864 111.324 82.5675 111.607 82.7001 111.955C82.8327 112.301 82.899 112.721 82.899 113.216L82.899 113.592L78.563 113.592L78.563 112.797L81.8585 112.797C81.8585 112.518 81.8017 112.27 81.688 112.055C81.5744 111.837 81.4146 111.665 81.2086 111.54C81.005 111.414 80.7659 111.352 80.4913 111.352C80.193 111.352 79.9326 111.425 79.71 111.572C79.4899 111.716 79.3194 111.906 79.1987 112.14C79.0803 112.372 79.0211 112.624 79.0211 112.896L79.0211 113.518C79.0211 113.882 79.085 114.192 79.2129 114.448C79.3431 114.704 79.5242 114.899 79.7562 115.034C79.9882 115.167 80.2593 115.233 80.5694 115.233C80.7707 115.233 80.9541 115.205 81.1199 115.148C81.2856 115.089 81.4288 115.001 81.5495 114.885C81.6703 114.769 81.7626 114.626 81.8265 114.455L82.8315 114.636C82.751 114.932 82.6066 115.192 82.3983 115.414C82.1923 115.634 81.9331 115.806 81.6206 115.929C81.3104 116.05 80.9565 116.11 80.5588 116.11L80.5588 116.11ZM84.0771 116L84.0771 110.545L85.1033 110.545L85.1033 111.412L85.1602 111.412C85.2596 111.118 85.4348 110.888 85.6857 110.719C85.939 110.549 86.2255 110.464 86.5451 110.464C86.6114 110.464 86.6895 110.466 86.7795 110.471C86.8718 110.476 86.944 110.482 86.9961 110.489L86.9961 111.504C86.9535 111.492 86.8777 111.479 86.7688 111.465C86.6599 111.449 86.551 111.44 86.4421 111.44C86.1912 111.44 85.9674 111.494 85.771 111.6C85.5768 111.704 85.4229 111.85 85.3093 112.037C85.1957 112.222 85.1388 112.432 85.1388 112.669L85.1388 116L84.0771 116L84.0771 116ZM87.915 116L87.915 110.545L88.9767 110.545L88.9767 116L87.915 116L87.915 116ZM88.4512 109.704C88.2665 109.704 88.1079 109.642 87.9753 109.519C87.8451 109.394 87.78 109.245 87.78 109.072C87.78 108.897 87.8451 108.747 87.9753 108.624C88.1079 108.499 88.2665 108.436 88.4512 108.436C88.6358 108.436 88.7933 108.499 88.9235 108.624C89.056 108.747 89.1223 108.897 89.1223 109.072C89.1223 109.245 89.056 109.394 88.9235 109.519C88.7933 109.642 88.6358 109.704 88.4512 109.704L88.4512 109.704Z" id="Şekil" fill="#C4C4C7" fill-rule="evenodd" stroke="none" clip-path="url(#clip_1)" />
    <path d="M23.1076 108.727L24.4393 108.727L26.7546 114.381L26.8398 114.381L29.1552 108.727L30.4869 108.727L30.4869 116L29.4428 116L29.4428 110.737L29.3754 110.737L27.2305 115.989L26.364 115.989L24.2191 110.734L24.1516 110.734L24.1516 116L23.1076 116L23.1076 108.727L23.1076 108.727ZM34.3478 116.11C33.8104 116.11 33.3476 115.995 32.9593 115.766C32.5734 115.534 32.2752 115.208 32.0645 114.789C31.8561 114.368 31.752 113.874 31.752 113.308C31.752 112.75 31.8561 112.257 32.0645 111.831C32.2752 111.405 32.5687 111.072 32.9451 110.833C33.3239 110.594 33.7666 110.474 34.2733 110.474C34.581 110.474 34.8793 110.525 35.1681 110.627C35.457 110.729 35.7162 110.889 35.9458 111.107C36.1755 111.324 36.3566 111.607 36.4892 111.955C36.6217 112.301 36.688 112.721 36.688 113.216L36.688 113.592L32.3521 113.592L32.3521 112.797L35.6475 112.797C35.6475 112.518 35.5907 112.27 35.4771 112.055C35.3635 111.837 35.2037 111.665 34.9977 111.54C34.7941 111.414 34.555 111.352 34.2804 111.352C33.9821 111.352 33.7217 111.425 33.4991 111.572C33.2789 111.716 33.1085 111.906 32.9877 112.14C32.8694 112.372 32.8102 112.624 32.8102 112.896L32.8102 113.518C32.8102 113.882 32.8741 114.192 33.002 114.448C33.1322 114.704 33.3133 114.899 33.5453 115.034C33.7773 115.167 34.0484 115.233 34.3585 115.233C34.5597 115.233 34.7432 115.205 34.9089 115.148C35.0746 115.089 35.2179 115.001 35.3386 114.885C35.4593 114.769 35.5517 114.626 35.6156 114.455L36.6206 114.636C36.5401 114.932 36.3957 115.192 36.1873 115.414C35.9814 115.634 35.7221 115.806 35.4096 115.929C35.0995 116.05 34.7456 116.11 34.3478 116.11L34.3478 116.11ZM41.9535 111.877L40.9911 112.048C40.9509 111.924 40.887 111.807 40.7994 111.696C40.7141 111.585 40.5981 111.494 40.4513 111.423C40.3046 111.352 40.1211 111.316 39.9009 111.316C39.6003 111.316 39.3493 111.384 39.1481 111.518C38.9469 111.651 38.8462 111.823 38.8462 112.033C38.8462 112.216 38.9137 112.362 39.0487 112.474C39.1836 112.585 39.4014 112.676 39.7021 112.747L40.5685 112.946C41.0704 113.062 41.4445 113.241 41.6907 113.482C41.9369 113.724 42.06 114.037 42.06 114.423C42.06 114.75 41.9653 115.041 41.7759 115.297C41.5889 115.55 41.3273 115.749 40.9911 115.893C40.6573 116.038 40.2702 116.11 39.8299 116.11C39.2191 116.11 38.7208 115.98 38.3349 115.719C37.949 115.457 37.7122 115.084 37.6246 114.601L38.6509 114.445C38.7148 114.712 38.8462 114.915 39.0451 115.052C39.244 115.187 39.5032 115.254 39.8228 115.254C40.1708 115.254 40.449 115.182 40.6573 115.038C40.8656 114.891 40.9698 114.712 40.9698 114.501C40.9698 114.331 40.9059 114.188 40.7781 114.072C40.6526 113.956 40.4596 113.868 40.1992 113.809L39.2759 113.607C38.7669 113.491 38.3905 113.306 38.1467 113.053C37.9052 112.799 37.7844 112.478 37.7844 112.09C37.7844 111.768 37.8744 111.487 38.0543 111.245C38.2343 111.004 38.4828 110.815 38.8001 110.68C39.1173 110.543 39.4807 110.474 39.8903 110.474C40.4798 110.474 40.9438 110.602 41.2823 110.858C41.6209 111.111 41.8446 111.451 41.9535 111.877L41.9535 111.877ZM44.8148 116.121C44.4692 116.121 44.1567 116.057 43.8773 115.929C43.598 115.799 43.3766 115.611 43.2132 115.364C43.0523 115.118 42.9718 114.816 42.9718 114.459C42.9718 114.151 43.031 113.898 43.1493 113.699C43.2677 113.5 43.4275 113.343 43.6287 113.227C43.83 113.111 44.0549 113.023 44.3034 112.964C44.552 112.905 44.8053 112.86 45.0634 112.829C45.3901 112.791 45.6552 112.76 45.8588 112.737C46.0624 112.71 46.2104 112.669 46.3027 112.612C46.3951 112.555 46.4412 112.463 46.4412 112.335L46.4412 112.31C46.4412 112 46.3536 111.76 46.1784 111.589C46.0056 111.419 45.7476 111.334 45.4043 111.334C45.0468 111.334 44.7651 111.413 44.5591 111.572C44.3555 111.728 44.2147 111.902 44.1365 112.094L43.1387 111.866C43.257 111.535 43.4299 111.268 43.6571 111.064C43.8868 110.858 44.1507 110.709 44.449 110.616C44.7473 110.522 45.061 110.474 45.3901 110.474C45.6079 110.474 45.8387 110.5 46.0826 110.553C46.3288 110.602 46.5584 110.695 46.7715 110.83C46.9869 110.964 47.1633 111.157 47.3006 111.408C47.4379 111.657 47.5066 111.98 47.5066 112.378L47.5066 116L46.4696 116L46.4696 115.254L46.427 115.254C46.3584 115.392 46.2554 115.527 46.1181 115.659C45.9808 115.792 45.8044 115.902 45.589 115.989C45.3735 116.077 45.1155 116.121 44.8148 116.121L44.8148 116.121ZM45.0456 115.268C45.3392 115.268 45.5901 115.21 45.7985 115.094C46.0092 114.978 46.169 114.827 46.2779 114.64C46.3891 114.451 46.4448 114.248 46.4448 114.033L46.4448 113.33C46.4069 113.367 46.3335 113.403 46.2246 113.436C46.1181 113.467 45.9962 113.494 45.8588 113.518C45.7215 113.539 45.5878 113.559 45.4576 113.578C45.3274 113.595 45.2185 113.609 45.1309 113.621C44.9249 113.647 44.7367 113.691 44.5662 113.752C44.3981 113.814 44.2632 113.902 44.1614 114.018C44.062 114.132 44.0123 114.284 44.0123 114.473C44.0123 114.736 44.1093 114.935 44.3034 115.07C44.4976 115.202 44.745 115.268 45.0456 115.268L45.0456 115.268ZM48.9208 116L48.9208 110.545L49.9826 110.545L49.9826 116L48.9208 116L48.9208 116ZM49.457 109.704C49.2724 109.704 49.1138 109.642 48.9812 109.519C48.851 109.394 48.7859 109.245 48.7859 109.072C48.7859 108.897 48.851 108.747 48.9812 108.624C49.1138 108.499 49.2724 108.436 49.457 108.436C49.6417 108.436 49.7991 108.499 49.9293 108.624C50.0619 108.747 50.1282 108.897 50.1282 109.072C50.1282 109.245 50.0619 109.394 49.9293 109.519C49.7991 109.642 49.6417 109.704 49.457 109.704L49.457 109.704ZM58.1094 110.638C58.0715 110.302 57.9152 110.041 57.6406 109.857C57.366 109.67 57.0204 109.576 56.6037 109.576C56.3054 109.576 56.0473 109.623 55.8295 109.718C55.6117 109.81 55.4425 109.938 55.3217 110.102C55.2034 110.263 55.1442 110.446 55.1442 110.652C55.1442 110.825 55.1844 110.974 55.2649 111.099C55.3478 111.225 55.4555 111.33 55.5881 111.415C55.723 111.498 55.8674 111.568 56.0213 111.625C56.1752 111.679 56.3232 111.724 56.4652 111.76L57.1754 111.945C57.4074 112.001 57.6454 112.078 57.8892 112.175C58.133 112.272 58.3591 112.4 58.5675 112.559C58.7758 112.718 58.9439 112.914 59.0717 113.148C59.2019 113.383 59.267 113.663 59.267 113.99C59.267 114.402 59.1605 114.768 58.9474 115.087C58.7367 115.407 58.4302 115.659 58.0277 115.844C57.6276 116.028 57.1435 116.121 56.5753 116.121C56.0308 116.121 55.5597 116.034 55.1619 115.862C54.7642 115.689 54.4529 115.444 54.228 115.126C54.0031 114.807 53.8788 114.428 53.8551 113.99L54.956 113.99C54.9773 114.253 55.0625 114.472 55.2116 114.647C55.3632 114.82 55.5561 114.949 55.7905 115.034C56.0272 115.117 56.2865 115.158 56.5682 115.158C56.8783 115.158 57.1541 115.11 57.3956 115.013C57.6394 114.913 57.8312 114.776 57.9709 114.601C58.1106 114.423 58.1804 114.216 58.1804 113.979C58.1804 113.764 58.1188 113.588 57.9957 113.45C57.875 113.313 57.7105 113.199 57.5021 113.109C57.2962 113.019 57.063 112.94 56.8026 112.871L55.9432 112.637C55.3608 112.478 54.8991 112.245 54.5582 111.938C54.2197 111.63 54.0504 111.223 54.0504 110.716C54.0504 110.297 54.1641 109.931 54.3913 109.619C54.6186 109.306 54.9264 109.063 55.3146 108.891C55.7029 108.715 56.1409 108.628 56.6286 108.628C57.121 108.628 57.5554 108.714 57.9318 108.887C58.3106 109.06 58.6089 109.298 58.8267 109.601C59.0445 109.902 59.1581 110.247 59.1676 110.638L58.1094 110.638L58.1094 110.638ZM62.0804 116.121C61.7348 116.121 61.4223 116.057 61.1429 115.929C60.8636 115.799 60.6422 115.611 60.4789 115.364C60.3179 115.118 60.2374 114.816 60.2374 114.459C60.2374 114.151 60.2966 113.898 60.415 113.699C60.5333 113.5 60.6931 113.343 60.8944 113.227C61.0956 113.111 61.3205 113.023 61.5691 112.964C61.8176 112.905 62.071 112.86 62.329 112.829C62.6557 112.791 62.9209 112.76 63.1245 112.737C63.3281 112.71 63.476 112.669 63.5684 112.612C63.6607 112.555 63.7069 112.463 63.7069 112.335L63.7069 112.31C63.7069 112 63.6193 111.76 63.4441 111.589C63.2712 111.419 63.0132 111.334 62.6699 111.334C62.3124 111.334 62.0307 111.413 61.8248 111.572C61.6212 111.728 61.4803 111.902 61.4022 112.094L60.4043 111.866C60.5227 111.535 60.6955 111.268 60.9228 111.064C61.1524 110.858 61.4164 110.709 61.7147 110.616C62.013 110.522 62.3266 110.474 62.6557 110.474C62.8735 110.474 63.1043 110.5 63.3482 110.553C63.5944 110.602 63.824 110.695 64.0371 110.83C64.2525 110.964 64.4289 111.157 64.5662 111.408C64.7035 111.657 64.7722 111.98 64.7722 112.378L64.7722 116L63.7353 116L63.7353 115.254L63.6926 115.254C63.624 115.392 63.521 115.527 63.3837 115.659C63.2464 115.792 63.07 115.902 62.8546 115.989C62.6391 116.077 62.3811 116.121 62.0804 116.121L62.0804 116.121ZM62.3113 115.268C62.6048 115.268 62.8558 115.21 63.0641 115.094C63.2748 114.978 63.4346 114.827 63.5435 114.64C63.6548 114.451 63.7104 114.248 63.7104 114.033L63.7104 113.33C63.6725 113.367 63.5991 113.403 63.4902 113.436C63.3837 113.467 63.2618 113.494 63.1245 113.518C62.9872 113.539 62.8534 113.559 62.7232 113.578C62.593 113.595 62.4841 113.609 62.3965 113.621C62.1905 113.647 62.0023 113.691 61.8319 113.752C61.6638 113.814 61.5288 113.902 61.427 114.018C61.3276 114.132 61.2779 114.284 61.2779 114.473C61.2779 114.736 61.3749 114.935 61.5691 115.07C61.7632 115.202 62.0106 115.268 62.3113 115.268L62.3113 115.268ZM67.7738 116.121C67.4281 116.121 67.1156 116.057 66.8363 115.929C66.5569 115.799 66.3356 115.611 66.1722 115.364C66.0112 115.118 65.9308 114.816 65.9308 114.459C65.9308 114.151 65.9899 113.898 66.1083 113.699C66.2267 113.5 66.3865 113.343 66.5877 113.227C66.7889 113.111 67.0138 113.023 67.2624 112.964C67.511 112.905 67.7643 112.86 68.0224 112.829C68.3491 112.791 68.6142 112.76 68.8178 112.737C69.0214 112.71 69.1694 112.669 69.2617 112.612C69.354 112.555 69.4002 112.463 69.4002 112.335L69.4002 112.31C69.4002 112 69.3126 111.76 69.1374 111.589C68.9646 111.419 68.7066 111.334 68.3633 111.334C68.0058 111.334 67.7241 111.413 67.5181 111.572C67.3145 111.728 67.1737 111.902 67.0955 112.094L66.0977 111.866C66.216 111.535 66.3888 111.268 66.6161 111.064C66.8458 110.858 67.1097 110.709 67.408 110.616C67.7063 110.522 68.02 110.474 68.3491 110.474C68.5669 110.474 68.7977 110.5 69.0415 110.553C69.2878 110.602 69.5174 110.695 69.7305 110.83C69.9459 110.964 70.1223 111.157 70.2596 111.408C70.3969 111.657 70.4656 111.98 70.4656 112.378L70.4656 116L69.4286 116L69.4286 115.254L69.386 115.254C69.3174 115.392 69.2144 115.527 69.0771 115.659C68.9397 115.792 68.7634 115.902 68.5479 115.989C68.3325 116.077 68.0745 116.121 67.7738 116.121L67.7738 116.121ZM68.0046 115.268C68.2982 115.268 68.5491 115.21 68.7575 115.094C68.9682 114.978 69.128 114.827 69.2369 114.64C69.3481 114.451 69.4038 114.248 69.4038 114.033L69.4038 113.33C69.3659 113.367 69.2925 113.403 69.1836 113.436C69.0771 113.467 68.9551 113.494 68.8178 113.518C68.6805 113.539 68.5468 113.559 68.4165 113.578C68.2863 113.595 68.1774 113.609 68.0898 113.621C67.8839 113.647 67.6957 113.691 67.5252 113.752C67.3571 113.814 67.2222 113.902 67.1204 114.018C67.021 114.132 66.9712 114.284 66.9712 114.473C66.9712 114.736 67.0683 114.935 67.2624 115.07C67.4566 115.202 67.704 115.268 68.0046 115.268L68.0046 115.268ZM74.426 110.545L74.426 111.398L71.4466 111.398L71.4466 110.545L74.426 110.545L74.426 110.545ZM72.2456 109.239L73.3074 109.239L73.3074 114.398C73.3074 114.604 73.3381 114.759 73.3997 114.864C73.4612 114.965 73.5405 115.035 73.6376 115.073C73.737 115.109 73.8448 115.126 73.9608 115.126C74.046 115.126 74.1206 115.121 74.1845 115.109C74.2484 115.097 74.2981 115.087 74.3336 115.08L74.5254 115.957C74.4638 115.981 74.3762 116.005 74.2626 116.028C74.149 116.054 74.0069 116.069 73.8365 116.071C73.5571 116.076 73.2967 116.026 73.0552 115.922C72.8137 115.818 72.6184 115.657 72.4693 115.439C72.3201 115.221 72.2456 114.948 72.2456 114.619L72.2456 109.239L72.2456 109.239ZM76.7795 108.727L76.7795 116L75.7177 116L75.7177 108.727L76.7795 108.727L76.7795 108.727ZM80.5588 116.11C80.0214 116.11 79.5585 115.995 79.1703 115.766C78.7844 115.534 78.4861 115.208 78.2754 114.789C78.0671 114.368 77.9629 113.874 77.9629 113.308C77.9629 112.75 78.0671 112.257 78.2754 111.831C78.4861 111.405 78.7797 111.072 79.1561 110.833C79.5349 110.594 79.9776 110.474 80.4842 110.474C80.792 110.474 81.0903 110.525 81.3791 110.627C81.6679 110.729 81.9271 110.889 82.1568 111.107C82.3864 111.324 82.5675 111.607 82.7001 111.955C82.8327 112.301 82.899 112.721 82.899 113.216L82.899 113.592L78.563 113.592L78.563 112.797L81.8585 112.797C81.8585 112.518 81.8017 112.27 81.688 112.055C81.5744 111.837 81.4146 111.665 81.2086 111.54C81.005 111.414 80.7659 111.352 80.4913 111.352C80.193 111.352 79.9326 111.425 79.71 111.572C79.4899 111.716 79.3194 111.906 79.1987 112.14C79.0803 112.372 79.0211 112.624 79.0211 112.896L79.0211 113.518C79.0211 113.882 79.085 114.192 79.2129 114.448C79.3431 114.704 79.5242 114.899 79.7562 115.034C79.9882 115.167 80.2593 115.233 80.5694 115.233C80.7707 115.233 80.9541 115.205 81.1199 115.148C81.2856 115.089 81.4288 115.001 81.5495 114.885C81.6703 114.769 81.7626 114.626 81.8265 114.455L82.8315 114.636C82.751 114.932 82.6066 115.192 82.3983 115.414C82.1923 115.634 81.9331 115.806 81.6206 115.929C81.3104 116.05 80.9565 116.11 80.5588 116.11L80.5588 116.11ZM84.0771 116L84.0771 110.545L85.1033 110.545L85.1033 111.412L85.1602 111.412C85.2596 111.118 85.4348 110.888 85.6857 110.719C85.939 110.549 86.2255 110.464 86.5451 110.464C86.6114 110.464 86.6895 110.466 86.7795 110.471C86.8718 110.476 86.944 110.482 86.9961 110.489L86.9961 111.504C86.9535 111.492 86.8777 111.479 86.7688 111.465C86.6599 111.449 86.551 111.44 86.4421 111.44C86.1912 111.44 85.9674 111.494 85.771 111.6C85.5768 111.704 85.4229 111.85 85.3093 112.037C85.1957 112.222 85.1388 112.432 85.1388 112.669L85.1388 116L84.0771 116L84.0771 116ZM87.915 116L87.915 110.545L88.9767 110.545L88.9767 116L87.915 116L87.915 116ZM88.4512 109.704C88.2665 109.704 88.1079 109.642 87.9753 109.519C87.8451 109.394 87.78 109.245 87.78 109.072C87.78 108.897 87.8451 108.747 87.9753 108.624C88.1079 108.499 88.2665 108.436 88.4512 108.436C88.6358 108.436 88.7933 108.499 88.9235 108.624C89.056 108.747 89.1223 108.897 89.1223 109.072C89.1223 109.245 89.056 109.394 88.9235 109.519C88.7933 109.642 88.6358 109.704 88.4512 109.704L88.4512 109.704Z" id="Şekil" fill="#C4C4C7" fill-rule="evenodd" stroke="none" clip-path="url(#clip_1)" />
    <path d="M23.586 51L23.586 43.7273L25.9333 43.7273C26.4494 43.7273 26.8803 43.8267 27.2259 44.0256C27.574 44.2221 27.8356 44.4896 28.0107 44.8281C28.1883 45.1667 28.2771 45.5478 28.2771 45.9716C28.2771 46.3954 28.1895 46.7777 28.0143 47.1186C27.8391 47.4571 27.5787 47.7259 27.233 47.9247C26.8874 48.1212 26.4577 48.2195 25.944 48.2195L24.0974 48.2195L24.0974 47.6229L25.9262 47.6229C26.3074 47.6229 26.6234 47.5518 26.8744 47.4098C27.1253 47.2654 27.3124 47.0689 27.4355 46.8203C27.5609 46.5717 27.6237 46.2888 27.6237 45.9716C27.6237 45.6544 27.5609 45.3714 27.4355 45.1229C27.3124 44.8743 27.1241 44.679 26.8708 44.5369C26.6199 44.3949 26.3015 44.3239 25.9156 44.3239L24.2501 44.3239L24.2501 51L23.586 51L23.586 51ZM29.5484 51L29.5484 50.4993L33.586 44.3239L29.5271 44.3239L29.5271 43.7273L34.3779 43.7273L34.3779 44.228L30.3367 50.4034L34.4134 50.4034L34.4134 51L29.5484 51L29.5484 51ZM35.5773 44.3239L35.5773 43.7273L40.8508 43.7273L40.8508 44.3239L38.5461 44.3239L38.5461 51L37.882 51L37.882 44.3239L35.5773 44.3239L35.5773 44.3239Z" id="Şekil" fill="#3C3C43" fill-opacity="0.3019608" fill-rule="evenodd" stroke="none" clip-path="url(#clip_1)" />
    <path d="M23.586 51L23.586 43.7273L25.9333 43.7273C26.4494 43.7273 26.8803 43.8267 27.2259 44.0256C27.574 44.2221 27.8356 44.4896 28.0107 44.8281C28.1883 45.1667 28.2771 45.5478 28.2771 45.9716C28.2771 46.3954 28.1895 46.7777 28.0143 47.1186C27.8391 47.4571 27.5787 47.7259 27.233 47.9247C26.8874 48.1212 26.4577 48.2195 25.944 48.2195L24.0974 48.2195L24.0974 47.6229L25.9262 47.6229C26.3074 47.6229 26.6234 47.5518 26.8744 47.4098C27.1253 47.2654 27.3124 47.0689 27.4355 46.8203C27.5609 46.5717 27.6237 46.2888 27.6237 45.9716C27.6237 45.6544 27.5609 45.3714 27.4355 45.1229C27.3124 44.8743 27.1241 44.679 26.8708 44.5369C26.6199 44.3949 26.3015 44.3239 25.9156 44.3239L24.2501 44.3239L24.2501 51L23.586 51L23.586 51ZM29.5484 51L29.5484 50.4993L33.586 44.3239L29.5271 44.3239L29.5271 43.7273L34.3779 43.7273L34.3779 44.228L30.3367 50.4034L34.4134 50.4034L34.4134 51L29.5484 51L29.5484 51ZM35.5773 44.3239L35.5773 43.7273L40.8508 43.7273L40.8508 44.3239L38.5461 44.3239L38.5461 51L37.882 51L37.882 44.3239L35.5773 44.3239L35.5773 44.3239Z" id="Şekil" fill="#3C3C43" fill-opacity="0.3019608" fill-rule="evenodd" stroke="none" clip-path="url(#clip_1)" />
    <path d="M82.6765 45.5455C82.6362 45.1406 82.4575 44.8187 82.1403 44.5795C81.823 44.3404 81.4241 44.2209 80.9435 44.2209C80.605 44.2209 80.3067 44.2789 80.0487 44.3949C79.793 44.5109 79.5917 44.6719 79.445 44.8778C79.3005 45.0814 79.2283 45.3134 79.2283 45.5739C79.2283 45.7656 79.2698 45.9337 79.3526 46.0781C79.4355 46.2225 79.5468 46.3468 79.6864 46.451C79.8285 46.5528 79.9847 46.6404 80.1552 46.7138C80.328 46.7872 80.502 46.8487 80.6772 46.8984L81.4442 47.1186C81.6763 47.1825 81.9083 47.2642 82.1403 47.3636C82.3723 47.4631 82.5842 47.5885 82.7759 47.7401C82.9701 47.8892 83.1251 48.0727 83.2411 48.2905C83.3595 48.5059 83.4187 48.7652 83.4187 49.0682C83.4187 49.4564 83.3181 49.8056 83.1168 50.1158C82.9156 50.4259 82.6268 50.6721 82.2504 50.8544C81.8739 51.0343 81.4229 51.1243 80.8974 51.1243C80.4026 51.1243 79.9729 51.0426 79.6083 50.8793C79.2437 50.7135 78.9573 50.4851 78.7489 50.1939C78.5406 49.9027 78.4234 49.5653 78.3974 49.1818L79.0792 49.1818C79.1029 49.4683 79.1976 49.7109 79.3633 49.9098C79.529 50.1087 79.7444 50.2602 80.0096 50.3643C80.2747 50.4661 80.5707 50.517 80.8974 50.517C81.2596 50.517 81.5816 50.4567 81.8633 50.3359C82.1474 50.2128 82.3699 50.0424 82.5309 49.8246C82.6942 49.6044 82.7759 49.3487 82.7759 49.0575C82.7759 48.8113 82.712 48.6054 82.5842 48.4396C82.4563 48.2715 82.2776 48.1307 82.0479 48.017C81.8207 47.9034 81.5567 47.8028 81.256 47.7152L80.386 47.4595C79.8155 47.2891 79.3728 47.0535 79.0579 46.7528C78.743 46.4522 78.5856 46.0687 78.5856 45.6023C78.5856 45.2116 78.6897 44.8684 78.8981 44.5724C79.1088 44.2741 79.3929 44.0421 79.7504 43.8764C80.1102 43.7083 80.5138 43.6243 80.9613 43.6243C81.4135 43.6243 81.8136 43.7071 82.1616 43.8729C82.5096 44.0386 82.7854 44.267 82.989 44.5582C83.195 44.8471 83.305 45.1761 83.3192 45.5455L82.6765 45.5455L82.6765 45.5455ZM85.0273 51L84.3313 51L86.9769 43.7273L87.6871 43.7273L90.3327 51L89.6367 51L87.3569 44.5902L87.3072 44.5902L85.0273 51L85.0273 51ZM85.5281 48.2124L89.136 48.2124L89.136 48.8089L85.5281 48.8089L85.5281 48.2124L85.5281 48.2124ZM91.5792 51L91.5792 43.7273L92.2433 43.7273L92.2433 50.4034L95.7092 50.4034L95.7092 51L91.5792 51L91.5792 51Z" id="Şekil" fill="#3C3C43" fill-opacity="0.3019608" fill-rule="evenodd" stroke="none" clip-path="url(#clip_1)" />
    <path d="M82.6765 45.5455C82.6362 45.1406 82.4575 44.8187 82.1403 44.5795C81.823 44.3404 81.4241 44.2209 80.9435 44.2209C80.605 44.2209 80.3067 44.2789 80.0487 44.3949C79.793 44.5109 79.5917 44.6719 79.445 44.8778C79.3005 45.0814 79.2283 45.3134 79.2283 45.5739C79.2283 45.7656 79.2698 45.9337 79.3526 46.0781C79.4355 46.2225 79.5468 46.3468 79.6864 46.451C79.8285 46.5528 79.9847 46.6404 80.1552 46.7138C80.328 46.7872 80.502 46.8487 80.6772 46.8984L81.4442 47.1186C81.6763 47.1825 81.9083 47.2642 82.1403 47.3636C82.3723 47.4631 82.5842 47.5885 82.7759 47.7401C82.9701 47.8892 83.1251 48.0727 83.2411 48.2905C83.3595 48.5059 83.4187 48.7652 83.4187 49.0682C83.4187 49.4564 83.3181 49.8056 83.1168 50.1158C82.9156 50.4259 82.6268 50.6721 82.2504 50.8544C81.8739 51.0343 81.4229 51.1243 80.8974 51.1243C80.4026 51.1243 79.9729 51.0426 79.6083 50.8793C79.2437 50.7135 78.9573 50.4851 78.7489 50.1939C78.5406 49.9027 78.4234 49.5653 78.3974 49.1818L79.0792 49.1818C79.1029 49.4683 79.1976 49.7109 79.3633 49.9098C79.529 50.1087 79.7444 50.2602 80.0096 50.3643C80.2747 50.4661 80.5707 50.517 80.8974 50.517C81.2596 50.517 81.5816 50.4567 81.8633 50.3359C82.1474 50.2128 82.3699 50.0424 82.5309 49.8246C82.6942 49.6044 82.7759 49.3487 82.7759 49.0575C82.7759 48.8113 82.712 48.6054 82.5842 48.4396C82.4563 48.2715 82.2776 48.1307 82.0479 48.017C81.8207 47.9034 81.5567 47.8028 81.256 47.7152L80.386 47.4595C79.8155 47.2891 79.3728 47.0535 79.0579 46.7528C78.743 46.4522 78.5856 46.0687 78.5856 45.6023C78.5856 45.2116 78.6897 44.8684 78.8981 44.5724C79.1088 44.2741 79.3929 44.0421 79.7504 43.8764C80.1102 43.7083 80.5138 43.6243 80.9613 43.6243C81.4135 43.6243 81.8136 43.7071 82.1616 43.8729C82.5096 44.0386 82.7854 44.267 82.989 44.5582C83.195 44.8471 83.305 45.1761 83.3192 45.5455L82.6765 45.5455L82.6765 45.5455ZM85.0273 51L84.3313 51L86.9769 43.7273L87.6871 43.7273L90.3327 51L89.6367 51L87.3569 44.5902L87.3072 44.5902L85.0273 51L85.0273 51ZM85.5281 48.2124L89.136 48.2124L89.136 48.8089L85.5281 48.8089L85.5281 48.2124L85.5281 48.2124ZM91.5792 51L91.5792 43.7273L92.2433 43.7273L92.2433 50.4034L95.7092 50.4034L95.7092 51L91.5792 51L91.5792 51Z" id="Şekil" fill="#3C3C43" fill-opacity="0.3019608" fill-rule="evenodd" stroke="none" clip-path="url(#clip_1)" />
    <path d="M138.735 46L138.068 46C138.018 45.7514 137.928 45.5218 137.798 45.3111C137.67 45.098 137.509 44.9122 137.315 44.7536C137.121 44.5949 136.9 44.4718 136.654 44.3842C136.408 44.2966 136.142 44.2528 135.855 44.2528C135.396 44.2528 134.977 44.3724 134.598 44.6115C134.222 44.8506 133.92 45.2022 133.693 45.6662C133.468 46.1278 133.355 46.6937 133.355 47.3636C133.355 48.0384 133.468 48.6065 133.693 49.0682C133.92 49.5298 134.222 49.8802 134.598 50.1193C134.977 50.3561 135.396 50.4744 135.855 50.4744C136.142 50.4744 136.408 50.4306 136.654 50.343C136.9 50.2554 137.121 50.1335 137.315 49.9773C137.509 49.8187 137.67 49.6328 137.798 49.4197C137.928 49.2067 138.018 48.9759 138.068 48.7273L138.735 48.7273C138.676 49.0611 138.565 49.3724 138.401 49.6612C138.24 49.9477 138.034 50.1986 137.783 50.4141C137.535 50.6295 137.248 50.7976 136.924 50.9183C136.6 51.0391 136.243 51.0994 135.855 51.0994C135.244 51.0994 134.702 50.9467 134.229 50.6413C133.755 50.3336 133.384 49.9003 133.114 49.3416C132.846 48.7829 132.712 48.1236 132.712 47.3636C132.712 46.6037 132.846 45.9444 133.114 45.3857C133.384 44.8269 133.755 44.3949 134.229 44.0895C134.702 43.7817 135.244 43.6278 135.855 43.6278C136.243 43.6278 136.6 43.6882 136.924 43.8089C137.248 43.9273 137.535 44.0954 137.783 44.3132C138.034 44.5286 138.24 44.7796 138.401 45.0661C138.565 45.3525 138.676 45.6638 138.735 46L138.735 46ZM135.571 51.0107L136.111 51.0107L136.058 51.2947C136.261 51.3255 136.434 51.4072 136.576 51.5398C136.72 51.6747 136.794 51.8712 136.796 52.1293C136.794 52.4157 136.681 52.643 136.459 52.8111C136.239 52.9792 135.913 53.0656 135.482 53.0703L135.461 52.6264C135.695 52.6217 135.88 52.5814 136.015 52.5057C136.15 52.4323 136.217 52.3127 136.217 52.147C136.217 51.9695 136.155 51.844 136.029 51.7706C135.906 51.6972 135.711 51.6534 135.443 51.6392L135.571 51.0107L135.571 51.0107ZM140.295 51L140.295 43.7273L142.642 43.7273C143.158 43.7273 143.589 43.8208 143.935 44.0078C144.283 44.1925 144.545 44.4493 144.72 44.7784C144.897 45.1051 144.986 45.4804 144.986 45.9041C144.986 46.3279 144.897 46.7019 144.72 47.0263C144.545 47.3506 144.284 47.6039 143.938 47.7862C143.593 47.9685 143.164 48.0597 142.653 48.0597L140.654 48.0597L140.654 47.4524L142.635 47.4524C143.014 47.4524 143.329 47.3897 143.58 47.2642C143.833 47.1387 144.021 46.96 144.144 46.728C144.27 46.496 144.333 46.2214 144.333 45.9041C144.333 45.5869 144.27 45.3099 144.144 45.0732C144.019 44.834 143.83 44.6494 143.576 44.5192C143.325 44.389 143.008 44.3239 142.625 44.3239L140.959 44.3239L140.959 51L140.295 51L140.295 51ZM143.502 47.7188L145.291 51L144.524 51L142.752 47.7188L143.502 47.7188L143.502 47.7188ZM150.552 45.5455C150.512 45.1406 150.333 44.8187 150.016 44.5795C149.699 44.3404 149.3 44.2209 148.82 44.2209C148.481 44.2209 148.183 44.2789 147.925 44.3949C147.669 44.5109 147.468 44.6719 147.321 44.8778C147.177 45.0814 147.104 45.3134 147.104 45.5739C147.104 45.7656 147.146 45.9337 147.229 46.0781C147.311 46.2225 147.423 46.3468 147.562 46.451C147.704 46.5528 147.861 46.6404 148.031 46.7138C148.204 46.7872 148.378 46.8487 148.553 46.8984L149.32 47.1186C149.552 47.1825 149.784 47.2642 150.016 47.3636C150.248 47.4631 150.46 47.5885 150.652 47.7401C150.846 47.8892 151.001 48.0727 151.117 48.2905C151.235 48.5059 151.295 48.7652 151.295 49.0682C151.295 49.4564 151.194 49.8056 150.993 50.1158C150.792 50.4259 150.503 50.6721 150.126 50.8544C149.75 51.0343 149.299 51.1243 148.773 51.1243C148.279 51.1243 147.849 51.0426 147.484 50.8793C147.12 50.7135 146.833 50.4851 146.625 50.1939C146.417 49.9027 146.299 49.5653 146.273 49.1818L146.955 49.1818C146.979 49.4683 147.074 49.7109 147.239 49.9098C147.405 50.1087 147.62 50.2602 147.886 50.3643C148.151 50.4661 148.447 50.517 148.773 50.517C149.136 50.517 149.458 50.4567 149.739 50.3359C150.023 50.2128 150.246 50.0424 150.407 49.8246C150.57 49.6044 150.652 49.3487 150.652 49.0575C150.652 48.8113 150.588 48.6054 150.46 48.4396C150.332 48.2715 150.154 48.1307 149.924 48.017C149.697 47.9034 149.433 47.8028 149.132 47.7152L148.262 47.4595C147.691 47.2891 147.249 47.0535 146.934 46.7528C146.619 46.4522 146.462 46.0687 146.462 45.6023C146.462 45.2116 146.566 44.8684 146.774 44.5724C146.985 44.2741 147.269 44.0421 147.626 43.8764C147.986 43.7083 148.39 43.6243 148.837 43.6243C149.289 43.6243 149.69 43.7071 150.038 43.8729C150.386 44.0386 150.661 44.267 150.865 44.5582C151.071 44.8471 151.181 45.1761 151.195 45.5455L150.552 45.5455L150.552 45.5455ZM148.507 50.9716L149.047 50.9716L148.994 51.2557C149.197 51.2865 149.37 51.3681 149.512 51.5007C149.656 51.6357 149.73 51.8321 149.732 52.0902C149.73 52.3767 149.617 52.6039 149.395 52.772C149.175 52.9401 148.849 53.0265 148.418 53.0312L148.397 52.5874C148.631 52.5826 148.816 52.5424 148.951 52.4666C149.086 52.3932 149.153 52.2737 149.153 52.108C149.153 51.9304 149.091 51.8049 148.965 51.7315C148.842 51.6581 148.647 51.6143 148.379 51.6001L148.507 50.9716L148.507 50.9716Z" id="Şekil" fill="#3C3C43" fill-opacity="0.3019608" fill-rule="evenodd" stroke="none" clip-path="url(#clip_1)" />
    <path d="M138.735 46L138.068 46C138.018 45.7514 137.928 45.5218 137.798 45.3111C137.67 45.098 137.509 44.9122 137.315 44.7536C137.121 44.5949 136.9 44.4718 136.654 44.3842C136.408 44.2966 136.142 44.2528 135.855 44.2528C135.396 44.2528 134.977 44.3724 134.598 44.6115C134.222 44.8506 133.92 45.2022 133.693 45.6662C133.468 46.1278 133.355 46.6937 133.355 47.3636C133.355 48.0384 133.468 48.6065 133.693 49.0682C133.92 49.5298 134.222 49.8802 134.598 50.1193C134.977 50.3561 135.396 50.4744 135.855 50.4744C136.142 50.4744 136.408 50.4306 136.654 50.343C136.9 50.2554 137.121 50.1335 137.315 49.9773C137.509 49.8187 137.67 49.6328 137.798 49.4197C137.928 49.2067 138.018 48.9759 138.068 48.7273L138.735 48.7273C138.676 49.0611 138.565 49.3724 138.401 49.6612C138.24 49.9477 138.034 50.1986 137.783 50.4141C137.535 50.6295 137.248 50.7976 136.924 50.9183C136.6 51.0391 136.243 51.0994 135.855 51.0994C135.244 51.0994 134.702 50.9467 134.229 50.6413C133.755 50.3336 133.384 49.9003 133.114 49.3416C132.846 48.7829 132.712 48.1236 132.712 47.3636C132.712 46.6037 132.846 45.9444 133.114 45.3857C133.384 44.8269 133.755 44.3949 134.229 44.0895C134.702 43.7817 135.244 43.6278 135.855 43.6278C136.243 43.6278 136.6 43.6882 136.924 43.8089C137.248 43.9273 137.535 44.0954 137.783 44.3132C138.034 44.5286 138.24 44.7796 138.401 45.0661C138.565 45.3525 138.676 45.6638 138.735 46L138.735 46ZM135.571 51.0107L136.111 51.0107L136.058 51.2947C136.261 51.3255 136.434 51.4072 136.576 51.5398C136.72 51.6747 136.794 51.8712 136.796 52.1293C136.794 52.4157 136.681 52.643 136.459 52.8111C136.239 52.9792 135.913 53.0656 135.482 53.0703L135.461 52.6264C135.695 52.6217 135.88 52.5814 136.015 52.5057C136.15 52.4323 136.217 52.3127 136.217 52.147C136.217 51.9695 136.155 51.844 136.029 51.7706C135.906 51.6972 135.711 51.6534 135.443 51.6392L135.571 51.0107L135.571 51.0107ZM140.295 51L140.295 43.7273L142.642 43.7273C143.158 43.7273 143.589 43.8208 143.935 44.0078C144.283 44.1925 144.545 44.4493 144.72 44.7784C144.897 45.1051 144.986 45.4804 144.986 45.9041C144.986 46.3279 144.897 46.7019 144.72 47.0263C144.545 47.3506 144.284 47.6039 143.938 47.7862C143.593 47.9685 143.164 48.0597 142.653 48.0597L140.654 48.0597L140.654 47.4524L142.635 47.4524C143.014 47.4524 143.329 47.3897 143.58 47.2642C143.833 47.1387 144.021 46.96 144.144 46.728C144.27 46.496 144.333 46.2214 144.333 45.9041C144.333 45.5869 144.27 45.3099 144.144 45.0732C144.019 44.834 143.83 44.6494 143.576 44.5192C143.325 44.389 143.008 44.3239 142.625 44.3239L140.959 44.3239L140.959 51L140.295 51L140.295 51ZM143.502 47.7188L145.291 51L144.524 51L142.752 47.7188L143.502 47.7188L143.502 47.7188ZM150.552 45.5455C150.512 45.1406 150.333 44.8187 150.016 44.5795C149.699 44.3404 149.3 44.2209 148.82 44.2209C148.481 44.2209 148.183 44.2789 147.925 44.3949C147.669 44.5109 147.468 44.6719 147.321 44.8778C147.177 45.0814 147.104 45.3134 147.104 45.5739C147.104 45.7656 147.146 45.9337 147.229 46.0781C147.311 46.2225 147.423 46.3468 147.562 46.451C147.704 46.5528 147.861 46.6404 148.031 46.7138C148.204 46.7872 148.378 46.8487 148.553 46.8984L149.32 47.1186C149.552 47.1825 149.784 47.2642 150.016 47.3636C150.248 47.4631 150.46 47.5885 150.652 47.7401C150.846 47.8892 151.001 48.0727 151.117 48.2905C151.235 48.5059 151.295 48.7652 151.295 49.0682C151.295 49.4564 151.194 49.8056 150.993 50.1158C150.792 50.4259 150.503 50.6721 150.126 50.8544C149.75 51.0343 149.299 51.1243 148.773 51.1243C148.279 51.1243 147.849 51.0426 147.484 50.8793C147.12 50.7135 146.833 50.4851 146.625 50.1939C146.417 49.9027 146.299 49.5653 146.273 49.1818L146.955 49.1818C146.979 49.4683 147.074 49.7109 147.239 49.9098C147.405 50.1087 147.62 50.2602 147.886 50.3643C148.151 50.4661 148.447 50.517 148.773 50.517C149.136 50.517 149.458 50.4567 149.739 50.3359C150.023 50.2128 150.246 50.0424 150.407 49.8246C150.57 49.6044 150.652 49.3487 150.652 49.0575C150.652 48.8113 150.588 48.6054 150.46 48.4396C150.332 48.2715 150.154 48.1307 149.924 48.017C149.697 47.9034 149.433 47.8028 149.132 47.7152L148.262 47.4595C147.691 47.2891 147.249 47.0535 146.934 46.7528C146.619 46.4522 146.462 46.0687 146.462 45.6023C146.462 45.2116 146.566 44.8684 146.774 44.5724C146.985 44.2741 147.269 44.0421 147.626 43.8764C147.986 43.7083 148.39 43.6243 148.837 43.6243C149.289 43.6243 149.69 43.7071 150.038 43.8729C150.386 44.0386 150.661 44.267 150.865 44.5582C151.071 44.8471 151.181 45.1761 151.195 45.5455L150.552 45.5455L150.552 45.5455ZM148.507 50.9716L149.047 50.9716L148.994 51.2557C149.197 51.2865 149.37 51.3681 149.512 51.5007C149.656 51.6357 149.73 51.8321 149.732 52.0902C149.73 52.3767 149.617 52.6039 149.395 52.772C149.175 52.9401 148.849 53.0265 148.418 53.0312L148.397 52.5874C148.631 52.5826 148.816 52.5424 148.951 52.4666C149.086 52.3932 149.153 52.2737 149.153 52.108C149.153 51.9304 149.091 51.8049 148.965 51.7315C148.842 51.6581 148.647 51.6143 148.379 51.6001L148.507 50.9716L148.507 50.9716Z" id="Şekil" fill="#3C3C43" fill-opacity="0.3019608" fill-rule="evenodd" stroke="none" clip-path="url(#clip_1)" />
    <path d="M188.718 51L188.718 43.7273L191.065 43.7273C191.581 43.7273 192.012 43.8267 192.358 44.0256C192.706 44.2221 192.967 44.4896 193.143 44.8281C193.32 45.1667 193.409 45.5478 193.409 45.9716C193.409 46.3954 193.321 46.7777 193.146 47.1186C192.971 47.4571 192.711 47.7259 192.365 47.9247C192.019 48.1212 191.59 48.2195 191.076 48.2195L189.229 48.2195L189.229 47.6229L191.058 47.6229C191.439 47.6229 191.755 47.5518 192.006 47.4098C192.257 47.2654 192.444 47.0689 192.567 46.8203C192.693 46.5717 192.756 46.2888 192.756 45.9716C192.756 45.6544 192.693 45.3714 192.567 45.1229C192.444 44.8743 192.256 44.679 192.003 44.5369C191.752 44.3949 191.433 44.3239 191.047 44.3239L189.382 44.3239L189.382 51L188.718 51L188.718 51ZM194.968 51L194.968 43.7273L199.187 43.7273L199.187 44.3239L195.632 44.3239L195.632 47.0618L198.963 47.0618L198.963 47.6584L195.632 47.6584L195.632 50.4034L199.258 50.4034L199.258 51L194.968 51L194.968 51ZM200.905 51L200.905 43.7273L203.253 43.7273C203.769 43.7273 204.2 43.8208 204.545 44.0078C204.893 44.1925 205.155 44.4493 205.33 44.7784C205.508 45.1051 205.596 45.4804 205.596 45.9041C205.596 46.3279 205.508 46.7019 205.33 47.0263C205.155 47.3506 204.894 47.6039 204.549 47.7862C204.203 47.9685 203.775 48.0597 203.263 48.0597L201.264 48.0597L201.264 47.4524L203.246 47.4524C203.624 47.4524 203.939 47.3897 204.19 47.2642C204.443 47.1387 204.632 46.96 204.755 46.728C204.88 46.496 204.943 46.2214 204.943 45.9041C204.943 45.5869 204.88 45.3099 204.755 45.0732C204.629 44.834 204.44 44.6494 204.187 44.5192C203.936 44.389 203.618 44.3239 203.235 44.3239L201.569 44.3239L201.569 51L200.905 51L200.905 51ZM204.112 47.7188L205.902 51L205.135 51L203.363 47.7188L204.112 47.7188L204.112 47.7188Z" id="Şekil" fill="#3C3C43" fill-opacity="0.3019608" fill-rule="evenodd" stroke="none" clip-path="url(#clip_1)" />
    <path d="M188.718 51L188.718 43.7273L191.065 43.7273C191.581 43.7273 192.012 43.8267 192.358 44.0256C192.706 44.2221 192.967 44.4896 193.143 44.8281C193.32 45.1667 193.409 45.5478 193.409 45.9716C193.409 46.3954 193.321 46.7777 193.146 47.1186C192.971 47.4571 192.711 47.7259 192.365 47.9247C192.019 48.1212 191.59 48.2195 191.076 48.2195L189.229 48.2195L189.229 47.6229L191.058 47.6229C191.439 47.6229 191.755 47.5518 192.006 47.4098C192.257 47.2654 192.444 47.0689 192.567 46.8203C192.693 46.5717 192.756 46.2888 192.756 45.9716C192.756 45.6544 192.693 45.3714 192.567 45.1229C192.444 44.8743 192.256 44.679 192.003 44.5369C191.752 44.3949 191.433 44.3239 191.047 44.3239L189.382 44.3239L189.382 51L188.718 51L188.718 51ZM194.968 51L194.968 43.7273L199.187 43.7273L199.187 44.3239L195.632 44.3239L195.632 47.0618L198.963 47.0618L198.963 47.6584L195.632 47.6584L195.632 50.4034L199.258 50.4034L199.258 51L194.968 51L194.968 51ZM200.905 51L200.905 43.7273L203.253 43.7273C203.769 43.7273 204.2 43.8208 204.545 44.0078C204.893 44.1925 205.155 44.4493 205.33 44.7784C205.508 45.1051 205.596 45.4804 205.596 45.9041C205.596 46.3279 205.508 46.7019 205.33 47.0263C205.155 47.3506 204.894 47.6039 204.549 47.7862C204.203 47.9685 203.775 48.0597 203.263 48.0597L201.264 48.0597L201.264 47.4524L203.246 47.4524C203.624 47.4524 203.939 47.3897 204.19 47.2642C204.443 47.1387 204.632 46.96 204.755 46.728C204.88 46.496 204.943 46.2214 204.943 45.9041C204.943 45.5869 204.88 45.3099 204.755 45.0732C204.629 44.834 204.44 44.6494 204.187 44.5192C203.936 44.389 203.618 44.3239 203.235 44.3239L201.569 44.3239L201.569 51L200.905 51L200.905 51ZM204.112 47.7188L205.902 51L205.135 51L203.363 47.7188L204.112 47.7188L204.112 47.7188Z" id="Şekil" fill="#3C3C43" fill-opacity="0.3019608" fill-rule="evenodd" stroke="none" clip-path="url(#clip_1)" />
    <path d="M246.909 46L246.241 46C246.192 45.7514 246.102 45.5218 245.972 45.3111C245.844 45.098 245.683 44.9122 245.489 44.7536C245.294 44.5949 245.074 44.4718 244.828 44.3842C244.582 44.2966 244.315 44.2528 244.029 44.2528C243.57 44.2528 243.151 44.3724 242.772 44.6115C242.396 44.8506 242.094 45.2022 241.866 45.6662C241.641 46.1278 241.529 46.6937 241.529 47.3636C241.529 48.0384 241.641 48.6065 241.866 49.0682C242.094 49.5298 242.396 49.8802 242.772 50.1193C243.151 50.3561 243.57 50.4744 244.029 50.4744C244.315 50.4744 244.582 50.4306 244.828 50.343C245.074 50.2554 245.294 50.1335 245.489 49.9773C245.683 49.8187 245.844 49.6328 245.972 49.4197C246.102 49.2067 246.192 48.9759 246.241 48.7273L246.909 48.7273C246.85 49.0611 246.739 49.3724 246.575 49.6612C246.414 49.9477 246.208 50.1986 245.957 50.4141C245.709 50.6295 245.422 50.7976 245.098 50.9183C244.774 51.0391 244.417 51.0994 244.029 51.0994C243.418 51.0994 242.876 50.9467 242.403 50.6413C241.929 50.3336 241.557 49.9003 241.288 49.3416C241.02 48.7829 240.886 48.1236 240.886 47.3636C240.886 46.6037 241.02 45.9444 241.288 45.3857C241.557 44.8269 241.929 44.3949 242.403 44.0895C242.876 43.7817 243.418 43.6278 244.029 43.6278C244.417 43.6278 244.774 43.6882 245.098 43.8089C245.422 43.9273 245.709 44.0954 245.957 44.3132C246.208 44.5286 246.414 44.7796 246.575 45.0661C246.739 45.3525 246.85 45.6638 246.909 46L246.909 46ZM253.316 43.7273L253.98 43.7273L253.98 48.5426C253.98 49.0374 253.864 49.4801 253.632 49.8707C253.4 50.259 253.077 50.5656 252.663 50.7905C252.251 51.013 251.771 51.1243 251.225 51.1243C250.68 51.1243 250.201 51.0118 249.786 50.7869C249.372 50.562 249.049 50.2554 248.817 49.8672C248.585 49.4789 248.469 49.0374 248.469 48.5426L248.469 43.7273L249.133 43.7273L249.133 48.4964C249.133 48.8823 249.219 49.2268 249.392 49.5298C249.565 49.8305 249.808 50.0672 250.12 50.2401C250.435 50.4129 250.803 50.4993 251.225 50.4993C251.646 50.4993 252.014 50.4129 252.329 50.2401C252.644 50.0672 252.886 49.8305 253.057 49.5298C253.23 49.2268 253.316 48.8823 253.316 48.4964L253.316 43.7273L253.316 43.7273ZM255.91 43.7273L256.677 43.7273L259.316 50.0625L259.38 50.0625L262.018 43.7273L262.785 43.7273L262.785 51L262.16 51L262.16 45.13L262.103 45.13L259.65 51L259.046 51L256.592 45.13L256.535 45.13L256.535 51L255.91 51L255.91 43.7273L255.91 43.7273Z" id="Şekil" fill="#3C3C43" fill-opacity="0.3019608" fill-rule="evenodd" stroke="none" clip-path="url(#clip_1)" />
    <path d="M246.909 46L246.241 46C246.192 45.7514 246.102 45.5218 245.972 45.3111C245.844 45.098 245.683 44.9122 245.489 44.7536C245.294 44.5949 245.074 44.4718 244.828 44.3842C244.582 44.2966 244.315 44.2528 244.029 44.2528C243.57 44.2528 243.151 44.3724 242.772 44.6115C242.396 44.8506 242.094 45.2022 241.866 45.6662C241.641 46.1278 241.529 46.6937 241.529 47.3636C241.529 48.0384 241.641 48.6065 241.866 49.0682C242.094 49.5298 242.396 49.8802 242.772 50.1193C243.151 50.3561 243.57 50.4744 244.029 50.4744C244.315 50.4744 244.582 50.4306 244.828 50.343C245.074 50.2554 245.294 50.1335 245.489 49.9773C245.683 49.8187 245.844 49.6328 245.972 49.4197C246.102 49.2067 246.192 48.9759 246.241 48.7273L246.909 48.7273C246.85 49.0611 246.739 49.3724 246.575 49.6612C246.414 49.9477 246.208 50.1986 245.957 50.4141C245.709 50.6295 245.422 50.7976 245.098 50.9183C244.774 51.0391 244.417 51.0994 244.029 51.0994C243.418 51.0994 242.876 50.9467 242.403 50.6413C241.929 50.3336 241.557 49.9003 241.288 49.3416C241.02 48.7829 240.886 48.1236 240.886 47.3636C240.886 46.6037 241.02 45.9444 241.288 45.3857C241.557 44.8269 241.929 44.3949 242.403 44.0895C242.876 43.7817 243.418 43.6278 244.029 43.6278C244.417 43.6278 244.774 43.6882 245.098 43.8089C245.422 43.9273 245.709 44.0954 245.957 44.3132C246.208 44.5286 246.414 44.7796 246.575 45.0661C246.739 45.3525 246.85 45.6638 246.909 46L246.909 46ZM253.316 43.7273L253.98 43.7273L253.98 48.5426C253.98 49.0374 253.864 49.4801 253.632 49.8707C253.4 50.259 253.077 50.5656 252.663 50.7905C252.251 51.013 251.771 51.1243 251.225 51.1243C250.68 51.1243 250.201 51.0118 249.786 50.7869C249.372 50.562 249.049 50.2554 248.817 49.8672C248.585 49.4789 248.469 49.0374 248.469 48.5426L248.469 43.7273L249.133 43.7273L249.133 48.4964C249.133 48.8823 249.219 49.2268 249.392 49.5298C249.565 49.8305 249.808 50.0672 250.12 50.2401C250.435 50.4129 250.803 50.4993 251.225 50.4993C251.646 50.4993 252.014 50.4129 252.329 50.2401C252.644 50.0672 252.886 49.8305 253.057 49.5298C253.23 49.2268 253.316 48.8823 253.316 48.4964L253.316 43.7273L253.316 43.7273ZM255.91 43.7273L256.677 43.7273L259.316 50.0625L259.38 50.0625L262.018 43.7273L262.785 43.7273L262.785 51L262.16 51L262.16 45.13L262.103 45.13L259.65 51L259.046 51L256.592 45.13L256.535 45.13L256.535 51L255.91 51L255.91 43.7273L255.91 43.7273Z" id="Şekil" fill="#3C3C43" fill-opacity="0.3019608" fill-rule="evenodd" stroke="none" clip-path="url(#clip_1)" />
    <path d="M302.466 46L301.798 46C301.748 45.7514 301.658 45.5218 301.528 45.3111C301.4 45.098 301.239 44.9122 301.045 44.7536C300.851 44.5949 300.631 44.4718 300.385 44.3842C300.138 44.2966 299.872 44.2528 299.586 44.2528C299.126 44.2528 298.707 44.3724 298.329 44.6115C297.952 44.8506 297.65 45.2022 297.423 45.6662C297.198 46.1278 297.086 46.6937 297.086 47.3636C297.086 48.0384 297.198 48.6065 297.423 49.0682C297.65 49.5298 297.952 49.8802 298.329 50.1193C298.707 50.3561 299.126 50.4744 299.586 50.4744C299.872 50.4744 300.138 50.4306 300.385 50.343C300.631 50.2554 300.851 50.1335 301.045 49.9773C301.239 49.8187 301.4 49.6328 301.528 49.4197C301.658 49.2067 301.748 48.9759 301.798 48.7273L302.466 48.7273C302.406 49.0611 302.295 49.3724 302.132 49.6612C301.971 49.9477 301.765 50.1986 301.514 50.4141C301.265 50.6295 300.979 50.7976 300.655 50.9183C300.33 51.0391 299.974 51.0994 299.586 51.0994C298.975 51.0994 298.433 50.9467 297.959 50.6413C297.486 50.3336 297.114 49.9003 296.844 49.3416C296.577 48.7829 296.443 48.1236 296.443 47.3636C296.443 46.6037 296.577 45.9444 296.844 45.3857C297.114 44.8269 297.486 44.3949 297.959 44.0895C298.433 43.7817 298.975 43.6278 299.586 43.6278C299.974 43.6278 300.33 43.6882 300.655 43.8089C300.979 43.9273 301.265 44.0954 301.514 44.3132C301.765 44.5286 301.971 44.7796 302.132 45.0661C302.295 45.3525 302.406 45.6638 302.466 46L302.466 46ZM304.025 43.7273L304.793 43.7273L307.431 50.0625L307.495 50.0625L310.133 43.7273L310.9 43.7273L310.9 51L310.275 51L310.275 45.13L310.219 45.13L307.765 51L307.161 51L304.707 45.13L304.65 45.13L304.65 51L304.025 51L304.025 43.7273L304.025 43.7273ZM312.394 44.3239L312.394 43.7273L317.667 43.7273L317.667 44.3239L315.362 44.3239L315.362 51L314.698 51L314.698 44.3239L312.394 44.3239L312.394 44.3239Z" id="Şekil" fill="#3C3C43" fill-opacity="0.3019608" fill-rule="evenodd" stroke="none" clip-path="url(#clip_1)" />
    <path d="M302.466 46L301.798 46C301.748 45.7514 301.658 45.5218 301.528 45.3111C301.4 45.098 301.239 44.9122 301.045 44.7536C300.851 44.5949 300.631 44.4718 300.385 44.3842C300.138 44.2966 299.872 44.2528 299.586 44.2528C299.126 44.2528 298.707 44.3724 298.329 44.6115C297.952 44.8506 297.65 45.2022 297.423 45.6662C297.198 46.1278 297.086 46.6937 297.086 47.3636C297.086 48.0384 297.198 48.6065 297.423 49.0682C297.65 49.5298 297.952 49.8802 298.329 50.1193C298.707 50.3561 299.126 50.4744 299.586 50.4744C299.872 50.4744 300.138 50.4306 300.385 50.343C300.631 50.2554 300.851 50.1335 301.045 49.9773C301.239 49.8187 301.4 49.6328 301.528 49.4197C301.658 49.2067 301.748 48.9759 301.798 48.7273L302.466 48.7273C302.406 49.0611 302.295 49.3724 302.132 49.6612C301.971 49.9477 301.765 50.1986 301.514 50.4141C301.265 50.6295 300.979 50.7976 300.655 50.9183C300.33 51.0391 299.974 51.0994 299.586 51.0994C298.975 51.0994 298.433 50.9467 297.959 50.6413C297.486 50.3336 297.114 49.9003 296.844 49.3416C296.577 48.7829 296.443 48.1236 296.443 47.3636C296.443 46.6037 296.577 45.9444 296.844 45.3857C297.114 44.8269 297.486 44.3949 297.959 44.0895C298.433 43.7817 298.975 43.6278 299.586 43.6278C299.974 43.6278 300.33 43.6882 300.655 43.8089C300.979 43.9273 301.265 44.0954 301.514 44.3132C301.765 44.5286 301.971 44.7796 302.132 45.0661C302.295 45.3525 302.406 45.6638 302.466 46L302.466 46ZM304.025 43.7273L304.793 43.7273L307.431 50.0625L307.495 50.0625L310.133 43.7273L310.9 43.7273L310.9 51L310.275 51L310.275 45.13L310.219 45.13L307.765 51L307.161 51L304.707 45.13L304.65 45.13L304.65 51L304.025 51L304.025 43.7273L304.025 43.7273ZM312.394 44.3239L312.394 43.7273L317.667 43.7273L317.667 44.3239L315.362 44.3239L315.362 51L314.698 51L314.698 44.3239L312.394 44.3239L312.394 44.3239Z" id="Şekil" fill="#3C3C43" fill-opacity="0.3019608" fill-rule="evenodd" stroke="none" clip-path="url(#clip_1)" />
    <path d="M353.84 51L353.84 43.7273L356.187 43.7273C356.703 43.7273 357.134 43.8267 357.48 44.0256C357.828 44.2221 358.089 44.4896 358.265 44.8281C358.442 45.1667 358.531 45.5478 358.531 45.9716C358.531 46.3954 358.443 46.7777 358.268 47.1186C358.093 47.4571 357.833 47.7259 357.487 47.9247C357.141 48.1212 356.712 48.2195 356.198 48.2195L354.351 48.2195L354.351 47.6229L356.18 47.6229C356.561 47.6229 356.877 47.5518 357.128 47.4098C357.379 47.2654 357.566 47.0689 357.689 46.8203C357.815 46.5717 357.878 46.2888 357.878 45.9716C357.878 45.6544 357.815 45.3714 357.689 45.1229C357.566 44.8743 357.378 44.679 357.125 44.5369C356.874 44.3949 356.555 44.3239 356.169 44.3239L354.504 44.3239L354.504 51L353.84 51L353.84 51ZM359.358 51L358.662 51L361.308 43.7273L362.018 43.7273L364.664 51L363.968 51L361.688 44.5902L361.638 44.5902L359.358 51L359.358 51ZM359.859 48.2124L363.467 48.2124L363.467 48.8089L359.859 48.8089L359.859 48.2124L359.859 48.2124ZM365.623 51L365.623 50.4993L369.66 44.3239L365.601 44.3239L365.601 43.7273L370.452 43.7273L370.452 44.228L366.411 50.4034L370.488 50.4034L370.488 51L365.623 51L365.623 51Z" id="Şekil" fill="#3C3C43" fill-opacity="0.3019608" fill-rule="evenodd" stroke="none" clip-path="url(#clip_1)" />
    <path d="M353.84 51L353.84 43.7273L356.187 43.7273C356.703 43.7273 357.134 43.8267 357.48 44.0256C357.828 44.2221 358.089 44.4896 358.265 44.8281C358.442 45.1667 358.531 45.5478 358.531 45.9716C358.531 46.3954 358.443 46.7777 358.268 47.1186C358.093 47.4571 357.833 47.7259 357.487 47.9247C357.141 48.1212 356.712 48.2195 356.198 48.2195L354.351 48.2195L354.351 47.6229L356.18 47.6229C356.561 47.6229 356.877 47.5518 357.128 47.4098C357.379 47.2654 357.566 47.0689 357.689 46.8203C357.815 46.5717 357.878 46.2888 357.878 45.9716C357.878 45.6544 357.815 45.3714 357.689 45.1229C357.566 44.8743 357.378 44.679 357.125 44.5369C356.874 44.3949 356.555 44.3239 356.169 44.3239L354.504 44.3239L354.504 51L353.84 51L353.84 51ZM359.358 51L358.662 51L361.308 43.7273L362.018 43.7273L364.664 51L363.968 51L361.688 44.5902L361.638 44.5902L359.358 51L359.358 51ZM359.859 48.2124L363.467 48.2124L363.467 48.8089L359.859 48.8089L359.859 48.2124L359.859 48.2124ZM365.623 51L365.623 50.4993L369.66 44.3239L365.601 44.3239L365.601 43.7273L370.452 43.7273L370.452 44.228L366.411 50.4034L370.488 50.4034L370.488 51L365.623 51L365.623 51Z" id="Şekil" fill="#3C3C43" fill-opacity="0.3019608" fill-rule="evenodd" stroke="none" clip-path="url(#clip_1)" />
    <path d="M31.9995 77.1094C31.5099 77.1094 31.0698 77.0156 30.6792 76.8281C30.2912 76.638 29.9813 76.3776 29.7495 76.0469C29.5177 75.7161 29.394 75.3385 29.3784 74.9141L30.5503 74.9141C30.5789 75.2578 30.7313 75.5404 31.0073 75.7617C31.2834 75.9831 31.6141 76.0937 31.9995 76.0937C32.3068 76.0937 32.5789 76.0234 32.8159 75.8828C33.0555 75.7396 33.243 75.543 33.3784 75.293C33.5164 75.043 33.5854 74.7578 33.5854 74.4375C33.5854 74.112 33.5151 73.8216 33.3745 73.5664C33.2339 73.3112 33.0399 73.1107 32.7925 72.9648C32.5477 72.819 32.2664 72.7448 31.9487 72.7422C31.7065 72.7422 31.4631 72.7839 31.2183 72.8672C30.9735 72.9505 30.7756 73.0599 30.6245 73.1953L29.519 73.0312L29.9683 69L34.3667 69L34.3667 70.0352L30.9722 70.0352L30.7183 72.2734L30.7651 72.2734C30.9214 72.1224 31.1284 71.9961 31.3862 71.8945C31.6466 71.793 31.9253 71.7422 32.2222 71.7422C32.7091 71.7422 33.1427 71.8581 33.5229 72.0898C33.9058 72.3216 34.2065 72.638 34.4253 73.0391C34.6466 73.4375 34.756 73.8958 34.7534 74.4141C34.756 74.9323 34.6388 75.3945 34.4019 75.8008C34.1675 76.207 33.842 76.5273 33.4253 76.7617C33.0112 76.9935 32.536 77.1094 31.9995 77.1094L31.9995 77.1094Z" id="Şekil" fill="#6B52F5" stroke="none" clip-path="url(#clip_1)" />
    <path d="M31.9995 77.1094C31.5099 77.1094 31.0698 77.0156 30.6792 76.8281C30.2912 76.638 29.9813 76.3776 29.7495 76.0469C29.5177 75.7161 29.394 75.3385 29.3784 74.9141L30.5503 74.9141C30.5789 75.2578 30.7313 75.5404 31.0073 75.7617C31.2834 75.9831 31.6141 76.0937 31.9995 76.0937C32.3068 76.0937 32.5789 76.0234 32.8159 75.8828C33.0555 75.7396 33.243 75.543 33.3784 75.293C33.5164 75.043 33.5854 74.7578 33.5854 74.4375C33.5854 74.112 33.5151 73.8216 33.3745 73.5664C33.2339 73.3112 33.0399 73.1107 32.7925 72.9648C32.5477 72.819 32.2664 72.7448 31.9487 72.7422C31.7065 72.7422 31.4631 72.7839 31.2183 72.8672C30.9735 72.9505 30.7756 73.0599 30.6245 73.1953L29.519 73.0312L29.9683 69L34.3667 69L34.3667 70.0352L30.9722 70.0352L30.7183 72.2734L30.7651 72.2734C30.9214 72.1224 31.1284 71.9961 31.3862 71.8945C31.6466 71.793 31.9253 71.7422 32.2222 71.7422C32.7091 71.7422 33.1427 71.8581 33.5229 72.0898C33.9058 72.3216 34.2065 72.638 34.4253 73.0391C34.6466 73.4375 34.756 73.8958 34.7534 74.4141C34.756 74.9323 34.6388 75.3945 34.4019 75.8008C34.1675 76.207 33.842 76.5273 33.4253 76.7617C33.0112 76.9935 32.536 77.1094 31.9995 77.1094L31.9995 77.1094Z" id="Şekil" fill="#6B52F5" stroke="none" clip-path="url(#clip_1)" />
    <path d="M86.0659 77.1094C85.7091 77.1042 85.3576 77.0391 85.0112 76.9141C84.6675 76.7891 84.355 76.5807 84.0737 76.2891C83.7925 75.9974 83.5672 75.6055 83.3979 75.1133C83.2313 74.6211 83.1479 74.0065 83.1479 73.2695C83.1479 72.5716 83.217 71.9518 83.355 71.4102C83.4956 70.8685 83.6974 70.4115 83.9604 70.0391C84.2235 69.6641 84.5412 69.3789 84.9136 69.1836C85.286 68.9883 85.7039 68.8906 86.1675 68.8906C86.644 68.8906 87.0672 68.9844 87.437 69.1719C87.8068 69.3594 88.1063 69.6185 88.3354 69.9492C88.5672 70.2799 88.7144 70.6562 88.7769 71.0781L87.5854 71.0781C87.5047 70.7448 87.3446 70.4727 87.105 70.2617C86.8654 70.0508 86.5529 69.9453 86.1675 69.9453C85.5815 69.9453 85.1245 70.2005 84.7964 70.7109C84.4709 71.2214 84.3068 71.931 84.3042 72.8398L84.3628 72.8398C84.5008 72.6133 84.6701 72.4206 84.8706 72.2617C85.0737 72.1003 85.3003 71.9766 85.5503 71.8906C85.8029 71.8021 86.0685 71.7578 86.3472 71.7578C86.8107 71.7578 87.23 71.8711 87.605 72.0977C87.9826 72.3216 88.2834 72.6315 88.5073 73.0273C88.7313 73.4232 88.8433 73.8763 88.8433 74.3867C88.8433 74.8971 88.7274 75.3594 88.4956 75.7734C88.2664 76.1875 87.9435 76.5156 87.5269 76.7578C87.1102 76.9974 86.6232 77.1146 86.0659 77.1094L86.0659 77.1094ZM86.062 76.0937C86.3693 76.0937 86.644 76.0182 86.8862 75.8672C87.1284 75.7161 87.3198 75.513 87.4604 75.2578C87.6011 75.0026 87.6714 74.7174 87.6714 74.4023C87.6714 74.0951 87.6024 73.8151 87.4644 73.5625C87.3289 73.3099 87.1414 73.1094 86.9019 72.9609C86.6649 72.8125 86.394 72.7383 86.0894 72.7383C85.8576 72.7383 85.6427 72.7826 85.4448 72.8711C85.2495 72.9596 85.0776 73.082 84.9292 73.2383C84.7808 73.3945 84.6636 73.5742 84.5776 73.7773C84.4943 73.9779 84.4526 74.1901 84.4526 74.4141C84.4526 74.7135 84.5216 74.9909 84.6597 75.2461C84.8003 75.5013 84.9917 75.707 85.2339 75.8633C85.4787 76.0169 85.7547 76.0937 86.062 76.0937L86.062 76.0937Z" id="Şekil" fill="#FECB51" fill-rule="evenodd" stroke="none" clip-path="url(#clip_1)" />
    <path d="M86.0659 77.1094C85.7091 77.1042 85.3576 77.0391 85.0112 76.9141C84.6675 76.7891 84.355 76.5807 84.0737 76.2891C83.7925 75.9974 83.5672 75.6055 83.3979 75.1133C83.2313 74.6211 83.1479 74.0065 83.1479 73.2695C83.1479 72.5716 83.217 71.9518 83.355 71.4102C83.4956 70.8685 83.6974 70.4115 83.9604 70.0391C84.2235 69.6641 84.5412 69.3789 84.9136 69.1836C85.286 68.9883 85.7039 68.8906 86.1675 68.8906C86.644 68.8906 87.0672 68.9844 87.437 69.1719C87.8068 69.3594 88.1063 69.6185 88.3354 69.9492C88.5672 70.2799 88.7144 70.6562 88.7769 71.0781L87.5854 71.0781C87.5047 70.7448 87.3446 70.4727 87.105 70.2617C86.8654 70.0508 86.5529 69.9453 86.1675 69.9453C85.5815 69.9453 85.1245 70.2005 84.7964 70.7109C84.4709 71.2214 84.3068 71.931 84.3042 72.8398L84.3628 72.8398C84.5008 72.6133 84.6701 72.4206 84.8706 72.2617C85.0737 72.1003 85.3003 71.9766 85.5503 71.8906C85.8029 71.8021 86.0685 71.7578 86.3472 71.7578C86.8107 71.7578 87.23 71.8711 87.605 72.0977C87.9826 72.3216 88.2834 72.6315 88.5073 73.0273C88.7313 73.4232 88.8433 73.8763 88.8433 74.3867C88.8433 74.8971 88.7274 75.3594 88.4956 75.7734C88.2664 76.1875 87.9435 76.5156 87.5269 76.7578C87.1102 76.9974 86.6232 77.1146 86.0659 77.1094L86.0659 77.1094ZM86.062 76.0937C86.3693 76.0937 86.644 76.0182 86.8862 75.8672C87.1284 75.7161 87.3198 75.513 87.4604 75.2578C87.6011 75.0026 87.6714 74.7174 87.6714 74.4023C87.6714 74.0951 87.6024 73.8151 87.4644 73.5625C87.3289 73.3099 87.1414 73.1094 86.9019 72.9609C86.6649 72.8125 86.394 72.7383 86.0894 72.7383C85.8576 72.7383 85.6427 72.7826 85.4448 72.8711C85.2495 72.9596 85.0776 73.082 84.9292 73.2383C84.7808 73.3945 84.6636 73.5742 84.5776 73.7773C84.4943 73.9779 84.4526 74.1901 84.4526 74.4141C84.4526 74.7135 84.5216 74.9909 84.6597 75.2461C84.8003 75.5013 84.9917 75.707 85.2339 75.8633C85.4787 76.0169 85.7547 76.0937 86.062 76.0937L86.062 76.0937Z" id="Şekil" fill="#FECB51" fill-rule="evenodd" stroke="none" clip-path="url(#clip_1)" />
    <path d="M137.854 77L141.346 70.0937L141.346 70.0352L137.307 70.0352L137.307 69L142.596 69L142.596 70.0703L139.116 77L137.854 77L137.854 77Z" id="Şekil" fill="#000000" stroke="none" clip-path="url(#clip_1)" />
    <path d="M137.854 77L141.346 70.0937L141.346 70.0352L137.307 70.0352L137.307 69L142.596 69L142.596 70.0703L139.116 77L137.854 77L137.854 77Z" id="Şekil" fill="#000000" stroke="none" clip-path="url(#clip_1)" />
    <path d="M193.998 77.1094C193.438 77.1094 192.943 77.013 192.513 76.8203C192.086 76.6276 191.751 76.362 191.509 76.0234C191.267 75.6849 191.147 75.2995 191.15 74.8672C191.147 74.5286 191.216 74.2174 191.357 73.9336C191.5 73.6471 191.694 73.4089 191.939 73.2188C192.184 73.026 192.457 72.9036 192.759 72.8516L192.759 72.8047C192.361 72.7083 192.042 72.4948 191.802 72.1641C191.563 71.8333 191.444 71.4531 191.447 71.0234C191.444 70.6146 191.552 70.25 191.771 69.9297C191.992 69.6068 192.296 69.3529 192.681 69.168C193.067 68.9831 193.505 68.8906 193.998 68.8906C194.485 68.8906 194.919 68.9844 195.302 69.1719C195.688 69.3568 195.991 69.6107 196.212 69.9336C196.434 70.2539 196.546 70.6172 196.548 71.0234C196.546 71.4531 196.423 71.8333 196.181 72.1641C195.939 72.4948 195.624 72.7083 195.236 72.8047L195.236 72.8516C195.535 72.9036 195.805 73.026 196.044 73.2188C196.287 73.4089 196.479 73.6471 196.623 73.9336C196.768 74.2174 196.843 74.5286 196.845 74.8672C196.843 75.2995 196.72 75.6849 196.478 76.0234C196.236 76.362 195.9 76.6276 195.47 76.8203C195.043 77.013 194.552 77.1094 193.998 77.1094L193.998 77.1094ZM193.998 76.1211C194.328 76.1211 194.615 76.0664 194.857 75.957C195.099 75.8451 195.287 75.6901 195.419 75.4922C195.552 75.2917 195.62 75.0573 195.623 74.7891C195.62 74.5104 195.547 74.2643 195.404 74.0508C195.263 73.8372 195.072 73.6693 194.83 73.5469C194.587 73.4245 194.31 73.3633 193.998 73.3633C193.682 73.3633 193.403 73.4245 193.158 73.5469C192.913 73.6693 192.72 73.8372 192.58 74.0508C192.439 74.2643 192.37 74.5104 192.373 74.7891C192.37 75.0573 192.434 75.2917 192.564 75.4922C192.697 75.6901 192.886 75.8451 193.13 75.957C193.375 76.0664 193.664 76.1211 193.998 76.1211L193.998 76.1211ZM193.998 72.3984C194.263 72.3984 194.499 72.3451 194.705 72.2383C194.91 72.1315 195.072 71.9831 195.189 71.793C195.309 71.6029 195.37 71.3802 195.373 71.125C195.37 70.875 195.31 70.6563 195.193 70.4688C195.078 70.2812 194.918 70.1367 194.712 70.0352C194.507 69.931 194.268 69.8789 193.998 69.8789C193.722 69.8789 193.479 69.931 193.271 70.0352C193.065 70.1367 192.905 70.2812 192.791 70.4688C192.676 70.6563 192.62 70.875 192.623 71.125C192.62 71.3802 192.677 71.6029 192.794 71.793C192.912 71.9831 193.073 72.1315 193.279 72.2383C193.487 72.3451 193.727 72.3984 193.998 72.3984L193.998 72.3984Z" id="Şekil" fill="#000000" fill-rule="evenodd" stroke="none" clip-path="url(#clip_1)" />
    <path d="M193.998 77.1094C193.438 77.1094 192.943 77.013 192.513 76.8203C192.086 76.6276 191.751 76.362 191.509 76.0234C191.267 75.6849 191.147 75.2995 191.15 74.8672C191.147 74.5286 191.216 74.2174 191.357 73.9336C191.5 73.6471 191.694 73.4089 191.939 73.2188C192.184 73.026 192.457 72.9036 192.759 72.8516L192.759 72.8047C192.361 72.7083 192.042 72.4948 191.802 72.1641C191.563 71.8333 191.444 71.4531 191.447 71.0234C191.444 70.6146 191.552 70.25 191.771 69.9297C191.992 69.6068 192.296 69.3529 192.681 69.168C193.067 68.9831 193.505 68.8906 193.998 68.8906C194.485 68.8906 194.919 68.9844 195.302 69.1719C195.688 69.3568 195.991 69.6107 196.212 69.9336C196.434 70.2539 196.546 70.6172 196.548 71.0234C196.546 71.4531 196.423 71.8333 196.181 72.1641C195.939 72.4948 195.624 72.7083 195.236 72.8047L195.236 72.8516C195.535 72.9036 195.805 73.026 196.044 73.2188C196.287 73.4089 196.479 73.6471 196.623 73.9336C196.768 74.2174 196.843 74.5286 196.845 74.8672C196.843 75.2995 196.72 75.6849 196.478 76.0234C196.236 76.362 195.9 76.6276 195.47 76.8203C195.043 77.013 194.552 77.1094 193.998 77.1094L193.998 77.1094ZM193.998 76.1211C194.328 76.1211 194.615 76.0664 194.857 75.957C195.099 75.8451 195.287 75.6901 195.419 75.4922C195.552 75.2917 195.62 75.0573 195.623 74.7891C195.62 74.5104 195.547 74.2643 195.404 74.0508C195.263 73.8372 195.072 73.6693 194.83 73.5469C194.587 73.4245 194.31 73.3633 193.998 73.3633C193.682 73.3633 193.403 73.4245 193.158 73.5469C192.913 73.6693 192.72 73.8372 192.58 74.0508C192.439 74.2643 192.37 74.5104 192.373 74.7891C192.37 75.0573 192.434 75.2917 192.564 75.4922C192.697 75.6901 192.886 75.8451 193.13 75.957C193.375 76.0664 193.664 76.1211 193.998 76.1211L193.998 76.1211ZM193.998 72.3984C194.263 72.3984 194.499 72.3451 194.705 72.2383C194.91 72.1315 195.072 71.9831 195.189 71.793C195.309 71.6029 195.37 71.3802 195.373 71.125C195.37 70.875 195.31 70.6563 195.193 70.4688C195.078 70.2812 194.918 70.1367 194.712 70.0352C194.507 69.931 194.268 69.8789 193.998 69.8789C193.722 69.8789 193.479 69.931 193.271 70.0352C193.065 70.1367 192.905 70.2812 192.791 70.4688C192.676 70.6563 192.62 70.875 192.623 71.125C192.62 71.3802 192.677 71.6029 192.794 71.793C192.912 71.9831 193.073 72.1315 193.279 72.2383C193.487 72.3451 193.727 72.3984 193.998 72.3984L193.998 72.3984Z" id="Şekil" fill="#000000" fill-rule="evenodd" stroke="none" clip-path="url(#clip_1)" />
    <path d="M250.933 68.8906C251.29 68.8932 251.641 68.9583 251.988 69.0859C252.334 69.2135 252.647 69.4219 252.925 69.7109C253.207 70 253.431 70.3906 253.597 70.8828C253.766 71.3724 253.852 71.9818 253.855 72.7109C253.855 73.4115 253.785 74.0352 253.644 74.582C253.503 75.1263 253.302 75.5859 253.039 75.9609C252.778 76.3359 252.462 76.6211 252.089 76.8164C251.717 77.0117 251.298 77.1094 250.832 77.1094C250.355 77.1094 249.932 77.0156 249.562 76.8281C249.192 76.6406 248.891 76.3815 248.66 76.0508C248.428 75.7174 248.283 75.3346 248.226 74.9023L249.417 74.9023C249.496 75.2461 249.654 75.5247 249.894 75.7383C250.136 75.9492 250.449 76.0547 250.832 76.0547C251.417 76.0547 251.875 75.7995 252.203 75.2891C252.531 74.776 252.696 74.0599 252.699 73.1406L252.636 73.1406C252.501 73.3646 252.332 73.5573 252.128 73.7187C251.928 73.8802 251.703 74.0052 251.453 74.0937C251.203 74.1823 250.936 74.2266 250.652 74.2266C250.191 74.2266 249.772 74.1133 249.394 73.8867C249.016 73.6602 248.716 73.349 248.492 72.9531C248.268 72.5573 248.156 72.1055 248.156 71.5977C248.156 71.0924 248.27 70.6341 248.5 70.2227C248.731 69.8112 249.054 69.4857 249.468 69.2461C249.885 69.0039 250.373 68.8854 250.933 68.8906L250.933 68.8906ZM250.937 69.9062C250.632 69.9062 250.358 69.9818 250.113 70.1328C249.871 70.2812 249.679 70.4831 249.539 70.7383C249.398 70.9909 249.328 71.2721 249.328 71.582C249.328 71.8919 249.395 72.1732 249.531 72.4258C249.669 72.6758 249.856 72.875 250.093 73.0234C250.333 73.1693 250.606 73.2422 250.914 73.2422C251.143 73.2422 251.356 73.1979 251.554 73.1094C251.752 73.0208 251.925 72.8984 252.074 72.7422C252.222 72.5833 252.338 72.4036 252.421 72.2031C252.505 72.0026 252.546 71.7917 252.546 71.5703C252.546 71.276 252.476 71.0026 252.335 70.75C252.197 70.4974 252.007 70.2943 251.765 70.1406C251.523 69.9844 251.247 69.9062 250.937 69.9062L250.937 69.9062Z" id="Şekil" fill="#000000" fill-rule="evenodd" stroke="none" clip-path="url(#clip_1)" />
    <path d="M250.933 68.8906C251.29 68.8932 251.641 68.9583 251.988 69.0859C252.334 69.2135 252.647 69.4219 252.925 69.7109C253.207 70 253.431 70.3906 253.597 70.8828C253.766 71.3724 253.852 71.9818 253.855 72.7109C253.855 73.4115 253.785 74.0352 253.644 74.582C253.503 75.1263 253.302 75.5859 253.039 75.9609C252.778 76.3359 252.462 76.6211 252.089 76.8164C251.717 77.0117 251.298 77.1094 250.832 77.1094C250.355 77.1094 249.932 77.0156 249.562 76.8281C249.192 76.6406 248.891 76.3815 248.66 76.0508C248.428 75.7174 248.283 75.3346 248.226 74.9023L249.417 74.9023C249.496 75.2461 249.654 75.5247 249.894 75.7383C250.136 75.9492 250.449 76.0547 250.832 76.0547C251.417 76.0547 251.875 75.7995 252.203 75.2891C252.531 74.776 252.696 74.0599 252.699 73.1406L252.636 73.1406C252.501 73.3646 252.332 73.5573 252.128 73.7187C251.928 73.8802 251.703 74.0052 251.453 74.0937C251.203 74.1823 250.936 74.2266 250.652 74.2266C250.191 74.2266 249.772 74.1133 249.394 73.8867C249.016 73.6602 248.716 73.349 248.492 72.9531C248.268 72.5573 248.156 72.1055 248.156 71.5977C248.156 71.0924 248.27 70.6341 248.5 70.2227C248.731 69.8112 249.054 69.4857 249.468 69.2461C249.885 69.0039 250.373 68.8854 250.933 68.8906L250.933 68.8906ZM250.937 69.9062C250.632 69.9062 250.358 69.9818 250.113 70.1328C249.871 70.2812 249.679 70.4831 249.539 70.7383C249.398 70.9909 249.328 71.2721 249.328 71.582C249.328 71.8919 249.395 72.1732 249.531 72.4258C249.669 72.6758 249.856 72.875 250.093 73.0234C250.333 73.1693 250.606 73.2422 250.914 73.2422C251.143 73.2422 251.356 73.1979 251.554 73.1094C251.752 73.0208 251.925 72.8984 252.074 72.7422C252.222 72.5833 252.338 72.4036 252.421 72.2031C252.505 72.0026 252.546 71.7917 252.546 71.5703C252.546 71.276 252.476 71.0026 252.335 70.75C252.197 70.4974 252.007 70.2943 251.765 70.1406C251.523 69.9844 251.247 69.9062 250.937 69.9062L250.937 69.9062Z" id="Şekil" fill="#000000" fill-rule="evenodd" stroke="none" clip-path="url(#clip_1)" />
    <path d="M302.655 69L302.655 77L301.444 77L301.444 70.2109L301.397 70.2109L299.483 71.4609L299.483 70.3047L301.479 69L302.655 69L302.655 69ZM307.604 77.1328C306.987 77.1302 306.459 76.9674 306.022 76.6445C305.584 76.3216 305.25 75.8516 305.018 75.2344C304.786 74.6172 304.67 73.8737 304.67 73.0039C304.67 72.1367 304.786 71.3958 305.018 70.7812C305.252 70.1667 305.588 69.6979 306.026 69.375C306.466 69.0521 306.992 68.8906 307.604 68.8906C308.216 68.8906 308.741 69.0534 309.178 69.3789C309.616 69.7018 309.95 70.1706 310.182 70.7852C310.417 71.3971 310.534 72.1367 310.534 73.0039C310.534 73.8763 310.418 74.6211 310.186 75.2383C309.954 75.8529 309.62 76.3229 309.182 76.6484C308.745 76.9714 308.219 77.1328 307.604 77.1328L307.604 77.1328ZM307.604 76.0898C308.146 76.0898 308.569 75.8255 308.874 75.2969C309.181 74.7682 309.334 74.0039 309.334 73.0039C309.334 72.3398 309.264 71.7786 309.124 71.3203C308.986 70.8594 308.786 70.5104 308.526 70.2734C308.268 70.0339 307.961 69.9141 307.604 69.9141C307.065 69.9141 306.642 70.1797 306.334 70.7109C306.027 71.2422 305.872 72.0065 305.87 73.0039C305.87 73.6706 305.939 74.2344 306.077 74.6953C306.217 75.1536 306.417 75.5013 306.674 75.7383C306.932 75.9727 307.242 76.0898 307.604 76.0898L307.604 76.0898Z" id="Şekil" fill="#000000" fill-rule="evenodd" stroke="none" clip-path="url(#clip_1)" />
    <path d="M302.655 69L302.655 77L301.444 77L301.444 70.2109L301.397 70.2109L299.483 71.4609L299.483 70.3047L301.479 69L302.655 69L302.655 69ZM307.604 77.1328C306.987 77.1302 306.459 76.9674 306.022 76.6445C305.584 76.3216 305.25 75.8516 305.018 75.2344C304.786 74.6172 304.67 73.8737 304.67 73.0039C304.67 72.1367 304.786 71.3958 305.018 70.7812C305.252 70.1667 305.588 69.6979 306.026 69.375C306.466 69.0521 306.992 68.8906 307.604 68.8906C308.216 68.8906 308.741 69.0534 309.178 69.3789C309.616 69.7018 309.95 70.1706 310.182 70.7852C310.417 71.3971 310.534 72.1367 310.534 73.0039C310.534 73.8763 310.418 74.6211 310.186 75.2383C309.954 75.8529 309.62 76.3229 309.182 76.6484C308.745 76.9714 308.219 77.1328 307.604 77.1328L307.604 77.1328ZM307.604 76.0898C308.146 76.0898 308.569 75.8255 308.874 75.2969C309.181 74.7682 309.334 74.0039 309.334 73.0039C309.334 72.3398 309.264 71.7786 309.124 71.3203C308.986 70.8594 308.786 70.5104 308.526 70.2734C308.268 70.0339 307.961 69.9141 307.604 69.9141C307.065 69.9141 306.642 70.1797 306.334 70.7109C306.027 71.2422 305.872 72.0065 305.87 73.0039C305.87 73.6706 305.939 74.2344 306.077 74.6953C306.217 75.1536 306.417 75.5013 306.674 75.7383C306.932 75.9727 307.242 76.0898 307.604 76.0898L307.604 76.0898Z" id="Şekil" fill="#000000" fill-rule="evenodd" stroke="none" clip-path="url(#clip_1)" />
    <path d="M360.605 69L360.605 77L359.395 77L359.395 70.2109L359.348 70.2109L357.434 71.4609L357.434 70.3047L359.43 69L360.605 69L360.605 69ZM365.805 69L365.805 77L364.594 77L364.594 70.2109L364.547 70.2109L362.633 71.4609L362.633 70.3047L364.629 69L365.805 69L365.805 69Z" id="Şekil" fill="#000000" fill-rule="evenodd" stroke="none" clip-path="url(#clip_1)" />
    <path d="M360.605 69L360.605 77L359.395 77L359.395 70.2109L359.348 70.2109L357.434 71.4609L357.434 70.3047L359.43 69L360.605 69L360.605 69ZM365.805 69L365.805 77L364.594 77L364.594 70.2109L364.547 70.2109L362.633 71.4609L362.633 70.3047L364.629 69L365.805 69L365.805 69Z" id="Şekil" fill="#000000" fill-rule="evenodd" stroke="none" clip-path="url(#clip_1)" />
    <path d="M4.37114e-08 94.5L396 94.5" id="Çizgi" fill="none" fill-rule="evenodd" stroke="#F0F0F0" stroke-width="1" clip-path="url(#clip_1)" />
    <path d="M4.37114e-08 94.5L396 94.5" id="Çizgi" fill="none" fill-rule="evenodd" stroke="#F0F0F0" stroke-width="1" clip-path="url(#clip_1)" />
    <g id="Maske-Grubu" clip-path="url(#clip_1)">
      <path d="M0 8L0 4C0 2.89543 0.390524 1.95262 1.17157 1.17157C1.95262 0.390524 2.89543 0 4 0L86 0C87.1046 0 88.0474 0.390524 88.8284 1.17157C89.6095 1.95262 90 2.89543 90 4L90 16C90 17.1046 89.6095 18.0474 88.8284 18.8284C88.0474 19.6095 87.1046 20 86 20L4 20C2.89543 20 1.95262 19.6095 1.17157 18.8284C0.390524 18.0474 0 17.1046 0 16L0 8Z" id="Çizgi" fill="none" fill-rule="evenodd" stroke="none" />
    </g>
    <g id="Maske-Grubu" clip-path="url(#clip_1)">
      <path d="M0 8L0 4C0 2.89543 0.390524 1.95262 1.17157 1.17157C1.95262 0.390524 2.89543 0 4 0L86 0C87.1046 0 88.0474 0.390524 88.8284 1.17157C89.6095 1.95262 90 2.89543 90 4L90 16C90 17.1046 89.6095 18.0474 88.8284 18.8284C88.0474 19.6095 87.1046 20 86 20L4 20C2.89543 20 1.95262 19.6095 1.17157 18.8284C0.390524 18.0474 0 17.1046 0 16L0 8Z" id="Çizgi" fill="none" fill-rule="evenodd" stroke="none" />
    </g>
  </g>
</svg>