<?xml version="1.0" encoding="utf-8"?>
<svg width="280.45117px" height="282.3311px" viewBox="0 0 280.45117 282.3311" version="1.1" xmlns:xlink="http://www.w3.org/1999/xlink" xmlns="http://www.w3.org/2000/svg">
  <g id="Grup">
    <path d="M126 66.331C126 66.331 131.522 62.723 130.54 47.823C130.54 47.823 139.274 51.911 148.802 45L151 66.159C151 66.159 144.394 73.663 137.467 72.935C130.54 72.208 126 66.331 126 66.331L126 66.331Z" id="Şekil" fill="#FBEFE3" fill-rule="evenodd" stroke="none" />
    <path d="M130.252 46.8709C135.899 49.5139 141.796 48.6019 148.009 44.0959C148.32 43.8699 148.76 44.0659 148.8 44.4489L150.997 65.6079C151.012 65.7469 150.967 65.8859 150.875 65.9909C146.373 71.1049 141.714 73.4379 136.915 72.9329C132.159 72.4339 128.213 70.1619 125.104 66.1379C124.926 65.9069 124.982 65.5729 125.227 65.4139C128.711 63.1369 130.185 57.1259 129.541 47.3569C129.516 46.9769 129.908 46.7099 130.252 46.8709L130.252 46.8709ZM149.979 65.4919L147.892 45.3999L147.48 45.6789C141.75 49.4699 136.192 50.3259 130.85 48.2169L130.588 48.1109L130.601 48.3399C131.066 57.3109 129.682 63.1429 126.367 65.8189L126.219 65.9339L126.457 66.2209C129.211 69.4849 132.586 71.3689 136.602 71.8899L137.019 71.9389C141.456 72.4049 145.819 70.2209 150.125 65.3299L149.979 65.4919L149.979 65.4919Z" id="Şekil-2" fill="#000000" fill-rule="evenodd" stroke="none" />
    <path d="M137.275 48.7613C127.182 48.7613 119 40.0853 119 29.381C119 18.677 127.182 10 137.275 10C147.368 10 155.55 18.677 155.55 29.381C155.55 40.0853 147.368 48.7613 137.275 48.7613L137.275 48.7613Z" id="Şekil-3" fill="#FBEFE3" fill-rule="evenodd" stroke="none" />
    <path d="M136.775 11C126.974 11 119 19.47 119 29.881C119 40.2923 126.974 48.7613 136.775 48.7613C146.576 48.7613 154.55 40.2923 154.55 29.881C154.55 19.47 146.576 11 136.775 11L136.775 11ZM136.775 49.7613C126.422 49.7613 118 40.8433 118 29.881C118 18.918 126.422 10 136.775 10C147.128 10 155.55 18.918 155.55 29.881C155.55 40.8433 147.128 49.7613 136.775 49.7613L136.775 49.7613Z" id="Şekil-4" fill="#000000" fill-rule="evenodd" stroke="none" />
    <path d="M139.443 28.9793L139.477 28.9793C139.768 28.9793 140.004 28.7446 140.004 28.4545C140.004 28.1644 139.768 27.9307 139.477 27.9307L139.318 27.9307L140.083 27.2993C140.308 27.1158 140.339 26.7837 140.153 26.5623C139.967 26.3368 139.635 26.3071 139.412 26.4916L137.667 27.9307L134.498 27.9307C134.206 27.9307 133.97 28.1644 133.97 28.4545C133.97 28.7446 134.206 28.9793 134.498 28.9793L137.682 28.9793L139.433 30.281C139.527 30.3518 139.637 30.3856 139.748 30.3856C139.908 30.3856 140.067 30.3128 140.17 30.1744C140.344 29.9418 140.296 29.6138 140.063 29.4405L139.443 28.9793L139.443 28.9793ZM139.05 37.9417C138.794 37.8057 138.476 37.8997 138.337 38.1577C137.417 39.8717 136.256 40.9257 134.889 41.2907C132.916 41.8197 131.124 40.7247 131.106 40.7137C130.863 40.5627 130.536 40.6357 130.38 40.8797C130.227 41.1257 130.299 41.4487 130.545 41.6007C130.617 41.6447 131.977 42.4857 133.764 42.4857C134.203 42.4857 134.669 42.4347 135.148 42.3087C136.815 41.8687 138.2 40.6387 139.267 38.6517C139.404 38.3967 139.307 38.0787 139.05 37.9417L139.05 37.9417ZM127.332 22.0001C127.249 22.0001 125.095 21.9662 123.183 23.6011C122.963 23.7907 122.937 24.1208 123.128 24.3412C123.232 24.4621 123.379 24.5226 123.527 24.5226C123.649 24.5226 123.771 24.4806 123.871 24.3965C125.457 23.0384 127.298 23.0527 127.308 23.0497L127.317 23.0497C127.604 23.0497 127.84 22.8221 127.845 22.5361C127.852 22.2471 127.623 22.0072 127.332 22.0001L127.332 22.0001ZM135.688 23.0497L135.696 23.0497C135.713 23.0466 137.546 23.0394 139.133 24.3965C139.233 24.4806 139.355 24.5226 139.477 24.5226C139.625 24.5226 139.772 24.4611 139.876 24.3412C140.067 24.1208 140.041 23.7907 139.821 23.6011C137.909 21.9652 135.767 22.0001 135.673 22.0001C135.383 22.0072 135.153 22.2481 135.159 22.5361C135.166 22.8221 135.401 23.0497 135.688 23.0497L135.688 23.0497ZM126.234 26.8955C125.634 26.8955 125.148 27.6652 125.148 28.6154C125.148 29.5635 125.634 30.3323 126.234 30.3323C126.834 30.3323 127.32 29.5635 127.32 28.6154C127.32 27.6652 126.834 26.8955 126.234 26.8955L126.234 26.8955ZM132.443 35.3447C132.705 35.3447 132.933 35.1497 132.965 34.8837C133 34.5957 132.794 34.3347 132.507 34.2987L129.875 33.9807L130.7 30.8591C130.773 30.5793 130.606 30.2923 130.324 30.2185C130.048 30.1416 129.755 30.3118 129.681 30.5926L128.702 34.2957C128.663 34.4427 128.69 34.5987 128.775 34.7247C128.86 34.8497 128.996 34.9317 129.148 34.9497L132.379 35.3407C132.4 35.3437 132.422 35.3447 132.443 35.3447L132.443 35.3447Z" id="Şekil-5" fill="#000000" fill-rule="evenodd" stroke="none" />
    <path d="M158.84 2.95071C145.973 -4.17029 134.07 3.83561 134.07 3.83561C117.422 4.14261 118.002 20.9837 118.002 20.9837L145.273 20.9837L145.55 23.4167L146.043 27.7297C147.037 27.5427 148.142 27.6637 149.465 29.2177C149.956 29.7937 150.304 30.5226 150.298 31.2787C150.284 33.2482 148.683 34.8412 146.71 34.8412C146.59 34.8412 146.478 34.8172 146.362 34.8052L146.735 43.0862L146.804 46.2912L161.599 46.2912C161.599 46.2912 177.913 13.5077 158.84 2.95071L158.84 2.95071Z" id="Şekil-6" fill="#FF5613" fill-rule="evenodd" stroke="none" />
    <path d="M146.819 46.268L160.791 46.268C162.312 43.047 175.603 13.5717 158.106 3.88767C145.674 -2.99134 133.987 4.67166 133.87 4.74966C133.788 4.80466 133.693 4.83466 133.594 4.83666C128.86 4.92366 125.11 6.39166 122.447 9.19966C118.525 13.3337 118.075 19.2307 118.03 20.9597L144.787 20.9597C145.048 20.9597 145.266 21.1557 145.296 21.4137L146.007 27.6447C146.934 27.5967 148.079 27.8597 149.37 29.3747C149.991 30.1047 150.331 30.9547 150.324 31.7727C150.309 33.954 148.571 35.74 146.413 35.839L146.76 43.551L146.819 46.268L146.819 46.268ZM161.113 47.291L146.318 47.291C146.04 47.291 145.812 47.069 145.806 46.79L145.737 43.585L145.364 35.318C145.358 35.169 145.416 35.025 145.524 34.923C145.632 34.82 145.779 34.767 145.928 34.786L146.062 34.803C146.116 34.81 146.169 34.819 146.224 34.819C147.908 34.819 149.289 33.45 149.3 31.7637C149.305 31.1947 149.053 30.5807 148.59 30.0387C147.385 28.6227 146.467 28.5687 145.652 28.7217C145.512 28.7487 145.367 28.7147 145.254 28.6307C145.139 28.5467 145.065 28.4177 145.049 28.2767L144.33 21.9837L117.516 21.9837C117.24 21.9837 117.014 21.7647 117.004 21.4907C116.993 21.1727 116.793 13.6717 121.704 8.49466C124.535 5.50966 128.48 3.93566 133.43 3.81667C134.784 2.96967 146.336 -3.79634 158.602 2.99266C177.88 13.6627 161.736 46.676 161.571 47.008C161.485 47.182 161.308 47.291 161.113 47.291L161.113 47.291Z" id="Şekil-7" fill="#000000" fill-rule="evenodd" stroke="none" />
    <path d="M277.314 242.541L268.805 227.651C262.761 217.076 258.591 205.505 256.79 193.458C250.975 154.561 238.682 118.527 225.526 98.2261C220.82 90.9651 215.639 84.8961 210.484 79.8691C198.029 67.7201 177.077 75.5791 175.797 92.9321C175.274 100.02 178.554 106.763 184.25 111.014C213.454 132.81 225.944 201.892 226.828 211.12C227.802 221.286 217.405 220.231 215.705 241.353C213.817 264.812 224.002 266.563 228.218 264.214C232.434 261.864 229.897 242.909 229.897 242.909C238.968 255.264 232.915 274.267 239.548 279.986C245.71 285.302 251.492 279.868 251.492 279.868C261.568 283.017 265.685 274.886 265.685 274.886C277.263 273.19 275.999 262.123 275.999 262.123C282.967 254.414 277.314 242.541 277.314 242.541L277.314 242.541ZM103.681 92.9321C102.401 75.5791 81.4487 67.7201 68.9937 79.8691C63.8387 84.8961 58.6577 90.9651 53.9517 98.2261C40.7957 118.527 28.5027 154.561 22.6887 193.458C20.8877 205.505 16.7169 217.076 10.6729 227.651L2.16386 242.541C2.16386 242.541 -3.48914 254.414 3.47887 262.123C3.47887 262.123 2.21587 273.19 13.7929 274.886C13.7929 274.886 17.9099 283.017 27.9857 279.868C27.9857 279.868 33.7677 285.302 39.9307 279.986C46.5627 274.267 40.5107 255.264 49.5817 242.909C49.5817 242.909 47.0437 261.864 51.2607 264.214C55.4767 266.563 65.6607 264.812 63.7727 241.353C62.0727 220.231 51.6757 221.286 52.6497 211.12C53.5337 201.892 66.0237 132.81 95.2287 111.014C100.925 106.763 104.204 100.02 103.681 92.9321L103.681 92.9321Z" id="Şekil-8" fill="#FBEFE3" fill-rule="evenodd" stroke="none" />
    <path d="M265.552 238.408C271.779 250.041 274.766 256.174 275.979 261.715C276.045 262.334 276.888 272.023 266.533 273.811C267.811 269.043 267.171 259.662 258.914 241.282C258.799 241.023 258.497 240.907 258.238 241.025C257.98 241.141 257.865 241.444 257.981 241.702C267.435 262.748 266.522 271.449 265.136 274.762C264.973 275.152 264.799 275.469 264.623 275.752C264.22 276.234 263.7 276.773 263.056 277.292C262.96 277.328 262.888 277.394 262.831 277.472C260.743 279.066 257.44 280.365 252.675 279.045C253.458 276.852 255.347 268.06 247.957 244.462C247.872 244.193 247.585 244.039 247.316 244.126C247.046 244.211 246.896 244.498 246.98 244.767C255.001 270.38 251.898 278.328 251.562 279.066C250.909 279.646 245.835 283.823 240.368 279.109C237.448 276.59 237.113 271.16 236.725 264.872C236.264 257.383 235.739 248.897 230.836 242.176C230.827 238.152 232.103 236.439 232.12 236.417C232.294 236.196 232.256 235.877 232.035 235.7C231.815 235.523 231.492 235.561 231.317 235.782C231.21 235.916 228.736 239.143 230.353 247.142C230.354 247.146 230.357 247.15 230.358 247.154C230.844 253.363 230.93 261.898 228.455 263.277C227.012 264.084 224.475 264.474 222.079 262.934C219.54 261.303 215.465 256.27 216.702 240.903C217.646 229.177 221.251 224.444 224.149 220.64C226.451 217.619 228.27 215.232 227.824 210.583C226.898 200.904 214.099 131.799 185.042 110.114C179.375 105.885 176.292 99.2921 176.794 92.4801C177.369 84.6781 182.265 78.1131 189.57 75.3461C196.916 72.5591 204.978 74.2481 210.614 79.7461C216.26 85.2551 221.297 91.4011 225.583 98.0141C239.198 119.023 251.148 155.437 256.77 193.045C258.549 204.941 262.613 216.507 268.847 227.417L277.338 242.271C277.391 242.383 282.394 253.148 276.747 260.516C275.383 255.108 272.368 248.972 266.454 237.924C266.321 237.675 266.012 237.578 265.762 237.715C265.512 237.847 265.418 238.158 265.552 238.408L265.552 238.408ZM278.245 241.797L269.736 226.909C263.564 216.109 259.542 204.665 257.782 192.892C252.14 155.15 240.131 118.582 226.442 97.4591C222.115 90.7801 217.03 84.5741 211.329 79.0121C205.406 73.2361 196.929 71.4651 189.207 74.3871C181.526 77.2981 176.378 84.2011 175.774 92.4041C175.245 99.5681 178.481 106.495 184.43 110.933C213.191 132.399 225.884 201.061 226.805 210.68C227.212 214.929 225.585 217.065 223.334 220.019C220.356 223.929 216.649 228.795 215.681 240.821C214.466 255.925 218.189 261.652 221.526 263.797C224.303 265.582 227.263 265.113 228.953 264.172C232.612 262.133 231.704 249.734 231.145 244.499C234.825 250.691 235.289 258.221 235.703 264.935C236.106 271.454 236.452 277.083 239.7 279.885C241.823 281.717 243.913 282.331 245.763 282.331C248.906 282.331 251.356 280.555 252.098 279.951C257.388 281.515 261.086 280.034 263.431 278.242C263.574 278.188 264.638 277.743 265.578 276.156C266.029 275.599 266.335 275.13 266.493 274.864C277.219 273.148 277.111 263.455 277.013 261.811C283.903 253.935 278.321 241.952 278.245 241.797L278.245 241.797ZM95.409 110.114C66.353 131.799 53.554 200.904 52.627 210.583C52.181 215.232 54 217.619 56.303 220.64C59.2 224.444 62.806 229.177 63.749 240.903C64.987 256.27 60.911 261.303 58.372 262.934C55.976 264.473 53.44 264.082 51.996 263.277C49.522 261.898 49.608 253.363 50.094 247.154C50.095 247.15 50.097 247.146 50.098 247.142C51.716 239.143 49.241 235.916 49.135 235.782C48.96 235.563 48.641 235.527 48.419 235.699C48.198 235.873 48.159 236.194 48.331 236.417C48.348 236.439 49.624 238.152 49.615 242.176C44.714 248.897 44.188 257.383 43.726 264.872C43.339 271.16 43.004 276.59 40.083 279.109C34.616 283.827 29.544 279.646 28.89 279.066C28.553 278.328 25.451 270.379 33.471 244.767C33.556 244.498 33.406 244.211 33.136 244.126C32.865 244.039 32.578 244.191 32.494 244.462C25.104 268.059 26.993 276.852 27.777 279.045C23.007 280.367 19.7023 279.065 17.6153 277.471C17.5583 277.391 17.4853 277.323 17.3873 277.287L17.3843 277.285C16.7483 276.771 16.2333 276.237 15.8333 275.758C15.6563 275.474 15.4803 275.156 15.3163 274.762C13.9303 271.449 13.0173 262.748 22.471 241.702C22.587 241.444 22.471 241.141 22.214 241.025C21.955 240.909 21.653 241.024 21.537 241.282C13.2813 259.662 12.6413 269.043 13.9183 273.812C3.57627 272.025 4.40427 262.358 4.47227 261.718C5.68427 256.176 8.67127 250.043 14.9003 238.408C15.0333 238.158 14.9403 237.847 14.6903 237.715C14.4403 237.578 14.1313 237.675 13.9973 237.924C8.08327 248.971 5.06827 255.107 3.70427 260.516C-1.94173 253.148 3.05927 242.385 3.09527 242.304L11.6043 227.417C17.8403 216.507 21.903 204.941 23.681 193.045C29.303 155.437 41.254 119.023 54.868 98.0141C59.155 91.4001 64.192 85.2551 69.838 79.7461C75.473 74.2481 83.538 72.5631 90.881 75.3461C98.187 78.1111 103.081 84.6781 103.657 92.4801C104.159 99.2921 101.076 105.885 95.409 110.114L95.409 110.114ZM91.244 74.3871C83.524 71.4631 75.047 73.2351 69.123 79.0121C63.422 84.5741 58.337 90.7801 54.01 97.4591C40.32 118.582 28.311 155.15 22.669 192.892C20.9093 204.665 16.8883 216.109 10.7153 226.909L2.18827 241.831C2.13127 241.952 -3.45073 253.935 3.43927 261.811C3.34127 263.455 3.23327 273.148 13.9583 274.864C14.1163 275.131 14.4243 275.601 14.8753 276.159C15.8143 277.74 16.8733 278.187 17.0203 278.241C19.3653 280.033 23.063 281.514 28.354 279.951C29.096 280.555 31.546 282.331 34.689 282.331C36.538 282.331 38.628 281.717 40.752 279.885C43.999 277.083 44.346 271.454 44.748 264.935C45.162 258.221 45.626 250.691 49.306 244.499C48.746 249.734 47.84 262.133 51.497 264.172C53.188 265.114 56.148 265.583 58.926 263.797C62.263 261.652 65.986 255.925 64.77 240.821C63.802 228.795 60.095 223.929 57.117 220.019C54.866 217.065 53.239 214.929 53.646 210.68C54.567 201.061 67.261 132.399 96.021 110.933C101.97 106.495 105.206 99.5681 104.678 92.4041C104.073 84.2011 98.926 77.2981 91.244 74.3871L91.244 74.3871Z" id="Şekil-9" fill="#000000" fill-rule="evenodd" stroke="none" />
    <path d="M263.285 186.756C263.285 186.756 257.675 175.875 245.294 127.013C232.913 78.151 187.7 67.271 187.7 67.271L187.7 67.272C181.161 65.186 174.356 63.833 167.401 63.283C167.369 63.281 167.338 63.277 167.306 63.275C166.248 63.192 165.186 63.133 164.121 63.087C164.013 63.083 163.905 63.073 163.797 63.068C162.63 63.024 161.459 63 160.286 63L153.06 63C153.059 63.004 153.056 63.007 153.054 63.01L152.998 63L152.997 63.001L152.991 63C151.056 67.075 146.265 69.966 140.642 69.98C135.02 69.966 130.229 67.075 128.294 63L128.288 63.001L128.287 63L128.231 63.01C128.229 63.007 128.226 63.004 128.225 63L120.999 63C119.826 63 118.655 63.024 117.488 63.068C117.38 63.073 117.272 63.083 117.164 63.087C116.099 63.133 115.037 63.192 113.978 63.275C113.947 63.277 113.916 63.281 113.884 63.283C106.929 63.833 100.123 65.186 93.5851 67.272L93.5851 67.271C93.5851 67.271 48.3711 78.151 35.9911 127.013C23.6101 175.875 18 186.756 18 186.756L61.1271 186.756C61.1271 186.756 68.6481 152.318 81.9641 132.634C80.9901 149.143 77.9461 175.627 77.9461 175.627L203.34 175.627C203.34 175.627 200.295 149.143 199.322 132.634C212.637 152.318 220.158 186.756 220.158 186.756L263.285 186.756L263.285 186.756Z" id="Şekil-10" fill="#4B69FD" fill-rule="evenodd" stroke="none" />
    <path d="M200.812 153.259L80 153.259L80.581 147L200.241 147L200.812 153.259L200.812 153.259Z" id="Şekil-11" fill="#FF4200" fill-rule="evenodd" stroke="none" />
    <path d="M201.964 159.26L80 159.26L80.581 153L201.393 153L201.964 159.26L201.964 159.26Z" id="Şekil-12" fill="#FFBA00" fill-rule="evenodd" stroke="none" />
    <path d="M220.079 185.76C219.181 181.83 211.7 150.255 199.257 131.863C199.195 131.77 199.105 131.704 199.005 131.669L197.377 114.525C197.35 114.243 197.108 114.045 196.819 114.064C196.537 114.09 196.331 114.34 196.358 114.621L199.127 143.777C199.134 143.854 199.162 143.923 199.2 143.987C199.274 144.848 199.349 145.713 199.426 146.58L80.8819 146.58C80.9259 146.093 80.9689 145.605 81.0109 145.118C81.0109 145.116 81.0128 145.113 81.0128 145.113L84.0629 114.601C84.0909 114.32 83.8859 114.069 83.6039 114.04C83.3248 114.015 83.0719 114.217 83.0439 114.498L81.3289 131.661C81.2179 131.695 81.1189 131.762 81.0509 131.863C68.6089 150.255 61.1269 181.83 60.2289 185.76L18.311 185.76C19.714 182.581 25.4249 168.385 35.9989 126.654C48.0009 79.2818 91.6299 67.6868 93.1779 67.2917C93.2039 67.2878 93.2279 67.2828 93.2519 67.2758C99.8029 65.1848 106.593 63.8498 113.53 63.2998C114.582 63.2178 115.639 63.1588 116.699 63.1138L117.02 63.0957C118.18 63.0508 119.344 63.0267 120.511 63.0267L127.488 63.0267C129.659 67.2648 134.589 69.9928 140.156 70.0068C145.72 69.9928 150.65 67.2648 152.821 63.0267L159.798 63.0267C160.965 63.0267 162.129 63.0508 163.289 63.0957L163.612 63.1148C164.67 63.1588 165.726 63.2178 166.77 63.2998C166.772 63.2998 166.87 63.3088 166.872 63.3088C173.715 63.8498 180.506 65.1848 187.057 67.2758C187.08 67.2828 187.105 67.2878 187.13 67.2917C188.668 67.6828 232.306 79.2767 244.309 126.654C254.883 168.385 260.594 182.581 261.997 185.76L220.079 185.76L220.079 185.76ZM78.0309 174.632C78.2299 172.864 78.8659 167.18 79.5869 160.099L200.722 160.099C201.442 167.18 202.079 172.864 202.278 174.632L78.0309 174.632L78.0309 174.632ZM199.992 152.815L80.3069 152.815L80.3169 152.711C80.4769 151.028 80.6369 149.317 80.7909 147.605L199.516 147.605L199.992 152.815L199.992 152.815ZM80.2069 153.864L200.09 153.864L200.566 159.074L79.7239 159.074L80.2069 153.864L80.2069 153.864ZM263.252 186.036C263.196 185.929 257.527 174.651 245.302 126.402C232.989 77.8018 187.787 66.3978 187.331 66.2868C187.329 66.2868 187.327 66.2858 187.327 66.2858C180.714 64.1797 173.86 62.8347 166.961 62.2888C166.958 62.2888 166.862 62.2808 166.858 62.2808C165.794 62.1968 164.726 62.1378 163.657 62.0918L163.328 62.0718C162.155 62.0278 160.978 62.0028 159.798 62.0028L152.572 62.0028C152.558 62.0028 152.544 62.0028 152.531 62.0038C152.309 61.9758 152.13 62.1078 152.04 62.2948C150.118 66.3457 145.452 68.9707 140.156 68.9837C134.857 68.9707 130.191 66.3457 128.268 62.2948C128.184 62.1168 127.996 62.0028 127.799 62.0028C127.784 62.0018 127.76 62.0018 127.737 62.0028L120.511 62.0028C119.33 62.0028 118.154 62.0278 116.981 62.0718L116.654 62.0908C115.583 62.1378 114.515 62.1968 113.356 62.2888C106.449 62.8347 99.5949 64.1797 92.9819 66.2858C92.9819 66.2858 92.9789 66.2868 92.9769 66.2868C92.5219 66.3978 47.3199 77.8018 35.0059 126.402C22.8009 174.573 17.113 185.929 17.057 186.038C16.975 186.196 16.982 186.386 17.075 186.538C17.167 186.691 17.333 186.783 17.511 186.783L60.6389 186.783C60.8789 186.783 61.0879 186.615 61.1389 186.38C61.2119 186.046 68.3869 153.644 80.8439 134.046C80.5789 138.102 80.2079 142.651 79.7989 147.203L79.2889 152.704C79.2709 152.896 79.2519 153.086 79.2339 153.278L79.2329 153.28L79.2239 153.376C78.1179 164.877 76.9669 174.923 76.9489 175.085C76.9319 175.231 76.9769 175.376 77.0749 175.485C77.1719 175.593 77.3109 175.656 77.4569 175.656L202.852 175.656C202.997 175.656 203.137 175.593 203.234 175.485C203.331 175.376 203.377 175.231 203.36 175.085C203.331 174.831 200.535 150.419 199.464 134.046C211.921 153.644 219.097 186.046 219.17 186.38C219.221 186.615 219.429 186.783 219.67 186.783L262.797 186.783C262.976 186.783 263.142 186.691 263.234 186.538C263.327 186.386 263.334 186.196 263.252 186.036L263.252 186.036Z" id="Şekil-13" fill="#000000" fill-rule="evenodd" stroke="none" />
  </g>
</svg>