<svg width="66" height="66" viewBox="0 0 66 66" fill="none" xmlns="http://www.w3.org/2000/svg">
<g clip-path="url(#clip0_631_1730)">
<mask id="mask0_631_1730" style="mask-type:alpha" maskUnits="userSpaceOnUse" x="23" y="51" width="21" height="12">
<path fill-rule="evenodd" clip-rule="evenodd" d="M23.4405 51.3154H43.2377V62.9143H23.4405V51.3154Z" fill="white"/>
</mask>
<g mask="url(#mask0_631_1730)">
<path fill-rule="evenodd" clip-rule="evenodd" d="M43.2377 54.6528C43.2645 59.1819 38.8539 62.8807 33.3867 62.9143C27.9202 62.9472 23.4665 59.3026 23.4405 54.7735C23.4137 50.2437 43.211 50.1237 43.2377 54.6528Z" fill="#EB004B"/>
</g>
<mask id="mask1_631_1730" style="mask-type:alpha" maskUnits="userSpaceOnUse" x="2" y="0" width="62" height="57">
<path fill-rule="evenodd" clip-rule="evenodd" d="M2.87042 0.571167H63.7865V56.0262H2.87042V0.571167Z" fill="white"/>
</mask>
<g mask="url(#mask1_631_1730)">
<path fill-rule="evenodd" clip-rule="evenodd" d="M35.0132 7.21291C35.0077 7.25543 34.9988 7.38571 34.9796 7.46457C34.9776 7.47417 34.9741 7.48308 34.9707 7.492C34.9152 7.63874 34.8589 7.78548 34.7897 7.92674C34.7821 7.94251 34.7718 7.9576 34.7616 7.97268C34.7444 7.99531 34.5764 8.23257 34.4756 8.34366C34.4694 8.35051 34.4633 8.35668 34.4571 8.36286C34.3357 8.476 34.2027 8.5768 34.0649 8.66868C34.0491 8.67966 34.032 8.68926 34.0141 8.69749C34.0107 8.69955 34.0066 8.70091 34.0032 8.70228C33.9024 8.74685 33.6905 8.83874 33.589 8.87988C33.5842 8.88125 33.5801 8.88331 33.5753 8.88469C33.5657 8.8888 33.5561 8.89154 33.5472 8.89428C33.5369 8.89702 33.5273 8.89909 33.5177 8.90114C33.3565 8.93063 33.1947 8.95189 33.0322 8.96903C33.0109 8.97109 32.9904 8.97108 32.9698 8.96971C32.9664 8.96902 32.9622 8.96902 32.9588 8.96834C32.858 8.95737 32.5974 8.92445 32.4966 8.90937C32.4912 8.90868 32.4864 8.908 32.4809 8.90663C32.4706 8.90457 32.4603 8.90252 32.45 8.89977C32.439 8.89635 32.4281 8.89223 32.4171 8.88812C32.319 8.84903 32.0962 8.75783 32.0002 8.71532C31.9981 8.71463 31.9954 8.71326 31.9926 8.71189C31.9878 8.70983 31.983 8.70709 31.9776 8.70503C31.9673 8.69955 31.957 8.69337 31.9467 8.68651C31.9419 8.68308 31.9371 8.67966 31.9323 8.67623C31.8425 8.61108 31.6662 8.476 31.5785 8.40743C31.5757 8.40469 31.573 8.40263 31.5702 8.40058C31.5504 8.38412 31.5318 8.36628 31.5154 8.3464C31.4118 8.22365 31.3104 8.09817 31.2178 7.96651C31.2096 7.95485 31.202 7.94182 31.1945 7.92948C31.0368 7.66205 30.9559 7.37268 30.9531 7.06205C30.973 6.90914 30.9929 6.75691 31.0121 6.604C31.0923 6.31188 31.239 6.05748 31.4516 5.84148C31.4694 5.82777 31.488 5.81405 31.5058 5.79965C31.5428 5.74274 31.5764 5.68308 31.623 5.63165C31.7437 5.44377 31.9042 5.29497 32.1051 5.18525C32.3026 5.0584 32.5158 4.98914 32.7456 4.97749C32.9746 4.92469 33.2043 4.9336 33.434 5.00423C33.456 5.0104 33.4772 5.01725 33.4985 5.02548C33.5088 5.02891 33.5184 5.03303 33.528 5.03646C33.6719 5.09474 33.8187 5.15234 33.96 5.21543C33.9915 5.22983 34.0224 5.24629 34.0505 5.26549C34.1842 5.356 34.3124 5.45474 34.4358 5.55829C34.4454 5.56652 34.455 5.57543 34.464 5.58503C34.573 5.70023 34.6649 5.83188 34.7588 5.95805C34.7657 5.96765 34.7719 5.97794 34.7773 5.98823C34.9453 6.29611 35.0475 6.60194 35.0448 6.95783C35.0441 7.03943 35.0187 7.17177 35.0132 7.21291ZM57.4416 43.1622L56.7236 43.1663L54.853 28.8218C53.5906 19.9425 48.7186 13.4954 41.3348 10.8822C41.4754 10.2637 41.5556 9.6232 41.5522 8.96148C41.5241 4.3 37.7108 0.542965 33.0349 0.57108C28.359 0.598508 24.5911 4.4008 24.6192 9.06229C24.6233 9.79806 24.7316 10.5071 24.9133 11.1866C17.5405 14.1126 12.578 20.8195 11.9883 29.0769L10.2061 43.4433L9.13916 43.4495C5.65641 43.4701 2.8491 46.3021 2.87036 49.7752C2.89093 53.2477 5.73184 56.0467 9.21459 56.0255L57.517 55.7382C61.0004 55.7176 63.807 52.8856 63.7865 49.4125C63.7652 45.94 60.925 43.1416 57.4416 43.1622Z" fill="#FFD400"/>
</g>
<path fill-rule="evenodd" clip-rule="evenodd" d="M16.1225 43.1616C15.7152 26.496 20.208 15.6534 29.4144 13.5291C25.0416 9.51081 27.3531 4.44132 30.2571 1.19995C27.1879 2.46989 25.032 5.51447 25.0526 9.06235C25.0574 9.79881 25.1643 10.5078 25.344 11.1881C18.0425 14.1161 13.1287 20.8271 12.5444 29.0907L10.7794 43.466L9.72341 43.4722C6.27358 43.4928 3.4937 46.3268 3.51427 49.802C3.53485 53.2772 6.34833 56.0777 9.79747 56.0571L12.9024 56.0386C7.72044 55.0422 6.12274 46.9727 13.0766 45.218C13.1129 45.2084 15.9147 43.25 16.1225 43.1616Z" fill="#FFDF00"/>
<path fill-rule="evenodd" clip-rule="evenodd" d="M57.6857 43.3995L56.9664 43.4043L57.0377 41.8635C56.2019 42.0953 26.326 44.8985 10.6512 41.6571L10.3715 43.6553C15.6165 46.1725 51.5884 46.8582 57.6857 43.3995Z" fill="white"/>
<path d="M50.5279 11.1723L53.8344 4.13919C54.0224 3.73936 53.8498 3.26326 53.4489 3.07581C53.048 2.88835 52.5705 3.06052 52.3826 3.46034L49.076 10.4935C48.8881 10.8933 49.0606 11.3694 49.4615 11.5569C49.8624 11.7444 50.3399 11.5722 50.5279 11.1723Z" fill="#EB004B"/>
<path d="M63.5556 7.80309L56.4967 12.8405C56.1368 13.0975 56.0538 13.5969 56.3113 13.956C56.5692 14.3151 57.0698 14.3979 57.43 14.1409L64.4888 9.10356C64.849 8.84661 64.9321 8.34716 64.6742 7.98801C64.4167 7.6289 63.9157 7.5461 63.5556 7.80309Z" fill="#EB004B"/>
<path d="M59.5832 22.4781L66.0135 22.3534C66.4561 22.3448 66.8082 21.9798 66.7996 21.5381C66.7909 21.0968 66.425 20.7459 65.9824 20.7546L59.5521 20.8793C59.1092 20.8876 58.7574 21.2525 58.766 21.6942C58.7744 22.1356 59.1403 22.4864 59.5832 22.4781Z" fill="#EB004B"/>
</g>
<defs>
<clipPath id="clip0_631_1730">
<rect width="66" height="66" fill="white"/>
</clipPath>
</defs>
</svg>
