<svg width="25" height="27" viewBox="0 0 25 27" fill="none" xmlns="http://www.w3.org/2000/svg">
<g clip-path="url(#clip0_860_5058)">
<path d="M13.9925 4.17339C13.2801 1.24895 10.0039 -0.776767 7.14045 0.2871C5.79168 0.788214 4.63221 1.80686 4.01061 3.13144C3.68623 3.82268 3.50346 4.55074 3.47812 5.31751C3.46241 5.79291 3.62282 6.55908 3.31143 6.84073C2.37368 7.68893 3.39037 9.03773 4.44951 8.82589C5.11155 8.69348 5.77358 8.56107 6.43562 8.42866L4.95493 7.28335C5.01811 10.5062 5.69408 13.7593 7.80239 16.2664C9.72645 18.5545 12.9316 19.768 15.8052 18.7536L14.3245 17.6083C14.6636 20.4588 15.83 23.2654 17.8956 25.2793C18.8881 26.2469 20.1628 26.9978 21.573 27C22.8939 27.0021 24.1553 26.364 24.8449 25.2062C25.0975 24.7822 25.0452 24.1058 24.662 23.7669C21.5557 21.0198 21.5436 16.4216 20.4543 12.6901C19.3213 8.8094 16.8477 5.48467 13.4613 3.34334C12.1797 2.53292 11.0038 4.58718 12.2805 5.39448C15.5174 7.44125 17.5665 10.6479 18.477 14.3671C19.4283 18.2532 19.8367 22.6423 23.0078 25.4466L22.8249 24.0073C22.5238 24.5128 21.8873 24.6884 21.3426 24.619C20.397 24.4984 19.6229 23.7342 19.0283 23.0407C17.7441 21.5428 16.8984 19.579 16.664 17.6083C16.58 16.9022 15.9769 16.1828 15.1833 16.463C12.9877 17.238 10.739 16.23 9.34116 14.4463C7.76327 12.433 7.34343 9.78473 7.29439 7.28335C7.27841 6.46843 6.56287 5.9882 5.8137 6.13804C5.15166 6.27046 4.48963 6.40287 3.8276 6.53528L4.96568 8.52044C6.01404 7.5722 5.67697 6.30807 5.832 5.07048C5.94715 4.15118 6.54504 3.29843 7.3164 2.817C9.04433 1.73854 11.2658 2.87203 11.7366 4.80487C12.0979 6.28809 14.3546 5.65984 13.9925 4.17339Z" fill="white"/>
<path d="M9.02879 16.9445C8.94247 17.8559 8.85616 18.7674 8.76984 19.6789C8.74278 19.9647 8.91983 20.3232 9.11244 20.5188C9.31532 20.7248 9.64819 20.8799 9.93956 20.8666C10.2421 20.8529 10.5558 20.752 10.7667 20.5188C10.9877 20.2743 11.078 20.0088 11.1093 19.6789C11.1956 18.7674 11.2819 17.8559 11.3682 16.9445C11.3953 16.6587 11.2183 16.3002 11.0256 16.1046C10.8228 15.8986 10.4899 15.7435 10.1985 15.7567C9.89599 15.7705 9.58224 15.8714 9.37139 16.1046C9.15034 16.3491 9.06003 16.6146 9.02879 16.9445Z" fill="white"/>
<path d="M10.1499 17.4734C10.0636 18.3848 9.97725 19.2963 9.89093 20.2078C9.86387 20.4936 10.0409 20.8521 10.2335 21.0477C10.4364 21.2537 10.7693 21.4088 11.0607 21.3955C11.3632 21.3818 11.6769 21.2809 11.8878 21.0477C12.1088 20.8032 12.1991 20.5377 12.2304 20.2078C12.3167 19.2963 12.403 18.3848 12.4893 17.4734C12.5164 17.1876 12.3393 16.8291 12.1467 16.6335C11.9438 16.4275 11.611 16.2724 11.3196 16.2856C11.0171 16.2994 10.7033 16.4003 10.4925 16.6335C10.2714 16.878 10.1811 17.1435 10.1499 17.4734Z" fill="white"/>
<path d="M1.1295 21.3863L12.7991 21.6178C14.3051 21.6477 14.305 19.2722 12.7991 19.2424L1.1295 19.0109C-0.376522 18.981 -0.376475 21.3565 1.1295 21.3863Z" fill="white"/>
<path d="M7.79448 5.75874C9.2998 5.75874 9.3023 3.38327 7.79448 3.38327C6.28916 3.38327 6.28666 5.75874 7.79448 5.75874Z" fill="white"/>
</g>
<defs>
<clipPath id="clip0_860_5058">
<rect width="25" height="27" fill="white"/>
</clipPath>
</defs>
</svg>
