<svg width="20" height="17" viewBox="0 0 20 17" fill="none" xmlns="http://www.w3.org/2000/svg">
<path d="M4.14035 4.14587C7.19288 8.10963 10.9157 11.5098 15.0838 14.26C15.9377 14.8234 17.2762 14.459 17.7503 13.5577C18.2654 12.5785 17.9625 11.4807 17.0511 10.8794C16.5418 10.5433 16.0383 10.1985 15.5429 9.84197C15.32 9.68153 15.0987 9.51887 14.8789 9.35418C14.7568 9.26268 14.6353 9.17039 14.514 9.07782C14.7313 9.24362 14.4965 9.06447 14.4027 8.99032C13.4686 8.2525 12.5649 7.47598 11.6946 6.66335C9.95298 5.03719 8.35129 3.26637 6.89661 1.37744C6.26972 0.563407 4.7907 0.665851 4.14036 1.37744C3.35149 2.24058 3.47145 3.2773 4.14035 4.14587Z" fill="#F2F2F7"/>
<path d="M15.8273 0.55799C10.7397 4.92985 5.65212 9.30172 0.564525 13.6736C-0.235753 14.3613 -0.139045 15.7353 0.564525 16.442C1.35767 17.2387 2.51852 17.1314 3.32078 16.442C8.40838 12.0701 13.496 7.69828 18.5836 3.32642C19.3839 2.63872 19.2871 1.26467 18.5836 0.55799C17.7904 -0.238657 16.6296 -0.131406 15.8273 0.55799Z" fill="#F2F2F7"/>
</svg>
