<svg width="112" height="77" viewBox="0 0 112 77" fill="none" xmlns="http://www.w3.org/2000/svg">
<path fill-rule="evenodd" clip-rule="evenodd" d="M112 35C112 54.33 96.552 70 77.5 70C58.448 70 43 54.33 43 35C43 15.67 58.448 0 77.5 0C96.552 0 112 15.67 112 35Z" fill="#EB004B"/>
<path fill-rule="evenodd" clip-rule="evenodd" d="M2.44402 75.2048H75.5526L38.9983 11.6929L2.44402 75.2048ZM77.1052 77H0.891478C0.573809 77 0.27852 76.829 0.117448 76.5512C-0.0391493 76.2734 -0.0391493 75.9314 0.117448 75.6536L38.2243 9.44881C38.3853 9.171 38.6806 9 38.9983 9C39.316 9 39.6157 9.171 39.7723 9.44881L77.8792 75.6536C78.0403 75.9314 78.0403 76.2734 77.8792 76.5512C77.7181 76.829 77.4228 77 77.1052 77Z" fill="#141414"/>
</svg>
