<svg width="22" height="22" viewBox="0 0 22 22" fill="none" xmlns="http://www.w3.org/2000/svg">
<path fill-rule="evenodd" clip-rule="evenodd" d="M1.12409 6.64861C0.583252 7.63667 0.583252 8.82855 0.583252 11.2123V12.7968C0.583252 16.8601 0.583252 18.8919 1.80364 20.1542C3.02403 21.4166 4.98821 21.4166 8.91658 21.4166H13.0833C17.0116 21.4166 18.9759 21.4166 20.1962 20.1542C21.4166 18.8919 21.4166 16.8601 21.4166 12.7968V11.2123C21.4166 8.82855 21.4166 7.63667 20.8758 6.64861C20.3349 5.66055 19.3469 5.04732 17.3708 3.82088L15.2874 2.52791C13.1985 1.23147 12.154 0.583252 10.9999 0.583252C9.84586 0.583252 8.80137 1.23147 6.71245 2.52791L4.62912 3.82089C2.65299 5.04732 1.66492 5.66055 1.12409 6.64861ZM7.87492 16.4687C7.44345 16.4687 7.09367 16.8185 7.09367 17.2499C7.09367 17.6814 7.44345 18.0312 7.87492 18.0312H14.1249C14.5564 18.0312 14.9062 17.6814 14.9062 17.2499C14.9062 16.8185 14.5564 16.4687 14.1249 16.4687H7.87492Z" fill="black"/>
</svg>
