<svg width="25" height="26" viewBox="0 0 25 26" fill="none" xmlns="http://www.w3.org/2000/svg">
<g clip-path="url(#clip0_860_5065)">
<path d="M11.1573 21.3345C8.53416 22.8133 5.71628 23.7877 2.69305 23.6371L3.48802 25.6067C5.25632 23.9772 6.52789 22.0946 7.34312 19.8021C7.56239 19.1855 7.09158 18.5789 6.5579 18.3829C3.52775 17.2698 1.76434 13.5542 2.32234 10.3801C2.96839 6.70515 5.90102 3.80187 9.32834 2.76395C13.1864 1.59557 17.4461 2.61471 20.1983 5.67298C22.7106 8.46469 23.4948 12.5305 22.0206 16.0486C21.1864 18.0393 19.7049 19.625 17.8082 20.569C15.9616 21.488 14.0091 21.5556 12.0236 21.2182C11.4252 21.1166 10.8133 21.379 10.6406 22.024C10.4928 22.5761 10.8234 23.3409 11.4258 23.4433C12.4705 23.6208 13.4911 23.7942 14.5553 23.7334C15.7423 23.6656 16.9227 23.4193 18.0288 22.97C20.2122 22.0829 22.0505 20.5515 23.2955 18.5005C25.7291 14.4918 25.5341 9.22527 22.856 5.39729C19.9586 1.25589 15.0896 -0.634665 10.218 0.18919C5.80065 0.936219 1.7881 4.19971 0.427338 8.63255C-1.02601 13.367 1.32838 18.9065 5.96016 20.6079L5.17494 19.1887C4.49321 21.1058 3.36952 22.6191 1.89808 23.975C1.13263 24.6804 1.77623 25.8989 2.69305 25.9446C6.10085 26.1143 9.33729 24.9927 12.2921 23.327C13.5607 22.6118 12.4275 20.6184 11.1573 21.3345Z" fill="white"/>
<path d="M7.85139 10.2853L8.32553 8.98328L6.44648 9.49239C7.42144 10.5469 8.52598 11.6731 9.95619 12.0122C11.333 12.3387 12.8646 11.9902 13.738 10.7901C13.8035 10.7002 14.1165 10.2281 14.1194 10.2307L13.6401 10.3532C13.4895 10.2506 13.488 10.2653 13.6358 10.3974C13.6806 10.4808 13.7602 10.5854 13.8146 10.6632C14.2866 11.3385 14.8972 11.8342 15.745 11.8353C17.4333 11.8376 18.2459 10.2808 18.6674 8.8373C19.0837 7.41179 16.9143 6.80267 16.4992 8.22388C16.3869 8.60865 16.2745 9.24074 15.9133 9.47529C15.7063 9.60966 15.7308 9.45236 15.5856 9.24371C15.2063 8.69875 14.7581 8.2433 14.0969 8.10433C13.3504 7.94745 12.6997 8.33191 12.2652 8.93037C12.025 9.26127 11.9047 9.58002 11.535 9.73471C11.2856 9.83901 10.9153 9.85491 10.6259 9.80239C9.55518 9.60809 8.7448 8.62698 8.0364 7.86076C7.4106 7.18386 6.43958 7.59485 6.15735 8.36986L5.6832 9.67186C5.47061 10.2556 5.92005 10.9365 6.46843 11.0911C7.09825 11.2687 7.63802 10.8712 7.85139 10.2853Z" fill="white"/>
<path d="M9.85171 14.1083C10.0563 14.411 9.9248 14.9373 9.62289 15.1164C9.43456 15.2281 9.19597 15.2267 9.00437 15.1258C9.2076 15.2328 8.90401 14.9812 9.05731 15.1674C9.09991 15.2123 9.14061 15.259 9.17942 15.3074C9.10731 15.209 9.09441 15.1912 9.1407 15.2539C9.24644 15.2969 9.35583 15.5463 9.44539 15.6554C9.49905 15.7209 9.55491 15.7839 9.61553 15.8427C9.8463 16.0665 10.1414 16.2679 10.4505 16.3538C11.3258 16.5974 12.0517 16.1513 12.6571 15.5462C12.7544 15.4489 12.8497 15.3494 12.9504 15.2558C12.973 15.2345 12.9958 15.2137 13.019 15.1932C13.1089 15.1167 13.0795 15.1387 12.931 15.2592C12.9271 15.2524 13.0683 15.1694 13.0745 15.164C13.2233 15.0342 12.8305 15.243 13.0057 15.1936C13.1208 15.1667 13.0738 15.1715 12.8647 15.2079C12.9819 15.2097 12.9377 15.2001 12.7319 15.1792L12.8067 15.1987C12.7125 15.1762 12.6337 15.1275 12.5704 15.0525C12.5998 15.0777 12.6274 15.1048 12.653 15.1339C12.7082 15.1959 12.6911 15.1699 12.6015 15.056C12.7181 15.1309 12.8182 15.4377 12.879 15.5597C12.9534 15.7089 13.0357 15.8495 13.1321 15.985C13.5324 16.547 14.0446 16.9034 14.7408 16.9336C15.3291 16.959 15.8914 16.3847 15.865 15.7798C15.8368 15.1329 15.3711 14.6534 14.7408 14.6261C14.842 14.6283 14.9347 14.6583 15.0187 14.7161C14.9164 14.6529 14.9301 14.6694 15.0596 14.7656C15.0203 14.7297 14.9835 14.6914 14.9491 14.6506C15.0398 14.7771 15.0498 14.7882 14.9792 14.684C14.8746 14.4915 14.7785 14.2934 14.6721 14.102C14.3728 13.5632 13.9303 13.1106 13.3296 12.9541C12.3451 12.6976 11.6318 13.3689 10.9769 14.004C10.9205 14.0587 10.8421 14.1102 10.794 14.1717C10.9447 14.0559 10.9737 14.0321 10.8807 14.1004C10.8495 14.1223 10.8174 14.1427 10.7845 14.1618C10.6439 14.2825 11.0384 14.0817 10.8531 14.1329C10.738 14.1602 10.785 14.1557 10.994 14.1194C10.8767 14.1181 10.9209 14.128 11.1266 14.1491C11.0064 14.1142 11.0214 14.1243 11.1714 14.1793C11.0695 14.1111 11.0808 14.1217 11.2055 14.211C11.16 14.212 11.0054 13.997 10.9826 13.957C11.0755 14.08 11.0821 14.0884 11.0023 13.9822L10.8266 13.7487C10.7504 13.6507 10.6715 13.5568 10.5819 13.4712C10.0081 12.9229 9.19616 12.7162 8.48802 13.1239C7.78489 13.5287 7.42709 14.5583 7.91019 15.2729C8.24471 15.7678 8.91071 16.0426 9.44838 15.6868C9.92771 15.3697 10.2102 14.6386 9.85171 14.1083Z" fill="white"/>
</g>
<defs>
<clipPath id="clip0_860_5065">
<rect width="25" height="25.9615" fill="white"/>
</clipPath>
</defs>
</svg>
