<svg width="22" height="22" viewBox="0 0 22 22" fill="none" xmlns="http://www.w3.org/2000/svg">
    <path d="M21.4165 3.70825C21.4165 5.43414 20.0174 6.83325 18.2915 6.83325C16.5656 6.83325 15.1665 5.43414 15.1665 3.70825C15.1665 1.98237 16.5656 0.583252 18.2915 0.583252C20.0174 0.583252 21.4165 1.98237 21.4165 3.70825Z" fill="red"/>
    <path fill-rule="evenodd" clip-rule="evenodd" d="M5.01025 13.0833C5.01025 12.6518 5.36004 12.302 5.7915 12.302H15.1665C15.598 12.302 15.9478 12.6518 15.9478 13.0833C15.9478 13.5147 15.598 13.8645 15.1665 13.8645H5.7915C5.36004 13.8645 5.01025 13.5147 5.01025 13.0833Z" fill="black"/>
    <path fill-rule="evenodd" clip-rule="evenodd" d="M2.10874 19.8911C3.63422 21.4166 6.08945 21.4166 10.9999 21.4166C15.9103 21.4166 18.3656 21.4166 19.8911 19.8911C21.4166 18.3656 21.4166 15.9103 21.4166 10.9999C21.4166 9.54284 21.4166 8.30199 21.3767 7.23744C20.5523 7.95869 19.473 8.39575 18.2916 8.39575C15.7027 8.39575 13.6041 6.29709 13.6041 3.70825C13.6041 2.52684 14.0412 1.44749 14.7624 0.623106C13.6978 0.583252 12.457 0.583252 10.9999 0.583252C6.08945 0.583252 3.63422 0.583252 2.10874 2.10874C0.583252 3.63422 0.583252 6.08945 0.583252 10.9999C0.583252 15.9103 0.583252 18.3656 2.10874 19.8911ZM5.01033 16.7291C5.01033 16.2976 5.36012 15.9478 5.79158 15.9478H12.0416C12.473 15.9478 12.8228 16.2976 12.8228 16.7291C12.8228 17.1605 12.473 17.5103 12.0416 17.5103H5.79158C5.36012 17.5103 5.01033 17.1605 5.01033 16.7291Z" fill="black"/>
</svg>