<svg width="59" height="35" viewBox="0 0 59 35" fill="none" xmlns="http://www.w3.org/2000/svg">
<path fill-rule="evenodd" clip-rule="evenodd" d="M22.5161 18.7414C22.5161 11.4316 29.4851 5.54059 38.0465 5.54059C46.6079 5.54059 53.5769 11.4316 53.5769 18.7414C53.5769 23.1713 50.9925 27.2157 46.7876 29.6523L46.7744 29.6597L46.7786 29.8215C46.8459 32.1225 47.2741 33.6826 48.0384 34.0633L48.0924 34.0891C48.5066 34.3047 48.3824 34.9416 47.9047 34.9749C45.8973 35.1144 44.2672 34.6673 42.9911 33.7637C42.1706 33.1825 41.5599 32.4633 41.1269 31.6951L41.1182 31.6799L41.0655 31.6893C40.1373 31.8454 39.1968 31.9303 38.2495 31.9408L38.0465 31.942C29.4851 31.942 22.5161 26.0512 22.5161 18.7414ZM52.6355 18.7414C52.6355 11.9899 46.1198 6.48202 38.0465 6.48202C29.9732 6.48202 23.4575 11.9899 23.4575 18.7414C23.4575 25.4929 29.9732 31.0006 38.0465 31.0006C39.1381 31.0006 40.2211 30.8964 41.2863 30.6932C41.4945 30.6535 41.7037 30.7579 41.797 30.9482C42.1703 31.7084 42.7375 32.4305 43.5352 32.9954C44.3839 33.5965 45.4226 33.9647 46.6793 34.0429L46.7116 34.0447L46.6762 33.9862C46.1028 33.0208 45.8556 31.4753 45.83 29.4862L45.8289 29.3923C45.8273 29.2197 45.9202 29.06 46.0711 28.9764C50.1435 26.716 52.6355 22.9016 52.6355 18.7414Z" fill="#141414"/>
<path fill-rule="evenodd" clip-rule="evenodd" d="M33.3713 19.0728C33.3713 19.9637 32.6493 20.6858 31.7585 20.6858C30.8676 20.6858 30.1455 19.9637 30.1455 19.0728C30.1455 18.182 30.8676 17.46 31.7585 17.46C32.6493 17.46 33.3713 18.182 33.3713 19.0728Z" fill="#141414"/>
<path fill-rule="evenodd" clip-rule="evenodd" d="M39.7009 19.0728C39.7009 19.9637 38.9788 20.6858 38.0879 20.6858C37.1972 20.6858 36.4751 19.9637 36.4751 19.0728C36.4751 18.182 37.1972 17.46 38.0879 17.46C38.9788 17.46 39.7009 18.182 39.7009 19.0728Z" fill="#141414"/>
<path fill-rule="evenodd" clip-rule="evenodd" d="M46.03 19.0728C46.03 19.9637 45.3079 20.6858 44.417 20.6858C43.5263 20.6858 42.8042 19.9637 42.8042 19.0728C42.8042 18.182 43.5263 17.46 44.417 17.46C45.3079 17.46 46.03 18.182 46.03 19.0728Z" fill="#141414"/>
<path fill-rule="evenodd" clip-rule="evenodd" d="M0 13.9123C0 6.88167 6.74225 1.18222 15.0597 1.18222C23.3769 1.18222 30.1193 6.88167 30.1193 13.9123C30.1193 20.9429 23.3769 26.6421 15.0597 26.6421C13.9155 26.6421 12.8027 26.5308 11.7317 26.3266C11.1562 27.4986 9.43648 29.968 5.23422 29.6762C6.46295 29.1171 6.78618 26.7541 6.80658 24.5587C2.70835 22.2837 0 18.3664 0 13.9123Z" fill="#EB004B"/>
<path fill-rule="evenodd" clip-rule="evenodd" d="M10.2068 14.5028C10.2068 15.3937 9.4847 16.1158 8.59395 16.1158C7.70304 16.1158 6.98096 15.3937 6.98096 14.5028C6.98096 13.612 7.70304 12.8899 8.59395 12.8899C9.4847 12.8899 10.2068 13.612 10.2068 14.5028Z" fill="white"/>
<path fill-rule="evenodd" clip-rule="evenodd" d="M16.5359 14.5028C16.5359 15.3937 15.8138 16.1158 14.9231 16.1158C14.0321 16.1158 13.3101 15.3937 13.3101 14.5028C13.3101 13.612 14.0321 12.8899 14.9231 12.8899C15.8138 12.8899 16.5359 13.612 16.5359 14.5028Z" fill="white"/>
<path fill-rule="evenodd" clip-rule="evenodd" d="M22.8655 14.5028C22.8655 15.3937 22.1434 16.1158 21.2525 16.1158C20.3617 16.1158 19.6396 15.3937 19.6396 14.5028C19.6396 13.612 20.3617 12.8899 21.2525 12.8899C22.1434 12.8899 22.8655 13.612 22.8655 14.5028Z" fill="white"/>
<path d="M50.8203 0.30528C50.9118 0.061919 51.1832 -0.0612531 51.4266 0.0302231C51.6613 0.118404 51.7842 0.373848 51.7106 0.610305L51.7016 0.636507L50.161 4.73662C50.0695 4.97998 49.7981 5.10315 49.5547 5.01167C49.3201 4.92349 49.1973 4.66805 49.2707 4.43159L49.2796 4.40554L50.8203 0.30528Z" fill="#141414"/>
<path d="M55.7581 3.94706C55.9591 3.78216 56.2558 3.8115 56.4206 4.0125C56.5792 4.20565 56.5582 4.48745 56.3776 4.65534L56.3552 4.67495L53.051 7.38503C52.85 7.54994 52.5533 7.5206 52.3886 7.3196C52.23 7.12629 52.251 6.84465 52.4316 6.67676L52.454 6.65714L55.7581 3.94706Z" fill="#141414"/>
<path d="M58.2562 9.46245C58.5136 9.42573 58.752 9.60461 58.7888 9.86193C58.8242 10.11 58.6592 10.3407 58.4166 10.3898L58.3893 10.3945L54.5925 10.9364C54.3351 10.9731 54.0966 10.7943 54.0599 10.5369C54.0246 10.2889 54.1895 10.0582 54.4321 10.0091L54.4594 10.0044L58.2562 9.46245Z" fill="#141414"/>
</svg>
