<svg width="25" height="24" viewBox="0 0 25 24" fill="none" xmlns="http://www.w3.org/2000/svg">
<g clip-path="url(#clip0_860_5069)">
<path d="M7.4653 0.805768C2.99844 2.54442 -0.141012 6.92624 0.00488065 11.7556C0.0799182 14.2395 0.948753 16.6614 2.48493 18.619C4.03378 20.5927 6.27083 22.005 8.6854 22.6818C13.6083 24.0616 19.0871 22.3141 22.239 18.3041C25.1655 14.5809 25.9705 9.37501 23.6557 5.13731C22.36 2.76523 20.1241 1.13551 17.511 0.465426C14.7812 -0.234614 11.9167 -0.00911464 9.14553 0.266292C8.60578 0.319934 8.14112 0.687386 8.14112 1.26604C8.14112 1.76507 8.60245 2.31976 9.14553 2.26579C13.1798 1.86485 18.1008 1.42922 21.0299 4.82722C23.5833 7.78936 23.5076 12.2855 21.6726 15.5686C19.5539 19.3591 15.3975 21.4935 11.0653 21.1033C8.93332 20.9113 6.81079 20.0208 5.2115 18.6001C3.6469 17.2102 2.61562 15.3685 2.19475 13.3269C1.29334 8.95413 3.81703 4.36173 7.99932 2.73384C8.50421 2.53732 8.85528 2.06342 8.70084 1.50403C8.5685 1.02471 7.97332 0.60803 7.4653 0.805768Z" fill="white"/>
<path d="M11.414 6.98972L10.7699 11.7859C10.7 12.3064 11.2818 12.8076 11.7743 12.7856C12.3782 12.7587 12.7038 12.3436 12.7787 11.7859L13.4229 6.98972C13.4928 6.46916 12.911 5.96801 12.4184 5.98997C11.8145 6.01689 11.489 6.43193 11.414 6.98972Z" fill="white"/>
<path d="M11.1957 12.6662C12.824 14.4648 14.4523 16.2634 16.0805 18.0619C16.4333 18.4516 17.1471 18.4457 17.501 18.0619C17.8848 17.6458 17.8773 17.0637 17.501 16.6481C15.8727 14.8495 14.2444 13.0509 12.6161 11.2524C12.2634 10.8628 11.5496 10.8686 11.1957 11.2524C10.8119 11.6686 10.8194 12.2506 11.1957 12.6662Z" fill="white"/>
</g>
<defs>
<clipPath id="clip0_860_5069">
<rect width="25" height="23.1481" fill="white"/>
</clipPath>
</defs>
</svg>
